<?xml version="1.0" encoding="UTF-8"?>
<svg width="90px" height="90px" viewBox="0 0 90 90" version="1.1" xmlns="http://www.w3.org/2000/svg" xmlns:xlink="http://www.w3.org/1999/xlink">
    <!-- Generator: Sketch 51 (57462) - http://www.bohemiancoding.com/sketch -->
    <title>add_template</title>
    <desc>Created with Sketch.</desc>
    <defs></defs>
    <g id="add_template" stroke="none" stroke-width="1" fill="none" fill-rule="evenodd">
        <g id="Group" transform="translate(7.000000, 0.000000)" fill-rule="nonzero">
            <path d="M68,15 L68,9 L64,9 L64,15 L58,15 L58,19 L64,19 L64,25 L68,25 L68,19 L74,19 L74,15 L68,15 Z M66,34 C56.6111593,34 49,26.3888407 49,17 C49,7.61115925 56.6111593,0 66,0 C75.3888407,0 83,7.61115925 83,17 C83,26.3888407 75.3888407,34 66,34 Z" id="Combined-Shape" fill="#00D66C"></path>
            <path d="M2,35 L2,82 L38,82 L38,35 L2,35 Z M1,33 L39,33 C39.5522847,33 40,33.4477153 40,34 L40,83 C40,83.5522847 39.5522847,84 39,84 L1,84 C0.44771525,84 6.76353751e-17,83.5522847 0,83 L0,34 C-6.76353751e-17,33.4477153 0.44771525,33 1,33 Z" id="Rectangle-9-Copy" fill="#1099A3"></path>
            <rect id="Rectangle-9-Copy-2" fill="#9FD6DA" x="7" y="40" width="12" height="2"></rect>
            <rect id="Rectangle-9-Copy-9" fill="#9FD6DA" x="21" y="40" width="12" height="2"></rect>
            <rect id="Rectangle-9-Copy-4" fill="#9FD6DA" x="7" y="50" width="12" height="2"></rect>
            <rect id="Rectangle-9-Copy-10" fill="#9FD6DA" x="21" y="50" width="12" height="2"></rect>
            <rect id="Rectangle-9-Copy-6" fill="#9FD6DA" x="7" y="55" width="12" height="12"></rect>
            <rect id="Rectangle-9-Copy-7" fill="#9FD6DA" x="21" y="55" width="12" height="2"></rect>
            <rect id="Rectangle-9-Copy-8" fill="#9FD6DA" x="21" y="60" width="12" height="2"></rect>
            <rect id="Rectangle-9-Copy-12" fill="#9FD6DA" x="21" y="65" width="12" height="2"></rect>
            <rect id="Rectangle-9-Copy-3" fill="#9FD6DA" x="7" y="45" width="26" height="2"></rect>
            <rect id="Rectangle-9-Copy-5" fill="#9FD6DA" x="7" y="70" width="26" height="2"></rect>
            <rect id="Rectangle-9-Copy-11" fill="#9FD6DA" x="7" y="75" width="26" height="2"></rect>
        </g>
    </g>
</svg>
