<svg width="360" height="354" viewBox="0 0 360 354" fill="none" xmlns="http://www.w3.org/2000/svg">
<path fill-rule="evenodd" clip-rule="evenodd" d="M220.238 0.143434C175.895 -2.39068 138.393 29.0409 110.979 63.7363C83.8889 98.022 65.0893 140.711 75.7773 182.975C86.2436 224.362 123.111 252.276 162.8 268.654C199.55 283.818 239.934 281.875 276.242 265.695C313.993 248.871 350.151 221.803 358.308 181.527C366.289 142.125 339.194 107.447 314.787 75.3835C289.166 41.7249 262.663 2.56793 220.238 0.143434Z" fill="white"/>
<path d="M82.168 100.092L1 128.786L82.168 157.481L163.337 128.786L82.168 100.092Z" fill="#33373E"/>
<path d="M1 128.786L82.168 157.481L163.337 128.786" stroke="#33373E" stroke-width="1.5"/>
<path d="M82.168 64.5458L1 93.2409L82.168 121.936L163.337 93.2409L82.168 64.5458Z" fill="#EDEEEF"/>
<path d="M1 93.2408L82.168 121.935L163.337 93.2408" stroke="#33373E" stroke-width="1.5"/>
<path d="M82.168 29L1 57.6951L82.168 86.3902L163.337 57.6951L82.168 29Z" fill="#00BC87"/>
<path d="M1 57.6947L82.168 86.3898L163.337 57.6947" stroke="#33373E" stroke-width="1.5"/>
<path d="M39.085 319.335L50.5973 329.332L81.2971 290.076L95.1123 301.638L168.024 205.765L232.494 319.335L250.146 299.829L282.382 352.756H12.2227L39.085 319.335Z" fill="#F4F4F4"/>
<path d="M292.064 352.756H2.54004" stroke="#33373E" stroke-width="1.5"/>
<path d="M216.348 153.145C216.348 153.145 163.928 242.982 146.386 331.859L139.921 335.662L170.837 345.906C170.837 345.906 239.323 242.607 243.416 229.494C247.509 216.38 240.493 153.145 240.493 153.145" fill="#00BC87"/>
<path d="M229.923 193.78C229.923 193.78 221.51 236.909 223.815 263.839C232.64 249.644 239.807 237.589 242.479 231.802L229.923 193.78Z" fill="#33373E"/>
<path d="M231.513 56.3227V73.0153L252.191 78.0978V49.928L231.513 44.8455V56.3227Z" fill="#EDEEEF"/>
<path d="M243.195 62.0981C243.501 62.0981 243.748 61.8506 243.748 61.5452C243.748 61.2399 243.501 60.9923 243.195 60.9923C242.89 60.9923 242.643 61.2399 242.643 61.5452C242.643 61.8506 242.89 62.0981 243.195 62.0981Z" fill="#33373E"/>
<path d="M234.703 62.0981C235.009 62.0981 235.256 61.8506 235.256 61.5452C235.256 61.2399 235.009 60.9923 234.703 60.9923C234.398 60.9923 234.15 61.2399 234.15 61.5452C234.15 61.8506 234.398 62.0981 234.703 62.0981Z" fill="#33373E"/>
<path d="M237.194 64.8436V56.3228H232.926" stroke="#33373E" stroke-width="1.5"/>
<path d="M244.237 56.3226H239.969" stroke="#33373E" stroke-width="1.5"/>
<path d="M250.831 60.6888V63.6477C251.598 63.6477 252.333 63.3432 252.875 62.8012C253.417 62.2593 253.721 61.5242 253.721 60.7577C253.721 60.669 253.717 60.5813 253.709 60.4946C253.547 58.7 250.831 58.8868 250.831 60.6888Z" fill="#EDEEEF"/>
<path d="M250.831 63.6473C251.598 63.6473 252.333 63.3428 252.875 62.8008C253.417 62.2588 253.721 61.5238 253.721 60.7573" stroke="#33373E" stroke-width="1.5"/>
<path d="M248.332 77.1489L252.193 78.0978" stroke="#33373E" stroke-width="1.5"/>
<path d="M237.194 64.85L239.061 65.3088" stroke="#33373E" stroke-width="1.5" stroke-linecap="round"/>
<path d="M231.514 60.9923C231.514 60.9923 227.363 73.1636 232.925 77.1489C238.488 81.1343 255.029 78.8123 250.542 62.4778" stroke="#33373E" stroke-width="1.5"/>
<path d="M233.971 65.0687C233.815 65.3175 233.801 65.6301 233.935 65.8917C234.069 66.1533 234.33 66.3252 234.623 66.3442C235.819 66.6112 237.627 64.2575 239.191 65.5388C239.191 65.5388 239.541 63.7303 243.436 64.8121C247.331 65.8938 245.994 63.3225 245.994 63.3225" stroke="#33373E" stroke-width="1.5"/>
<path d="M238.726 67.1641C240.193 67.8392 241.93 67.1967 242.605 65.7291" stroke="#00BC87" stroke-width="1.5" stroke-linecap="round" stroke-linejoin="round"/>
<path d="M230.025 50.4413C230.025 50.4413 231.428 56.4716 244.237 52.8889C244.237 52.8889 245.011 56.1733 247.216 56.3224C249.421 56.4716 249.329 58.6764 249.329 58.6764" stroke="#33373E" stroke-width="1.5"/>
<path d="M231.514 56.323C231.514 56.323 218.144 44.7892 233.848 44.2045C249.551 43.6197 258.054 48.4892 252.276 59.2438" stroke="#33373E" stroke-width="1.5"/>
<path d="M216.348 107.989V153.145L280.316 168.867V118.576C280.316 100.744 268.142 85.2154 250.825 80.9592H250.825C242.521 78.9181 233.739 80.8078 227.009 86.084C220.279 91.3602 216.348 99.4373 216.348 107.989L216.348 107.989Z" fill="#EDEEEF"/>
<path d="M280.316 168.868L230.025 156.507C230.025 156.507 226.641 278.76 246.497 345.155L243.195 351.782H276.16C276.16 351.782 282.718 195.615 280.316 168.868Z" fill="#00BC87"/>
<path d="M230.025 156.507C230.025 156.507 226.641 278.761 246.497 345.155" stroke="#33373E" stroke-width="1.5"/>
<path d="M260.259 84.6396C260.259 84.6396 298.735 107.357 297.565 145.171C296.396 182.985 269.107 198.188 269.107 198.188" stroke="#33373E" stroke-width="1.5"/>
<path d="M258.973 177.332C258.973 177.332 264.625 197.993 274.176 202.282" stroke="#33373E" stroke-width="1.5"/>
<path d="M253.72 122.82L274.175 147.77L259.484 179.041" stroke="#33373E" stroke-width="1.5"/>
<path d="M260.78 176.284L274.175 147.77L258.489 128.638C258.489 128.638 268.046 157.238 260.78 176.284Z" fill="#33373E"/>
<path d="M223.416 89.4533L196.002 111.165C196.002 111.165 164.403 70.9007 157.421 68.7643C150.44 66.628 141.94 71.1033 141.94 71.1033V73.7475L150.024 75.2173C150.024 75.2173 148.833 84.6262 153.978 89.0356C153.978 89.0356 169.926 147.327 193.871 147.511C210.244 147.636 216.348 143.092 216.348 143.092" stroke="#33373E" stroke-width="1.5"/>
<path d="M171.035 352.756H343.322" stroke="#33373E" stroke-width="1.5"/>
<path d="M322.947 351.4C322.947 351.4 325.916 346.148 318.38 345.006C313.902 344.314 309.32 344.867 305.135 346.605C305.135 346.605 310.388 340.211 302.167 337.47C293.946 334.73 285.497 341.124 285.497 341.124C285.497 341.124 293.718 325.824 287.324 324.682C280.93 323.54 277.504 330.163 277.504 330.163C277.504 330.163 278.189 311.209 264.945 310.752C251.7 310.296 253.07 334.958 253.07 334.958C253.07 334.958 247.361 323.997 237.77 323.54C228.179 323.084 232.974 341.901 232.974 341.901C232.974 341.901 231.148 337.47 224.754 337.014C218.36 336.557 218.816 341.916 218.816 341.916C218.816 341.916 210.595 330.391 201.461 331.076C192.327 331.761 196.209 343.179 196.209 343.179C186.846 342.494 184.791 352.756 184.791 352.756H329.57L322.947 351.4Z" fill="#33373E"/>
</svg>
