<?xml version="1.0" encoding="UTF-8"?>
<svg width="296px" height="267px" viewBox="0 0 296 267" version="1.1" xmlns="http://www.w3.org/2000/svg" xmlns:xlink="http://www.w3.org/1999/xlink">
    <!-- Generator: Sketch 60 (88103) - https://sketch.com -->
    <title>notify</title>
    <desc>Created with Sketch.</desc>
    <g id="🎨-Style-Guide" stroke="none" stroke-width="1" fill="none" fill-rule="evenodd">
        <g id="Notifications" transform="translate(-1070.000000, -3650.000000)">
            <g id="Group-17-Copy" transform="translate(0.000000, 3149.000000)">
                <g id="Group-4" transform="translate(966.000000, 48.000000)">
                    <g id="notify" transform="translate(104.000000, 452.000000)">
                        <path d="M295,6.29 C289.92,7.13 285.38,9.59 281.38,12.74 C278.12,15.3 275.14,18.17 271.85,20.7 C268.01,23.66 264.01,26.5 260.09,29.36 C256.74,31.81 253.36,34.23 249.94,36.62 C248.81,37.41 247.36,38.9 245.77,38.35 C245.13,38.12 244.64,37.6 244.2,37.14 C241.95,34.74 239.86,32.48 236.84,30.81 C234.41,29.47 231.89,28.79 229.19,28.05 C227.45,27.57 225.49,27.26 223.66,27.32 C222.83,27.35 222,27.19 221.18,27.26 C220.23,27.33 219.41,27.48 218.45,27.45 C213.72,27.27 208.91,28.78 204.46,30.02 C201.03,30.97 197.38,32.21 194.24,33.79 C192.83,34.5 191.4,35.19 189.99,35.9 C187.75,37.03 185.87,38.62 183.7,39.85 C180.06,41.91 176.54,43.87 173.33,46.47 C170.69,48.61 167.72,50.38 165.06,52.49 C163.14,54.02 161.28,55.64 159.38,57.19 C156.91,59.2 154.2,60.96 151.81,63.04 C151.03,63.72 150.43,64.37 149.79,65.13 C149.25,65.77 148.52,66.21 147.89,66.78 C146.43,68.12 145.17,69.62 143.85,71.06 C142.67,72.34 141.31,73.5 140.16,74.78 C139.82,75.16 139.39,75.5 139.07,75.86 C138.81,76.16 138.63,76.53 138.36,76.84 C137.1,78.34 135.97,79.84 134.73,81.36 C134.15,82.07 133.46,82.78 132.93,83.52 C132.51,84.1 132.1,84.99 131.52,85.44 C132.36,85.06 133.18,84.29 133.83,83.69 C134.82,82.78 135.93,82.12 137.04,81.35 C137.92,80.74 138.82,80.21 139.64,79.55 C140.33,79 141.21,78.47 142.02,78.08 C143.25,77.5 144.24,76.6 145.38,75.94 C145.84,75.68 146.35,75.44 146.81,75.2 C147.55,74.81 148.3,74.44 149.03,74.05 C149.67,73.71 150.34,73.52 150.98,73.18 C152.45,72.4 153.91,71.63 155.42,70.92 C158.38,69.52 161.46,68.32 164.66,67.43 C168.92,66.24 172.88,64.29 177.04,62.84 C182.35,60.99 187.73,59.33 193.03,57.45 C198.91,55.36 204.76,54 211.05,53.42 C216.74,52.89 222.92,54.25 227.58,57.31 C229.7,58.7 231.8,60.56 233.65,62.24 C235.76,64.15 237.42,66.45 238.56,68.94 C240.7,73.63 241.22,78.83 240.51,83.83 C240.21,85.92 240.08,87.77 238.21,89.1900941 C238.8,89.2 239.74,88.41 240.28,88.06 C242.39,86.69 244.26,85.06 246.41,83.73 C251.65,80.5 257.23,77.65 262.64,74.67 C265.96,72.84 269.33,71.09 272.6,69.19 C277.01,66.63 281.28,63.9 285.73,61.4 C288.78,59.68 291.95,57.99 295,56.29 L295,6.29 L295,6.29 Z" id="Path" fill="#BCCBD3"></path>
                        <path d="M295,44.96 C292.89,44.57 290.58,43.18 289.02,42.49 C284.51,40.51 279.21,40.52 274.65,42.3 C266.87,45.34 262.44,51.14 257.08,56.68 C254.81,59.02 252.46,61.24 250.46,63.78 C249.26,65.3 247.54,66.81 246.52,68.43 C246.17,68.98 245.63,69.89 245.58,70.6 C245.5,66.53 243.43,62.74 243.04,58.74 C242.92,57.51 243.14,56.26 242.88,55.04 C242.72,54.26 242.37,53.53 241.99,52.82 C241.19,51.35 240.42,49.81 239.53,48.39 C238.56,46.84 237.16,45.61 236.09,44.13 C234.24,41.59 231.53,40.24 228.52,38.5 C225.73,36.89 221.95,36.05 218.38,35.99 C215.76,35.95 213.09,36.17 210.49,36.52 C206.75,37.02 203.45,38.17 199.89,39.13 C194.6,40.55 189.57,42.7 184.58,44.78 C183.73,45.14 182.97,45.75 182.15,46.17 C180.4,47.08 178.61,47.93 176.8,48.73 C176.07,49.05 175.47,49.56 174.74,49.87 C174.26,50.08 173.91,50.23 173.52,50.56 C172.67,51.28 171.84,51.97 171.07,52.76 C170.58,53.26 170.08,53.75 169.62,54.27 C169.34,54.58 169.02,54.84 168.89,55.22 C168.78,55.52 168.77,55.88 168.7,56.19 C168.65,56.43 168.49,56.73 168.46,56.93 C168.43,57.13 168.55,57.33 168.53,57.52 C168.51,57.7 168.41,57.79 168.42,58 C168.43,58.43 168.56,58.89 168.63,59.32 C168.7,59.76 168.75,60.2 168.83,60.64 C168.89,60.96 168.92,60.94 168.72,61.16 C168.35,61.58 167.39,61.86 166.91,62.15 C165.14,63.24 163.29,64.2 161.46,65.21 C159.82,66.12 158.19,67.02 156.5,67.86 C155.17,68.52 153.82,69.11 152.55,69.87 C151.51,70.48 150.45,71.04 149.39,71.63 C148.04,72.39 146.81,73.32 145.5,74.12 C142.97,75.67 140.43,77.29 138.01,78.98 C136.09,80.32 134.21,81.61 132.53,83.17 C131.65,83.99 130.78,84.81 129.91,85.64 C128.17,87.29 126.44,88.95 124.65,90.57 C122.93,92.12 121.38,93.71 119.6,95.17 C119.31,95.41 118.94,95.69 118.7,95.98 C118.39,96.34 118.06,96.57 117.71,96.89 C117.17,97.38 116.5,97.81 116.509889,98.55 C116.509889,98.79 116.55,99.05 116.58,99.29 C116.63,99.64 116.73,99.97 116.88,100.29 C117.36,101.3 118,102.25 118.51,103.25 C118.65,103.52 118.82,103.96 119.17,104.07 C119.47,104.16 119.73,103.94 119.99,103.83 C120.46,103.63 120.9,103.4 121.33,103.12 C122.55,102.33 123.81,101.7 125.13,101.07 C125.49,100.9 125.84,100.73 126.13,100.49 C126.44,100.23 126.66,99.89 126.99,99.64 C127.47,99.29 128.1,99.18 128.62,98.89 C129.22,98.56 129.79,98.34 130.43,98.09 C131.46,97.7 132.33,97.04 133.33,96.61 C134.65,96.05 135.92,95.38 137.24,94.81 C139.24,93.94 141.2,93.05 143.26,92.3 C144.95,91.69 146.6,91.06 148.24,90.35 C149.63,89.75 150.91,88.97 152.32,88.42 C153.12,88.1 153.91,87.81 154.73,87.54 C155.48,87.29 156.15,86.94 156.89,86.64 C157.45,86.41 158.01,86.19 158.59,86 C159.33,85.76 160.12,85.45 160.88,85.28 C161.96,85.05 163,84.59 164.07,84.42 C164.49,84.35 164.91,84.33 165.33,84.24 C165.77,84.15 166.19,83.95 166.63,83.84 C167.47,83.63 168.26,83.34 169.11,83.15 C169.89,82.98 170.64,82.7 171.44,82.61 C171.6,82.59 171.78,82.64 171.94,82.62 C172.13,82.6 172.26,82.51 172.44,82.48 C172.83,82.41 173.21,82.38 173.6,82.3 C174,82.22 174.4,82.08 174.78,81.94 C175.24,81.77 175.74,81.75 176.19,81.56 C176.47,81.44 176.77,81.32 177.1,81.27 C177.27,81.24 177.43,81.28 177.6,81.25 C177.81,81.21 177.98,81.05 178.18,80.99 C178.36,80.94 178.51,80.98 178.68,80.96 C178.86,80.94 178.91,80.87 179.05,80.84 C179.38,80.76 179.69,80.75 180.01,80.66 C180.83,80.42 181.6,80.32 182.44,80.13 C183.24,79.95 184.11,80.05 184.92,79.89 C185.34,79.81 185.73,79.62 186.17,79.6 C187.65,79.53 189.18,79.79 190.62,79.37 C191.1,79.23 191.56,79.11 192.07,79.09 C193.18,79.06 194.32,79.24 195.41,79.41 C197.07,79.67 198.93,80.03 200.28,81 C200.62,81.25 200.83,81.58 201.16,81.83 C201.74,82.28 202.55,82.57 203.23,82.94 C204.63,83.7 205.46,84.8 206.49,85.8 C207.46,86.75 208.03,87.87 208.49,89.02 C209.01,90.33 209.05,91.66 209.41,92.99 C209.73,94.18 209.88,95.34 209.97,96.56 C210.05,97.52 210.4,98.43 210.54,99.39 C210.74,100.75 211.63,102.22 212.9,103.18 C213.77,103.84 214.9,104.59 216.16,104.82 C217.35,105.04 218.83,105.27 220.07,105.22 C221.09,105.18 222.12,105.05 223.14,104.97 C223.69,104.93 224.18,104.91 224.65,104.75 C225.32,104.52 226.01,104.2 226.76,104.17 C227.17,104.15 227.49,104.26 227.87,104.32 C228.8,104.48 229.75,104.25 230.73,104.13 C240.33,102.92 249.89,101.5 259.48,100.18 C266,99.29 272.5,98.29 279.06,97.63 C284.43,97.08 289.7,96.24 295,95.43 L295,44.96 L295,44.96 Z" id="Path" fill="#00BC87"></path>
                        <path d="M295,63.56 C294.96,63.58 294.71,63.72 294.66,63.75 C292.19,64.92 290.17,64.81 287.92,63.34 C285.59,61.82 285.39,60.07 284.5,57.68 C283.74,55.65 282.66,53.56 281.59,51.64 C281.26,51.04 280.92,50.64 280.35,50.21 C276.71,47.44 271.61,45.99 267.14,44.74 C263.37,43.69 258.96,43 254.9,42.73 C250.29,42.42 245.38,42.81 240.7,43.08 C230.04,43.68 219.68,45.56 209.5,48.44 C203.49,50.14 197.7,52.26 192.05,54.63 C189.02,55.9 186.13,57.35 183.21,58.76 C180.16,60.23 177.03,61.64 174.09,63.24 C163.68,68.91 153.67,75.19 144.11,81.68 C140.89,83.86 137.49,85.96 134.5,88.33 C133.44,89.17 132.6,90.22 131.54,91.05 C131.25,91.28 130.88,91.4 130.57,91.62 C130.09,91.96 129.65,92.41 129.14,92.75 C128.61,93.1 128.12,93.45 127.65,93.87 C127.33,94.17 127,94.44 126.65,94.72 C126.26,95.03 125.81,95.26 125.43,95.56 C125.12,95.81 124.88,96.08 124.52,96.28 C124.2,96.45 123.87,96.58 123.58,96.8 C123.21,97.08 122.87,97.35 122.48,97.59 C122.11,97.82 121.87,98.17 121.53,98.43 C121.4,98.53 121.09,98.63 120.99,98.75 C120.94,98.81 120.89,98.83 120.878774,98.91 C120.86,99.06 121.09,99.23 121.18,99.33 C121.37,99.55 121.47,99.71 121.51,100 C121.52,100.08 121.55,100.75 121.68,100.77 C122,100.81 122.23,100.47 122.44,100.3 C122.7,100.09 122.99,99.88 123.28,99.7 C123.51,99.55 123.73,99.38 123.97,99.25 C124.32,99.06 124.55,98.84 124.89,98.63 C125.75,98.11 126.62,97.6 127.47,97.04 C128.37,96.44 129.29,95.93 130.19,95.31 C130.65,94.99 131.18,94.82 131.63,94.48 C132.01,94.19 132.42,94 132.82,93.73 C133.93,92.98 135.05,92.21 136.28,91.63 C136.77,91.39 137.4,91.07 137.78,90.7 C138.2,90.28 138.61,90.02 139.14,89.69 C139.44,89.51 139.67,89.25 139.97,89.07 C140.33,88.85 140.68,88.73 141.01,88.48 C141.4,88.19 141.84,87.95 142.28,87.72 C142.95,87.36 143.54,86.94 144.16,86.52 C145.28,85.77 146.26,84.86 147.44,84.18 C150.24,82.57 153.07,80.98 155.91,79.42 C158.53,77.97 161.1,76.54 163.79,75.17 C165.94,74.08 168.2,73.16 170.37,72.09 C172.8,70.9 175.35,69.83 177.75,68.61 C180.12,67.4 182.51,66.1 185,65.04 C186.88,64.24 188.74,63.35 190.71,62.72 C192.45,62.17 194.19,61.64 195.91,61.06 C197.44,60.54 198.94,60.02 200.5,59.56 C202.26,59.05 204.13,58.36 205.95,58.02 C207.54,57.73 208.96,57.32 210.51,56.9 C212.02,56.49 213.55,56.25 215.06,55.85 C216.64,55.43 218.3,55.33 219.91,55.01 C221.78,54.64 223.75,54.3 225.66,54.18 C231.98,53.77 238.44,54.32 244.35,55.61 C246.92,56.17 249.52,56.9 251.53,58.17 C252.29,58.65 253.26,58.99 254.11,59.38 C255.03,59.8 255.85,60.64 256.5,61.28 C258.87,63.56 261.06,65.97 262.05,68.88 C262.98,71.63 263.66,74.43 264.52,77.17 C264.88,78.32 264.87,79.54 265.15,80.7 C265.51,82.18 266.25,83.43 267.63,84.48 C269.44,85.85 271.89,86.51 274.61,85.92 C278.17,85.13 281.56,83.91 284.9,82.69 C285.42,82.5 285.65,82.16 286.1,82 C286.35,81.92 286.67,81.95 286.96,81.84 C287.18,81.76 287.44,81.57 287.64,81.46 C289.57,80.38 291.54,79.33 293.51,78.28 C293.98,78.03 294.54,77.8 295.01,77.6 L295.01,63.56 L295,63.56 Z" id="Path" fill="#FFFFFF"></path>
                        <g id="Group" opacity="0.3" transform="translate(167.000000, 100.000000)" fill="#BCCBD3">
                            <path d="M128,2.67 C125.6,2.15 123.11,1.67 120.67,1.31 C114.68,0.41 108.18,-0.25 102.36,1.66 C98.46,2.94 92.95,5.37 91.79,9.46 C91.09,11.95 92.5,14.86 94.6,16.43 C94.91,16.67 95.74,17.37 96.22,17.59 C87.71,16.76 78.92,17 70.49,18.13 C63.92,19.01 57.14,21.24 51.02,23.54 C46.58,25.21 41.63,26.89 38.01,29.9 C34.99,32.41 33.52,35.14 35.19,38.69 C36.64,41.77 39.83,43.63 43.26,44.37 C46.79,45.13 51.22,44.83 54.76,44.25 C55.69,44.1 56.64,43.94 57.46,43.58 C54.27,45.95 50.89,48.11 47.52,50.23 C43.91,52.5 40.33,54.8 36.92,57.31 C34.38,59.18 31.7,60.9 29.17,62.8 C22.95,67.47 16.97,72.53 11.53,77.96 C9.38,80.11 7.36,82.11 5.4,84.39 C4.72,85.18 3.99,86.59 3.13,87.8 C7.2,84.69 12.35,82.66 16.64,79.94 C22.32,76.33 28.4,73.26 34.34,70.04 C40.41,66.74 45.98,62.76 52.02,59.44 C60.8,54.6 69.97,50.59 79.14,46.46 C83.05,44.7 86.89,43.18 90.94,41.76 C94.08,40.66 96.99,39.19 100.17,38.15 C102.89,37.26 105.64,36.41 108.34,35.46 C111.37,34.39 114.18,32.96 117.26,31.94 C120.75,30.79 124.47,29.75 128,28.56 L128,2.67 L128,2.67 L128,2.67 Z M96.82,17.64 C96.99,17.61 97.16,17.6 97.34,17.69 C97.16,17.67 96.99,17.66 96.82,17.64 Z" id="Shape" fill-rule="nonzero"></path>
                            <path d="M3.15,87.77 C2.29,88.43 1.46,89.12 0.71,89.89 C1.64,89.63 2.44,88.77 3.15,87.77 Z" id="Path"></path>
                        </g>
                        <path d="M295,12.49 C293.87,13.91 292.66,15.33 291.57,16.73 C290.21,18.47 288.84,20.22 287.45,21.95 C287.07,22.42 286.7,22.9 286.31,23.39 C284.52,25.67 282.66,28.04 280.48,29.81 C280.01,30.19 279.56,30.57 279.12,30.95 C276.84,32.87 274.87,34.53 271.64,35.3 C268.41,36.07 264.86,35.97 261.42,35.88 C260.23,35.85 259,35.81 257.83,35.82 C254.12,35.83 250.36,35.69 246.72,35.56 C242.83,35.41 238.8,35.26 234.84,35.3 C226.18,35.38 217.04,36.82 206.07,39.82 C195.35,42.76 186.22,47.91 177.04,53.39 C168.67,58.39 162.04,62.86 156.18,67.48 C154.67,68.67 153.05,69.86 151.47,71.02 C147.53,73.92 143.45,76.91 140.3,80.44 C139.9,80.89 139.51,81.34 139.13,81.79 C138.03,83.07 136.99,84.27 135.72,85.41 L136.15,85.88 C137.44,84.71 138.5,83.49 139.61,82.2 C139.99,81.76 140.38,81.31 140.78,80.86 C143.89,77.37 147.94,74.4 151.85,71.53 C153.43,70.37 155.05,69.18 156.57,67.98 C162.41,63.38 169.01,58.92 177.36,53.94 C186.5,48.48 195.59,43.35 206.23,40.44 C217.15,37.45 226.24,36.02 234.83,35.94 C238.79,35.9 242.8,36.05 246.68,36.2 C250.33,36.34 254.08,36.47 257.82,36.46 C258.99,36.46 260.21,36.49 261.39,36.52 C264.86,36.62 268.46,36.72 271.77,35.93 C275.15,35.13 277.17,33.42 279.51,31.45 C279.95,31.08 280.4,30.7 280.87,30.32 C283.1,28.51 284.98,26.12 286.8,23.8 C287.18,23.31 287.56,22.83 287.94,22.37 C289.33,20.64 290.7,18.89 292.06,17.15 C292.99,15.96 294.04,14.75 295,13.54 L295,12.49 L295,12.49 Z" id="Path" fill="#096872"></path>
                        <path d="M295,105.1 C293.13,106.41 291.2,107.72 289.61,109.34 C288.06,110.91 286.44,112.25 284.6,113.53 C282.91,114.71 281.12,115.51 279.37,116.55 C278.66,116.97 278.11,117.48 277.2,117.46 C275.55,117.43 274.97,116.37 274.24,115.23 C272.64,112.72 270.75,110.26 270.15,107.35 C269.65,104.95 269.37,102.72 268.73,100.31 C268.23,98.41 267.72,96.51 267.22,94.6 C266.72,92.72 266.22,90.83 265.74,88.95 C265.18,86.73 264.18,84.68 263.49,82.5 C262.14,78.26 260.57,73.86 257.57,70.25 C255.24,67.45 252.67,64.34 249.28,62.29 C247.35,61.11 245.1,60.22 243.12,59.07 C240.9,57.78 238.67,57.04 236.03,56.38 C231.13,55.14 226.33,54.86 221.08,54.77 C209.53,54.58 197.31,56.51 186.43,60.46 C178.66,63.28 170.99,67.76 164.27,72 C161.19,73.95 158.01,75.77 154.93,77.71 C153.27,78.75 152.16,79.7 151.09,81.08 L151.8,81.75 C154.22,81.01 156.12,78.97 158.22,77.72 C161.24,75.91 164.31,73.93 167.65,72.54 C170.08,71.53 172.56,70.7 174.98,69.68 C177.25,68.72 179.59,67.85 181.93,67.05 C184.29,66.24 186.52,65.64 188.96,65.05 C191.62,64.4 193.99,63.18 196.76,62.88 C199.14,62.62 201.49,61.82 203.84,61.64 C205.8,61.49 207.7,61.34 209.63,61.07 C211.38,60.82 213.12,60.88 214.84,60.66 C216.48,60.45 218.17,60.19 219.84,60.3 C223.33,60.52 226.52,61.84 229.89,62.25 C230.84,62.37 230.96,62.65 231.64,63.01 C232.34,63.38 233.23,63.39 233.93,63.74 C234.93,64.25 235.9,64.68 236.72,65.39 C238.54,66.96 240.33,68.52 242.01,70.2 C243.71,71.9 245.03,73.44 246.21,75.46 C246.93,76.69 247.56,77.96 248.27,79.19 C249.2,80.82 249.48,82.51 250,84.29 C250.56,86.18 251.51,87.92 252.02,89.85 C252.53,91.78 253.04,93.72 253.55,95.65 C254.44,99.01 254.83,102.92 256.42,106.06 C257.12,107.44 257.36,108.81 257.91,110.24 C258.39,111.47 259.23,112.63 259.89,113.77 C261.15,115.93 262.5,117.61 264.44,119.38 C266.46,121.23 269.32,122.51 272.15,123.39 C273.64,123.85 274.97,124.52 276.63,124.67 C278.75,124.87 281.05,124.58 283.2,124.48 C285.03,124.39 286.59,124.05 288.38,123.72 C290.41,123.35 293.01,123.25 295,122.69 C295.14,122.65 294.87,122.61 295,122.57 L295,105.1 L295,105.1 Z" id="Path" fill="#0A966E"></path>
                        <polygon id="Path" fill="#BCCBD3" points="100.2 112.55 98.95 114.47 102.75 119.03 105.62 118.39"></polygon>
                        <path d="M111.33,99.17 L99.19,111.49 C99.19,111.49 104.72,118.2 106.06,119.51 L120.54,108.68 L111.33,99.17 Z" id="Path" fill="#096872"></path>
                        <path d="M61.28,153.96 C63.7,150.76 66.18,147.72 70.62,146.7 C74.57,145.79 79.74,147.67 82.14,152.14 C83.4,154.5 83.73,157.24 83.4,159.65 C83.07,162.07 82.12,164.2 81.01,166.15 C78.48,170.59 74.77,174.41 70.79,177.58 C68.26,179.6 66.61,182.17 64.52,184.62 C62.96,186.44 60.72,187.86 58.69,189.1 C55.16,191.26 51.44,195.96 47.25,192.88 C44.37,190.76 38.84,186.33 39.73,182.16 C39.91,181.33 40.8,180.47 41.32,179.78 C42.66,177.99 43.7,176.12 44.82,174.16 C47.06,170.25 50.06,166.82 52.51,163.2 C53.49,161.75 54.91,160.88 56.21,159.79 C58.22,158.09 59.74,155.99 61.28,153.96 Z" id="Path" fill="#00BC87"></path>
                        <g id="Group" opacity="0.21" transform="translate(0.000000, 51.000000)" fill="#BCCBD3">
                            <path d="M0,103.09 C1.32,102.73 3.28,99.9 4.11,98.94 C7.42,95.17 9.92,90.53 12.08,86.1 C13.63,82.9 14.67,78.43 14.27,74.87 C13.89,71.45 12.94,68.23 12.19,64.89 C11.52,61.89 11.15,58.66 11.5,55.6 C11.99,51.28 15.09,47.02 17.53,43.41 C18.94,41.32 20.4,39.2 22.39,37.55 C24.25,35.99 26.28,34.54 28.2,33.03 C31.31,30.59 34.48,28.19 37.14,25.33 C35.82,24.47 33.69,25.83 32.83,23.51 C32.25,21.95 34.25,19.3 35.16,18.23 C36.76,16.34 38.92,14.41 40.93,12.89 C43.52,10.93 46.61,9.32 49.4,7.62 C51.63,6.26 54.14,5.53 56.5,4.38 C58.71,3.3 60.97,2.24 63.23,1.24 C63.9,0.94 64.64,0.58 65.4,0.57 C64.07,1.12 63.06,2.42 62.05,3.36 C59.63,5.6 57.18,7.69 54.62,9.78 C53.1,11.02 51.7,12.3 50.33,13.66 C49.28,14.71 47.53,15.27 46.77,16.58 C47.38,16.83 47.8,14.98 48.38,14.8 C49.71,14.4 51.11,15.62 52.5,15.54 C55.77,15.35 57.65,16.31 56.46,19.5 C54.89,23.71 51.65,27.92 48.33,31.13 C46.74,32.67 44.85,33.66 43.01,34.9 C41.01,36.24 39.08,37.82 37.22,39.33 C34.09,41.89 31.69,44.99 28.71,47.65 C27.51,48.72 26.57,49.97 25.87,51.32 C25.4,52.23 24.9,53.55 24.71,54.54 C24.45,55.83 25.39,57.01 25.73,58.21 C27.21,63.49 28.64,69.26 26.95,74.7 C26.5,76.14 25.44,77.36 24.73,78.7 C24.05,79.99 23.38,81.14 22.29,82.19 C20.72,83.7 19.12,85.23 17.84,86.96 C16.74,88.44 15.78,89.35 14.4,90.52 C13.13,91.61 12.55,93.04 11.23,94.05 C9.99,95 8.81,96.11 7.46,96.94 C6.06,97.8 5.12,98.62 4.09,99.88 C2.55,101.72 2.12,101.96 0,103.09 Z" id="Path"></path>
                        </g>
                        <g id="Group" opacity="0.43" transform="translate(78.000000, 0.000000)" fill="#BCCBD3">
                            <path d="M0.68,70.67 C1.1,69.86 1.24,69.03 1.57,68.21 C2.03,67.07 2.69,65.96 3.41,64.87 C4.5,63.24 5.88,61.69 7.1,60.1 C8.37,58.45 9.73,56.83 11.06,55.2 C13.33,52.44 15.95,49.87 18.43,47.21 C19.22,46.36 19.82,45.43 20.66,44.59 C21.13,44.12 21.75,43.72 22.28,43.28 C20.83,43.74 19.01,42.15 18.61,41.45 C18.19,40.73 18.04,39.63 18.11,38.83 C18.2,37.64 19.43,36.55 20.57,35.68 C22.2,34.44 23.84,33.35 25.97,32.5 C28.07,31.65 30.38,30.8 32.69,30.33 C35.3,29.8 37.95,29.39 40.57,28.86 C41.88,28.59 43.19,28.44 44.46,28.07 C42.71,25.28 44.32,21.35 46.46,18.65 C48.51,16.05 51.73,14.2 55.06,12.37 C59.37,9.99 64.27,7.94 69.26,6.38 C71.29,5.75 73.36,5.04 75.43,4.47 C78.06,3.75 80.83,3.32 83.54,2.87 C87.46,2.22 91.39,1.62 95.37,1.45 C98.13,1.34 100.86,1.17 103.61,1.13 C104.72,1.11 106,1.16 107.08,0.97 C102.87,2.78 98.58,4.6 94.06,6.02 C90.72,7.06 87.44,8.3 84.2,9.5 C82.84,10.01 81.52,10.49 80.13,10.95 C79.33,11.22 78.63,11.6 77.82,11.86 C79.43,11.59 80.92,10.91 82.56,10.66 C84.16,10.41 86.75,10.31 88.01,11.02 C89.96,12.12 88.36,14.09 87.19,15.31 C86.11,16.43 85.12,17.45 83.51,18.25 C82.23,18.89 80.93,19.53 79.61,20.13 C73.18,23.05 66.74,25.96 60.07,28.58 C58.42,29.23 56.63,29.7 55.01,30.39 C53.91,30.86 52.9,31.41 51.78,31.85 C50.24,32.45 48.15,32.95 46.86,33.82 C48.01,33.88 49.1,33.97 49.61,34.81 C50.17,35.73 49.24,36.48 48.48,37.23 C47.23,38.48 45.93,39.64 44.43,40.78 C41.05,43.34 37.03,45.55 33.18,47.77 C30.08,49.55 27.21,51.4 24.34,53.35 C23.24,54.1 22.16,54.84 21.01,55.55 C20.44,55.91 20.06,56.3 19.59,56.71 C18.95,57.27 18.22,57.71 17.48,58.19 C15.12,59.71 13.35,61.68 10.92,63.13 C9.87,63.75 9.18,64.53 8.23,65.21 C7.29,65.88 6.31,66.5 5.41,67.2 C3.53,68.6 2.24,70.24 0.68,70.67 Z" id="Path"></path>
                        </g>
                        <polygon id="Path" fill="#0A966E" points="204.49 29.04 212.05 13.17 224.52 19.15 216.89 35"></polygon>
                        <path d="M295,90.47 C291.25,91.9 287.45,93.37 283.78,94.97 C280.69,96.31 277.56,97.56 274.42,98.81 C272.88,99.42 271.2,99.94 269.74,100.69 C269.28,100.92 268.93,101.25 268.5,101.51 C266.19,102.89 263.15,103.69 260.63,104.74 C258.53,105.61 256.57,106.55 254.36,107.31 C252.91,107.81 251.68,108.52 250.19,108.95 C249.32,109.2 248.08,109.58 247.45,110.07 C247.87,109.23 247.38,108.1 247.28,107.29 C247.07,105.7 246.86,104.11 246.67,102.51 C246.46,100.75 246.02,98.95 245.51,97.24 C244.95,95.35 244.37,93.51 243.59,91.67 C242.32,88.64 240.21,85.84 237.94,83.15 C237.28,82.36 236.83,81.49 236.05,80.75 C235.52,80.24 235.03,79.77 234.59,79.22 C233.54,77.89 232.28,76.62 230.66,75.56 C229.01,74.49 227.56,73.2 225.68,72.29 C223.81,71.38 221.71,70.7 219.59,70.04 C217.5,69.39 215.44,68.85 213.12,68.54 C210.84,68.23 208.26,68.07 205.86,68.0795583 C200.37,68.12 194.66,68.18 189.18,69.22 C183.57,70.29 177.88,71.37 172.52,73.05 C168.54,74.29 164.63,75.8 160.99,77.46 C157.24,79.17 153.73,81.16 150.16,83.03 C146.2,85.11 142.62,87.38 138.89,89.62 C137.98,90.17 137.05,90.9 136.01,91.22 C135.69,91.32 135.41,91.43 135.11,91.57 C134.39,91.91 133.67,92.25 133.05,92.72 C132.36,93.24 131.66,93.77 130.89,94.24 C130.26,94.63 129.59,94.95 128.99,95.36 C128.31,95.83 127.61,96.31 126.94,96.79 C125.81,97.6 124.78,98.67 123.52,99.31 C123.67,99.57 123.75,99.93 123.82,100.24 C123.9,100.6 123.75,101 123.87,101.35 C124.5,101.08 125.09,100.69 125.74,100.45 C126.13,100.3 126.54,100.21 126.9,100.02 C127.33,99.79 127.74,99.46 128.15,99.19 C128.99,98.64 130.02,98.25 130.93,97.8 C131.53,97.5 132.1,97.23 132.68,96.9 C133.24,96.58 133.86,96.25 134.46,96 C135.61,95.51 136.74,94.93 137.9,94.47 C139.18,93.95 140.5,93.53 141.78,93 C142.91,92.53 143.97,92.38 144.95,91.8 C145.25,91.62 145.21,91.6 145.53,91.51 C146.05,91.37 146.38,91.38 146.84,91.18 C147.6,90.85 148.34,90.44 149,90.01 C149.76,89.52 150.3,89 151.22,88.67 C153.23,87.96 155,87.04 156.84,86.14 C158.82,85.18 161.1,84.27 163.23,83.46 C164.22,83.08 165.24,82.84 166.21,82.42 C167.27,81.96 168.55,81.59 169.68,81.23 C172.12,80.45 174.63,79.65 177.17,79.04 C179.4,78.51 181.86,78.32 184.15,77.97 C186.61,77.6 189.15,77.59 191.62,77.49 C193.65,77.41 195.7,77.4 197.69,77.55 C200.03,77.73 202.17,78.01 204.37,78.46 C205.17,78.63 205.72,78.95 206.47,79.16 C207.31,79.4 208.24,79.52 209.06,79.79 C210.52,80.27 211.89,81.14 213.04,81.87 C214.27,82.65 215.69,83.45 216.76,84.33 C218.09,85.43 219.2,86.49 219.89,87.85 C220.57,89.18 221.42,90.47 222.24,91.76 C223.85,94.27 223.91,97.19 224.51,99.95 C224.67,100.7 224.99,101.44 225.11,102.2 C225.35,103.67 225.12,105.24 225.26,106.74 C225.54,109.68 225.68,112.57 225.63,115.52 C225.59,118.26 225.84,120.89 227.16,123.38 C228.75,126.4 231.28,129.83 235.12,130.42 C236.75,130.67 238.52,130.79 240.16,130.57 C243.46,130.13 246.4,128.11 249.23,126.64 C252.01,125.2 254.9,123.93 257.61,122.4 C261.01,120.48 264.05,118.09 267.42,116.13 C270.21,114.52 273.14,113.09 275.95,111.51 C278.67,109.98 281.21,108.22 283.95,106.72 C285.51,105.86 288.15,104.45 289.68,106.05 C291.62,108.07 291.73,111.26 294.32,112.86 C294.48,112.96 294.83,113.19 295,113.27 L295,90.47 L295,90.47 L295,90.47 Z" id="Path" fill="#014955"></path>
                        <polygon id="Path" fill="#00BC87" points="250.2 130.09 257.78 114.22 270.24 120.19 262.61 136.05"></polygon>
                        <polygon id="Path" fill="#FFFFFF" points="274.77 42.52 271.01 25.34 284.53 22.43 288.23 39.62"></polygon>
                        <polygon id="Path" fill="#BCCBD3" points="180.72 28.82 178.81 18.34 186.44 16.75 188.66 27.87"></polygon>
                        <polygon id="Path" fill="#00BC87" points="232.39 16.92 238.12 6.75 246.7 7.07 240.34 18.82"></polygon>
                        <polygon id="Path" fill="#014955" points="244.94 33.76 253.53 24.85 259.89 28.99 251.62 37.89"></polygon>
                        <path d="M25.49,224.13 C23.92,225.41 22.56,227.14 20.82,228.2 C20.18,228.59 19.55,228.91 18.81,229.05 C18.2,229.17 16.64,229.53 16.17,229.15 C16.88,228.18 18.01,227.62 18.76,226.72 C17.8,226.58 16.62,226.97 15.64,226.99 C14.43,227.02 13.22,226.97 12.01,226.84 C12.59,225.62 14.77,225.09 15.7,223.86 C16.32,223.04 16.82,221.93 17.76,221.41 C19.6,220.39 25.36,218.99 26.54,221.52 C26.89,222.26 26.6,223.36 25.88,223.55" id="Path" fill="#E4D1D3"></path>
                        <g id="Group" transform="translate(21.000000, 181.000000)" fill="#00BC87">
                            <path d="M28.98,6.29 C29.85,7.57 30.44,8.99 30.53,10.4 C30.87,15.68 26.02,19.01 22.38,21.93 C17.92,25.51 14.58,30.15 11.37,34.86 C10.11,36.7 8.88,40.05 7.07,41.45 C4.74,43.26 2.12,39.63 0.21,38.62 C2.05,36.76 1.55,35.07 1.85,32.86 C2.19,30.45 4.29,28.55 5.34,26.4 C6.37,24.29 6.75,22.47 7.9,20.6 C10.04,17.14 11.21,12.89 13.29,9.29 C15.5,5.47 18.13,-0.02 23.39,1.82 C25.44,2.55 27.58,4.25 28.98,6.29 Z" id="Path"></path>
                            <g>
                                <path d="M28.87,6.18 L28.79,6.1 L28.93,6.29 C28.97,6.34 28.96,6.3 28.87,6.18 Z" id="Path"></path>
                                <path d="M28.32,5.45 C28.29,5.4 28.33,5.44 28.34,5.45 C28.22,5.32 28.07,5.17 28.13,5.27 C28.28,5.43 28.24,5.38 28.42,5.57 C28.52,5.69 28.58,5.79 28.56,5.77 C28.62,5.84 28.63,5.85 28.76,6.02 C28.65,5.85 28.5,5.64 28.32,5.45 Z" id="Path"></path>
                                <path d="M15.99,4.88 L15.93,4.96 L15.99,4.88 Z" id="Path"></path>
                                <path d="M11.42,13.07 C11.45,13 11.46,12.98 11.46,12.97 C11.43,13.03 11.41,13.08 11.42,13.07 Z" id="Path"></path>
                                <path d="M10.78,14.52 C10.79,14.49 10.81,14.46 10.82,14.43 C10.8,14.47 10.79,14.49 10.78,14.52 Z" id="Path"></path>
                                <path d="M15.93,4.96 L15.78,5.16 C15.78,5.17 15.86,5.06 15.93,4.96 Z" id="Path"></path>
                                <path d="M26.87,4.01 C26.9,4.04 26.94,4.06 26.97,4.1 C26.94,4.07 26.91,4.04 26.87,4.01 L26.87,4.01 Z" id="Path"></path>
                                <path d="M18.86,2.13 L18.93,2.09 C18.94,2.08 18.96,2.07 18.98,2.05 L18.86,2.13 Z" id="Path"></path>
                                <path d="M21.76,1.48 C21.8,1.48 21.85,1.48 21.91,1.49 C21.91,1.49 21.9,1.48 21.88,1.47 C21.82,1.46 21.79,1.47 21.76,1.48 Z" id="Path"></path>
                                <path d="M17.09,3.53 C17.08,3.54 17.07,3.54 17.06,3.55 C17.07,3.54 17.08,3.54 17.09,3.53 Z" id="Path"></path>
                                <path d="M30.35,9.64 L30.35,9.64 C30.34,9.62 30.34,9.61 30.35,9.64 Z" id="Path"></path>
                                <polygon id="Path" points="28.99 6.3 29.02 6.34 29.03 6.35"></polygon>
                                <path d="M9.61,17.17 L9.61,17.17 C9.65,17.09 9.63,17.13 9.61,17.17 Z" id="Path"></path>
                                <path d="M2.47,40.41 C2.24,40.21 2.86,40.7 2.52,40.4 C2.55,40.44 2.18,40.17 2.47,40.41 Z" id="Path"></path>
                                <path d="M26.81,3.95 L26.71,3.87 C26.76,3.91 26.79,3.93 26.81,3.95 Z" id="Path"></path>
                                <path d="M6.63,23.14 C6.64,23.12 6.65,23.1 6.66,23.08 C6.66,23.08 6.65,23.09 6.63,23.14 Z" id="Path"></path>
                                <path d="M8.92,18.73 L8.86,18.84 C8.88,18.79 8.9,18.75 8.92,18.73 Z" id="Path"></path>
                                <path d="M5.68,25.6 C5.69,25.59 5.69,25.57 5.7,25.55 C5.69,25.57 5.68,25.59 5.68,25.6 Z" id="Path"></path>
                                <path d="M5.68,25.6 C5.66,25.64 5.66,25.65 5.63,25.72 L5.64,25.7 C5.65,25.66 5.66,25.64 5.68,25.6 Z" id="Path"></path>
                                <polygon id="Path" points="4.42 27.9 4.45 27.86 4.49 27.79"></polygon>
                                <path d="M27.84,17.05 L27.93,16.97 C27.9,16.99 28.15,16.69 27.84,17.05 Z" id="Path"></path>
                                <path d="M26.88,4 C26.86,3.99 26.85,3.98 26.81,3.95 L26.88,4 C26.89,4.02 26.89,4.02 26.88,4 Z" id="Path"></path>
                                <path d="M5.78,25.71 L5.6,26.1 C5.65,25.98 5.72,25.85 5.78,25.71 Z" id="Path"></path>
                                <path d="M14.31,30.58 C14.29,30.61 14.28,30.63 14.25,30.66 L14.31,30.58 Z" id="Path"></path>
                                <path d="M5.01,27.23 C4.95,27.31 4.91,27.37 4.87,27.43 C4.86,27.44 4.86,27.46 4.85,27.48 L5.01,27.23 Z" id="Path"></path>
                                <path d="M10.19,16.2 L10.17,16.24 C10.18,16.22 10.19,16.21 10.19,16.2 Z" id="Path"></path>
                                <path d="M3.92,28.86 L3.89,28.91 C3.9,28.89 3.91,28.88 3.92,28.86 Z" id="Path"></path>
                                <path d="M13.44,31.77 L13.46,31.74 L13.44,31.77 Z" id="Path"></path>
                                <path d="M13.46,31.73 L13.49,31.68 C13.48,31.71 13.47,31.72 13.46,31.73 Z" id="Path"></path>
                                <path d="M27.91,4.97 C27.9,4.96 27.89,4.95 27.88,4.93 L27.91,4.97 Z" id="Path"></path>
                                <path d="M27.57,4.63 C27.38,4.44 27.18,4.27 26.98,4.09 C27.04,4.13 27.11,4.19 27.16,4.22 C26.95,4.01 26.99,4.08 26.82,3.93 C26.76,3.87 26.72,3.83 26.77,3.86 C26.54,3.67 26.41,3.57 26.15,3.36 C26.15,3.36 26.42,3.55 26.28,3.43 C25.84,3.11 25.74,3.06 25.24,2.76 C24.65,2.43 24.09,2.11 23.64,1.96 C23.61,1.96 23.96,2.1 23.68,1.99 C23.74,2 23.51,1.92 23.5,1.91 C23.18,1.82 23.03,1.77 22.8,1.72 C22.86,1.73 22.67,1.67 22.55,1.64 C22.59,1.63 22.2,1.54 22.67,1.64 C22.18,1.55 21.8,1.49 21.43,1.52 L21.56,1.52 L21.15,1.53 C21.2,1.53 21.27,1.53 21.35,1.52 L21.08,1.53 L21.08,1.53 C20.87,1.55 20.83,1.52 20.54,1.57 C20.66,1.53 20.84,1.52 20.97,1.51 C20.7,1.49 20.43,1.61 20.14,1.67 C20.15,1.65 20.44,1.6 20.35,1.6 C20.14,1.65 19.96,1.67 19.79,1.76 L19.81,1.74 C19.32,1.92 19.63,1.85 19.27,1.97 C19.29,1.97 19.24,1.99 19.26,1.99 C19.13,2.03 18.84,2.2 19.12,2.03 C18.96,2.12 18.79,2.23 18.71,2.28 C18.85,2.21 18.88,2.19 18.93,2.17 C18.72,2.3 18.5,2.4 18.32,2.56 C18.25,2.61 18.36,2.52 18.45,2.46 C17.72,2.92 17.14,3.6 16.49,4.31 C16.57,4.23 16.46,4.37 16.4,4.45 C16.2,4.69 15.92,5.08 15.75,5.31 L15.8,5.23 C15.38,5.85 15.12,6.3 14.86,6.72 C14.85,6.74 14.85,6.71 14.9,6.63 C14.72,6.95 14.46,7.3 14.44,7.41 L14.51,7.3 C14.14,7.92 13.77,8.63 13.4,9.28 C13.3,9.42 13.61,8.91 13.52,9.03 C13.26,9.48 13.01,9.94 12.75,10.44 C12.78,10.37 12.78,10.37 12.8,10.33 C12.53,10.82 12.85,10.28 12.62,10.7 C12.62,10.67 12.61,10.69 12.54,10.83 L12.49,10.96 C12.48,10.98 12.47,10.97 12.5,10.91 C12.42,11.11 12.14,11.67 12.09,11.83 C12.07,11.87 12.1,11.75 12.07,11.81 C11.96,12.04 11.89,12.2 11.83,12.35 L11.83,12.35 C11.71,12.59 11.64,12.74 11.61,12.82 C11.42,13.23 11.59,12.89 11.47,13.21 L11.62,12.88 L11.37,13.47 L11.46,13.23 C11.34,13.5 11.23,13.78 11.1,14.09 L11.17,13.95 L11.03,14.31 C10.99,14.34 10.83,14.77 10.89,14.56 C10.61,15.2 10.46,15.64 10.21,16.22 C10.23,16.16 10.22,16.19 10.22,16.17 C10.07,16.52 9.98,16.74 9.9,16.95 C9.91,16.9 9.95,16.82 9.94,16.82 C9.79,17.18 9.81,17.12 9.64,17.53 C9.69,17.4 9.67,17.44 9.61,17.56 C9.63,17.55 9.58,17.65 9.55,17.74 C9.67,17.38 9.3,18.24 9.36,18.01 C9.36,18.04 9.04,18.74 9.15,18.55 L9.21,18.43 C9.23,18.42 9.15,18.58 9.08,18.71 C9.11,18.64 9.14,18.57 9.14,18.57 C8.83,19.21 8.48,19.87 8.07,20.55 C8.1,20.49 8.26,20.21 8.15,20.38 C7.74,21.06 7.53,21.46 7.21,22.19 C7.16,22.21 7.57,21.42 7.57,21.38 C7.19,22.12 6.87,22.92 6.56,23.8 C6.4,24.09 6.25,24.66 6,25.18 C6.03,25.14 5.93,25.4 5.81,25.69 C5.84,25.59 5.71,25.89 5.74,25.8 C5.65,26.06 5.29,26.78 5.28,26.73 C5.27,26.81 4.99,27.25 4.88,27.45 C4.69,27.74 4.48,28.08 4.22,28.43 C4.31,28.33 4.04,28.7 3.93,28.88 C3.95,28.85 3.97,28.82 3.96,28.83 C3.87,28.93 3.68,29.25 3.54,29.45 C3.47,29.54 3.54,29.42 3.44,29.57 C3.44,29.57 3.1,30.14 2.96,30.34 C3.02,30.24 3.02,30.24 3.05,30.18 C2.45,31.16 1.93,32.3 1.9,33.49 L1.9,33.28 C1.81,34.01 1.89,33.76 1.85,34.35 C1.8,35.15 1.77,35.98 1.5,36.77 C1.37,37.16 1.19,37.54 0.96,37.87 C0.86,38.05 0.72,38.2 0.6,38.36 C0.48,38.51 0.27,38.69 0.36,38.66 C0.4,38.68 0.4,38.68 0.37,38.66 C0.37,38.65 0.37,38.65 0.37,38.65 C0.36,38.65 0.38,38.66 0.43,38.7 C0.47,38.73 0.52,38.76 0.6,38.8 L0.57,38.77 C1.18,39.18 2.22,40.03 2.61,40.39 C3.16,40.8 3.52,41.13 4.25,41.5 C4.47,41.63 3.98,41.38 4.29,41.54 C4.52,41.65 4.76,41.74 5,41.81 L4.96,41.8 C5.31,41.89 5.79,41.96 6.27,41.84 C6.76,41.73 7.18,41.37 7.5,41.04 L7.45,41.06 C7.44,41.08 7.58,40.95 7.68,40.84 C7.71,40.8 7.64,40.87 7.57,40.93 C8.11,40.31 8.2,40.15 8.57,39.61 C8.43,39.85 8.72,39.39 8.75,39.38 C8.83,39.23 8.69,39.46 8.88,39.13 C9.16,38.66 9.41,38.23 9.64,37.83 C9.71,37.66 9.83,37.45 9.82,37.43 C10.11,36.89 10.28,36.58 10.63,35.91 L10.64,35.9 C10.72,35.71 10.98,35.33 11.05,35.21 C11.05,35.23 11.01,35.3 11.02,35.29 L11.2,35 C11.12,35.14 11.08,35.23 11.24,34.99 C11.39,34.73 11.19,35.05 11.26,34.92 L11.32,34.86 C11.44,34.67 11.46,34.61 11.3,34.83 C11.73,34.2 12.15,33.59 12.54,33.03 L12.51,33.1 C12.72,32.79 13.01,32.38 13.15,32.2 C13.15,32.19 13.2,32.11 13.16,32.16 C13.39,31.81 13.23,32.08 13.42,31.81 C13.37,31.89 13.32,31.96 13.31,31.98 L13.83,31.23 C13.83,31.23 13.93,31.12 14.04,30.97 C14.16,30.8 14.29,30.64 14.41,30.48 C14.41,30.46 14.34,30.55 14.28,30.63 L14.42,30.43 L14.55,30.29 L14.75,29.99 L14.77,30 C14.93,29.79 14.97,29.69 15.1,29.52 C15.6,28.9 15.5,29.03 15.87,28.59 C15.88,28.52 16.43,27.89 16.51,27.76 C17.01,27.19 17.71,26.35 18.39,25.63 L18.34,25.69 C18.64,25.39 18.65,25.32 18.97,24.99 L18.91,25.06 C19.39,24.58 20.02,23.95 20.45,23.52 C20.37,23.6 20.42,23.57 20.55,23.45 C20.66,23.34 20.43,23.53 20.66,23.32 C20.6,23.38 20.66,23.34 20.71,23.29 L20.93,23.07 C21.54,22.53 22.29,21.94 22.94,21.41 C23.07,21.32 22.98,21.39 22.96,21.42 C23.47,21.01 24,20.57 24.45,20.2 L24.51,20.18 C24.74,19.99 24.63,20.04 24.94,19.81 C25.01,19.76 24.75,19.97 24.67,20.04 C25.13,19.68 24.93,19.81 25.36,19.44 L25.26,19.55 C25.6,19.28 25.63,19.22 25.74,19.11 C26.18,18.69 26.09,18.86 26.68,18.28 C26.76,18.18 26.64,18.3 26.72,18.2 C27.13,17.8 27.18,17.75 27.57,17.32 C27.81,17.12 27.37,17.54 27.62,17.31 L27.32,17.63 C27.59,17.37 27.09,17.88 27.14,17.85 C27.35,17.66 27.62,17.32 27.87,17.04 C27.88,17.05 27.58,17.36 27.71,17.25 L27.83,17.11 C27.8,17.15 27.8,17.16 27.72,17.24 C27.77,17.2 27.88,17.08 27.99,16.94 C27.99,16.92 27.98,16.93 27.93,16.96 C27.94,16.95 27.95,16.94 27.96,16.93 C28.18,16.63 28.59,16.15 28.75,15.87 C28.72,15.91 28.75,15.88 28.76,15.87 C28.89,15.69 29.01,15.49 29.15,15.22 C29.24,15.08 29.13,15.32 29.37,14.9 C29.4,14.82 29.28,15 29.47,14.64 C29.48,14.64 29.31,14.96 29.41,14.8 C29.58,14.44 29.47,14.69 29.64,14.37 C29.71,14.18 29.82,14.02 29.81,13.96 C29.87,13.85 29.85,13.88 29.95,13.65 C29.9,13.75 30.1,13.2 30.07,13.21 C30.13,13.12 29.95,13.61 30.09,13.32 C30.16,13.11 30.23,12.7 30.22,12.66 C30.26,12.49 30.3,12.43 30.34,12.16 C30.33,12.2 30.33,12.25 30.33,12.28 C30.38,11.81 30.46,11.12 30.41,10.85 C30.43,10.9 30.43,10.65 30.43,10.43 C30.42,10.21 30.4,10.03 30.43,10.21 C30.41,10.01 30.35,9.71 30.33,9.64 C30.36,9.66 30.24,9.16 30.19,8.95 C30.15,8.85 30.04,8.51 29.95,8.31 C29.99,8.4 30.01,8.44 30,8.41 C29.9,8.19 29.93,8.24 29.87,8.04 C29.73,7.74 29.88,8.1 29.78,7.93 C29.67,7.67 29.78,7.88 29.77,7.83 L29.56,7.46 C29.52,7.38 29.5,7.33 29.49,7.29 C29.41,7.16 29.34,7.06 29.25,6.87 L29.43,7.18 L29.37,7.05 L29.13,6.69 C28.81,6.16 28.94,6.31 28.99,6.33 L29.13,6.54 C29.13,6.53 29.04,6.38 28.98,6.29 C28.93,6.2 29.23,6.61 29.38,6.85 C29.75,7.5 29.43,7 29.67,7.46 C29.77,7.65 29.87,7.85 29.96,8.05 L29.95,8.06 C29.98,8.16 30.02,8.21 30.03,8.24 C30,8.2 30.22,8.74 30.28,9.01 L30.26,8.91 C30.49,9.63 30.5,10.08 30.51,10.66 L30.53,11.08 L30.51,11.17 C30.53,11.41 30.52,11.46 30.47,11.86 C30.29,13.26 29.71,14.7 28.86,15.86 C28.87,15.85 28.9,15.81 28.95,15.74 C28.2,16.74 27.78,17.32 26.96,18.1 L27.01,18.04 C26.61,18.44 27.06,17.98 26.76,18.26 C26.72,18.34 26.24,18.77 26,19 C26.07,18.94 26.12,18.89 26.19,18.82 C26.14,18.86 26.11,18.86 26,18.98 C25.75,19.25 25.15,19.76 24.7,20.13 C24.55,20.24 24.3,20.42 24.02,20.61 C23.98,20.65 23.91,20.72 23.83,20.8 C23.66,20.92 23.54,21.03 23.43,21.13 C23.57,21.02 23.7,20.91 23.8,20.84 L23.79,20.85 L23.85,20.8 C23.93,20.73 23.97,20.7 23.98,20.69 C24.16,20.56 23.97,20.71 23.99,20.72 C23.84,20.84 23.54,21.09 23.49,21.11 C23.4,21.18 23.34,21.22 23.25,21.3 C23.18,21.36 23.14,21.39 23.07,21.45 L23.1,21.42 C23.08,21.43 23.07,21.44 23.06,21.45 C22.77,21.68 22.37,22.02 22.14,22.23 C22.36,22.02 22.07,22.26 22.05,22.25 C22.08,22.23 22.35,22.01 22.69,21.74 C22.66,21.76 22.64,21.78 22.63,21.78 C22.3,22.02 22.1,22.23 21.63,22.6 C21.66,22.57 21.71,22.52 21.69,22.54 C21.52,22.67 21.39,22.81 21.36,22.85 C21.31,22.87 20.96,23.17 20.8,23.32 C20.66,23.46 20.69,23.45 20.43,23.69 L20.54,23.58 C20.24,23.87 20.3,23.81 20.04,24.06 C20.14,23.97 20.14,23.95 20.07,24.02 C19.76,24.33 19.76,24.34 19.55,24.58 L19.58,24.53 C19.32,24.79 18.85,25.32 18.83,25.31 C18.94,25.25 18.29,25.91 18.07,26.15 C18.14,26.07 18.15,26.05 18.16,26.04 C17.72,26.56 17.25,27.07 16.81,27.59 L16.72,27.66 C16.49,27.94 16.46,28.05 16.21,28.36 L16.29,28.24 C15.85,28.79 15.69,29 15.33,29.45 L15.32,29.43 C15.18,29.62 15.07,29.77 14.93,29.96 C14.62,30.3 13.85,31.44 13.33,32.1 L13.33,32.16 C13.14,32.42 12.91,32.77 12.8,32.88 L12.84,32.82 C12.84,32.78 12.65,33.08 12.53,33.25 C12.44,33.38 12.37,33.51 12.45,33.41 C11.95,34.11 11.23,35.16 10.94,35.61 C10.51,36.35 10.25,36.95 9.8,37.76 L9.8,37.75 C9.65,38.02 9.34,38.57 9.31,38.56 C8.98,39.14 8.8,39.54 8.33,40.19 L8.42,40.04 C8.3,40.21 8.12,40.46 8.07,40.54 C8.03,40.6 8.05,40.55 8.06,40.54 C7.92,40.72 7.86,40.79 7.77,40.9 L7.8,40.85 C7.58,41.08 7.3,41.39 6.94,41.65 C6.59,41.93 6.12,42.07 5.7,42.1 C5.86,42.08 5.77,42.08 5.71,42.08 C5.54,42.09 5.21,42.09 4.9,41.99 C4.59,41.91 4.29,41.78 4.14,41.69 C4.21,41.72 4.27,41.75 4.34,41.78 C3.73,41.49 3.83,41.49 3.27,41.13 C3.37,41.21 3.47,41.28 3.58,41.36 C3.35,41.21 3.17,41.08 3.21,41.13 C2.96,40.94 3.19,41.09 2.81,40.8 C2.8,40.78 3.09,41 2.97,40.9 L2.47,40.48 L2.47,40.48 C2.46,40.47 2.45,40.46 2.43,40.45 L2.46,40.48 C2.42,40.45 2.38,40.41 2.21,40.28 C2.23,40.35 1.79,39.94 2.02,40.17 C1.66,39.88 1.34,39.6 1.01,39.35 C0.85,39.22 0.68,39.11 0.52,38.99 C0.44,38.93 0.35,38.89 0.27,38.84 L0.08,38.73 C0.04,38.69 0.17,38.61 0.19,38.56 C0.32,38.46 0.58,38.16 0.77,37.88 C0.97,37.6 1.08,37.33 1.09,37.38 C1.29,36.98 1.38,36.62 1.42,36.35 C1.4,36.45 1.37,36.54 1.35,36.64 C1.37,36.52 1.49,36 1.51,35.78 C1.49,36.07 1.4,36.54 1.34,36.76 C1.47,36.37 1.53,35.8 1.55,35.58 L1.58,35.48 C1.59,35.14 1.62,35.19 1.62,34.85 L1.61,34.91 C1.65,34.28 1.62,34.27 1.66,33.68 L1.67,33.71 C1.69,33.51 1.7,33.2 1.75,33.01 L1.71,33.39 C1.73,33.36 1.77,33.06 1.8,32.93 C1.87,32.53 1.8,32.78 1.83,32.58 C1.86,32.5 1.84,32.56 1.83,32.7 C1.9,32.25 2.1,31.66 2.23,31.36 C2.24,31.34 2.23,31.36 2.23,31.36 C2.42,30.93 2.61,30.55 2.77,30.31 L2.72,30.39 C2.93,30.08 3.23,29.55 3.31,29.51 C3.42,29.36 3.08,29.85 3.26,29.62 C3.59,29.16 3.44,29.29 3.73,28.89 C3.69,28.95 3.7,28.93 3.7,28.95 C3.9,28.66 4.17,28.26 4.39,27.93 C4.7,27.55 5.17,26.67 5.43,26.18 C5.35,26.32 5.46,26.09 5.47,26.05 C5.47,26.05 5.47,26.06 5.48,26.05 C5.56,25.86 5.56,25.84 5.59,25.77 C5.67,25.62 5.8,25.25 5.85,25.15 C5.84,25.14 5.91,24.99 5.97,24.83 C5.84,25.17 5.94,24.95 5.89,25.1 C6.1,24.6 6.08,24.51 6.29,23.99 L6.42,23.71 C6.42,23.64 6.62,23.16 6.61,23.17 C6.65,23.08 6.71,22.95 6.71,22.98 C6.79,22.77 6.93,22.46 6.96,22.37 L6.86,22.58 C7.14,21.94 7.3,21.55 7.58,21.08 L7.61,21.11 C7.8,20.81 7.93,20.53 8.11,20.27 C8.05,20.36 8.04,20.38 8.14,20.17 C8.07,20.29 7.94,20.51 7.83,20.7 L8.06,20.28 L7.69,20.93 C7.84,20.65 7.83,20.67 7.75,20.77 C7.97,20.37 8.02,20.36 8.22,19.98 C8.3,19.85 8.23,19.99 8.33,19.84 C8.51,19.5 8.7,19.21 8.81,18.95 C8.85,18.87 8.74,19.09 8.76,19.08 C8.87,18.85 8.96,18.7 8.98,18.63 L8.88,18.82 C8.96,18.66 8.97,18.63 9.13,18.3 C9.21,18.11 9.25,18 9.15,18.2 C9.19,18.12 9.28,17.94 9.26,18.01 C9.5,17.5 9.34,17.75 9.58,17.27 C9.57,17.3 9.55,17.34 9.56,17.32 C9.62,17.19 9.66,17.11 9.7,17.01 C9.51,17.45 9.79,16.89 9.55,17.4 C9.59,17.35 9.73,17.01 9.81,16.85 C9.91,16.59 9.8,16.81 9.84,16.68 C9.84,16.68 9.89,16.58 9.95,16.46 L9.89,16.57 C9.93,16.47 9.97,16.38 10.03,16.24 L9.95,16.45 C10.05,16.22 10.22,15.89 10.38,15.48 C10.34,15.59 10.26,15.81 10.38,15.54 C10.56,15.1 10.43,15.44 10.54,15.2 C10.72,14.76 10.55,15.11 10.83,14.47 C10.86,14.4 10.82,14.46 10.79,14.53 C10.99,14.08 11.07,13.89 11.27,13.43 C11.19,13.62 11.12,13.76 11.22,13.5 C11.18,13.61 11.38,13.15 11.46,12.99 L11.47,12.95 C11.53,12.82 11.48,12.96 11.43,13.07 C11.43,13.06 11.41,13.1 11.38,13.18 C11.29,13.39 11.35,13.33 11.5,13 C11.65,12.64 11.61,12.69 11.57,12.75 C11.79,12.28 11.73,12.29 11.95,11.85 C11.99,11.77 12.21,11.35 12.35,11.09 C12.42,10.92 12.14,11.49 12.22,11.29 C12.52,10.77 12.74,10.17 13.15,9.5 L13.12,9.6 C13.21,9.44 13.3,9.29 13.4,9.11 L13.26,9.34 C13.35,9.18 13.56,8.81 13.51,8.94 C13.7,8.58 13.75,8.5 13.95,8.17 C13.75,8.52 13.94,8.18 13.81,8.44 C14.03,8.07 14.04,8.04 14.18,7.78 C14.16,7.83 14.25,7.7 14.31,7.6 C14.44,7.35 14.68,6.95 14.88,6.62 L14.89,6.62 C15.22,6.06 15.63,5.49 16,4.95 L16.02,4.92 L16,4.95 C15.85,5.12 16.29,4.53 16.42,4.38 C16.45,4.35 16.47,4.34 16.54,4.25 C16.53,4.23 16.69,4.05 16.75,3.98 C16.91,3.82 16.75,4.02 17.01,3.73 C17.11,3.62 17.11,3.6 17.1,3.61 C17.22,3.5 17.37,3.36 17.49,3.25 C17.41,3.33 17.36,3.37 17.32,3.41 C17.31,3.43 17.41,3.34 17.41,3.35 C17.54,3.23 17.45,3.29 17.62,3.14 L17.48,3.29 C17.56,3.22 17.63,3.15 17.66,3.12 C17.56,3.22 17.59,3.21 17.61,3.21 C17.99,2.85 17.66,3.11 17.67,3.08 C18.06,2.77 18.35,2.5 18.69,2.31 L18.64,2.36 C18.8,2.26 18.88,2.22 18.93,2.17 L19.18,2.03 C19.04,2.12 18.99,2.15 18.99,2.17 C19.25,2 19.66,1.88 19.72,1.82 L19.71,1.83 C20.09,1.68 20.95,1.54 20.92,1.58 C21.14,1.57 21.39,1.55 21.59,1.55 C21.79,1.57 21.93,1.59 21.93,1.57 C22.2,1.58 22.6,1.68 22.79,1.72 C23.09,1.82 22.8,1.73 22.71,1.72 C23.01,1.82 23.32,1.86 23.41,1.92 C23.75,2.04 23.33,1.88 23.45,1.91 C23.51,1.96 24.08,2.15 24.38,2.33 C24.52,2.39 24.24,2.25 24.48,2.36 C24.45,2.36 24.58,2.42 24.64,2.45 L24.71,2.47 L24.99,2.68 C25.44,2.93 24.92,2.59 25.5,2.95 L25.46,2.93 C25.61,3.05 25.88,3.18 26.26,3.5 C26.13,3.39 26.2,3.46 26.15,3.44 L26.37,3.6 C26.35,3.59 26.34,3.58 26.36,3.6 C26.54,3.76 26.53,3.73 26.74,3.91 C26.59,3.79 26.62,3.84 26.69,3.9 L27.01,4.15 L26.87,4.06 C27.17,4.31 27.61,4.7 27.72,4.87 L27.58,4.73 C27.59,4.75 27.66,4.84 27.84,5.03 C27.89,5.08 27.92,5.1 27.9,5.07 L28,5.18 C27.8,4.98 27.56,4.74 27.37,4.55 C27.45,4.52 27.61,4.69 27.57,4.63 Z M23.58,21.06 C23.6,21.05 23.63,21.03 23.73,20.95 C23.74,20.94 23.75,20.93 23.77,20.91 L23.76,20.92 C23.68,20.98 23.62,21.03 23.58,21.06 Z M22.96,21.41 C23.04,21.35 23.08,21.31 23.11,21.29 C23.07,21.32 23.02,21.36 22.96,21.41 L22.96,21.41 Z M22.33,21.91 C22.43,21.84 22.58,21.72 22.54,21.75 C22.6,21.7 22.62,21.68 22.6,21.69 C22.5,21.77 22.41,21.85 22.33,21.91 Z" id="Shape" fill-rule="nonzero"></path>
                                <path d="M23.89,20.79 C23.9,20.78 23.91,20.77 23.93,20.76 C23.91,20.78 23.89,20.79 23.87,20.8 L23.84,20.83 L23.89,20.79 Z" id="Path"></path>
                                <polygon id="Path" points="15.99 4.88 16.01 4.85 16 4.87"></polygon>
                                <polygon id="Path" points="14.78 29.94 14.78 29.94 14.82 29.89"></polygon>
                                <path d="M19.26,1.99 C19.28,1.98 19.29,1.98 19.32,1.97 C19.31,1.98 19.29,1.99 19.26,1.99 Z" id="Path"></path>
                                <path d="M22.52,1.64 C22.53,1.64 22.54,1.64 22.55,1.64 L22.55,1.64 L22.52,1.64 Z" id="Path"></path>
                                <path d="M9.06,18.69 L9.03,18.74 C8.98,18.86 9.02,18.78 9.06,18.69 Z" id="Path"></path>
                                <path d="M11.82,12.33 C11.79,12.4 11.76,12.47 11.74,12.54 C11.79,12.43 11.83,12.34 11.82,12.33 Z" id="Path"></path>
                                <polygon id="Path" points="5.8 25.66 5.8 25.66 5.78 25.71"></polygon>
                                <path d="M11.6,12.83 C11.66,12.71 11.69,12.63 11.73,12.54 C11.69,12.63 11.65,12.73 11.6,12.83 Z" id="Path"></path>
                                <polygon id="Path" points="27.85 4.96 27.86 4.97 27.8 4.91"></polygon>
                                <path d="M27.91,5.02 C27.89,5 27.88,4.99 27.86,4.96 L27.91,5.02 Z" id="Path"></path>
                                <path d="M28.02,5.14 L27.91,5.02 C27.95,5.06 28,5.12 28.02,5.14 Z" id="Path"></path>
                                <path d="M25.93,3.25 C26.03,3.33 26.21,3.47 26.36,3.59 L26.38,3.6 C26.3,3.54 26.05,3.31 25.93,3.25 Z" id="Path"></path>
                                <path d="M24.31,2.17 C23.75,1.89 24.43,2.23 23.83,1.97 C23.98,2.04 24.13,2.1 24.28,2.18 C24.21,2.14 24.11,2.08 24.31,2.17 Z" id="Path"></path>
                                <path d="M22.37,1.53 C22.63,1.57 22.37,1.52 22.38,1.52 C22.21,1.5 22.17,1.5 22.37,1.53 Z" id="Path"></path>
                                <path d="M14.14,7.78 L14.14,7.75 C14.04,7.92 14.15,7.75 14.14,7.78 Z" id="Path"></path>
                                <polygon id="Path" points="13.27 9.48 13.31 9.39 13.17 9.65"></polygon>
                                <polygon id="Path" points="12.52 10.62 12.37 10.93 12.48 10.7"></polygon>
                                <path d="M4.67,27.49 L4.72,27.45 C4.78,27.33 4.78,27.3 4.67,27.49 Z" id="Path"></path>
                                <path d="M1.67,34.75 C1.66,34.84 1.64,35.06 1.63,35.2 C1.65,35.03 1.67,34.85 1.67,34.75 Z" id="Path"></path>
                                <polygon id="Path" points="13.55 31.88 13.73 31.63 13.64 31.74"></polygon>
                            </g>
                        </g>
                        <path d="M94.22,203.02 C90.81,207.33 86.79,212.28 87.04,218.11 C87.31,224.4 91.82,228.16 96.8,231.16 C101.12,233.76 105.07,236.29 109.7,238.42 C112.47,239.69 114.34,242.07 117.12,243.4 C120,244.77 123.21,245.68 126.18,246.96 C129.13,248.23 131.05,249.79 133.4,251.88 C135.33,253.59 137.52,253.97 139.67,255.21 C141.09,256.02 142.2,257.56 143.7,258.16 C149.29,260.38 154.85,254.72 156.89,250.09 C157.43,248.87 159.82,242.24 155.3,237.67 C152.84,235.18 152.81,236.05 150.29,233.63 C145.22,228.76 141.14,224.3 135.69,219.94 C130.55,215.83 122.15,210.06 116.8,206.47 C113.25,204.09 110.29,200.84 106.7,198.57 C104.06,196.9 102.52,194.58 98.72,198.11 C97.18,199.5 95.67,201.18 94.22,203.02 Z" id="Path" fill="#014955"></path>
                        <path d="M84.77,129.16 C86.01,129.27 87.64,128.72 88.71,128.46 C91.19,127.86 96.89,127.14 96.74,123.76 C96.7,122.86 92.69,116.49 92.25,116.86 C93.06,116.19 93.73,115.5 94.36,114.7 C93.04,112.7 90.9,111.13 89.22,109.3 C85.71,105.48 82.47,100 76.49,103.06 C73.15,104.77 70.28,107.4 71.77,111.06 C72.92,113.9 74.84,116.65 76.56,119.18 C78.46,121.99 80.7,127.83 84.15,129.01 C84.34,129.1 84.54,129.14 84.77,129.16 Z" id="Path" fill="#E4D1D3"></path>
                        <path d="M77.46,102.6 C77.38,102.09 73.42,104.98 73.06,105.33 C71.85,106.49 70.43,107.57 70.75,109.45 C70.94,110.6 71.7,111.78 72.27,112.78 C73.7,115.3 75.38,117.69 77.01,120.06 C76.6,118.81 75.4,116.41 76.48,115.19 C77.34,114.23 79.7,114.35 80.69,114.96 C81.01,112.29 79.23,109.47 78.63,106.98 C78.29,105.53 77.68,104.03 77.46,102.6 Z" id="Path" fill="#5C5F65"></path>
                        <path d="M77.52,104.75 C77.17,103.44 76.77,102.19 76.21,100.96 C75.25,98.85 72.82,92.66 70.08,96.41 C68.51,95.01 64.83,92.54 63.16,95.13 C62.58,96.03 62.61,97.04 62.82,98.05 C62.93,98.6 63.83,100.33 63.59,100.82 C63.22,101.6 59.67,98.74 58.53,101.15 C56.53,105.39 62.72,108.85 64.94,111.37 C65.04,111.39 65.04,111.38 64.95,111.35 C60.18,113.29 68.63,118.55 70.52,119.26 C71.85,119.77 73.22,120.34 74.65,120.49 C75.94,120.63 77.03,120.73 76.41,119.43 C75.78,118.11 75.51,117.33 75.69,115.77 C75.86,114.21 76.39,112.71 77.06,111.29 C78.18,108.91 78.18,107.23 77.52,104.75 Z" id="Path" fill="#32363D"></path>
                        <path d="M82.32,131.02 C82.35,133.31 82.41,135.61 82.4,137.9 C82.4,140.66 82.19,141.25 84.77,142 C87.43,142.78 90.86,143.72 93.66,143.68 C94.6,141.58 93.75,137.5 93.45,135.19 C93.22,133.44 92.8,131.69 92.48,129.95 C92.09,127.86 91.96,124.79 90.29,123.28 C88.23,121.4 84.08,119.77 82.64,123.12 C82.15,124.27 82.31,126.14 82.3,127.38 C82.29,128.6 82.3,129.81 82.32,131.02 Z" id="Path" fill="#E4D1D3"></path>
                        <path d="M107.92,160.29 C107.34,157.84 106.72,155.4 106.03,152.96 C104.77,148.5 103.48,143.53 99.13,141.1 C94.45,138.49 88.86,138.5 83.74,139.58 C79.15,140.55 73.46,142.05 70.06,145.35 C68.03,147.32 65.88,149.93 65.21,152.73 C64.59,155.35 65.43,157.35 66.26,159.71 C67.64,163.6 68.86,167.54 70.37,171.38 C70.98,172.94 71.26,174.7 72.01,176.14 C72.78,177.62 74.29,178.51 74.87,180.15 C75.67,182.4 76.1,186.01 75.47,188.38 C75.07,189.91 74.17,191.13 74.82,192.79 C75.34,194.14 76.54,194.52 76.64,196.2 C76.72,197.56 76.05,198.96 75.93,200.33 C75.68,203.21 75.68,206.15 79.1,205.78 C84.09,205.24 88.64,204.79 93.46,203.33 C97.44,202.12 101.42,200.69 105.57,200.17 C109.15,199.72 111.97,200.86 115.53,199.8 C114.72,194.44 113.42,189.02 112.46,183.58 C111.06,175.79 109.73,168 107.92,160.29 Z" id="Path" fill="#0A966E"></path>
                        <path d="M295,60.99 L295,60.35 C291.85,60.74 288.59,61.31 285.39,62.05 C282.49,62.72 279.76,63.48 277.18,64.33 C277.17,64.31 277.17,64.28 277.16,64.26 C275.51,58.68 270.66,54.66 262.74,52.29 C251.44,48.91 239.49,49.52 230.35,50.42 C218.41,51.6 206.36,54.27 194.54,58.33 C186.81,61 179.47,64.2 173.31,66.97 C164.33,71.03 156.26,74.74 148.57,79.25 C146.39,80.53 144.17,82.04 141.98,83.76 C141.81,83.89 141.63,84.05 141.46,84.21 C141.14,84.5 140.8,84.8 140.46,84.98 C139.59,85.44 138.87,85.93 138.05,86.64 C137.92,86.76 137.76,86.85 137.58,86.94 C137.46,87.01 137.35,87.07 137.24,87.15 C137.03,87.29 136.84,87.45 136.65,87.61 C136.49,87.74 136.33,87.88 136.16,88 C136.01,88.1 135.87,88.2 135.72,88.3 C135.29,88.58 134.85,88.88 134.47,89.23 C133.93,89.72 133.34,90.17 132.77,90.6 C132.31,90.94 131.86,91.29 131.43,91.66 C131.3,91.77 131.16,91.88 131.02,92 C130.64,92.31 130.26,92.62 129.92,92.98 C129.59,93.33 129.23,93.63 128.84,93.95 C128.54,94.2 128.23,94.45 127.94,94.73 C127.76,94.9 127.56,95.04 127.35,95.2 C127.17,95.33 126.99,95.46 126.82,95.6 C126.72,95.69 126.63,95.79 126.54,95.89 C126.46,95.98 126.39,96.06 126.3,96.13 C125.84,96.5 125.33,96.86 124.64,97.33 C124.45,97.46 124.27,97.59 124.1,97.71 L123.93,97.83 C123.69,98 123.57,98.23 123.47,98.43 C123.41,98.55 123.35,98.67 123.27,98.75 L123.73,99.19 C123.87,99.04 123.96,98.87 124.04,98.72 C124.12,98.56 124.19,98.43 124.31,98.34 L124.48,98.22 C124.65,98.1 124.83,97.97 125.01,97.85 C125.71,97.38 126.23,97 126.71,96.62 C126.83,96.53 126.93,96.41 127.03,96.3 C127.1,96.22 127.17,96.14 127.25,96.07 C127.4,95.94 127.57,95.82 127.73,95.7 C127.95,95.54 128.18,95.38 128.39,95.18 C128.67,94.91 128.96,94.67 129.25,94.44 C129.64,94.12 130.04,93.79 130.39,93.41 C130.69,93.09 131.06,92.78 131.42,92.49 C131.56,92.37 131.7,92.26 131.84,92.14 C132.27,91.78 132.71,91.44 133.16,91.11 C133.74,90.67 134.35,90.21 134.9,89.7 C135.25,89.38 135.67,89.1 136.07,88.83 C136.22,88.73 136.38,88.63 136.52,88.52 C136.71,88.39 136.88,88.24 137.06,88.1 C137.23,87.95 137.41,87.81 137.6,87.68 C137.7,87.62 137.8,87.56 137.9,87.5 C138.09,87.39 138.29,87.28 138.47,87.12 C139.24,86.45 139.93,85.97 140.75,85.54 C141.16,85.33 141.53,85 141.88,84.69 C142.05,84.54 142.21,84.4 142.37,84.27 C144.55,82.57 146.74,81.07 148.9,79.81 C156.57,75.31 164.61,71.61 173.58,67.56 C179.73,64.78 187.06,61.59 194.76,58.94 C206.53,54.88 218.53,52.22 230.43,51.06 C239.52,50.16 251.39,49.56 262.58,52.91 C270.28,55.21 274.99,59.1 276.57,64.45 C276.58,64.48 276.59,64.51 276.6,64.54 C272.42,65.96 268.64,67.64 265.16,69.6 C261.42,71.71 254.47,75.65 254.07,81.43 C253.96,83.09 254.36,84.4 255.28,85.33 C256.37,86.43 258.16,86.94 260.45,86.81 C265.06,86.54 269.57,84.02 273.14,79.7 C276.98,75.06 278.5,69.73 277.36,64.95 C279.93,64.1 282.66,63.34 285.55,62.67 C288.68,61.94 291.9,61.39 295,60.99 Z M272.63,79.29 C270.63,81.71 266.37,85.83 260.39,86.17 C258.28,86.29 256.66,85.84 255.7,84.88 C254.92,84.09 254.57,82.94 254.67,81.47 C255.05,76.02 262.07,72.06 265.44,70.15 C268.87,68.21 272.6,66.56 276.72,65.15 C277.8,69.71 276.33,74.82 272.63,79.29 Z" id="Shape" fill="#BCCBD3" fill-rule="nonzero"></path>
                        <path d="M110.22,97.78 L130.03,73.58 C130.03,73.58 144.99,85.05 148.28,95.28 L121.79,110.56 C121.79,110.55 114.25,102.84 110.22,97.78 Z" id="Path" fill="#014955"></path>
                        <path d="M109.74,116.03 C109.74,116.03 119.78,123.15 122.47,124.71 C123.32,124.49 124.46,122.74 125.02,121.74 C125.02,121.74 117.9,117.71 117.7,116.58 C117.5,115.45 117.28,110.13 117.28,110.13 L109.74,116.03 Z" id="Path" fill="#014955"></path>
                        <path d="M132.42,75.36 L114.68,96.33 C114.18,96.92 114.15,97.78 114.62,98.41 L114.62,98.41 C115.21,99.2 116.36,99.3 117.09,98.63 L137.09,80.03 L132.42,75.36 Z" id="Path" fill="#096872"></path>
                        <g id="Group" transform="translate(112.000000, 113.000000)">
                            <g fill="#E4D1D3">
                                <path d="M3.42,14.23 C2.4,11.3 -0.11,8.21 0.49,4.92 C0.48,4.97 2.86,6.71 3.09,6.89 C3.61,6.39 3.82,4.79 4.14,4.05 C4.63,2.93 5.17,1.83 5.43,0.63 C6.39,1.56 5.91,3.07 6.54,4.03 C6.92,4.62 8.01,5 8.46,5.7 C9.52,7.36 8.8,9.77 8.5,11.54 C8.22,13.15 7.54,15.96 5.51,16.14 C4.69,16.21 3.77,15.56 3.83,14.82" id="Path"></path>
                                <g>
                                    <path d="M3.84,14.85 L3.85,14.89 L3.85,14.8 C3.84,14.78 3.84,14.79 3.84,14.85 Z" id="Path"></path>
                                    <path d="M3.89,15.19 C3.9,15.21 3.88,15.19 3.89,15.19 C3.91,15.25 3.95,15.32 3.94,15.27 C3.91,15.21 3.9,15.2 3.87,15.13 C3.85,15.08 3.85,15.03 3.85,15.04 C3.84,14.99 3.85,15.05 3.83,14.92 C3.83,15 3.85,15.1 3.89,15.19 Z" id="Path"></path>
                                    <path d="M7.97,13.63 C7.98,13.61 7.98,13.6 7.98,13.6 L7.97,13.63 Z" id="Path"></path>
                                    <path d="M8.77,10.15 C8.77,10.16 8.77,10.17 8.76,10.19 C8.76,10.17 8.77,10.15 8.77,10.15 Z" id="Path"></path>
                                    <path d="M8.88,9.56 C8.88,9.57 8.88,9.58 8.87,9.59 C8.88,9.57 8.88,9.58 8.88,9.56 Z" id="Path"></path>
                                    <path d="M7.98,13.6 L8.01,13.51 C8.01,13.51 7.99,13.56 7.98,13.6 Z" id="Path"></path>
                                    <path d="M4.39,15.77 C4.38,15.76 4.37,15.75 4.35,15.74 C4.36,15.75 4.37,15.76 4.39,15.77 L4.39,15.77 Z" id="Path"></path>
                                    <polygon id="Path" points="7.29 15 7.27 15.02 7.26 15.04"></polygon>
                                    <path d="M6.46,15.79 C6.43,15.81 6.42,15.82 6.41,15.82 C6.41,15.82 6.41,15.82 6.42,15.82 C6.45,15.81 6.46,15.8 6.46,15.79 Z" id="Path"></path>
                                    <path d="M7.72,14.25 L7.72,14.25 C7.72,14.24 7.72,14.24 7.72,14.25 Z" id="Path"></path>
                                    <path d="M2.92,12.93 L2.92,12.93 C2.92,12.94 2.93,12.94 2.92,12.93 Z" id="Path"></path>
                                    <polygon id="Path" points="3.42 14.22 3.41 14.2 3.41 14.2"></polygon>
                                    <path d="M9.02,8.46 L9.02,8.46 C9.02,8.49 9.02,8.48 9.02,8.46 Z" id="Path"></path>
                                    <path d="M5.1,1.67 C5.14,1.56 5.05,1.85 5.11,1.69 C5.1,1.71 5.15,1.54 5.1,1.67 Z" id="Path"></path>
                                    <path d="M4.41,15.79 L4.45,15.82 C4.43,15.8 4.43,15.8 4.41,15.79 Z" id="Path"></path>
                                    <path d="M8.63,5.96 L8.64,5.98 C8.64,5.97 8.64,5.97 8.63,5.96 Z" id="Path"></path>
                                    <path d="M9.03,7.81 L9.03,7.76 C9.03,7.79 9.03,7.8 9.03,7.81 Z" id="Path"></path>
                                    <path d="M8,5.18 L8.02,5.19 C8.01,5.18 8,5.18 8,5.18 Z" id="Path"></path>
                                    <path d="M8,5.18 C7.98,5.16 7.99,5.18 7.96,5.15 L7.97,5.16 C7.99,5.17 7.99,5.17 8,5.18 Z" id="Path"></path>
                                    <polygon id="Path" points="7.18 4.59 7.19 4.6 7.22 4.62"></polygon>
                                    <path d="M1.57,10.12 L1.58,10.17 C1.58,10.15 1.64,10.29 1.57,10.12 Z" id="Path"></path>
                                    <path d="M4.39,15.77 C4.41,15.78 4.41,15.78 4.42,15.79 L4.39,15.77 C4.38,15.77 4.38,15.77 4.39,15.77 Z" id="Path"></path>
                                    <path d="M7.95,5.2 L7.82,5.1 L7.95,5.2 Z" id="Path"></path>
                                    <path d="M2,6.1 C2.01,6.11 2.01,6.11 2.03,6.12 L2,6.1 Z" id="Path"></path>
                                    <path d="M7.43,4.82 C7.39,4.79 7.37,4.78 7.36,4.76 C7.35,4.76 7.35,4.75 7.34,4.75 L7.43,4.82 Z" id="Path"></path>
                                    <path d="M8.93,8.88 L8.93,8.86 L8.93,8.88 Z" id="Path"></path>
                                    <path d="M6.82,4.38 L6.8,4.37 L6.82,4.38 Z" id="Path"></path>
                                    <path d="M2.44,6.43 L2.42,6.42 L2.44,6.43 Z" id="Path"></path>
                                    <path d="M4,15.4 C4.01,15.41 4.01,15.41 4.01,15.42 L4,15.4 Z" id="Path"></path>
                                    <path d="M4.12,15.55 C4.19,15.63 4.27,15.69 4.35,15.75 C4.33,15.74 4.3,15.72 4.28,15.7 C4.36,15.77 4.35,15.75 4.42,15.8 C4.45,15.82 4.46,15.83 4.44,15.82 C4.53,15.87 4.6,15.92 4.71,15.96 C4.71,15.96 4.59,15.91 4.65,15.94 C4.84,16.02 4.88,16.03 5.1,16.07 C5.35,16.11 5.6,16.09 5.77,16.04 C5.78,16.04 5.64,16.06 5.75,16.04 C5.73,16.05 5.82,16.03 5.83,16.03 C5.95,15.99 6.01,15.97 6.09,15.94 C6.07,15.95 6.14,15.93 6.19,15.91 C6.18,15.92 6.32,15.85 6.15,15.94 C6.32,15.85 6.45,15.79 6.56,15.7 L6.52,15.73 L6.65,15.64 C6.64,15.65 6.62,15.66 6.59,15.69 L6.67,15.63 L6.67,15.63 C6.73,15.58 6.75,15.58 6.83,15.5 C6.8,15.54 6.74,15.58 6.71,15.61 C6.8,15.56 6.86,15.46 6.94,15.39 C6.94,15.4 6.86,15.48 6.89,15.46 C6.93,15.41 6.99,15.35 7.04,15.3 L7.03,15.31 C7.16,15.16 7.07,15.24 7.17,15.13 C7.17,15.13 7.18,15.12 7.17,15.12 C7.21,15.08 7.29,14.98 7.21,15.08 C7.26,15.03 7.3,14.96 7.31,14.93 C7.27,14.98 7.27,14.99 7.25,15.01 L7.4,14.77 C7.42,14.74 7.39,14.79 7.37,14.82 C7.56,14.55 7.68,14.24 7.84,13.9 C7.82,13.94 7.85,13.87 7.86,13.84 C7.91,13.73 7.97,13.56 8,13.45 L7.99,13.49 C8.08,13.22 8.13,13.03 8.18,12.85 C8.18,12.84 8.18,12.85 8.18,12.89 C8.21,12.75 8.27,12.6 8.27,12.56 L8.26,12.61 C8.33,12.34 8.38,12.04 8.43,11.76 C8.45,11.7 8.4,11.92 8.42,11.87 C8.46,11.62 8.48,11.51 8.53,11.27 C8.53,11.29 8.53,11.3 8.52,11.31 C8.56,11.1 8.51,11.33 8.54,11.15 C8.54,11.16 8.54,11.15 8.56,11.09 L8.56,11.04 C8.56,11.03 8.57,11.03 8.56,11.06 C8.6,10.83 8.59,10.9 8.62,10.68 C8.62,10.66 8.62,10.71 8.63,10.69 C8.65,10.59 8.65,10.57 8.67,10.47 C8.7,10.32 8.71,10.31 8.71,10.28 C8.74,10.11 8.71,10.25 8.73,10.12 L8.7,10.25 L8.74,10.01 L8.73,10.11 C8.76,9.96 8.77,9.86 8.79,9.76 L8.78,9.82 L8.8,9.67 C8.81,9.66 8.83,9.48 8.83,9.56 C8.88,9.3 8.89,9.12 8.92,8.88 C8.92,8.9 8.92,8.89 8.92,8.9 C8.94,8.76 8.94,8.67 8.95,8.58 C8.95,8.6 8.95,8.63 8.95,8.63 C8.97,8.46 8.95,8.53 8.96,8.34 C8.96,8.39 8.96,8.38 8.97,8.33 C8.97,8.34 8.97,8.29 8.97,8.26 C8.98,8.4 8.99,8.05 9,8.14 C9,8.13 8.99,7.83 8.98,7.92 L8.98,7.97 C8.98,7.98 8.98,7.91 8.98,7.85 L8.98,7.91 C8.98,7.64 8.96,7.36 8.91,7.06 C8.91,7.09 8.93,7.21 8.92,7.13 C8.88,6.83 8.83,6.66 8.73,6.38 C8.74,6.36 8.83,6.69 8.84,6.7 C8.75,6.4 8.64,6.08 8.45,5.79 C8.41,5.67 8.26,5.51 8.11,5.35 C8.12,5.37 8.04,5.3 7.95,5.22 C7.98,5.24 7.89,5.16 7.92,5.18 C7.84,5.12 7.59,4.94 7.61,4.94 C7.58,4.93 7.42,4.81 7.35,4.77 C7.24,4.69 7.11,4.61 6.98,4.51 C7.02,4.55 6.88,4.44 6.82,4.38 C6.83,4.39 6.84,4.4 6.84,4.39 C6.8,4.35 6.69,4.27 6.63,4.19 C6.6,4.16 6.64,4.19 6.6,4.14 C6.59,4.15 6.44,3.93 6.41,3.84 C6.42,3.85 6.43,3.87 6.45,3.9 C6.23,3.5 6.18,3.02 6.11,2.57 L6.13,2.65 C6.1,2.37 6.1,2.47 6.07,2.25 C6.03,1.95 5.98,1.64 5.87,1.35 C5.82,1.21 5.75,1.07 5.67,0.94 C5.63,0.88 5.59,0.81 5.54,0.76 C5.48,0.7 5.44,0.64 5.45,0.68 C5.45,0.69 5.45,0.68 5.46,0.68 C5.46,0.67 5.45,0.69 5.44,0.76 L5.45,0.75 C5.38,1.02 5.25,1.51 5.16,1.7 C5.08,1.95 5,2.12 4.89,2.41 C4.85,2.5 4.93,2.3 4.87,2.43 L4.76,2.7 L4.77,2.69 C4.67,2.96 4.46,3.37 4.32,3.7 L4.33,3.69 C4.33,3.68 4.3,3.75 4.28,3.8 C4.27,3.82 4.29,3.78 4.31,3.75 C4.19,4.04 4.15,4.1 4.08,4.34 C4.11,4.24 4.04,4.43 4.04,4.44 C4.02,4.5 4.06,4.41 4.02,4.55 C3.97,4.72 3.91,4.94 3.86,5.1 C3.85,5.17 3.82,5.26 3.83,5.26 C3.77,5.49 3.74,5.62 3.65,5.89 L3.65,5.9 C3.63,5.98 3.57,6.14 3.55,6.19 C3.55,6.18 3.56,6.15 3.56,6.16 L3.51,6.28 C3.53,6.22 3.54,6.19 3.5,6.29 C3.46,6.4 3.52,6.26 3.5,6.32 L3.48,6.35 C3.45,6.43 3.44,6.45 3.49,6.36 C3.43,6.49 3.37,6.63 3.29,6.74 C3.24,6.81 3.22,6.84 3.13,6.91 C3.07,6.86 3.01,6.82 2.95,6.77 L2.97,6.78 C2.86,6.69 2.8,6.65 2.63,6.53 C2.63,6.53 2.6,6.51 2.61,6.53 C2.48,6.44 2.58,6.5 2.48,6.43 C2.5,6.44 2.51,6.45 2.54,6.47 L2.26,6.27 C2.26,6.27 2.09,6.13 1.98,6.05 C1.97,6.05 2.01,6.08 2.04,6.1 L1.96,6.05 L1.91,6 L1.8,5.92 L1.8,5.91 C1.76,5.88 1.64,5.8 1.62,5.79 C1.46,5.66 1.43,5.64 1.26,5.5 C1.23,5.5 0.99,5.29 0.94,5.27 C0.76,5.13 0.68,5.06 0.57,4.97 L0.55,4.95 L0.55,4.97 C0.53,5.13 0.51,5.28 0.49,5.46 L0.49,5.43 C0.46,5.59 0.49,5.61 0.48,5.79 L0.48,5.75 C0.46,5.97 0.48,6.36 0.51,6.57 C0.5,6.53 0.5,6.55 0.51,6.62 C0.52,6.68 0.52,6.56 0.52,6.68 C0.52,6.65 0.52,6.67 0.52,6.7 C0.52,6.74 0.53,6.78 0.54,6.82 C0.58,7.12 0.64,7.48 0.73,7.79 C0.74,7.85 0.73,7.81 0.72,7.79 C0.78,8.04 0.87,8.27 0.94,8.49 L0.94,8.51 C0.98,8.62 0.97,8.57 1.02,8.71 C1.03,8.74 0.99,8.62 0.97,8.58 C1.04,8.79 1.02,8.7 1.1,8.9 L1.07,8.85 C1.12,9.01 1.14,9.02 1.17,9.08 C1.27,9.29 1.22,9.24 1.34,9.53 C1.36,9.57 1.34,9.51 1.36,9.56 C1.44,9.77 1.46,9.78 1.55,9.99 C1.59,10.1 1.5,9.89 1.55,10.01 L1.48,9.86 C1.53,10 1.42,9.74 1.43,9.76 C1.48,9.86 1.55,10.01 1.61,10.14 C1.6,10.14 1.54,9.99 1.56,10.05 L1.59,10.12 C1.58,10.09 1.57,10.07 1.56,10.06 C1.57,10.09 1.59,10.14 1.62,10.2 C1.62,10.2 1.63,10.2 1.62,10.18 L1.63,10.2 C1.78,10.49 1.74,10.42 1.85,10.65 C1.84,10.63 1.85,10.65 1.85,10.66 C1.87,10.7 1.95,10.85 1.98,10.92 C2,10.98 1.95,10.89 2.04,11.06 C2.06,11.09 2.03,11.01 2.1,11.15 C2.1,11.15 2.04,11.03 2.07,11.1 C2.14,11.24 2.09,11.15 2.15,11.27 C2.19,11.34 2.21,11.41 2.23,11.42 C2.24,11.47 2.24,11.45 2.28,11.54 C2.27,11.5 2.37,11.7 2.37,11.69 C2.38,11.73 2.29,11.55 2.34,11.67 C2.38,11.74 2.46,11.89 2.47,11.89 C2.5,11.95 2.53,12.02 2.55,12.07 C2.54,12.06 2.54,12.05 2.53,12.03 C2.61,12.19 2.73,12.44 2.78,12.52 C2.75,12.49 2.94,12.87 2.87,12.75 C2.89,12.78 2.94,12.9 2.97,12.95 C2.96,12.95 3.05,13.12 3.07,13.2 C3.14,13.35 3.13,13.34 3.18,13.44 C3.16,13.41 3.16,13.39 3.16,13.4 C3.2,13.48 3.19,13.46 3.21,13.54 C3.26,13.65 3.21,13.52 3.24,13.58 C3.28,13.68 3.24,13.6 3.24,13.62 L3.31,13.77 C3.32,13.8 3.33,13.82 3.33,13.84 C3.35,13.89 3.37,13.94 3.4,14.01 L3.35,13.88 L3.36,13.93 L3.42,14.08 C3.5,14.3 3.46,14.24 3.44,14.23 L3.4,14.14 C3.4,14.14 3.42,14.21 3.43,14.25 C3.44,14.29 3.36,14.11 3.33,14.01 C3.23,13.74 3.32,13.95 3.25,13.77 L3.15,13.54 L3.15,13.54 C3.14,13.5 3.12,13.48 3.12,13.47 C3.13,13.48 3.04,13.28 3,13.19 L3.01,13.23 C2.84,12.84 2.84,12.84 2.74,12.61 L2.66,12.47 L2.65,12.44 C2.61,12.36 2.59,12.35 2.53,12.21 C2.18,11.49 2.09,11.3 1.81,10.72 C1.82,10.74 1.82,10.75 1.83,10.77 C1.64,10.33 1.49,10.1 1.33,9.71 L1.34,9.74 C1.25,9.54 1.35,9.77 1.3,9.62 C1.28,9.59 1.19,9.37 1.13,9.25 C1.15,9.3 1.15,9.3 1.17,9.34 C1.16,9.32 1.16,9.31 1.14,9.25 C1.07,9.13 0.97,8.84 0.89,8.63 C0.87,8.55 0.85,8.46 0.81,8.32 C0.8,8.3 0.79,8.26 0.77,8.23 C0.75,8.15 0.73,8.1 0.71,8.04 C0.73,8.11 0.75,8.17 0.76,8.21 L0.76,8.21 C0.76,8.22 0.77,8.23 0.77,8.24 C0.78,8.27 0.79,8.29 0.79,8.3 C0.81,8.38 0.78,8.29 0.78,8.3 C0.76,8.23 0.71,8.09 0.71,8.07 C0.7,8.03 0.69,8 0.68,7.96 C0.67,7.91 0.67,7.91 0.66,7.87 L0.66,7.88 C0.66,7.87 0.66,7.87 0.66,7.86 C0.63,7.75 0.58,7.56 0.54,7.42 C0.58,7.53 0.54,7.39 0.55,7.39 C0.56,7.41 0.59,7.53 0.62,7.69 C0.62,7.68 0.62,7.66 0.62,7.66 C0.59,7.51 0.55,7.4 0.52,7.18 C0.52,7.19 0.53,7.22 0.53,7.21 C0.52,7.13 0.5,7.06 0.49,7.04 C0.49,7.02 0.47,6.85 0.45,6.76 C0.44,6.69 0.44,6.7 0.43,6.56 L0.44,6.62 C0.43,6.46 0.43,6.51 0.42,6.36 C0.42,6.41 0.43,6.42 0.42,6.38 C0.41,6.21 0.4,6.21 0.39,6.09 L0.4,6.11 C0.4,5.97 0.4,5.7 0.4,5.7 C0.38,5.74 0.41,5.39 0.43,5.27 C0.43,5.31 0.43,5.32 0.43,5.32 C0.45,5.12 0.46,5.05 0.47,4.95 L0.5,4.95 L0.54,4.96 C0.66,5.04 0.73,5.11 0.83,5.18 L0.86,5.21 C0.89,5.23 1.1,5.37 1.13,5.39 L1.08,5.36 C1.3,5.53 1.37,5.57 1.55,5.71 L1.54,5.71 C1.63,5.77 1.65,5.79 1.74,5.86 C1.87,5.98 2.31,6.27 2.55,6.48 L2.57,6.48 C2.67,6.55 2.8,6.65 2.84,6.69 L2.82,6.67 C2.8,6.67 2.92,6.74 2.98,6.79 C3.03,6.82 3.08,6.86 3.04,6.82 C3.09,6.85 3.07,6.87 3.1,6.84 C3.13,6.81 3.16,6.78 3.19,6.74 C3.25,6.67 3.29,6.58 3.33,6.5 C3.41,6.33 3.47,6.17 3.51,6.08 C3.61,5.77 3.67,5.53 3.76,5.19 L3.76,5.19 C3.79,5.08 3.86,4.84 3.87,4.85 C3.94,4.6 3.96,4.44 4.07,4.15 L4.05,4.21 C4.08,4.13 4.12,4.04 4.13,3.99 C4.14,3.97 4.13,3.99 4.13,3.99 C4.16,3.92 4.17,3.88 4.2,3.83 L4.19,3.85 C4.35,3.49 4.45,3.25 4.56,2.99 C4.54,3.04 4.55,3.02 4.56,3 C4.71,2.62 4.74,2.55 4.79,2.43 L4.76,2.51 C4.85,2.27 4.85,2.31 4.94,2.07 L4.88,2.2 C4.92,2.1 4.95,2.02 4.93,2.04 C4.98,1.93 4.94,2.03 5.01,1.86 C5.02,1.85 4.97,1.98 4.99,1.93 L5.08,1.7 L5.08,1.7 L5.09,1.68 L5.08,1.7 C5.09,1.66 5.09,1.66 5.12,1.59 C5.1,1.61 5.18,1.39 5.13,1.51 C5.18,1.35 5.23,1.19 5.28,1.04 C5.3,0.96 5.32,0.89 5.34,0.82 C5.35,0.78 5.36,0.75 5.37,0.71 C5.38,0.68 5.38,0.65 5.39,0.62 C5.4,0.59 5.43,0.65 5.45,0.66 C5.57,0.77 5.82,1.16 5.78,1.15 C5.86,1.3 5.91,1.43 5.95,1.53 C5.93,1.48 5.93,1.46 5.91,1.42 C5.93,1.46 5.99,1.66 6.01,1.75 C5.98,1.64 5.93,1.46 5.89,1.38 C5.95,1.53 6.01,1.74 6.03,1.82 L6.03,1.86 C6.06,1.99 6.04,1.97 6.07,2.1 L6.07,2.08 C6.09,2.24 6.12,2.39 6.14,2.54 L6.14,2.53 C6.15,2.61 6.17,2.72 6.17,2.8 L6.15,2.66 C6.15,2.67 6.16,2.79 6.16,2.84 C6.18,2.99 6.18,2.89 6.19,2.97 C6.19,3 6.19,2.98 6.17,2.93 C6.19,3.1 6.24,3.33 6.28,3.45 C6.28,3.46 6.28,3.45 6.28,3.45 C6.32,3.62 6.39,3.77 6.43,3.87 L6.42,3.84 C6.47,3.98 6.61,4.15 6.62,4.18 C6.66,4.24 6.53,4.06 6.59,4.15 C6.73,4.31 6.69,4.25 6.82,4.38 C6.8,4.36 6.81,4.37 6.8,4.36 C6.9,4.45 7.05,4.56 7.17,4.64 C7.31,4.76 7.64,4.96 7.8,5.1 C7.75,5.06 7.83,5.12 7.85,5.12 L7.85,5.12 C7.87,5.13 7.92,5.17 7.95,5.19 C8.08,5.3 8.06,5.28 8.15,5.36 C8.15,5.36 8.2,5.4 8.25,5.45 C8.15,5.35 8.21,5.42 8.17,5.38 C8.32,5.53 8.35,5.54 8.47,5.72 L8.52,5.83 C8.54,5.85 8.63,6.02 8.64,6.02 C8.66,6.05 8.67,6.11 8.67,6.1 C8.71,6.18 8.75,6.3 8.77,6.33 L8.74,6.25 C8.83,6.5 8.89,6.65 8.93,6.86 L8.92,6.86 C8.94,7 8.98,7.11 8.98,7.23 C8.98,7.19 8.98,7.18 8.99,7.27 C8.98,7.22 8.97,7.12 8.95,7.04 C8.97,7.1 8.97,7.16 8.98,7.22 C8.97,7.12 8.95,7.03 8.93,6.94 C8.96,7.06 8.96,7.05 8.95,7 C8.99,7.17 8.97,7.19 9,7.35 C9.01,7.41 8.99,7.35 9,7.42 C9.02,7.57 9.01,7.7 9.02,7.81 C9.02,7.84 9.02,7.75 9.01,7.76 C9.01,7.83 9.01,7.83 9.02,7.95 L9.02,7.87 C9.02,7.92 9.02,7.94 9.02,8.09 C9.02,8.17 9.03,8.21 9.03,8.13 C9.03,8.17 9.03,8.24 9.02,8.21 C9.01,8.42 9.03,8.31 9.01,8.52 C9.01,8.51 9.01,8.49 9.01,8.5 C9.01,8.57 9.01,8.57 9,8.63 C9.01,8.45 8.99,8.69 9,8.47 C8.99,8.49 8.99,8.63 8.98,8.7 C8.97,8.81 8.99,8.71 8.99,8.77 C8.99,8.77 8.98,8.81 8.98,8.86 L8.99,8.81 C8.99,8.85 8.98,8.87 8.98,8.95 L8.99,8.86 C8.98,8.93 8.97,9.04 8.94,9.26 C8.94,9.22 8.95,9.13 8.93,9.24 C8.91,9.42 8.92,9.28 8.9,9.38 C8.87,9.56 8.9,9.41 8.86,9.68 C8.86,9.71 8.86,9.68 8.87,9.65 C8.83,9.87 8.83,9.84 8.79,10.1 C8.81,10.02 8.82,9.97 8.8,10.07 C8.8,10.02 8.77,10.21 8.75,10.28 L8.75,10.3 C8.74,10.35 8.75,10.3 8.75,10.25 C8.75,10.25 8.75,10.24 8.76,10.2 C8.77,10.11 8.76,10.14 8.73,10.28 C8.7,10.43 8.72,10.4 8.72,10.38 C8.7,10.52 8.68,10.59 8.66,10.75 C8.66,10.77 8.6,11 8.59,11.07 C8.58,11.14 8.63,10.9 8.62,10.98 C8.56,11.2 8.54,11.44 8.48,11.73 L8.48,11.69 C8.47,11.76 8.46,11.81 8.44,11.9 L8.46,11.8 C8.45,11.87 8.42,12.03 8.42,11.98 C8.39,12.13 8.39,12.17 8.35,12.31 C8.38,12.16 8.35,12.31 8.37,12.2 C8.33,12.4 8.33,12.37 8.31,12.48 C8.31,12.46 8.29,12.52 8.28,12.56 C8.23,12.77 8.22,12.83 8.18,12.98 L8.18,12.98 C8.12,13.22 8.03,13.47 7.95,13.71 L7.95,13.72 L7.96,13.7 C8,13.62 7.89,13.88 7.87,13.95 C7.86,13.96 7.86,13.97 7.84,14.01 C7.85,14.02 7.81,14.1 7.79,14.13 C7.75,14.21 7.79,14.12 7.73,14.25 C7.71,14.3 7.71,14.31 7.71,14.3 C7.67,14.38 7.63,14.44 7.61,14.48 C7.64,14.42 7.64,14.42 7.65,14.4 C7.65,14.39 7.62,14.43 7.62,14.43 C7.59,14.49 7.61,14.46 7.57,14.53 L7.6,14.46 C7.57,14.51 7.56,14.53 7.56,14.54 C7.58,14.49 7.58,14.5 7.57,14.5 C7.48,14.68 7.56,14.54 7.56,14.55 C7.47,14.72 7.39,14.84 7.31,14.97 L7.32,14.94 C7.3,14.97 7.28,15 7.25,15.05 L7.18,15.14 C7.22,15.09 7.23,15.07 7.23,15.06 C7.16,15.15 7.06,15.28 7.05,15.31 L7.05,15.31 C6.94,15.43 6.71,15.65 6.71,15.64 C6.58,15.75 6.4,15.87 6.4,15.87 C6.31,15.92 6.17,15.99 6.1,16.02 C5.99,16.05 6.09,16.02 6.13,16 C6.02,16.03 5.91,16.09 5.87,16.09 C5.74,16.12 5.9,16.09 5.86,16.1 C5.83,16.09 5.61,16.14 5.48,16.15 C5.42,16.16 5.54,16.15 5.44,16.16 C5.45,16.16 5.4,16.16 5.37,16.16 L5.34,16.17 L5.21,16.14 C5.02,16.12 5.25,16.16 4.99,16.12 L5.01,16.12 C4.94,16.09 4.83,16.08 4.66,16 C4.72,16.03 4.69,16.01 4.7,16.01 L4.6,15.97 C4.61,15.97 4.61,15.97 4.6,15.97 C4.52,15.92 4.53,15.93 4.44,15.88 C4.5,15.92 4.49,15.9 4.46,15.88 L4.33,15.8 L4.39,15.83 C4.27,15.75 4.09,15.6 4.06,15.53 L4.12,15.55 C4.11,15.54 4.09,15.5 4.03,15.43 C4.02,15.41 4,15.4 4.01,15.41 L3.98,15.36 C4,15.39 4.11,15.54 4.2,15.62 C4.16,15.59 4.1,15.52 4.12,15.55 Z M0.61,7.49 C0.62,7.53 0.63,7.6 0.63,7.59 C0.64,7.62 0.64,7.63 0.64,7.62 C0.62,7.57 0.61,7.53 0.61,7.49 Z" id="Shape" fill-rule="nonzero"></path>
                                    <polygon id="Path" points="0.76 8.21 0.77 8.22 0.76 8.2 0.75 8.18"></polygon>
                                    <path d="M7.97,13.63 C7.97,13.63 7.97,13.64 7.97,13.63 L7.97,13.63 L7.97,13.63 Z" id="Path"></path>
                                    <polygon id="Path" points="1.76 5.93 1.76 5.92 1.74 5.91"></polygon>
                                    <path d="M7.17,15.11 L7.15,15.13 L7.17,15.11 Z" id="Path"></path>
                                    <polygon id="Path" points="6.19 15.91 6.19 15.92 6.19 15.92"></polygon>
                                    <path d="M8.99,7.85 L8.99,7.83 C8.98,7.78 8.99,7.81 8.99,7.85 Z" id="Path"></path>
                                    <path d="M8.68,10.46 C8.68,10.43 8.69,10.4 8.69,10.38 C8.69,10.42 8.68,10.46 8.68,10.46 Z" id="Path"></path>
                                    <polygon id="Path" points="7.96 5.21 7.96 5.21 7.95 5.2"></polygon>
                                    <path d="M8.72,10.26 C8.71,10.33 8.71,10.33 8.7,10.38 C8.7,10.33 8.71,10.32 8.72,10.26 Z" id="Path"></path>
                                    <polygon id="Path" points="4.02 15.41 4.02 15.41 4.04 15.43"></polygon>
                                    <path d="M4,15.38 C4,15.39 4.01,15.39 4.02,15.4 L4,15.38 Z" id="Path"></path>
                                    <path d="M3.97,15.33 L4,15.38 C4,15.37 4,15.37 3.97,15.33 Z" id="Path"></path>
                                    <path d="M4.79,15.99 C4.74,15.97 4.67,15.93 4.6,15.9 L4.59,15.9 C4.63,15.91 4.74,15.98 4.79,15.99 Z" id="Path"></path>
                                    <path d="M5.51,16.13 C5.75,16.1 5.46,16.13 5.7,16.09 L5.51,16.13 C5.55,16.11 5.6,16.11 5.51,16.13 Z" id="Path"></path>
                                    <path d="M6.26,15.91 C6.18,15.96 6.27,15.91 6.26,15.91 C6.32,15.88 6.33,15.88 6.26,15.91 Z" id="Path"></path>
                                    <path d="M8.33,12.38 L8.33,12.38 C8.35,12.32 8.33,12.39 8.33,12.38 Z" id="Path"></path>
                                    <polygon id="Path" points="8.44 11.66 8.44 11.7 8.46 11.59"></polygon>
                                    <polygon id="Path" points="8.58 11.16 8.61 11.03 8.59 11.13"></polygon>
                                    <path d="M7.33,4.69 L7.35,4.71 C7.39,4.74 7.4,4.74 7.33,4.69 Z" id="Path"></path>
                                    <path d="M6.09,2.08 C6.09,2.05 6.08,1.96 6.06,1.91 C6.07,1.97 6.08,2.03 6.09,2.08 Z" id="Path"></path>
                                    <polygon id="Path" points="2.49 6.4 2.4 6.33 2.44 6.36"></polygon>
                                </g>
                            </g>
                            <g transform="translate(3.000000, 12.000000)" fill="#00BC87">
                                <path d="M13.73,43.53 C12.19,43.37 10.72,42.9 9.59,42.07 C5.34,38.93 5.9,33.08 6.01,28.41 C6.14,22.69 4.74,17.15 3.21,11.66 C2.46,8.96 0.23,5.75 0.89,2.81 C3.15,2.2 5.54,0.37 7.98,0.18 C8.56,1.87 8.94,3.7 9.6,5.33 C10.62,7.83 12.8,9.21 14.06,11.47 C15.41,13.86 15.57,16.37 17.13,18.68 C18.58,20.83 19.61,22.71 20.53,25.2 C22.2,29.69 26.07,39 20.72,42.17 C18.87,43.24 16.19,43.78 13.73,43.53 Z" id="Path"></path>
                                <g>
                                    <path d="M13.88,43.51 L13.99,43.5 L13.75,43.49 C13.7,43.49 13.73,43.5 13.88,43.51 Z" id="Path"></path>
                                    <path d="M14.81,43.57 C14.87,43.57 14.81,43.58 14.81,43.57 C14.98,43.57 15.19,43.55 15.07,43.54 C14.85,43.56 14.91,43.55 14.65,43.57 C14.5,43.57 14.38,43.55 14.41,43.55 C14.32,43.55 14.3,43.55 14.09,43.54 C14.28,43.57 14.54,43.58 14.81,43.57 Z" id="Path"></path>
                                    <path d="M23.31,34.2 C23.31,34.17 23.31,34.14 23.3,34.1 L23.31,34.2 Z" id="Path"></path>
                                    <path d="M20.58,25.13 C20.61,25.2 20.62,25.22 20.62,25.23 C20.6,25.16 20.57,25.11 20.58,25.13 Z" id="Path"></path>
                                    <path d="M20,23.63 C20.01,23.66 20.02,23.69 20.04,23.72 C20.02,23.67 20.01,23.66 20,23.63 Z" id="Path"></path>
                                    <path d="M23.3,34.1 L23.26,33.85 C23.25,33.84 23.28,33.98 23.3,34.1 Z" id="Path"></path>
                                    <path d="M16.87,43.39 C16.83,43.4 16.78,43.41 16.74,43.41 C16.78,43.41 16.82,43.4 16.87,43.39 L16.87,43.39 Z" id="Path"></path>
                                    <path d="M23.35,38.23 L23.34,38.31 C23.34,38.33 23.34,38.35 23.34,38.37 L23.35,38.23 Z" id="Path"></path>
                                    <path d="M22.09,40.99 C22.07,41.02 22.04,41.07 22,41.11 C22,41.11 22.01,41.11 22.03,41.09 C22.08,41.05 22.08,41.02 22.09,40.99 Z" id="Path"></path>
                                    <path d="M23.5,35.96 C23.5,35.95 23.5,35.94 23.5,35.93 C23.5,35.93 23.5,35.94 23.5,35.96 Z" id="Path"></path>
                                    <path d="M10.25,42.4 L10.25,42.4 C10.26,42.41 10.27,42.41 10.25,42.4 Z" id="Path"></path>
                                    <polygon id="Path" points="13.71 43.53 13.66 43.52 13.65 43.53"></polygon>
                                    <path d="M18.71,20.99 L18.71,20.99 C18.75,21.06 18.73,21.03 18.71,20.99 Z" id="Path"></path>
                                    <path d="M4.85,1.04 C5.14,0.93 4.41,1.26 4.83,1.09 C4.79,1.1 5.2,0.9 4.85,1.04 Z" id="Path"></path>
                                    <path d="M16.95,43.38 C16.99,43.37 17.03,43.37 17.08,43.36 C17.02,43.37 16.98,43.37 16.95,43.38 Z" id="Path"></path>
                                    <path d="M15.59,15.04 C15.6,15.07 15.6,15.09 15.6,15.11 C15.61,15.11 15.61,15.09 15.59,15.04 Z" id="Path"></path>
                                    <path d="M17.78,19.52 L17.72,19.41 C17.75,19.47 17.77,19.5 17.78,19.52 Z" id="Path"></path>
                                    <path d="M14.66,12.53 C14.67,12.55 14.67,12.56 14.68,12.58 C14.67,12.56 14.67,12.54 14.66,12.53 Z" id="Path"></path>
                                    <path d="M14.66,12.53 C14.64,12.49 14.64,12.48 14.61,12.41 L14.62,12.44 C14.64,12.47 14.64,12.49 14.66,12.53 Z" id="Path"></path>
                                    <polygon id="Path" points="13.31 10.22 13.34 10.27 13.39 10.34"></polygon>
                                    <path d="M6.22,35.59 L6.22,35.72 C6.23,35.67 6.29,36.06 6.22,35.59 Z" id="Path"></path>
                                    <path d="M16.87,43.4 C16.89,43.39 16.91,43.39 16.95,43.38 L16.87,43.4 C16.86,43.4 16.85,43.4 16.87,43.4 Z" id="Path"></path>
                                    <path d="M14.51,12.53 L14.33,12.14 C14.39,12.26 14.45,12.39 14.51,12.53 Z" id="Path"></path>
                                    <path d="M4.53,16.31 C4.52,16.27 4.52,16.25 4.5,16.21 L4.53,16.31 Z" id="Path"></path>
                                    <path d="M13.72,11.03 C13.67,10.94 13.63,10.88 13.6,10.82 C13.59,10.81 13.58,10.8 13.57,10.78 L13.72,11.03 Z" id="Path"></path>
                                    <path d="M19.13,22.05 L19.11,22.01 C19.12,22.03 19.12,22.04 19.13,22.05 Z" id="Path"></path>
                                    <path d="M12.52,9.48 L12.48,9.44 C12.49,9.44 12.5,9.46 12.52,9.48 Z" id="Path"></path>
                                    <path d="M4.17,14.86 L4.18,14.9 L4.17,14.86 Z" id="Path"></path>
                                    <path d="M4.18,14.9 L4.2,14.95 C4.19,14.93 4.19,14.92 4.18,14.9 Z" id="Path"></path>
                                    <path d="M15.45,43.56 C15.47,43.56 15.48,43.56 15.5,43.56 L15.45,43.56 Z" id="Path"></path>
                                    <path d="M15.94,43.52 C16.21,43.49 16.48,43.46 16.74,43.41 C16.67,43.43 16.58,43.45 16.52,43.47 C16.82,43.44 16.74,43.43 16.96,43.39 C17.05,43.38 17.1,43.38 17.05,43.39 C17.35,43.33 17.51,43.3 17.84,43.23 C17.84,43.23 17.51,43.31 17.7,43.28 C18.23,43.15 18.34,43.1 18.9,42.91 C19.54,42.67 20.15,42.44 20.55,42.18 C20.57,42.16 20.23,42.34 20.5,42.19 C20.46,42.23 20.67,42.11 20.68,42.11 C21.07,41.82 20.99,41.87 21.27,41.67 C21.23,41.71 21.39,41.6 21.49,41.53 C21.47,41.57 21.8,41.31 21.42,41.63 C21.81,41.32 22.04,40.99 22.27,40.7 L22.18,40.79 C22.28,40.69 22.36,40.58 22.42,40.46 C22.39,40.51 22.36,40.56 22.32,40.63 L22.46,40.4 L22.46,40.4 C22.57,40.21 22.58,40.18 22.75,39.93 C22.68,40.06 22.61,40.19 22.54,40.31 C22.67,40.08 22.84,39.83 22.91,39.54 C22.92,39.56 22.81,39.84 22.86,39.76 C22.92,39.57 22.98,39.38 23.05,39.19 L23.05,39.22 C23.23,38.72 23.1,39.02 23.22,38.65 C23.21,38.66 23.22,38.61 23.21,38.63 C23.24,38.49 23.32,38.16 23.27,38.49 C23.3,38.31 23.34,38.1 23.34,38.01 C23.3,38.16 23.3,38.2 23.27,38.25 C23.3,38.01 23.37,37.77 23.38,37.52 C23.38,37.44 23.38,37.58 23.38,37.68 C23.49,36.82 23.44,35.92 23.37,34.95 C23.37,35.06 23.35,34.88 23.33,34.79 C23.3,34.47 23.24,34 23.18,33.71 L23.21,33.8 C23.07,33.05 22.94,32.55 22.83,32.06 C22.82,32.04 22.84,32.06 22.87,32.15 C22.78,31.79 22.71,31.35 22.64,31.27 L22.67,31.4 C22.49,30.69 22.23,29.93 21.99,29.21 C21.95,29.03 22.13,29.62 22.1,29.47 C21.95,28.97 21.76,28.47 21.57,27.93 C21.6,28 21.6,28.01 21.62,28.04 C21.44,27.5 21.62,28.1 21.46,27.65 C21.48,27.67 21.47,27.65 21.42,27.5 L21.36,27.37 C21.35,27.35 21.37,27.35 21.4,27.41 C21.31,27.22 21.1,26.62 21.02,26.47 C21.01,26.43 21.07,26.53 21.05,26.47 C20.97,26.23 20.9,26.07 20.83,25.91 L20.83,25.91 C20.74,25.66 20.69,25.5 20.66,25.42 C20.51,24.99 20.62,25.35 20.49,25.04 L20.61,25.38 L20.38,24.78 L20.48,25.02 C20.38,24.74 20.26,24.46 20.13,24.15 L20.18,24.3 L20.03,23.94 C20.04,23.89 19.84,23.48 19.95,23.66 C19.68,23 19.45,22.6 19.16,22.03 C19.19,22.08 19.18,22.06 19.19,22.07 C19.02,21.72 18.9,21.53 18.77,21.33 C18.8,21.37 18.85,21.45 18.85,21.45 C18.63,21.05 18.71,21.21 18.45,20.78 C18.53,20.9 18.51,20.86 18.44,20.74 C18.44,20.76 18.38,20.66 18.33,20.59 C18.56,20.89 18.06,20.09 18.21,20.28 C18.19,20.26 17.76,19.61 17.86,19.81 L17.93,19.92 C17.93,19.94 17.83,19.78 17.76,19.66 C17.8,19.72 17.85,19.79 17.85,19.79 C17.46,19.19 17.02,18.58 16.62,17.87 C16.66,17.93 16.83,18.21 16.73,18.03 C16.35,17.32 16.14,16.9 15.84,16.15 C15.85,16.11 16.16,16.96 16.21,16.98 C15.86,16.2 15.58,15.37 15.27,14.48 C15.21,14.16 14.96,13.61 14.78,13.06 C14.79,13.12 14.68,12.85 14.55,12.56 C14.6,12.65 14.47,12.35 14.52,12.43 C14.4,12.18 14.03,11.47 14.06,11.49 C14,11.44 13.76,10.98 13.61,10.8 C13.42,10.5 13.17,10.2 12.9,9.85 C12.98,9.97 12.68,9.6 12.54,9.45 C12.57,9.48 12.59,9.5 12.58,9.49 C12.5,9.38 12.24,9.12 12.08,8.93 C12.01,8.84 12.11,8.94 11.99,8.8 C11.99,8.8 11.87,8.68 11.73,8.53 C11.6,8.38 11.44,8.21 11.37,8.11 C11.44,8.2 11.45,8.2 11.5,8.25 C10.71,7.38 9.97,6.34 9.5,5.22 L9.6,5.41 C9.34,4.7 9.38,4.96 9.19,4.4 C8.93,3.63 8.72,2.83 8.5,2.03 C8.39,1.63 8.27,1.24 8.16,0.85 L7.97,0.28 C7.94,0.19 7.96,0.23 7.83,0.23 L7.54,0.27 C7.43,0.3 7.61,0.26 7.63,0.27 C7.5,0.28 7.45,0.28 7.28,0.32 L7.32,0.32 C6.6,0.4 5.35,0.96 4.86,1.14 C4.24,1.44 3.79,1.64 3.04,2.02 C2.79,2.12 3.31,1.87 2.98,2.02 L2.27,2.35 L2.31,2.33 C1.97,2.49 1.5,2.67 0.99,2.8 C0.96,2.77 0.95,2.98 0.92,3.09 C0.9,3.22 0.87,3.35 0.87,3.47 C0.85,3.73 0.84,3.98 0.87,4.21 L0.87,4.17 C0.86,4.15 0.85,4.34 0.88,4.49 C0.89,4.54 0.88,4.44 0.88,4.35 C0.98,5.17 1.03,5.35 1.2,5.99 C1.12,5.72 1.26,6.25 1.26,6.28 C1.32,6.44 1.24,6.18 1.37,6.55 C1.54,7.07 1.72,7.55 1.89,7.98 C1.97,8.15 2.06,8.37 2.08,8.38 C2.32,8.95 2.46,9.28 2.76,9.98 L2.76,10 C2.86,10.19 2.99,10.63 3.05,10.76 C3.04,10.74 3.01,10.67 3.01,10.69 L3.13,11.02 C3.07,10.87 3.02,10.79 3.11,11.06 C3.21,11.34 3.1,10.98 3.15,11.11 L3.16,11.2 C3.23,11.42 3.27,11.47 3.19,11.2 C3.42,11.94 3.61,12.67 3.79,13.33 L3.76,13.26 C3.87,13.62 3.99,14.12 4.04,14.34 C4.05,14.35 4.08,14.44 4.07,14.38 C4.19,14.78 4.08,14.49 4.18,14.81 C4.15,14.72 4.13,14.63 4.12,14.62 L4.36,15.51 C4.36,15.52 4.39,15.65 4.42,15.84 C4.47,16.05 4.52,16.25 4.56,16.45 C4.57,16.46 4.55,16.35 4.53,16.26 L4.59,16.5 L4.61,16.69 L4.71,17.04 L4.69,17.05 C4.75,17.31 4.8,17.41 4.85,17.62 C5.01,18.41 4.97,18.25 5.07,18.82 C5.12,18.88 5.25,19.71 5.3,19.85 C5.41,20.61 5.62,21.7 5.74,22.69 L5.73,22.61 C5.77,23.04 5.82,23.09 5.86,23.55 L5.84,23.43 C5.9,24.11 5.98,25.01 6.04,25.62 C6.03,25.5 6.02,25.56 6.03,25.74 C6.05,25.89 6.05,25.59 6.06,25.91 C6.05,25.83 6.05,25.89 6.05,25.97 L6.08,26.28 C6.09,27.1 6.09,28.07 6.07,28.91 C6.06,29.07 6.06,28.95 6.05,28.91 C6.04,29.57 6.03,30.26 6.02,30.86 L6,30.92 C5.99,31.22 6.03,31.11 6,31.49 C6,31.58 6,31.24 5.99,31.13 C5.97,31.73 6.01,31.48 6,32.05 L5.98,31.9 C5.97,32.34 6,32.4 6.01,32.56 C6.04,33.17 5.97,33 6.02,33.83 C6.04,33.96 6.03,33.78 6.05,33.92 C6.1,34.5 6.1,34.57 6.17,35.15 C6.17,35.46 6.13,34.86 6.14,35.2 L6.1,34.76 C6.12,35.15 6.07,34.41 6.05,34.47 C6.06,34.76 6.14,35.19 6.19,35.57 C6.17,35.57 6.13,35.14 6.13,35.31 L6.16,35.5 C6.15,35.45 6.14,35.44 6.13,35.33 C6.12,35.4 6.16,35.55 6.18,35.74 C6.19,35.75 6.2,35.74 6.2,35.68 C6.2,35.69 6.2,35.71 6.2,35.73 C6.29,36.1 6.38,36.73 6.49,37.03 C6.47,36.98 6.48,37.02 6.48,37.04 C6.54,37.26 6.6,37.49 6.72,37.77 C6.76,37.93 6.66,37.69 6.82,38.15 C6.86,38.23 6.81,38.02 6.95,38.4 C6.94,38.4 6.82,38.07 6.87,38.25 C7.02,38.62 6.91,38.37 7.05,38.71 C7.15,38.89 7.21,39.08 7.25,39.11 C7.28,39.24 7.28,39.2 7.39,39.43 C7.35,39.33 7.64,39.84 7.65,39.81 C7.68,39.91 7.41,39.46 7.56,39.75 C7.67,39.95 7.94,40.27 7.98,40.29 C8.08,40.43 8.11,40.5 8.28,40.71 C8.26,40.68 8.22,40.65 8.2,40.62 C8.52,40.97 9,41.49 9.25,41.62 C9.14,41.6 10.04,42.26 9.73,42.06 C9.89,42.18 10.17,42.33 10.23,42.35 C10.19,42.37 10.66,42.59 10.86,42.69 C10.97,42.73 11.3,42.86 11.51,42.93 C11.42,42.9 11.37,42.89 11.4,42.91 C11.63,42.98 11.57,42.97 11.77,43.05 C12.09,43.14 11.72,43.01 11.91,43.06 C12.18,43.15 11.95,43.09 11.99,43.11 L12.41,43.19 C12.49,43.21 12.55,43.23 12.58,43.25 C12.73,43.27 12.86,43.29 13.06,43.33 L12.7,43.26 L12.84,43.3 L13.27,43.35 C13.89,43.45 13.69,43.45 13.64,43.48 L13.38,43.45 C13.39,43.46 13.56,43.49 13.67,43.5 C13.78,43.52 13.26,43.49 12.98,43.44 C12.23,43.3 12.83,43.38 12.33,43.27 C12.11,43.22 11.89,43.17 11.68,43.11 L11.68,43.1 C11.58,43.06 11.52,43.05 11.49,43.04 C11.54,43.04 10.98,42.86 10.73,42.73 L10.81,42.78 C10.11,42.49 9.76,42.2 9.29,41.82 L8.95,41.57 L8.89,41.5 C8.69,41.35 8.67,41.31 8.39,41.02 C7.43,39.96 6.72,38.56 6.39,37.15 C6.39,37.17 6.4,37.21 6.42,37.3 C6.15,36.06 5.97,35.36 5.91,34.22 L5.92,34.3 C5.87,33.72 5.93,34.38 5.91,33.96 C5.88,33.88 5.86,33.22 5.84,32.89 C5.85,32.98 5.85,33.05 5.86,33.15 C5.86,33.09 5.87,33.06 5.87,32.9 C5.83,32.53 5.83,31.73 5.83,31.14 C5.85,30.95 5.87,30.64 5.9,30.3 C5.9,30.25 5.89,30.14 5.88,30.03 C5.9,29.82 5.89,29.66 5.89,29.51 C5.88,29.7 5.88,29.86 5.88,29.99 L5.88,29.98 L5.88,30.06 C5.88,30.17 5.88,30.21 5.88,30.23 C5.86,30.45 5.87,30.21 5.85,30.22 C5.86,30.03 5.86,29.63 5.88,29.58 C5.89,29.47 5.89,29.39 5.89,29.27 C5.89,29.18 5.89,29.12 5.89,29.03 L5.89,29.07 C5.89,29.05 5.89,29.04 5.9,29.02 C5.92,28.64 5.9,28.11 5.89,27.8 C5.91,28.1 5.92,27.73 5.93,27.72 C5.93,27.76 5.92,28.11 5.92,28.55 C5.92,28.51 5.93,28.49 5.93,28.48 C5.95,28.07 5.93,27.77 5.93,27.17 C5.93,27.21 5.94,27.28 5.94,27.26 C5.94,27.05 5.92,26.85 5.91,26.8 C5.92,26.75 5.93,26.29 5.91,26.06 C5.89,25.86 5.88,25.89 5.86,25.53 L5.88,25.69 C5.86,25.27 5.85,25.35 5.83,25 C5.84,25.14 5.85,25.15 5.84,25.05 C5.8,24.61 5.79,24.6 5.74,24.29 L5.76,24.35 C5.72,23.98 5.61,23.28 5.64,23.26 C5.62,23.38 5.52,22.45 5.47,22.13 C5.49,22.24 5.5,22.26 5.5,22.27 C5.37,21.47 5.27,20.88 5.17,20.21 L5.18,20.1 C5.11,19.74 5.04,19.65 4.96,19.25 L5,19.39 C4.86,18.69 4.8,18.43 4.68,17.86 L4.7,17.87 C4.64,17.64 4.59,17.45 4.54,17.22 C4.48,16.75 4.09,15.42 3.92,14.59 L3.87,14.55 C3.79,14.23 3.67,13.83 3.66,13.67 L3.68,13.74 C3.71,13.77 3.6,13.42 3.55,13.23 C3.51,13.08 3.45,12.94 3.48,13.07 C3.27,12.22 2.91,10.99 2.73,10.48 C2.41,9.67 2.11,9.08 1.76,8.21 L1.77,8.22 C1.65,7.93 1.43,7.33 1.45,7.32 C1.21,6.68 1.03,6.29 0.85,5.49 C0.86,5.55 0.88,5.6 0.9,5.66 C0.85,5.45 0.78,5.15 0.76,5.06 C0.75,4.99 0.76,5.04 0.77,5.05 C0.75,4.85 0.72,4.74 0.7,4.59 L0.72,4.65 C0.69,4.33 0.66,3.91 0.69,3.47 C0.69,3.25 0.75,3.03 0.77,2.8 C0.74,2.68 0.91,2.67 0.94,2.66 L1.09,2.61 C1.19,2.58 1.29,2.55 1.39,2.51 C1.25,2.56 1.33,2.55 1.38,2.53 C1.7,2.4 2.55,2.04 2.86,1.88 L2.67,1.98 C3.27,1.68 3.21,1.76 3.81,1.45 L3.46,1.6 C3.71,1.49 3.91,1.38 3.85,1.4 C4.14,1.27 3.89,1.4 4.33,1.2 C4.35,1.2 4.02,1.35 4.17,1.3 L4.78,1.04 L4.78,1.04 C4.8,1.03 4.81,1.03 4.83,1.02 L4.79,1.04 C4.83,1.02 4.89,1 5.08,0.91 C5.01,0.9 5.59,0.69 5.26,0.79 C6.13,0.43 6.9,0.2 7.71,0.09 C7.78,0.09 7.83,0.08 7.88,0.08 C8.02,0.01 8.01,0.22 8.04,0.27 C8.09,0.43 8.15,0.61 8.2,0.77 C8.3,1.1 8.38,1.39 8.35,1.36 C8.48,1.8 8.59,2.15 8.68,2.41 C8.65,2.31 8.62,2.22 8.59,2.12 C8.63,2.23 8.79,2.76 8.85,2.98 C8.76,2.7 8.64,2.34 8.53,2.01 C8.64,2.38 8.82,2.95 8.89,3.18 L8.9,3.29 C9.02,3.62 8.96,3.58 9.09,3.9 L9.08,3.84 C9.28,4.45 9.3,4.45 9.51,5 L9.49,4.98 C9.56,5.17 9.7,5.44 9.76,5.63 L9.6,5.28 C9.6,5.32 9.71,5.6 9.76,5.72 C9.95,6.08 9.85,5.84 9.95,6.02 C9.98,6.1 9.95,6.04 9.87,5.92 C10.08,6.33 10.43,6.84 10.64,7.09 C10.65,7.11 10.63,7.09 10.63,7.09 C10.91,7.48 11.2,7.78 11.38,8.01 L11.32,7.94 C11.55,8.25 11.99,8.67 12.01,8.76 C12.13,8.9 11.74,8.45 11.92,8.68 C12.29,9.11 12.2,8.94 12.52,9.32 C12.48,9.27 12.49,9.29 12.47,9.27 C12.71,9.54 13.02,9.91 13.27,10.23 C13.56,10.63 14.13,11.47 14.33,12.01 C14.27,11.85 14.39,12.09 14.41,12.12 C14.41,12.12 14.4,12.11 14.41,12.13 C14.5,12.32 14.52,12.33 14.55,12.4 C14.61,12.56 14.79,12.92 14.81,13.02 C14.82,13.02 14.88,13.17 14.94,13.35 C14.8,13.01 14.88,13.24 14.81,13.1 C15,13.62 15.06,13.68 15.24,14.22 L15.32,14.52 C15.36,14.57 15.52,15.08 15.53,15.06 C15.55,15.16 15.6,15.29 15.58,15.28 C15.66,15.49 15.76,15.82 15.81,15.91 L15.74,15.69 C15.97,16.36 16.16,16.74 16.37,17.23 L16.33,17.24 C16.47,17.57 16.65,17.83 16.78,18.11 C16.74,18.01 16.72,17.99 16.85,18.19 C16.78,18.07 16.65,17.86 16.54,17.65 C16.62,17.79 16.71,17.93 16.79,18.06 C16.66,17.84 16.54,17.63 16.43,17.4 C16.59,17.68 16.57,17.66 16.53,17.54 C16.75,17.94 16.74,17.99 16.99,18.35 C17.07,18.49 16.97,18.36 17.06,18.51 C17.29,18.83 17.45,19.15 17.62,19.37 C17.67,19.45 17.53,19.24 17.54,19.26 C17.68,19.47 17.78,19.63 17.83,19.68 L17.72,19.49 C17.82,19.65 17.85,19.67 18.04,19.98 C18.16,20.15 18.23,20.25 18.11,20.05 C18.16,20.13 18.26,20.31 18.21,20.25 C18.5,20.74 18.38,20.46 18.64,20.95 C18.62,20.92 18.6,20.88 18.61,20.9 C18.68,21.03 18.73,21.11 18.78,21.2 C18.54,20.78 18.83,21.35 18.55,20.84 C18.57,20.9 18.76,21.22 18.84,21.38 C18.98,21.62 18.88,21.4 18.95,21.51 C18.94,21.51 19,21.61 19.06,21.73 L19.01,21.61 C19.06,21.71 19.11,21.8 19.18,21.93 L19.07,21.73 C19.17,21.95 19.33,22.26 19.54,22.7 C19.48,22.6 19.37,22.39 19.49,22.66 C19.71,23.09 19.53,22.76 19.64,23.02 C19.84,23.46 19.7,23.08 19.98,23.74 C20.01,23.81 19.99,23.74 19.96,23.67 C20.14,24.12 20.25,24.36 20.41,24.8 C20.34,24.61 20.29,24.46 20.39,24.71 C20.34,24.6 20.52,25.07 20.57,25.25 L20.59,25.29 C20.63,25.43 20.58,25.28 20.53,25.17 C20.53,25.17 20.52,25.13 20.49,25.05 C20.4,24.84 20.41,24.93 20.53,25.27 C20.67,25.63 20.67,25.57 20.65,25.5 C20.83,25.99 20.85,25.95 21.02,26.42 C21.05,26.51 21.2,26.96 21.29,27.24 C21.37,27.41 21.15,26.81 21.23,27 C21.4,27.58 21.68,28.16 21.91,28.92 L21.86,28.83 C21.92,29.01 21.97,29.17 22.04,29.37 L21.97,29.11 C22.03,29.28 22.16,29.7 22.1,29.57 C22.24,29.96 22.26,30.05 22.37,30.42 C22.25,30.03 22.37,30.41 22.27,30.13 C22.4,30.57 22.4,30.58 22.49,30.86 C22.47,30.82 22.5,30.97 22.53,31.08 C22.62,31.34 22.74,31.81 22.83,32.19 L22.82,32.19 C22.99,32.82 23.08,33.53 23.21,34.18 L23.21,34.21 L23.2,34.16 C23.19,33.93 23.27,34.67 23.31,34.87 C23.31,34.91 23.3,34.94 23.32,35.05 C23.34,35.06 23.37,35.3 23.37,35.4 C23.37,35.63 23.35,35.37 23.36,35.76 C23.37,35.91 23.38,35.93 23.38,35.91 C23.37,35.99 23.38,36.24 23.38,36.45 C23.38,36.34 23.37,36.27 23.37,36.22 C23.36,36.19 23.37,36.33 23.36,36.33 C23.36,36.51 23.39,36.41 23.37,36.63 C23.37,36.56 23.37,36.49 23.36,36.42 C23.36,36.51 23.36,36.63 23.36,36.67 C23.36,36.53 23.35,36.55 23.34,36.57 C23.32,37.1 23.37,36.67 23.39,36.7 C23.34,37.2 23.37,37.6 23.28,37.98 L23.28,37.91 C23.25,38.1 23.24,38.19 23.23,38.26 L23.18,38.55 C23.21,38.38 23.21,38.32 23.2,38.31 C23.17,38.62 23.03,39.03 23.01,39.11 L23.01,39.1 C22.93,39.29 22.85,39.61 22.72,39.84 C22.59,40.07 22.48,40.25 22.48,40.24 C22.3,40.66 21.88,41.05 21.89,41.07 C21.8,41.17 21.69,41.29 21.57,41.42 C21.45,41.53 21.31,41.61 21.25,41.68 C20.99,41.86 21.23,41.68 21.3,41.61 C21.04,41.79 20.8,42.01 20.7,42.04 C20.4,42.25 20.78,42 20.68,42.08 C20.6,42.1 20.08,42.42 19.76,42.54 C19.63,42.61 19.91,42.48 19.67,42.6 C19.69,42.58 19.56,42.64 19.5,42.67 L19.44,42.71 L19.1,42.79 C18.61,42.98 19.21,42.79 18.56,43.01 L18.6,43 C18.41,43.04 18.13,43.16 17.64,43.26 C17.81,43.23 17.71,43.24 17.76,43.22 L17.49,43.29 C17.51,43.28 17.52,43.28 17.5,43.28 C17.26,43.32 17.29,43.33 17.01,43.37 C17.2,43.33 17.14,43.33 17.06,43.34 L16.66,43.42 L16.82,43.37 C16.43,43.43 15.84,43.52 15.64,43.5 L15.84,43.48 C15.82,43.47 15.71,43.47 15.44,43.49 C15.37,43.49 15.33,43.51 15.37,43.51 L15.22,43.51 C15.51,43.48 15.85,43.45 16.12,43.43 C16.1,43.5 15.86,43.52 15.94,43.52 Z M5.92,29.68 C5.92,29.7 5.91,29.74 5.91,29.87 C5.91,29.88 5.91,29.9 5.92,29.92 L5.92,29.9 C5.91,29.8 5.92,29.73 5.92,29.68 Z M6.05,28.97 C6.05,29.07 6.05,29.13 6.05,29.17 C6.05,29.12 6.05,29.05 6.05,28.97 L6.05,28.97 Z M6.07,28.16 C6.06,28.28 6.06,28.47 6.06,28.43 C6.06,28.51 6.06,28.54 6.07,28.51 C6.07,28.38 6.07,28.25 6.07,28.16 Z" id="Shape" fill-rule="nonzero"></path>
                                    <path d="M5.92,30.09 C5.92,30.11 5.92,30.12 5.92,30.14 C5.92,30.11 5.92,30.08 5.93,30.06 L5.93,30.02 L5.92,30.09 Z" id="Path"></path>
                                    <path d="M23.31,34.2 C23.31,34.21 23.31,34.22 23.31,34.24 C23.31,34.23 23.31,34.23 23.31,34.22 L23.31,34.2 Z" id="Path"></path>
                                    <polygon id="Path" points="4.72 17.08 4.72 17.08 4.74 17.15"></polygon>
                                    <path d="M23.19,38.64 C23.19,38.66 23.18,38.67 23.17,38.7 C23.18,38.69 23.19,38.67 23.19,38.64 Z" id="Path"></path>
                                    <polygon id="Path" points="21.51 41.51 21.49 41.53 21.49 41.53"></polygon>
                                    <path d="M17.74,19.67 L17.71,19.62 C17.63,19.51 17.68,19.59 17.74,19.67 Z" id="Path"></path>
                                    <path d="M20.81,25.94 C20.78,25.87 20.75,25.8 20.72,25.73 C20.77,25.85 20.8,25.94 20.81,25.94 Z" id="Path"></path>
                                    <polygon id="Path" points="14.53 12.58 14.53 12.58 14.51 12.53"></polygon>
                                    <path d="M20.61,25.43 C20.66,25.56 20.69,25.64 20.72,25.73 C20.69,25.63 20.65,25.53 20.61,25.43 Z" id="Path"></path>
                                    <polygon id="Path" points="15.49 43.52 15.48 43.52 15.56 43.52"></polygon>
                                    <path d="M15.4,43.53 C15.43,43.53 15.45,43.53 15.48,43.53 L15.4,43.53 Z" id="Path"></path>
                                    <path d="M15.24,43.54 L15.41,43.53 C15.35,43.53 15.28,43.53 15.24,43.54 Z" id="Path"></path>
                                    <path d="M18.08,43.15 C17.95,43.18 17.73,43.22 17.54,43.27 L17.52,43.28 C17.61,43.24 17.95,43.2 18.08,43.15 Z" id="Path"></path>
                                    <path d="M19.96,42.59 C20.54,42.33 19.84,42.64 20.42,42.35 L19.97,42.57 C20.05,42.53 20.16,42.49 19.96,42.59 Z" id="Path"></path>
                                    <path d="M21.7,41.46 C21.5,41.64 21.72,41.47 21.7,41.48 C21.81,41.35 21.84,41.31 21.7,41.46 Z" id="Path"></path>
                                    <path d="M22.55,30.82 L22.57,30.84 C22.52,30.64 22.57,30.84 22.55,30.82 Z" id="Path"></path>
                                    <polygon id="Path" points="21.89 29 21.93 29.08 21.83 28.8"></polygon>
                                    <polygon id="Path" points="21.55 27.66 21.43 27.33 21.52 27.57"></polygon>
                                    <path d="M13.61,10.61 L13.63,10.67 C13.71,10.78 13.75,10.79 13.61,10.61 Z" id="Path"></path>
                                    <path d="M9.18,3.94 C9.16,3.85 9.1,3.63 9.05,3.5 C9.1,3.67 9.15,3.84 9.18,3.94 Z" id="Path"></path>
                                    <polygon id="Path" points="4.01 14.88 4.09 15.17 4.06 15.04"></polygon>
                                </g>
                            </g>
                        </g>
                        <path d="M91.9,162.37 C87.87,161.9 83.82,161.46 80.9,158.31 C78.14,155.34 77.18,149.94 79.85,145.63 C81.26,143.36 83.47,141.7 85.73,140.78 C87.99,139.86 90.31,139.61 92.55,139.6 C99.17,139.56 105.29,141.47 111.25,143.51 C117.4,145.61 123.49,147.87 129.57,150.12 C130.19,150.35 130.82,150.59 131.33,151.01 C132.45,151.95 132.79,153.72 132.6,155.45 C132.36,157.58 132.12,160.13 131.42,162.16 C131.06,163.22 130.76,163.47 130.19,164.46 C129.16,166.26 128.64,167.7 126.53,168 C123.02,168.5 119.28,167.43 115.64,167.59 C112.84,167.72 110.2,168.14 107.42,167.49 C104.25,166.75 101.65,164.9 98.66,163.74 C96.54,162.92 94.22,162.64 91.9,162.37 Z" id="Path" fill="#00BC87"></path>
                        <path d="M84.61,233.74 C85.23,236.72 84.43,239.64 85.02,242.65 C85.63,245.79 86.81,248.91 87.54,252.04 C88.27,255.17 88.16,257.64 87.88,260.76 C87.68,263.05 88.44,264.87 88.81,266.99 L112.54,266.99 C112.49,266.14 112.37,265.44 112.62,263.49 C113.53,256.52 114.7,250.59 114.96,243.61 C115.21,237.03 114.87,226.85 114.58,220.43 C114.38,216.16 115.24,211.86 114.94,207.61 C114.72,204.5 115.67,201.87 110.57,200.92 C108.51,200.54 106.25,200.33 103.91,200.25 C98.42,200.07 92.04,199.78 87.5,203.45 C82.6,207.4 82.24,213.26 82.79,219.05 C83.26,224.09 83.57,228.77 84.61,233.74 Z" id="Path" fill="#096872"></path>
                        <g id="Group" transform="translate(136.000000, 231.000000)" fill="#014955">
                            <path d="M1.74,8.24 C1.84,7.93 1.94,7.66 2.01,7.46 L2.03,7.38 C1.89,7.72 1.82,7.99 1.74,8.24 Z" id="Path"></path>
                            <path d="M2.01,7.48 C2.02,7.45 2.04,7.39 2.05,7.35 L2.01,7.46 L2.01,7.48 Z" id="Path"></path>
                            <path d="M24.39,11.78 L24.32,11.69 L24.34,11.7 L24.12,11.31 C24.11,11.33 24.25,11.61 24.34,11.78 C24.42,11.95 23.95,11.17 23.72,10.74 C23.07,9.6 23.63,10.47 23.19,9.69 C22.99,9.36 22.76,9.04 22.54,8.72 L22.55,8.7 C22.46,8.54 22.38,8.46 22.35,8.42 C22.43,8.47 21.81,7.65 21.54,7.26 L21.62,7.41 C20.78,6.4 20.37,5.75 19.62,5.02 C19.44,4.86 19.27,4.68 19.08,4.53 L18.99,4.4 C18.65,4.12 18.57,4.05 18.07,3.63 C16.22,2 13.74,0.76 11.25,0.52 C11.28,0.53 11.36,0.54 11.51,0.56 C10.42,0.4 9.55,0.49 8.75,0.7 C7.95,0.92 7.21,1.22 6.36,1.7 L6.46,1.62 C5.63,2.18 6.57,1.53 5.95,1.92 C5.86,1.99 5.24,2.51 4.81,2.93 C4.73,3.02 4.64,3.11 4.58,3.17 C4.64,3.1 4.73,3.01 4.81,2.93 C4.84,2.9 4.86,2.88 4.89,2.84 C4.81,2.91 4.76,2.92 4.56,3.13 C4.15,3.63 3.32,4.73 2.87,5.65 C2.79,5.75 2.37,6.52 2.17,6.93 C2.14,7.02 2.09,7.2 2.03,7.38 C2.05,7.35 2.07,7.3 2.09,7.26 C2.08,7.3 2.07,7.31 2.06,7.35 C2.13,7.18 2.16,7.09 2.17,7.07 C2.34,6.72 2.17,7.11 2.21,7.1 C2.06,7.4 1.87,8.07 1.82,8.13 C1.76,8.32 1.7,8.44 1.66,8.64 C1.63,8.78 1.6,8.89 1.57,9.04 L1.58,8.97 C1.57,9 1.56,9.03 1.55,9.05 C1.37,9.68 1.44,10.6 1.52,11.12 C1.46,10.63 1.47,11.18 1.47,11.25 C1.52,11.52 1.58,11.82 1.66,12.2 C1.64,12.14 1.59,12.01 1.6,12.06 C1.7,12.42 1.82,12.73 1.86,12.81 C1.85,12.91 2.13,13.66 2.3,14.01 C2.47,14.31 2.46,14.26 2.73,14.82 L2.59,14.58 C2.91,15.24 2.9,15.1 3.17,15.64 C3.06,15.42 3.03,15.41 3.12,15.58 C3.51,16.24 3.53,16.25 3.85,16.71 L3.77,16.64 C4.12,17.19 4.8,18.22 4.78,18.26 C4.72,18.05 5.56,19.46 5.85,19.95 C5.75,19.78 5.72,19.76 5.7,19.74 C6.36,20.75 6.92,21.85 7.45,22.94 L7.49,23.14 C7.75,23.73 7.93,23.85 8.18,24.51 L8.07,24.28 C8.54,25.43 8.68,25.91 8.98,26.87 L8.95,26.86 C9.07,27.22 9.2,27.6 9.32,27.96 C9.48,28.76 10.28,31.04 10.82,32.43 L10.91,32.49 C11.13,33.01 11.47,33.65 11.56,33.92 L11.5,33.81 C11.44,33.78 11.75,34.32 11.91,34.64 C12.04,34.88 12.19,35.1 12.09,34.89 C12.26,35.24 12.46,35.62 12.67,36.02 L33.76,36.02 C33.76,36.02 33.76,36.01 33.75,36.01 C33.64,35.73 33.73,35.89 33.66,35.72 C33.59,35.55 33.52,35.39 33.44,35.22 C33.41,35.17 33.4,35.17 33.4,35.19 C33.38,35.13 33.34,35.02 33.29,34.89 C32.79,33.74 32.31,32.6 31.84,31.45 L31.77,31.3 C31.78,31.33 31.8,31.34 31.81,31.37 C31.44,30.48 31.08,29.57 30.72,28.67 C30.56,28.27 30.44,27.96 30.45,27.98 C30.3,27.62 30.13,27.22 29.99,26.9 C29.85,26.58 29.77,26.35 29.75,26.34 C29.79,26.44 29.83,26.53 29.86,26.59 C29.83,26.55 29.79,26.52 29.75,26.4 C29.74,26.36 29.74,26.34 29.75,26.34 C29.58,25.91 29.39,25.19 29.23,24.9 C29.07,24.37 29.23,24.87 29.31,25.02 C29.15,24.49 28.91,23.99 28.9,23.8 C28.68,23.2 28.94,23.95 28.84,23.75 C28.85,23.61 28.47,22.62 28.31,22.04 C28.21,21.79 28.38,22.3 28.22,21.87 C28.25,21.91 28.17,21.67 28.13,21.56 L28.06,21.45 L27.98,21.03 C27.92,20.85 27.86,20.67 27.8,20.49 C27.75,20.39 27.84,20.73 27.55,19.89 L27.58,19.96 C27.51,19.64 27.28,19.15 27.02,18.32 C27.11,18.6 27.07,18.43 27.11,18.52 L26.94,18.07 C26.96,18.11 26.96,18.13 26.95,18.08 C26.83,17.67 26.81,17.73 26.67,17.26 C26.71,17.38 26.74,17.43 26.75,17.45 C26.67,17.22 26.58,16.99 26.49,16.75 L26.46,16.67 L26.47,16.69 C25.85,15.01 25.19,13.37 24.4,11.81 C24.39,11.78 24.37,11.75 24.36,11.73 C24.35,11.73 24.35,11.72 24.34,11.72 L24.39,11.78 Z M10.58,31.75 L10.49,31.52 L10.7,32.01 L10.58,31.75 Z M29.45,25.58 C29.56,25.91 29.53,25.85 29.42,25.57 C29.44,25.6 29.29,25.15 29.45,25.58 Z M28.32,22.2 L28.59,23.03 C28.23,21.95 28.59,23.22 28.28,22.17 C28.41,22.54 28.36,22.34 28.32,22.2 Z" id="Shape"></path>
                            <path d="M1.97,7.67 C1.92,7.82 1.88,7.94 1.85,8.04 C1.87,8.01 1.9,7.95 1.96,7.73 C1.97,7.69 1.97,7.66 1.98,7.64 L1.97,7.67 Z" id="Path"></path>
                            <path d="M1.43,10.82 C1.41,10.56 1.38,10.22 1.43,9.84 C1.42,9.9 1.41,9.95 1.4,9.96 C1.36,10.38 1.39,10.75 1.46,11.17 C1.45,11.1 1.44,10.99 1.43,10.82 Z" id="Path"></path>
                            <path d="M27.04,18.25 C27.04,18.24 27.04,18.24 27.03,18.23 C27.03,18.23 27.03,18.23 27.04,18.25 C27.04,18.24 27.04,18.24 27.04,18.25 Z" id="Path"></path>
                        </g>
                    </g>
                </g>
            </g>
        </g>
    </g>
</svg>
