<svg width="320" height="115" viewBox="0 0 320 115" fill="none" xmlns="http://www.w3.org/2000/svg">
<path fill-rule="evenodd" clip-rule="evenodd" d="M255.471 52.8689C254.374 51.6534 252.964 51.0646 251.201 51.0646C249.438 51.0646 248.028 51.6534 246.892 52.8689C245.795 54.0452 245.247 55.4959 245.247 57.2218C245.247 58.9862 245.795 60.437 246.892 61.6525C248.028 62.8287 249.438 63.4169 251.201 63.4169C252.964 63.4169 254.374 62.8287 255.471 61.6525C256.568 60.437 257.117 58.9862 257.117 57.2218C257.117 55.4959 256.568 54.0452 255.471 52.8689ZM256.842 38.124H262.365V67.9265H256.959V65.2988C255.236 67.3776 253.042 68.4362 250.339 68.4362C247.323 68.4362 244.777 67.3776 242.778 65.2603C240.781 63.1031 239.762 60.4369 239.762 57.2217C239.762 54.0451 240.781 51.3788 242.778 49.2223C244.815 47.0651 247.323 46.0065 250.339 46.0065C252.924 46.0065 255.079 47.0259 256.842 49.0256V38.124ZM178.974 61.5741C177.839 62.7504 176.467 63.3385 174.783 63.3385C173.099 63.3385 171.688 62.7504 170.552 61.5741C169.416 60.3586 168.868 58.9078 168.868 57.2218C168.868 55.5352 169.416 54.0844 170.552 52.9081C171.688 51.7318 173.099 51.143 174.783 51.143C176.467 51.143 177.839 51.7318 178.974 52.9081C180.11 54.0844 180.698 55.5352 180.698 57.2218C180.698 58.9078 180.11 60.3586 178.974 61.5741ZM174.783 45.9673C171.453 45.9673 168.711 47.0651 166.556 49.2609C164.401 51.4181 163.344 54.0843 163.344 57.2217C163.344 60.3977 164.401 63.0639 166.556 65.2211C168.711 67.3776 171.453 68.4755 174.783 68.4755C178.113 68.4755 180.855 67.3776 183.009 65.2211C185.164 63.0639 186.221 60.3977 186.221 57.2217C186.221 54.0843 185.164 51.4181 183.009 49.2609C180.855 47.0651 178.113 45.9673 174.783 45.9673ZM121.551 46.5555V67.9267H127.075V57.7701C127.075 53.3394 129.151 51.2999 132.285 51.2999C133.068 51.2999 133.93 51.4574 134.832 51.7319L135.301 46.4379C134.439 46.1236 133.578 45.9674 132.716 45.9674C130.091 45.9674 128.133 47.1045 126.84 49.4178V46.5555H121.551ZM112.387 55.0645H101.535C102.201 52.2806 104.277 50.5939 107.058 50.5939C109.879 50.5939 111.877 52.2806 112.387 55.0645ZM101.536 59.1822H117.558C117.676 58.3189 117.754 57.4962 117.754 56.7512C117.754 53.4177 116.736 50.8299 114.737 48.908C112.74 46.9867 110.154 46.0065 107.059 46.0065C103.768 46.0065 101.105 47.0651 99.0287 49.1824C96.9527 51.3004 95.9336 53.9673 95.9336 57.2217C95.9336 60.3193 96.9128 62.9862 98.9112 65.1427C100.909 67.2992 103.768 68.3971 107.529 68.3971C111.055 68.3971 114.15 67.4168 116.852 65.4564L114.659 61.574C112.817 62.8293 110.075 63.7311 107.764 63.7311C104.396 63.7311 102.32 62.2013 101.536 59.1822ZM144.15 61.4173C145.286 62.5544 146.696 63.1425 148.381 63.1425C150.065 63.1425 151.476 62.5544 152.612 61.4173C153.748 60.2404 154.296 58.7896 154.296 57.0644C154.296 55.3392 153.748 53.927 152.612 52.7906C151.476 51.6535 150.065 51.0647 148.381 51.0647C146.696 51.0647 145.286 51.6535 144.15 52.7906C143.014 53.927 142.466 55.3392 142.466 57.0644C142.466 58.8288 143.014 60.2796 144.15 61.4173ZM154.374 46.5556H159.467V65.8088C159.467 69.2206 158.37 71.9653 156.176 73.9657C153.983 75.9653 151.123 76.9848 147.636 76.9848C143.993 76.9848 140.703 75.9653 137.843 73.8872L139.997 69.7304C142.466 71.4164 144.973 72.2398 147.48 72.2398C151.711 72.2398 154.139 69.7696 154.139 66.3185V65.2213C152.494 67.0635 150.3 67.9659 147.558 67.9659C144.424 67.9659 141.877 66.9458 139.88 64.8677C137.882 62.789 136.903 60.2018 136.903 57.0252C136.903 53.8486 137.96 51.2215 140.036 49.1434C142.113 47.0647 144.698 46.0067 147.793 46.0067C150.417 46.0067 152.611 46.9862 154.374 48.9082V46.5556ZM190.095 67.9267V46.5555H195.502V49.5355C196.637 47.4574 199.183 45.9674 202.2 45.9674C204.512 45.9674 206.51 46.7516 208.116 48.2808C209.721 49.8099 210.545 52.0057 210.545 54.8686V67.9267H205.02V56.3586C205.02 52.9473 203.219 51.0646 200.516 51.0646C197.578 51.0646 195.619 53.2996 195.619 56.4769V67.9267H190.095ZM229.775 61.5741C228.639 62.7504 227.267 63.3385 225.583 63.3385C223.899 63.3385 222.489 62.7504 221.353 61.5741C220.217 60.3586 219.668 58.9078 219.668 57.2218C219.668 55.5352 220.217 54.0844 221.353 52.9081C222.489 51.7318 223.899 51.143 225.583 51.143C227.267 51.143 228.639 51.7318 229.775 52.9081C230.911 54.0844 231.499 55.5352 231.499 57.2218C231.499 58.9078 230.911 60.3586 229.775 61.5741ZM225.583 45.9673C222.253 45.9673 219.511 47.0651 217.357 49.2609C215.202 51.4181 214.145 54.0843 214.145 57.2217C214.145 60.3977 215.202 63.0639 217.357 65.2211C219.511 67.3776 222.253 68.4755 225.583 68.4755C228.913 68.4755 231.655 67.3776 233.81 65.2211C235.964 63.0639 237.022 60.3977 237.022 57.2217C237.022 54.0843 235.964 51.4181 233.81 49.2609C231.655 47.0651 228.913 45.9673 225.583 45.9673ZM282.736 55.0645H271.883C272.55 52.2806 274.626 50.5939 277.407 50.5939C280.227 50.5939 282.226 52.2806 282.736 55.0645ZM271.884 59.1822H287.906C288.024 58.3189 288.102 57.4962 288.102 56.7512C288.102 53.4177 287.084 50.8299 285.086 48.908C283.088 46.9867 280.502 46.0065 277.407 46.0065C274.116 46.0065 271.453 47.0651 269.377 49.1824C267.301 51.3004 266.282 53.9673 266.282 57.2217C266.282 60.3193 267.262 62.9862 269.259 65.1427C271.258 67.2992 274.116 68.3971 277.877 68.3971C281.403 68.3971 284.498 67.4168 287.201 65.4564L285.008 61.574C283.166 62.8293 280.423 63.7311 278.113 63.7311C274.744 63.7311 272.668 62.2013 271.884 59.1822Z" fill="#33373E"/>
<path fill-rule="evenodd" clip-rule="evenodd" d="M80.0004 41.4357V59.8575L74.6892 62.9278V47.5763L65.1423 53.0988C64.7168 51.3052 63.7747 49.7096 62.4794 48.4934L72.0336 42.9715L58.7556 35.3024L64.0668 32.2314L80.0004 41.4357ZM49.7191 48.4936L40.1655 42.9711L53.4435 35.302L48.1323 32.2317L32.1987 41.4352V59.857L36.1821 62.1571L37.5099 62.9214V47.5765L47.0568 53.0984C47.4817 51.3047 48.4238 49.7098 49.7191 48.4936ZM72.0338 73.6669L72.0404 67.5263L58.7558 75.2027V64.1702C57.9126 64.4228 57.023 64.5557 56.1001 64.5557C55.1773 64.5557 54.2877 64.4228 53.4445 64.1702V75.2027L40.1665 67.5336V73.6669L56.1001 82.8785L72.0338 73.6669ZM60.0035 56.0696C60.0566 55.8038 60.0832 55.5313 60.0832 55.2522C60.0832 53.4845 58.9347 51.9826 57.3413 51.4642C56.9489 51.3319 56.5307 51.2648 56.0998 51.2648C55.6683 51.2648 55.25 51.3319 54.8583 51.4642C53.2709 51.9826 52.1164 53.4845 52.1164 55.2522C52.1164 55.5313 52.143 55.8038 52.1961 56.0696H52.2027C52.3753 56.9136 52.8201 57.6646 53.4442 58.2162C54.1479 58.8542 55.0774 59.2396 56.0998 59.2396C57.1222 59.2396 58.051 58.8542 58.7554 58.2162C59.3788 57.6646 59.8236 56.9136 59.9969 56.0696H60.0035Z" fill="#00BC87"/>
</svg>
