<svg width="280" height="280" viewBox="0 0 280 280" fill="none" xmlns="http://www.w3.org/2000/svg">
<g clip-path="url(#clip0)">
<path d="M214.385 265.22C175.208 293.07 -8.20368 232.655 38.392 162.832C84.9877 93.0104 90.7955 58.7093 138.194 66.769C185.592 74.8286 217.714 113.916 235.327 142.062C252.94 170.208 253.562 237.371 214.385 265.22Z" fill="#F5F5F5"/>
<mask id="mask0" mask-type="alpha" maskUnits="userSpaceOnUse" x="-19" y="7" width="290" height="271">
<path d="M242.478 258.563C196.892 305.366 -59.4687 265.729 -13.5094 160.293C32.4498 54.8573 32.4169 7 96.9668 7C161.517 7 212.83 52.6014 242.478 86.7105C272.125 120.82 288.064 211.761 242.478 258.563Z" fill="#F5F5F5"/>
</mask>
<g mask="url(#mask0)">
<path d="M112.7 175.005C112.7 175.005 55.3177 303.397 67.5767 393.536L57.8193 400.289L98.202 412.548L152.877 265.439L137.211 163.041" fill="#E2E2E2"/>
<path d="M112.7 175.005C112.7 175.005 93.189 218.663 79.3516 272.935C99.5499 277.84 122.058 280.583 145.795 280.583C146.282 280.583 146.766 280.576 147.252 280.574L152.877 265.44L137.211 163.041L112.7 175.005Z" fill="#00BC87"/>
<path d="M146.666 224.842C125.693 226.283 108.923 259.067 108.923 299.306C108.923 320.057 113.384 338.825 120.581 352.336L152.877 265.44L146.666 224.842Z" fill="#33373E"/>
<path d="M125.529 178.158C125.529 178.158 115.824 336.565 143.236 411.565L137.51 419.978H186.265C186.265 419.978 191.591 218.493 191.591 175.005L125.529 178.158Z" fill="#EDEEEF"/>
<path d="M125.529 178.159C125.529 178.159 115.824 336.566 143.236 411.566" stroke="#33373E" stroke-width="1.5" stroke-linecap="round" stroke-linejoin="round"/>
<path d="M124.45 279.829C131.431 280.323 138.547 280.574 145.795 280.583C160.516 280.6 175.218 279.515 189.776 277.334C190.772 233.382 191.59 192.053 191.59 175.005L125.529 178.158C125.529 178.158 122.658 225.017 124.45 279.829Z" fill="#00BC87"/>
<path d="M112.7 119.316V175.005L191.591 194.395V132.373C191.591 110.381 176.577 91.2302 155.221 85.9812H155.221C144.979 83.4639 134.148 85.7944 125.848 92.3014C117.548 98.8085 112.7 108.77 112.7 119.316V119.316Z" fill="#EDEEEF"/>
<path d="M134.526 55.5972V76.1838L160.029 82.452V47.7111L134.526 41.4429V55.5972Z" fill="#EDEEEF"/>
<path d="M148.933 62.7197C148.557 62.7197 148.251 62.4144 148.251 62.0378C148.251 61.6612 148.557 61.356 148.933 61.356C149.31 61.356 149.615 61.6612 149.615 62.0378C149.615 62.4144 149.31 62.7197 148.933 62.7197Z" fill="#33373E"/>
<path d="M138.461 62.7197C138.084 62.7197 137.779 62.4144 137.779 62.0378C137.779 61.6612 138.084 61.356 138.461 61.356C138.837 61.356 139.143 61.6612 139.143 62.0378C139.143 62.4144 138.837 62.7197 138.461 62.7197Z" fill="#33373E"/>
<path d="M141.533 66.1054V55.5972H136.269" stroke="#33373E" stroke-width="1.5" stroke-linecap="round" stroke-linejoin="round"/>
<path d="M150.217 55.5968H144.952" stroke="#33373E" stroke-width="1.5" stroke-linecap="round" stroke-linejoin="round"/>
<path d="M158.348 60.9815V64.6307C160.316 64.6307 161.912 63.035 161.912 61.0665C161.912 60.9572 161.907 60.849 161.898 60.7421C161.698 58.5288 158.348 58.7593 158.348 60.9815Z" fill="#EDEEEF"/>
<path d="M158.348 64.6311C160.316 64.6311 161.912 63.0354 161.912 61.0669" stroke="#33373E" stroke-width="1.5" stroke-linecap="round" stroke-linejoin="round"/>
<path d="M143.836 68.6958C145.828 68.6958 147.443 67.0807 147.443 65.0884" stroke="#00BC87" stroke-width="1.5" stroke-linecap="round" stroke-linejoin="round"/>
<path d="M134.527 76.1831L160.029 82.4512" stroke="#33373E" stroke-width="1.5" stroke-linecap="round" stroke-linejoin="round"/>
<path d="M141.531 66.1138L143.834 66.6797" stroke="#33373E" stroke-width="1.5" stroke-linecap="round" stroke-linejoin="round"/>
<path d="M160.03 68.696C161.593 66.3499 162.952 63.8739 164.092 61.2953C167.646 53.0736 163.864 43.527 155.643 39.9708C146.932 36.154 133.691 32.0066 130.635 40.3313C125.987 52.9916 155.154 51.5709 155.154 51.5709C155.154 51.5709 153.673 58.6921 157.558 59.1937" stroke="#33373E" stroke-width="1.5" stroke-linecap="round" stroke-linejoin="round"/>
<path d="M177.11 98.1118C177.11 98.1118 222.545 136.004 219.981 186.325C217.417 236.645 167.577 236.325 167.577 236.325C167.577 236.325 163.145 227.19 161.034 214.209" stroke="#33373E" stroke-width="1.5" stroke-linecap="round" stroke-linejoin="round"/>
<path d="M167.576 139.685L183.922 178.633L161.713 217.898" stroke="#33373E" stroke-width="1.5" stroke-linecap="round" stroke-linejoin="round"/>
<path d="M123.861 96.2603C123.861 96.2603 101.07 111.253 94.6598 167.218C94.6598 167.218 74.147 119.017 64.5316 110.363C54.9162 101.709 45.3008 98.1115 45.3008 98.1115V104.914L51.711 111.004C51.711 111.004 43.3777 127.474 56.5187 131.739C56.5187 131.739 61.3466 225.735 97.0737 215.004" stroke="#33373E" stroke-width="1.5" stroke-linecap="round" stroke-linejoin="round"/>
</g>
<path d="M45.3483 6.09619C35.1377 6.09621 26.8604 14.439 26.8604 24.7304H63.8364C63.8364 14.439 55.559 6.09618 45.3483 6.09619Z" fill="#F5F5F5"/>
<path d="M89.272 11.2476C81.8838 11.2476 75.8945 17.2842 75.8945 24.7308H102.65C102.649 17.2842 96.6602 11.2476 89.272 11.2476Z" fill="#F5F5F5"/>
<path d="M28.244 15.4136C23.1387 15.4136 19 19.585 19 24.7307H37.488C37.488 22.2596 36.5141 19.8898 34.7805 18.1425C33.0469 16.3952 30.6957 15.4136 28.244 15.4136Z" fill="#F5F5F5"/>
<path d="M63.8384 0C50.2872 2.63377e-05 39.3018 11.0723 39.3018 24.7306H88.3751C88.3751 11.0723 77.3896 -3.59151e-06 63.8384 0Z" fill="#F5F5F5"/>
<path d="M223.249 24.9278C211.534 24.9071 202.021 34.3379 202 45.9921L244.423 46.0672C244.443 34.4129 234.964 24.9485 223.249 24.9278Z" fill="#F5F5F5"/>
<path d="M267.438 34.0767C260.759 34.0649 255.335 39.4416 255.323 46.0861L279.51 46.1289C279.521 39.4844 274.117 34.0885 267.438 34.0767Z" fill="#F5F5F5"/>
<path d="M244.465 24C232.214 23.9784 222.266 33.8403 222.244 46.0274L266.606 46.1059C266.628 33.9188 256.715 24.0217 244.465 24Z" fill="#F5F5F5"/>
</g>
<defs>
<clipPath id="clip0">
<rect width="280" height="280" fill="white"/>
</clipPath>
</defs>
</svg>
