<svg width="189" height="68" viewBox="0 0 189 68" fill="none" xmlns="http://www.w3.org/2000/svg">
<path d="M0 68L11.1204 64.8905L2.86732 56.8147L0 68ZM189 7.79647L179.712 0.935676L178.414 12.4095L189 7.79647ZM6.38089 63.113C8.21655 61.4223 10.226 59.6687 12.404 57.8711L11.1309 56.3286C8.9263 58.1481 6.88951 59.9255 5.02595 61.6419L6.38089 63.113ZM15.5203 55.361C17.5291 53.7813 19.6608 52.1757 21.9122 50.5564L20.7444 48.9328C18.4702 50.5685 16.3156 52.1913 14.284 53.7889L15.5203 55.361ZM25.1725 48.2604C27.3031 46.7913 29.5294 45.3156 31.8491 43.8424L30.7769 42.1541C28.4359 43.6409 26.1885 45.1304 24.0372 46.6139L25.1725 48.2604ZM35.2537 41.7235C37.4731 40.37 39.7707 39.0222 42.1445 37.687L41.164 35.9438C38.7696 37.2906 36.4517 38.6503 34.2124 40.016L35.2537 41.7235ZM45.6637 35.7475C47.9616 34.507 50.3258 33.2805 52.7547 32.0738L51.8648 30.2827C49.4155 31.4995 47.0312 32.7364 44.7136 33.9876L45.6637 35.7475ZM56.3694 30.316C58.7355 29.19 61.1592 28.0844 63.6391 27.004L62.8403 25.1705C60.3398 26.2598 57.8959 27.3746 55.51 28.5101L56.3694 30.316ZM67.3285 25.4332C69.7578 24.4227 72.2382 23.4376 74.7683 22.4823L74.0619 20.6112C71.5107 21.5744 69.0098 22.5677 66.5603 23.5866L67.3285 25.4332ZM78.5153 21.1028C80.9977 20.212 83.5257 19.3508 86.0983 18.523L85.4857 16.6191C82.8918 17.4538 80.3428 18.3222 77.8398 19.2203L78.5153 21.1028ZM89.9097 17.3312C92.4342 16.5648 94.9996 15.8311 97.6051 15.1337L97.088 13.2017C94.4609 13.9049 91.8741 14.6447 89.3287 15.4175L89.9097 17.3312ZM101.49 14.1286C104.05 13.4889 106.648 12.8848 109.281 12.3195L108.862 10.364C106.206 10.9341 103.587 11.5432 101.005 12.1882L101.49 14.1286ZM113.197 11.513C115.79 11.0016 118.416 10.5282 121.075 10.0957L120.754 8.1216C118.073 8.55776 115.424 9.03513 112.81 9.55081L113.197 11.513ZM125.028 9.48674C127.643 9.10626 130.289 8.76569 132.964 8.46768L132.743 6.47997C130.045 6.78048 127.377 7.12391 124.74 7.50758L125.028 9.48674ZM136.95 8.05763C139.582 7.80921 142.242 7.60228 144.929 7.43928L144.808 5.44295C142.098 5.60732 139.416 5.81597 136.762 6.06648L136.95 8.05763ZM148.919 7.23068C151.561 7.11471 154.228 7.04149 156.92 7.01324L156.899 5.01335C154.184 5.04183 151.495 5.11567 148.832 5.2326L148.919 7.23068ZM160.923 7.00454C163.566 7.02078 166.233 7.08063 168.922 7.18616L169 5.1877C166.289 5.0813 163.601 5.02095 160.936 5.00458L160.923 7.00454ZM172.924 7.37625C175.565 7.5235 178.228 7.71507 180.911 7.95285L181.088 5.96066C178.383 5.72094 175.698 5.52781 173.035 5.37935L172.924 7.37625Z" fill="url(#paint0_linear)"/>
<defs>
<linearGradient id="paint0_linear" x1="196.51" y1="11.5583" x2="-52.8744" y2="120.978" gradientUnits="userSpaceOnUse">
<stop stop-color="#00BC87"/>
<stop offset="0.675044" stop-color="#00BC87" stop-opacity="0"/>
</linearGradient>
</defs>
</svg>
