<svg width="280" height="280" viewBox="0 0 280 280" fill="none" xmlns="http://www.w3.org/2000/svg">
<g clip-path="url(#clip0)">
<path d="M211.622 258.045C172.514 285.99 -11.0451 226.024 35.3798 156.088C81.8046 86.1521 87.5285 51.8369 134.946 59.7806C182.364 67.7244 214.581 106.733 232.263 134.836C249.945 162.939 250.731 230.1 211.622 258.045Z" fill="#F5F5F5"/>
<mask id="mask0" mask-type="alpha" maskUnits="userSpaceOnUse" x="-16" y="-6" width="312" height="284">
<path d="M265.097 257.631C216.091 306.679 -59.5047 265.14 -10.0971 154.647C39.3105 44.1531 39.2752 -6 108.668 -6C178.062 -6 233.225 41.7889 265.097 77.5343C296.969 113.28 314.104 208.583 265.097 257.631Z" fill="#F5F5F5"/>
</mask>
<g mask="url(#mask0)">
<path d="M248.148 399.087L170.069 270.316L161.784 187.717L106.77 174.195C106.77 174.195 66.3337 295.14 119.23 344.011C172.127 392.881 211.689 423.536 211.689 423.536V437.719L248.148 399.087Z" fill="#00BC87"/>
<path d="M208.587 345.173C208.587 341.081 208.44 337.061 208.146 333.113L170.07 270.315L168.85 258.157C166.512 257.477 164.09 257.131 161.655 257.128C136.746 257.128 116.373 293.535 114.822 339.532C116.215 341.082 117.684 342.575 119.231 344.009C150.643 373.031 177.353 395.629 193.868 409.197C202.93 393.145 208.587 370.4 208.587 345.173Z" fill="#33373E"/>
<path d="M119.23 172.924L179.786 168.776L190.797 173.26L195.972 437.718H139.727L145.674 427.061L119.23 172.924Z" fill="#00BC87"/>
<path d="M132.323 45.7438V55.3023C132.323 62.6933 137.369 69.1293 144.546 70.8934L159.757 74.6319V37.2603L147.109 34.1518C143.548 33.2764 139.782 34.0868 136.895 36.3496C134.009 38.6123 132.323 42.0763 132.323 45.7438V45.7438Z" fill="#EDEEEF"/>
<path d="M132.323 55.3022C132.323 62.6932 137.369 69.1293 144.546 70.8933L159.757 74.6319" stroke="#33373E" stroke-width="1.5" stroke-linecap="round" stroke-linejoin="round"/>
<path d="M147.82 53.4065C148.226 53.4065 148.554 53.0781 148.554 52.673C148.554 52.2679 148.226 51.9395 147.82 51.9395C147.415 51.9395 147.087 52.2679 147.087 52.673C147.087 53.0781 147.415 53.4065 147.82 53.4065Z" fill="#33373E"/>
<path d="M136.554 53.4065C136.959 53.4065 137.287 53.0781 137.287 52.673C137.287 52.2679 136.959 51.9395 136.554 51.9395C136.149 51.9395 135.82 52.2679 135.82 52.673C135.82 53.0781 136.149 53.4065 136.554 53.4065Z" fill="#33373E"/>
<path d="M139.859 57.0481V45.7441H134.196" stroke="#33373E" stroke-width="1.5" stroke-linecap="round" stroke-linejoin="round"/>
<path d="M149.203 45.7439H143.54" stroke="#33373E" stroke-width="1.5" stroke-linecap="round" stroke-linejoin="round"/>
<path d="M157.95 51.5359V55.4614C160.068 55.4614 161.784 53.7448 161.784 51.6273C161.784 51.5096 161.779 51.3933 161.769 51.2783C161.554 48.8974 157.95 49.1453 157.95 51.5359Z" fill="#EDEEEF"/>
<path d="M157.95 55.4616C160.068 55.4616 161.784 53.745 161.784 51.6274" stroke="#33373E" stroke-width="1.5" stroke-linecap="round" stroke-linejoin="round"/>
<path d="M142.956 58.3691C143.432 58.8453 144.078 59.1128 144.751 59.1128C145.425 59.1128 146.07 58.8453 146.546 58.3691" stroke="#00BC87" stroke-width="1.5" stroke-linecap="round" stroke-linejoin="round"/>
<path d="M139.859 57.0576L142.336 57.6664" stroke="#33373E" stroke-width="1.5" stroke-linecap="round" stroke-linejoin="round"/>
<path d="M106.771 114.288V174.194L191.635 195.052V128.333C191.635 104.676 175.485 84.075 152.511 78.4284H152.511C141.494 75.7205 129.843 78.2275 120.914 85.2273C111.986 92.227 106.771 102.943 106.771 114.288V114.288Z" fill="#EDEEEF"/>
<path d="M139.727 437.718L145.674 427.061L119.23 172.925" stroke="#33373E" stroke-width="1.5" stroke-linecap="round" stroke-linejoin="round"/>
<path d="M132.323 52.6724C132.323 52.6724 124.502 45.9958 127.777 37.3761C130.847 29.2979 147.094 23.864 156.218 29.5617C157.504 30.3583 158.862 31.0329 160.274 31.5768C166.123 33.8561 180.929 42.7858 180.098 74.6321C179.064 114.263 154.843 94.438 157.084 85.4736C159.325 76.5092 160.878 69.0101 159.757 61.2525" stroke="#33373E" stroke-width="1.5" stroke-linecap="round" stroke-linejoin="round"/>
<path d="M158.464 95.7534C158.464 95.7534 161.308 100.58 168.204 101.098" stroke="#00BC87" stroke-width="1.5" stroke-linecap="round" stroke-linejoin="round"/>
<path d="M158.378 100.505C158.378 100.505 140.693 104.554 139.621 123.72C139.356 128.258 138.138 132.69 136.046 136.726C133.117 142.402 130.077 151.085 133.182 159.025C138.356 172.258 169.782 133.999 166.253 106.598" stroke="#33373E" stroke-width="1.5" stroke-linecap="round" stroke-linejoin="round"/>
<path d="M183.822 101.098C183.822 101.098 215.008 150.293 199.492 181.324C183.977 212.354 99.8496 179.945 112.262 149.948C112.262 149.948 104.677 143.397 108.814 142.018C112.951 140.639 132.264 147.51 132.264 147.51" stroke="#33373E" stroke-width="1.5" stroke-linecap="round" stroke-linejoin="round"/>
<path d="M150.548 151.274L186.391 161.727" stroke="#33373E" stroke-width="1.5" stroke-linecap="round" stroke-linejoin="round"/>
<path d="M121.429 84.835C121.429 84.835 101.028 96.013 102.264 140.639C102.264 140.639 98.8158 102.023 85.714 91.6799C72.6122 81.3363 62.1446 87.273 63.179 88.6522C64.2133 90.0313 72.6122 92.7142 72.6122 92.7142C72.6122 92.7142 66.406 97.886 72.957 105.126C72.957 105.126 65.0117 195.253 102.552 188.819" stroke="#33373E" stroke-width="1.5" stroke-linecap="round" stroke-linejoin="round"/>
</g>
<path d="M221.35 16.0962C211.14 16.0962 202.862 24.439 202.862 34.7304H239.838C239.838 24.439 231.561 16.0962 221.35 16.0962Z" fill="#F5F5F5"/>
<path d="M265.274 21.2476C257.886 21.2476 251.896 27.2842 251.896 34.7308H278.651C278.651 27.2842 272.662 21.2476 265.274 21.2476Z" fill="#F5F5F5"/>
<path d="M204.246 25.4136C199.141 25.4136 195.002 29.585 195.002 34.7307H213.49C213.49 32.2596 212.516 29.8898 210.782 28.1425C209.049 26.3952 206.698 25.4136 204.246 25.4136Z" fill="#F5F5F5"/>
<path d="M239.84 10C226.289 10 215.304 21.0723 215.304 34.7306H264.377C264.377 21.0723 253.392 10 239.84 10Z" fill="#F5F5F5"/>
<path d="M58.2607 29.9278C69.9754 29.9071 79.4889 39.3379 79.5098 50.9921L37.0871 51.0672C37.0663 39.4129 46.546 29.9485 58.2607 29.9278Z" fill="#F5F5F5"/>
<path d="M14.0719 39.0767C20.7507 39.0649 26.1746 44.4416 26.1865 51.0861L2.0002 51.1289C1.98833 44.4844 7.39299 39.0885 14.0719 39.0767Z" fill="#F5F5F5"/>
<path d="M37.0452 29C49.2954 28.9784 59.2438 38.8403 59.2656 51.0274L14.9036 51.1059C14.8819 38.9188 24.795 29.0217 37.0452 29Z" fill="#F5F5F5"/>
</g>
<defs>
<clipPath id="clip0">
<rect width="280" height="280" fill="white"/>
</clipPath>
</defs>
</svg>
