<?xml version="1.0" encoding="UTF-8"?>
<svg width="302px" height="124px" viewBox="0 0 302 124" version="1.1" xmlns="http://www.w3.org/2000/svg" xmlns:xlink="http://www.w3.org/1999/xlink">
    <!-- Generator: Sketch 52.6 (67491) - http://www.bohemiancoding.com/sketch -->
    <title>Group 10</title>
    <desc>Created with Sketch.</desc>
    <g id="ðŸ -Dashboard" stroke="none" stroke-width="1" fill="none" fill-rule="evenodd">
        <g id="future-feature" transform="translate(-350.000000, -162.000000)" fill-rule="nonzero">
            <g id="Group-10" transform="translate(350.000000, 162.000000)">
                <g id="Group">
                    <path d="M169.674177,124 L145.325823,124 C143.489969,124 142,122.432 142,120.5 C142,118.568 143.489969,117 145.325823,117 L169.674177,117 C171.510031,117 173,118.568 173,120.5 C173,122.432 171.511694,124 169.674177,124 Z" id="Path" fill="#ADAFB2"></path>
                    <path d="M87.688561,92 L3.31143902,92 C1.48352468,92 0,90.432 0,88.5 C0,86.568 1.48352468,85 3.31143902,85 L87.688561,85 C89.5164753,85 91,86.568 91,88.5 C91,90.432 89.5164753,92 87.688561,92 Z" id="Path" fill="#ADAFB2"></path>
                    <path d="M298.712753,61 L254.287247,61 C252.472687,61 251,59.432 251,57.5 C251,55.568 252.472687,54 254.287247,54 L298.712753,54 C300.527313,54 302,55.568 302,57.5 C302,59.432 300.527313,61 298.712753,61 Z" id="Path" fill="#ADAFB2"></path>
                    <path d="M42.7389763,55 L26.2610237,55 C24.4609386,55 23,53.432 23,51.5 C23,49.568 24.4609386,48 26.2610237,48 L42.7389763,48 C44.5390614,48 46,49.568 46,51.5 C46,53.432 44.5406919,55 42.7389763,55 Z" id="Path" fill="#ADAFB2"></path>
                    <path d="M153.312436,49 L95.3485758,49 C95.2724016,49 95.1962273,48.9984126 95.12164,48.992063 C94.9121607,48.9968252 94.7026815,49 94.4932022,49 C80.9881387,49 70,38.0088117 70,24.5 C70,10.9911883 80.9881387,-1.42108547e-14 94.4932022,-1.42108547e-14 L163.826072,-1.42108547e-14 C165.57808,-1.42108547e-14 167,1.42231437 167,3.17480886 C167,4.92730336 165.57808,6.34961773 163.826072,6.34961773 L110.927801,6.34961773 C115.133256,10.1641506 118.012009,15.4168718 118.780099,21.3251911 L130.977504,21.3251911 C132.729513,21.3251911 134.151432,22.7475055 134.151432,24.5 C134.151432,26.2524945 132.729513,27.6748089 130.977504,27.6748089 L118.780099,27.6748089 C118.012009,33.5815408 115.133256,38.8358494 110.926214,42.6503823 L153.310849,42.6503823 C155.062857,42.6503823 156.484777,44.0726966 156.484777,45.8251911 C156.484777,47.5776856 155.064444,49 153.312436,49 Z M94,43 C104.717268,43 113,34.7172679 113,25 C113,14.2827321 104.717268,6 94,6 C84.2827321,6 76,14.2827321 76,25 C76,34.7172679 84.2827321,43 94,43 Z" id="Combined-Shape" fill="#5C5F65"></path>
                    <circle id="Oval" stroke="#ADAFB2" stroke-width="6" cx="94.5" cy="24.5" r="8.5"></circle>
                </g>
            </g>
        </g>
    </g>
</svg>