<?xml version="1.0" encoding="UTF-8"?>
<svg width="116px" height="48px" viewBox="0 0 116 48" version="1.1" xmlns="http://www.w3.org/2000/svg" xmlns:xlink="http://www.w3.org/1999/xlink">
    <!-- Generator: Sketch 52.5 (67469) - http://www.bohemiancoding.com/sketch -->
    <title>logo</title>
    <desc>Created with Sketch.</desc>
    <g id="logo" stroke="none" stroke-width="1" fill="none" fill-rule="evenodd">
        <g id="Group-15" transform="translate(0.000000, 12.000000)">
            <path d="M31.7046162,10.9172056 L36.5587033,10.9172056 C36.3306251,9.67192073 35.4370216,8.91743683 34.1751669,8.91743683 C32.9311307,8.91743683 32.002484,9.67192073 31.7046162,10.9172056 M38.8718563,12.7591214 L31.7046162,12.7591214 C32.0553459,14.1096416 32.9839926,14.7939686 34.4908533,14.7939686 C35.5246298,14.7939686 36.7511443,14.3905665 37.5749582,13.829014 L38.5561698,15.5656945 C37.3471769,16.4426557 35.9629677,16.8811363 34.3857235,16.8811363 C32.7033494,16.8811363 31.42427,16.390038 30.5306666,15.4253807 C29.6367662,14.4607234 29.1987253,13.2677589 29.1987253,11.8821602 C29.1987253,10.4264046 29.6545848,9.23344013 30.5832315,8.28602477 C31.5118782,7.33890669 32.7033494,6.86534765 34.1751669,6.86534765 C35.5596731,6.86534765 36.716398,7.30382824 37.6100015,8.16325021 C38.5039019,9.02296945 38.9594644,10.1805582 38.9594644,11.6716895 C38.9594644,12.0049348 38.9244212,12.3729612 38.8718563,12.7591214" id="Fill-3" fill="#FFFFFF"></path>
            <path d="M40.6577267,16.6708142 L40.6577267,7.11104542 L43.0237416,7.11104542 L43.0237416,8.39140875 C43.6019555,7.35659455 44.4777404,6.84795706 45.651987,6.84795706 C46.037463,6.84795706 46.4229389,6.91781668 46.8084149,7.05842775 L46.5984523,9.42652023 C46.1951577,9.30374566 45.8096817,9.23329149 45.459249,9.23329149 C44.0572211,9.23329149 43.1285744,10.1456284 43.1285744,12.1275607 L43.1285744,16.6708142 L40.6577267,16.6708142 Z" id="Fill-4" fill="#FFFFFF"></path>
            <path d="M50.767978,13.7590355 C51.2761055,14.267673 51.9068844,14.5307614 52.6603147,14.5307614 C53.4137451,14.5307614 54.0448209,14.267673 54.5529484,13.7590355 C55.0610758,13.2325615 55.3063787,12.5836102 55.3063787,11.8118844 C55.3063787,11.0401585 55.0610758,10.4084492 54.5529484,9.900109 C54.0448209,9.39147151 53.4137451,9.12808588 52.6603147,9.12808588 C51.9068844,9.12808588 51.2761055,9.39147151 50.767978,9.900109 C50.2595536,10.4084492 50.0145477,11.0401585 50.0145477,11.8118844 C50.0145477,12.6011495 50.2595536,13.2501007 50.767978,13.7590355 Z M55.341422,7.11107514 L57.6195317,7.11107514 L57.6195317,15.7234286 C57.6195317,17.2496383 57.1289258,18.477384 56.1474172,19.3721817 C55.1665026,20.2666821 53.8871262,20.7227019 52.3274036,20.7227019 C50.6978915,20.7227019 49.226074,20.2666821 47.9466976,19.3371032 L48.9103876,17.4776482 C50.0145477,18.2318348 51.1359324,18.6001585 52.257614,18.6001585 C54.1499507,18.6001585 55.2362922,17.4951874 55.2362922,15.9514385 L55.2362922,15.4606375 C54.5003835,16.2846837 53.5191718,16.6883832 52.2926573,16.6883832 C50.8906295,16.6883832 49.7514261,16.2320661 48.8578227,15.3024872 C47.9642193,14.3726111 47.5261784,13.2153196 47.5261784,11.7943452 C47.5261784,10.3733708 47.9992625,9.19824277 48.9279092,8.26866391 C49.8568529,7.33878778 51.0132809,6.86552601 52.3974902,6.86552601 C53.5714398,6.86552601 54.5529484,7.30370933 55.341422,8.16342857 L55.341422,7.11107514 Z" id="Fill-5" fill="#FFFFFF"></path>
            <path d="M64.4698083,14.6183386 C65.2232386,14.6183386 65.8367929,14.3552502 66.3446234,13.8290735 C66.8527508,13.2853576 67.1158723,12.6364063 67.1158723,11.8822197 C67.1158723,11.1277358 66.8527508,10.4787845 66.3446234,9.95260776 C65.8367929,9.42643105 65.2232386,9.16304542 64.4698083,9.16304542 C63.7163779,9.16304542 63.0853021,9.42643105 62.5771746,9.95260776 C62.0690472,10.4787845 61.8237443,11.1277358 61.8237443,11.8822197 C61.8237443,12.6364063 62.0690472,13.2853576 62.5771746,13.8290735 C63.0853021,14.3552502 63.7163779,14.6183386 64.4698083,14.6183386 M60.7896708,8.32116268 C61.7536577,7.33896614 62.9801723,6.84786788 64.4698083,6.84786788 C65.9594443,6.84786788 67.1859589,7.33896614 68.1496488,8.32116268 C69.1136358,9.28611726 69.586423,10.4787845 69.586423,11.8822197 C69.586423,13.3028968 69.1136358,14.495564 68.1496488,15.4605186 C67.1859589,16.4251759 65.9594443,16.9162742 64.4698083,16.9162742 C62.9801723,16.9162742 61.7536577,16.4251759 60.7896708,15.4605186 C59.8259808,14.495564 59.3528966,13.3028968 59.3528966,11.8822197 C59.3528966,10.4787845 59.8259808,9.28611726 60.7896708,8.32116268" id="Fill-6" fill="#FFFFFF"></path>
            <path d="M71.3199959,16.6708142 L71.3199959,7.11104542 L73.7385756,7.11104542 L73.7385756,8.44402642 C74.246406,7.51444756 75.3853124,6.84795706 76.7347753,6.84795706 C77.7688488,6.84795706 78.6624523,7.19874154 79.3808394,7.88277126 C80.0992264,8.56680099 80.4674778,9.54899752 80.4674778,10.8296581 L80.4674778,16.6708142 L77.9963331,16.6708142 L77.9963331,11.4961486 C77.9963331,9.97023617 77.1906349,9.12805615 75.981345,9.12805615 C74.6672223,9.12805615 73.7908435,10.1277919 73.7908435,11.5490636 L73.7908435,16.6708142 L71.3199959,16.6708142 Z" id="Fill-7" fill="#FFFFFF"></path>
            <path d="M87.1949248,14.6183386 C87.9483551,14.6183386 88.5619094,14.3552502 89.0700368,13.8290735 C89.5781643,13.2853576 89.8409888,12.6364063 89.8409888,11.8822197 C89.8409888,11.1277358 89.5781643,10.4787845 89.0700368,9.95260776 C88.5619094,9.42643105 87.9483551,9.16304542 87.1949248,9.16304542 C86.4414944,9.16304542 85.8107155,9.42643105 85.3025881,9.95260776 C84.7944606,10.4787845 84.5491577,11.1277358 84.5491577,11.8822197 C84.5491577,12.6364063 84.7944606,13.2853576 85.3025881,13.8290735 C85.8107155,14.3552502 86.4414944,14.6183386 87.1949248,14.6183386 M83.5150842,8.32116268 C84.4787742,7.33896614 85.7052887,6.84786788 87.1949248,6.84786788 C88.6845608,6.84786788 89.9110753,7.33896614 90.8750623,8.32116268 C91.8387523,9.28611726 92.3118365,10.4787845 92.3118365,11.8822197 C92.3118365,13.3028968 91.8387523,14.495564 90.8750623,15.4605186 C89.9110753,16.4251759 88.6845608,16.9162742 87.1949248,16.9162742 C85.7052887,16.9162742 84.4787742,16.4251759 83.5150842,15.4605186 C82.5513943,14.495564 82.0783101,13.3028968 82.0783101,11.8822197 C82.0783101,10.4787845 82.5513943,9.28611726 83.5150842,8.32116268" id="Fill-8" fill="#FFFFFF"></path>
            <path d="M100.564111,9.93509827 C100.073505,9.39138233 99.4427266,9.1279967 98.653956,9.1279967 C97.8654823,9.1279967 97.2347034,9.39138233 96.726576,9.93509827 C96.2359702,10.461275 95.9906673,11.1102263 95.9906673,11.8822494 C95.9906673,12.6715145 96.2359702,13.3204657 96.726576,13.8641817 C97.2347034,14.3903584 97.8654823,14.6534467 98.653956,14.6534467 C99.4427266,14.6534467 100.073505,14.3903584 100.564111,13.8641817 C101.054717,13.3204657 101.300317,12.6715145 101.300317,11.8822494 C101.300317,11.1102263 101.054717,10.461275 100.564111,9.93509827 Z M101.177369,3.3394583 L103.648216,3.3394583 L103.648216,16.6707547 L101.229933,16.6707547 L101.229933,15.4953295 C100.458981,16.4252056 99.4777698,16.8987647 98.2687769,16.8987647 C96.919314,16.8987647 95.7804076,16.4252056 94.8865072,15.4780875 C93.9929038,14.5131329 93.5373413,13.3204657 93.5373413,11.8822494 C93.5373413,10.461275 93.9929038,9.26860776 94.8865072,8.30395045 C95.7976323,7.33899587 96.919314,6.86543683 98.2687769,6.86543683 C99.4249079,6.86543683 100.388895,7.32145665 101.177369,8.21595706 L101.177369,3.3394583 Z" id="Fill-9" fill="#FFFFFF"></path>
            <path d="M107.904994,10.9172056 L112.759378,10.9172056 C112.5313,9.67192073 111.637399,8.91743683 110.375841,8.91743683 C109.131805,8.91743683 108.203159,9.67192073 107.904994,10.9172056 M115.072234,12.7591214 L107.904994,12.7591214 C108.255723,14.1096416 109.18437,14.7939686 110.691528,14.7939686 C111.725007,14.7939686 112.951819,14.3905665 113.775633,13.829014 L114.756844,15.5656945 C113.547554,16.4426557 112.163345,16.8811363 110.586101,16.8811363 C108.903727,16.8811363 107.624945,16.390038 106.731044,15.4253807 C105.837441,14.4607234 105.399103,13.2677589 105.399103,11.8821602 C105.399103,10.4264046 105.854962,9.23344013 106.783906,8.28602477 C107.712553,7.33890669 108.903727,6.86534765 110.375841,6.86534765 C111.760051,6.86534765 112.916776,7.30382824 113.810676,8.16325021 C114.704279,9.02296945 115.159842,10.1805582 115.159842,11.6716895 C115.159842,12.0049348 115.124799,12.3729612 115.072234,12.7591214" id="Fill-10" fill="#FFFFFF"></path>
            <path d="M18.5106164,16.491706 L18.5076466,19.2385268 L11.3802014,23.3590553 L4.25275625,19.2385268 L4.25275625,16.4949761 L10.1922939,19.9255293 L10.1922939,14.9904674 C10.5694545,15.1034319 10.9674036,15.1628869 11.3802014,15.1628869 C11.7929993,15.1628869 12.1909483,15.1034319 12.568109,14.9904674 L12.568109,19.9255293 L18.5106164,16.491706 Z" id="Fill-11" fill="#00BC87"></path>
            <path d="M4.25281565,5.50763336 L8.52631298,7.97798844 C7.94691108,8.52200165 7.52550089,9.2354616 7.33543568,10.0378068 L3.06490812,7.56774897 L3.06490812,14.4318282 L2.47095436,14.089962 L0.689093065,13.0610933 L0.689093065,4.82063088 L7.81653823,0.703669694 L10.1923533,2.0770801 L4.25281565,5.50763336 Z" id="Fill-12" fill="#00BC87"></path>
            <path d="M22.0714286,4.82074979 L22.0714286,13.0612122 L19.6956135,14.4346226 L19.6956135,7.5675706 L15.425086,10.0379257 C15.2347238,9.23558051 14.8133136,8.52182329 14.2339117,7.97781007 L18.507706,5.50775227 L12.5681683,2.07719901 L14.9439834,0.703491329 L22.0714286,4.82074979 Z" id="Fill-13" fill="#00BC87"></path>
            <path d="M13.1621221,11.0011263 C13.1621221,11.1259818 13.150243,11.2478646 13.1264849,11.3667746 L13.1235151,11.3667746 C13.0460041,11.7443138 12.8470296,12.0802345 12.5681683,12.3269727 C12.2530759,12.6123567 11.8376052,12.7847762 11.3802608,12.7847762 C10.9229164,12.7847762 10.5071488,12.6123567 10.1923533,12.3269727 C9.91319502,12.0802345 9.71422051,11.7443138 9.63700652,11.3667746 L9.63403675,11.3667746 C9.6102786,11.2478646 9.59839953,11.1259818 9.59839953,11.0011263 C9.59839953,10.2103749 10.1148423,9.53853344 10.824914,9.30665896 C11.0001304,9.24750124 11.1872258,9.21747647 11.3802608,9.21747647 C11.5729988,9.21747647 11.7600943,9.24750124 11.9356076,9.30665896 C12.6483521,9.53853344 13.1621221,10.2103749 13.1621221,11.0011263" id="Fill-14" fill="#00BC87"></path>
        </g>
    </g>
</svg>