<?xml version="1.0" encoding="UTF-8"?>
<svg width="24px" height="24px" viewBox="0 0 24 24" version="1.1" xmlns="http://www.w3.org/2000/svg" xmlns:xlink="http://www.w3.org/1999/xlink">
    <!-- Generator: Sketch 55.2 (78181) - https://sketchapp.com -->
    <title>icon / attribute / date</title>
    <desc>Created with Sketch.</desc>
    <g id="icon-/-attribute-/-date" stroke="none" stroke-width="1" fill="none" fill-rule="evenodd">
        <path d="M9,10 L7,10 L7,12 L9,12 L9,10 L9,10 Z M13,10 L11,10 L11,12 L13,12 L13,10 L13,10 Z M17,10 L15,10 L15,12 L17,12 L17,10 L17,10 Z M19,3 L18,3 L18,1 L16,1 L16,3 L8,3 L8,1 L6,1 L6,3 L5,3 C3.89,3 3.01,3.9 3.01,5 L3,19 C3,20.1 3.89,21 5,21 L19,21 C20.1,21 21,20.1 21,19 L21,5 C21,3.9 20.1,3 19,3 L19,3 Z M19,19 L5,19 L5,8 L19,8 L19,19 L19,19 Z" id="Mask" fill="#5C5F65" fill-rule="nonzero"></path>
    </g>
</svg>