<?xml version="1.0" encoding="UTF-8"?>
<svg width="24px" height="24px" viewBox="0 0 24 24" version="1.1" xmlns="http://www.w3.org/2000/svg" xmlns:xlink="http://www.w3.org/1999/xlink">
    <!-- Generator: Sketch 55.2 (78181) - https://sketchapp.com -->
    <title>icon / attribute / text area</title>
    <desc>Created with Sketch.</desc>
    <g id="icon-/-attribute-/-text-area" stroke="none" stroke-width="1" fill="none" fill-rule="evenodd">
        <path d="M5,3 L19,3 C20.1045695,3 21,3.8954305 21,5 L21,19 C21,20.1045695 20.1045695,21 19,21 L5,21 C3.8954305,21 3,20.1045695 3,19 L3,5 C3,3.8954305 3.8954305,3 5,3 Z M6,11 L6,13 L18,13 L18,11 L6,11 Z M6,15 L6,17 L11,17 L11,15 L6,15 Z M6,7 L6,9 L18,9 L18,7 L6,7 Z" id="Combined-Shape" fill="#5C5F65" fill-rule="nonzero"></path>
    </g>
</svg>