<?xml version="1.0" encoding="UTF-8"?>
<svg width="202px" height="168px" viewBox="0 0 202 168" version="1.1" xmlns="http://www.w3.org/2000/svg" xmlns:xlink="http://www.w3.org/1999/xlink">
    <!-- Generator: Sketch 52.6 (67491) - http://www.bohemiancoding.com/sketch -->
    <title>Group</title>
    <desc>Created with Sketch.</desc>
    <g id="ðŸ -Dashboard" stroke="none" stroke-width="1" fill="none" fill-rule="evenodd">
        <g id="404-not-found" transform="translate(-407.000000, -252.000000)" fill-rule="nonzero">
            <g id="Group-2" transform="translate(407.000000, 252.000000)">
                <g id="Group-3">
                    <g id="Group">
                        <path d="M9.56363636,7 C8.1477791,7 7,8.14913581 7,9.56666667 L7,158.433333 C7,159.850864 8.1477791,161 9.56363636,161 L192.436364,161 C193.852221,161 195,159.850864 195,158.433333 L195,9.56666667 C195,8.14913581 193.852221,7 192.436364,7 L9.56363636,7 Z M9.41525424,0 L192.584746,0 C197.784647,-1.52259158e-15 202,4.22131522 202,9.42857143 L202,158.571429 C202,163.778685 197.784647,168 192.584746,168 L9.41525424,168 C4.21535291,168 7.60220512e-16,163.778685 0,158.571429 L0,9.42857143 C-7.60220512e-16,4.22131522 4.21535291,7.61295788e-16 9.41525424,0 Z" id="Rectangle" fill="#5C5F65"></path>
                        <path d="M57.9425685,66.3431458 L72.2857143,52 L77.9425685,57.6568542 L63.5994228,72 L77.5979797,85.998557 L71.9411255,91.6554112 L57.9425685,77.6568542 L44.001443,91.5979797 L38.3445888,85.9411255 L52.2857143,72 L38,57.7142857 L43.6568542,52.0574315 L57.9425685,66.3431458 Z" id="Combined-Shape" fill="#5C5F65"></path>
                        <path d="M141.942569,66.3431458 L156.285714,52 L161.942569,57.6568542 L147.599423,72 L161.59798,85.998557 L155.941125,91.6554112 L141.942569,77.6568542 L128.001443,91.5979797 L122.344589,85.9411255 L136.285714,72 L122,57.7142857 L127.656854,52.0574315 L141.942569,66.3431458 Z" id="Combined-Shape" fill="#5C5F65"></path>
                        <rect id="Rectangle" fill="#5C5F65" x="6" y="21" width="190" height="7"></rect>
                        <circle id="Oval" fill="#ADAFB2" cx="185" cy="14" r="4"></circle>
                        <circle id="Oval-Copy" fill="#ADAFB2" cx="172" cy="14" r="4"></circle>
                        <circle id="Oval-Copy-2" fill="#ADAFB2" cx="158" cy="14" r="4"></circle>
                        <path d="M142.688561,131 L58.311439,131 C56.4835247,131 55,129.432 55,127.5 C55,125.568 56.4835247,124 58.311439,124 C76.9365122,124 90.905317,124 100.217854,124 C109.655789,124 123.812691,124 142.688561,124 C144.516475,124 146,125.568 146,127.5 C146,129.432 144.516475,131 142.688561,131 Z" id="Path-Copy-3" fill="#ADAFB2"></path>
                    </g>
                </g>
            </g>
        </g>
    </g>
</svg>