<?xml version="1.0" encoding="UTF-8"?>
<svg width="24px" height="216px" viewBox="0 0 24 216" version="1.1" xmlns="http://www.w3.org/2000/svg" xmlns:xlink="http://www.w3.org/1999/xlink">
    <!-- Generator: Sketch 52.5 (67469) - http://www.bohemiancoding.com/sketch -->
    <title>attribute</title>
    <desc>Created with Sketch.</desc>
    <g id="attribute" stroke="none" stroke-width="1" fill="none" fill-rule="evenodd">
        <path d="M5,147 L19,147 C20.1045695,147 21,147.895431 21,149 L21,163 C21,164.104569 20.1045695,165 19,165 L5,165 C3.8954305,165 3,164.104569 3,163 L3,149 C3,147.895431 3.8954305,147 5,147 Z M8.34999785,151.5 L6.1,151.5 L6.1,160.538344 L8.34999785,160.538344 L8.34999785,159.464481 L7.40397603,159.464481 L7.40397603,152.586647 L8.34999785,152.586647 L8.34999785,151.5 Z M9.93522688,159.093743 C10.3698856,159.093743 10.7278398,158.735789 10.7278398,158.288346 C10.7278398,157.853687 10.3698856,157.495733 9.93522688,157.495733 C9.50056821,157.495733 9.142614,157.853687 9.142614,158.288346 C9.142614,158.735789 9.50056821,159.093743 9.93522688,159.093743 Z M12.0573839,159.093743 C12.4920426,159.093743 12.8499968,158.735789 12.8499968,158.288346 C12.8499968,157.853687 12.4920426,157.495733 12.0573839,157.495733 C11.6227253,157.495733 11.2647711,157.853687 11.2647711,158.288346 C11.2647711,158.735789 11.6227253,159.093743 12.0573839,159.093743 Z M14.1667569,159.093743 C14.6014156,159.093743 14.9593698,158.735789 14.9593698,158.288346 C14.9593698,157.853687 14.6014156,157.495733 14.1667569,157.495733 C13.7320983,157.495733 13.3741441,157.853687 13.3741441,158.288346 C13.3741441,158.735789 13.7320983,159.093743 14.1667569,159.093743 Z M15.7519892,151.5 L15.7519892,152.586647 L16.698011,152.586647 L16.698011,159.464481 L15.7519892,159.464481 L15.7519892,160.538344 L18.001987,160.538344 L18.001987,151.5 L15.7519892,151.5 Z" id="Combined-Shape-Copy" fill="#85878B" fill-rule="nonzero"></path>
        <path d="M5,123 L19,123 C20.1045695,123 21,123.895431 21,125 L21,139 C21,140.104569 20.1045695,141 19,141 L5,141 C3.8954305,141 3,140.104569 3,139 L3,125 C3,123.895431 3.8954305,123 5,123 Z M6,131 L6,133 L18,133 L18,131 L6,131 Z M6,135 L6,137 L11,137 L11,135 L6,135 Z M6,127 L6,129 L18,129 L18,127 L6,127 Z" id="Combined-Shape-Copy" fill="#85878B" fill-rule="nonzero"></path>
        <path d="M5,99 L19,99 C20.1045695,99 21,99.8954305 21,101 L21,115 C21,116.104569 20.1045695,117 19,117 L5,117 C3.8954305,117 3,116.104569 3,115 L3,101 C3,99.8954305 3.8954305,99 5,99 Z M11,105 L11,113 L13,113 L13,105 L16,105 L16,103 L8,103 L8,105 L11,105 Z" id="Combined-Shape-Copy" fill="#85878B" fill-rule="nonzero"></path>
        <path d="M19,75 L5,75 C3.89,75 3,75.9 3,77 L3,91 C3,92.1 3.89,93 5,93 L19,93 C20.11,93 21,92.1 21,91 L21,77 C21,75.9 20.11,75 19,75 L19,75 Z M10,89 L5,84 L6.41,82.59 L10,86.17 L17.59,78.58 L19,80 L10,89 L10,89 Z" id="Mask-Copy" fill="#85878B"></path>
        <path d="M19,51 L5,51 C3.89,51 3,51.9 3,53 L3,67 C3,68.1 3.89,69 5,69 L19,69 C20.11,69 21,68.1 21,67 L21,53 C21,51.9 20.11,51 19,51 L19,51 Z M11.6416223,66 L11.6555851,64.940625 C9.8543883,64.81875 8.57446809,63.8015625 8.5,62.11875 L9.98005319,62.11875 C10.0452128,63.0421875 10.7480053,63.54375 11.6695479,63.646875 L11.7114362,60.478125 L11.2972074,60.35625 C9.77526596,59.90625 8.76994681,59.090625 8.76994681,57.7546875 C8.76994681,56.240625 10.049867,55.2 11.7765957,55.078125 L11.7905585,54 L12.7121011,54 L12.6981383,55.10625 C14.2898936,55.3078125 15.3557181,56.3484375 15.4115691,57.796875 L13.9966755,57.796875 C13.8942819,57.046875 13.4242021,56.56875 12.6841755,56.4140625 L12.6469415,59.3765625 L12.7679521,59.4140625 C14.5691489,59.9484375 15.5,60.75 15.5,62.1515625 C15.5,63.6609375 14.40625,64.7484375 12.5771277,64.93125 L12.5631649,66 L11.6416223,66 Z M10.1988032,57.7359375 C10.1988032,58.3921875 10.7293883,58.7765625 11.7253989,59.1046875 L11.762633,56.371875 C10.8178191,56.4703125 10.1988032,57.0046875 10.1988032,57.7359375 Z M14.0757979,62.15625 C14.0757979,61.48125 13.6336436,61.1109375 12.6283245,60.759375 L12.5910904,63.61875 C13.4986702,63.4546875 14.0757979,62.8921875 14.0757979,62.15625 Z" id="$-copy" fill="#85878B"></path>
        <path d="M9,34 L7,34 L7,36 L9,36 L9,34 L9,34 Z M13,34 L11,34 L11,36 L13,36 L13,34 L13,34 Z M17,34 L15,34 L15,36 L17,36 L17,34 L17,34 Z M19,27 L18,27 L18,25 L16,25 L16,27 L8,27 L8,25 L6,25 L6,27 L5,27 C3.89,27 3.01,27.9 3.01,29 L3,43 C3,44.1 3.89,45 5,45 L19,45 C20.1,45 21,44.1 21,43 L21,29 C21,27.9 20.1,27 19,27 L19,27 Z M19,43 L5,43 L5,32 L19,32 L19,43 L19,43 Z" id="Mask-Copy" fill="#85878B"></path>
        <path d="M5,3 L19,3 C20.1045695,3 21,3.8954305 21,5 L21,19 C21,20.1045695 20.1045695,21 19,21 L5,21 C3.8954305,21 3,20.1045695 3,19 L3,5 C3,3.8954305 3.8954305,3 5,3 Z M11,17.7583333 L8.5,15.25 L5,19 L19,19 L14.5,14 L11,17.7583333 Z M9,11 C10.1045695,11 11,10.1045695 11,9 C11,7.8954305 10.1045695,7 9,7 C7.8954305,7 7,7.8954305 7,9 C7,10.1045695 7.8954305,11 9,11 Z" id="Combined-Shape-Copy" fill="#85878B" fill-rule="nonzero"></path>
        <path d="M5,195 L19,195 C20.1045695,195 21,195.895431 21,197 L21,211 C21,212.104569 20.1045695,213 19,213 L5,213 C3.8954305,213 3,212.104569 3,211 L3,197 C3,195.895431 3.8954305,195 5,195 Z M12,208.8 C9.3490332,208.8 7.2,206.650967 7.2,204 C7.2,201.349033 9.3490332,199.2 12,199.2 C14.6509668,199.2 16.8,201.349033 16.8,204 C16.8,206.650967 14.6509668,208.8 12,208.8 Z M12,210 C15.3137085,210 18,207.313708 18,204 C18,200.686292 15.3137085,198 12,198 C8.6862915,198 6,200.686292 6,204 C6,207.313708 8.6862915,210 12,210 Z M12,207 C13.6568542,207 15,205.656854 15,204 C15,202.343146 13.6568542,201 12,201 C10.3431458,201 9,202.343146 9,204 C9,205.656854 10.3431458,207 12,207 Z" id="Combined-Shape" fill="#85878B" fill-rule="nonzero"></path>
        <path d="M19,171 C20.11,171 21,171.9 21,173 L21,187 C21,188.1 20.11,189 19,189 L5,189 C3.89,189 3,188.1 3,187 L3,173 C3,171.9 3.89,171 5,171 L19,171 Z M7.86079273,177.181824 L6.67613477,177.181824 C6.66193023,177.536937 6.16193071,178.14205 5.41477233,178.14205 L5.41477233,179.119322 C6.05681717,179.119322 6.47443041,178.880686 6.59943029,178.687504 L6.65340751,178.687504 L6.65340751,183 L7.86079273,183 L7.86079273,177.181824 Z M9.31249949,183 L13.4602228,183 L13.4602228,181.994319 L11.0852251,181.994319 L11.0852251,181.954546 L11.9403379,181.122161 C12.9659051,180.184662 13.3551093,179.636367 13.3522684,178.892049 C13.3465865,177.883528 12.5568146,177.102278 11.301134,177.102278 C10.0823851,177.102278 9.22443139,177.832391 9.22727229,178.974436 L10.3948848,178.974436 C10.3948848,178.414777 10.7585208,178.076709 11.2926112,178.076709 C11.8068153,178.076709 12.1931786,178.394891 12.1960195,178.906254 C12.1931786,179.369322 11.9005652,179.696026 11.3835202,180.196025 L9.31249949,182.113637 L9.31249949,183 Z M16.5028384,183.079545 C17.8096553,183.079545 18.7443135,182.360796 18.7414726,181.366479 C18.7443135,180.642048 18.2840867,180.125003 17.4289739,180.017048 L17.4289739,179.971594 C18.0795415,179.855117 18.5284047,179.39489 18.5255638,178.741481 C18.5284047,177.823869 17.7244282,177.102278 16.5198838,177.102278 C15.3267032,177.102278 14.4289767,177.801141 14.4119313,178.806822 L15.5909075,178.806822 C15.605112,178.363641 16.0113616,178.076709 16.514202,178.076709 C17.0113607,178.076709 17.3437467,178.377845 17.3409058,178.815345 C17.3437467,179.272731 16.9545425,179.58239 16.394884,179.58239 L15.8522708,179.58239 L15.8522708,180.485798 L16.394884,180.485798 C17.0539742,180.485798 17.4659057,180.815343 17.4630648,181.284093 C17.4659057,181.74716 17.0681788,182.065342 16.5056793,182.065342 C15.9630662,182.065342 15.5568166,181.781251 15.5340893,181.355115 L14.2954541,181.355115 C14.3153405,182.37216 15.2244305,183.079545 16.5028384,183.079545 Z" id="Combined-Shape" fill="#85878B"></path>
    </g>
</svg>