<?xml version="1.0" encoding="UTF-8"?>
<svg width="24px" height="120px" viewBox="0 0 24 120" version="1.1" xmlns="http://www.w3.org/2000/svg" xmlns:xlink="http://www.w3.org/1999/xlink">
    <!-- Generator: Sketch 52.6 (67491) - http://www.bohemiancoding.com/sketch -->
    <title>check</title>
    <desc>Created with Sketch.</desc>
    <defs>
        <path d="M14.2222222,0 L1.77777778,0 C0.8,0 0,0.8 0,1.77777778 L0,14.2222222 C0,15.2 0.8,16 1.77777778,16 L14.2222222,16 C15.2,16 16,15.2 16,14.2222222 L16,1.77777778 C16,0.8 15.2,0 14.2222222,0 L14.2222222,0 Z" id="path-1"></path>
        <polygon id="path-3" points="6.22222222 12.4444444 1.77777778 8.17094017 3.02222222 6.97435897 6.22222222 10.0512821 12.9777778 3.55555556 14.2222222 4.75213675"></polygon>
    </defs>
    <g id="check" stroke="none" stroke-width="1" fill="none" fill-rule="evenodd">
        <g id="on" transform="translate(4.000000, 4.000000)">
            <path d="M14.2222222,0 L1.77777778,0 C0.8,0 0,0.8 0,1.77777778 L0,14.2222222 C0,15.2 0.8,16 1.77777778,16 L14.2222222,16 C15.2,16 16,15.2 16,14.2222222 L16,1.77777778 C16,0.8 15.2,0 14.2222222,0 L14.2222222,0 Z" id="Path" fill="#00BC87"></path>
            <polygon id="Path" fill="#FFFFFF" points="6.22222222 12.4444444 1.77777778 8.17094017 3.02222222 6.97435897 6.22222222 10.0512821 12.9777778 3.55555556 14.2222222 4.75213675"></polygon>
        </g>
        <g id="multiple" transform="translate(4.000000, 28.000000)">
            <path d="M14.2222222,0 L1.77777778,0 C0.8,0 0,0.8 0,1.77777778 L0,14.2222222 C0,15.2 0.8,16 1.77777778,16 L14.2222222,16 C15.2,16 16,15.2 16,14.2222222 L16,1.77777778 C16,0.8 15.2,0 14.2222222,0 L14.2222222,0 Z" id="Shape" fill="#00BC87"></path>
            <rect id="Rectangle" fill="#FFFFFF" x="2.66666667" y="7.11111111" width="10.6666667" height="1.77777778"></rect>
        </g>
        <g id="off" transform="translate(4.000000, 52.000000)" fill-rule="nonzero">
            <path d="M1.77777778,0 L14.2222222,0 C15.2,0 16,0.8 16,1.77777778 L16,14.2222222 C16,15.2 15.2,16 14.2222222,16 L1.77777778,16 C0.8,16 0,15.2 0,14.2222222 L0,1.77777778 C0,0.8 0.8,0 1.77777778,0 Z" id="Path" fill="#D6D7D8"></path>
            <path d="M1.77777778,1 C1.35228475,1 1,1.35228475 1,1.77777778 L1,14.2222222 C1,14.6477153 1.35228475,15 1.77777778,15 L14.2222222,15 C14.6477153,15 15,14.6477153 15,14.2222222 L15,1.77777778 C15,1.35228475 14.6477153,1 14.2222222,1 L1.77777778,1 Z" id="Path" fill="#FFFFFF"></path>
        </g>
        <g id="disabled-on" transform="translate(4.000000, 76.000000)">
            <mask id="mask-2" fill="white">
                <use xlink:href="#path-1"></use>
            </mask>
            <path stroke="#D6D7D8" d="M14.2222222,0.5 L1.77777778,0.5 C1.07614237,0.5 0.5,1.07614237 0.5,1.77777778 L0.5,14.2222222 C0.5,14.9238576 1.07614237,15.5 1.77777778,15.5 L14.2222222,15.5 C14.9238576,15.5 15.5,14.9238576 15.5,14.2222222 L15.5,1.77777778 C15.5,1.07614237 14.9238576,0.5 14.2222222,0.5 Z"></path>
            <mask id="mask-4" fill="white">
                <use xlink:href="#path-3"></use>
            </mask>
            <use id="Path" fill="#FFFFFF" xlink:href="#path-3"></use>
        </g>
        <path d="M5.77777778,100.5 C5.07614237,100.5 4.5,101.076142 4.5,101.777778 L4.5,114.222222 C4.5,114.923858 5.07614237,115.5 5.77777778,115.5 L18.2222222,115.5 C18.9238576,115.5 19.5,114.923858 19.5,114.222222 L19.5,101.777778 C19.5,101.076142 18.9238576,100.5 18.2222222,100.5 L5.77777778,100.5 Z" id="disabled-off" stroke="#D6D7D8" fill="#EBEBEC"></path>
    </g>
</svg>