<?xml version="1.0" encoding="UTF-8"?>
<svg width="72px" height="312px" viewBox="0 0 72 312" version="1.1" xmlns="http://www.w3.org/2000/svg" xmlns:xlink="http://www.w3.org/1999/xlink">
    <!-- Generator: Sketch 52.5 (67469) - http://www.bohemiancoding.com/sketch -->
    <title>menu</title>
    <desc>Created with Sketch.</desc>
    <g id="menu" stroke="none" stroke-width="1" fill="none" fill-rule="evenodd">
        <polygon id="Mask" fill="#85878B" points="10 21 10 15 14 15 14 21 19 21 19 13 22 13 12 4 2 13 5 13 5 21"></polygon>
        <path d="M14,26 L6,26 C4.9,26 4.01,26.9 4.01,28 L4,44 C4,45.1 4.89,46 5.99,46 L18,46 C19.1,46 20,45.1 20,44 L20,32 L14,26 L14,26 Z M16,42 L8,42 L8,40 L16,40 L16,42 L16,42 Z M16,38 L8,38 L8,36 L16,36 L16,38 L16,38 Z M13,33 L13,27.5 L18.5,33 L13,33 L13,33 Z" id="Mask" fill="#85878B"></path>
        <path d="M13,178.971069 C15.2,178.971069 17,177.177578 17,174.985534 C17,172.79349 15.2,171 13,171 C10.8,171 9,172.79349 9,174.985534 C9,177.177578 10.8,178.971069 13,178.971069 Z M7,181.960219 C4.8,181.960219 3,183.75371 3,185.945754 C3,188.137798 4.8,189.931288 7,189.931288 C9.2,189.931288 11,188.137798 11,185.945754 C11,183.75371 9.2,181.960219 7,181.960219 Z M13,180.067091 C12,180.067091 11.1,180.963836 11.1,181.960219 C11.1,182.956603 12,183.853348 13,183.853348 C14,183.853348 14.9,182.956603 14.9,181.960219 C14.9,180.963836 14,180.067091 13,180.067091 Z M19,181.960219 C16.8,181.960219 15,183.75371 15,185.945754 C15,188.137798 16.8,189.931288 19,189.931288 C21.2,189.931288 23,188.137798 23,185.945754 C23,183.75371 21.2,181.960219 19,181.960219 Z" id="Shape" fill="#85878B" fill-rule="nonzero" transform="translate(13.000000, 180.465644) rotate(-270.000000) translate(-13.000000, -180.465644) "></path>
        <path d="M11,68 L15,68 L15,61 L11,61 L11,68 Z M3,68 L9,68 L9,52 L3,52 L3,68 Z M17,68 L21,68 L21,61 L17,61 L17,68 Z M11,52 L11,59 L21,59 L21,52 L11,52 Z" id="Shape" fill="#85878B" fill-rule="nonzero"></path>
        <path d="M10.2,77 L4.8,77 C3.81,77 3,78.0440899 3,79.0065899 L3,90.25 C3,91.2125 3.81,92 4.8,92 L19.2,92 C20.19,92 21,91.2125 21,90.25 L21,80.7565899 C21,79.7940899 20.19,79.0065899 19.2,79.0065899 L12,79.0065899 L10.2,77 Z" id="Path" fill="#85878B"></path>
        <path d="M20.6190476,130.52381 L19.1904762,130.52381 L19.1904762,126.714286 C19.1904762,125.666667 18.3333333,124.809524 17.2857143,124.809524 L13.4761905,124.809524 L13.4761905,123.380952 C13.4761905,122.047619 12.4285714,121 11.0952381,121 C9.76190476,121 8.71428571,122.047619 8.71428571,123.380952 L8.71428571,124.809524 L4.9047619,124.809524 C3.85714286,124.809524 3,125.666667 3,126.714286 L3,130.333333 L4.42857143,130.333333 C5.85714286,130.333333 7,131.47619 7,132.904762 C7,134.333333 5.85714286,135.47619 4.42857143,135.47619 L3,135.47619 L3,139.095238 C3,140.142857 3.85714286,141 4.9047619,141 L8.52380952,141 L8.52380952,139.571429 C8.52380952,138.142857 9.66666667,137 11.0952381,137 C12.5238095,137 13.6666667,138.142857 13.6666667,139.571429 L13.6666667,141 L17.2857143,141 C18.3333333,141 19.1904762,140.142857 19.1904762,139.095238 L19.1904762,135.285714 L20.6190476,135.285714 C21.952381,135.285714 23,134.238095 23,132.904762 C23,131.571429 21.952381,130.52381 20.6190476,130.52381 Z" id="Path" fill="#85878B"></path>
        <path d="M21,163 L21,149 C21,147.9 20.1,147 19,147 L5,147 C3.9,147 3,147.9 3,149 L3,163 C3,164.1 3.9,165 5,165 L19,165 C20.1,165 21,164.1 21,163 Z M8.5,157.5 L11,160.5 L14.5,156 L19,162 L5,162 L8.5,157.5 Z" id="Shape" fill="#85878B" fill-rule="nonzero"></path>
        <path d="M8,114 L13,114 L13,113 C13,112.447715 13.4477153,112 14,112 L20,112 C20.5522847,112 21,112.447715 21,113 L21,117 C21,117.552285 20.5522847,118 20,118 L14,118 C13.4477153,118 13,117.552285 13,117 L13,116 L8,116 L8,119 L6,119 L6,103 L4,103 C3.44771525,103 3,102.552285 3,102 L3,98 C3,97.4477153 3.44771525,97 4,97 L10,97 C10.5522847,97 11,97.4477153 11,98 L11,102 C11,102.552285 10.5522847,103 10,103 L8,103 L8,106 L13,106 L13,105 C13,104.447715 13.4477153,104 14,104 L20,104 C20.5522847,104 21,104.447715 21,105 L21,109 C21,109.552285 20.5522847,110 20,110 L14,110 C13.4477153,110 13,109.552285 13,109 L13,108 L8,108 L8,114 Z" id="Combined-Shape" fill="#85878B" fill-rule="nonzero"></path>
        <path d="M12,242 C6.48,242 2,246.48 2,252 C2,257.52 6.48,262 12,262 C17.52,262 22,257.52 22,252 C22,246.48 17.52,242 12,242 L12,242 Z M12,245 C13.66,245 15,246.34 15,248 C15,249.66 13.66,251 12,251 C10.34,251 9,249.66 9,248 C9,246.34 10.34,245 12,245 L12,245 Z M12,259.2 C9.5,259.2 7.29,257.92 6,255.98 C6.03,253.99 10,252.9 12,252.9 C13.99,252.9 17.97,253.99 18,255.98 C16.71,257.92 14.5,259.2 12,259.2 L12,259.2 Z" id="Mask" fill="#85878B"></path>
        <path d="M20,202.076923 L15.4285714,202.076923 L15.4285714,209 L8.57142857,209 L8.57142857,202.076923 L4,202.076923 L12,194 L20,202.076923 Z M4,212 L4,214 L20,214 L20,212 L4,212 Z" id="Mask" fill="#85878B" fill-rule="nonzero"></path>
        <path d="M4.97802624,270.246154 C5.74725867,269.484023 6.51649109,268.721893 6.84616213,268.939645 C7.39561387,269.157396 6.84616213,270.028402 6.51649109,270.572781 C6.18682005,271.008284 3.32967104,274.818934 3.32967104,277.431952 C3.32967104,278.847337 3.87912277,279.936094 4.75824555,280.698224 C5.63736832,281.351479 6.62638144,281.460354 7.61539456,281.242603 C8.82418837,280.915976 9.70331115,279.718342 11.0219953,278.194082 C12.3406795,276.560946 14.0989681,274.492307 15.5274564,274.492307 C17.2857451,274.492307 17.2857451,275.581065 17.5054827,276.45207 C13.3296495,277.105325 11.5714039,280.480515 11.5714039,282.33136 C11.5714039,284.182205 13.1098688,285.706508 15.087895,285.706508 C16.8461837,285.706508 19.8131799,284.291166 20.2527413,279.065088 L23,279.065088 L23,276.343195 L20.2527413,276.343195 C20.0329606,274.601183 19.0439906,271.770414 15.8571275,271.770414 C13.4395398,271.770414 11.2417329,273.839053 10.4725005,274.818934 C9.8131584,275.581065 8.1648032,277.540828 7.94502251,277.758622 C7.61535147,278.085206 7.17579008,278.629585 6.73622869,278.629585 C6.29666731,278.629585 5.96699627,277.758622 6.29666731,276.560946 C6.73622869,275.363313 7.83513216,273.40355 8.38458389,272.750296 C9.15381632,271.443787 9.70326805,270.572781 9.70326805,269.157396 C9.70326805,266.76213 7.94502251,266 6.95600939,266 C5.52743488,266 4.31864107,267.088757 3.98897003,267.415385 C3.65929899,267.742012 3.32967104,268.068639 3,268.395266 L4.97802624,270.246154 Z M15.1978716,282.984615 C14.8682005,282.984615 14.428553,282.65803 14.428553,282.222484 C14.428553,281.56923 15.1978716,279.827176 17.6154161,279.173964 C17.1758116,282.113609 15.9670609,282.984615 15.1978716,282.984615 Z" id="Shape" fill="#85878B" fill-rule="nonzero"></path>
        <path d="M20,224.923077 L15.4285714,224.923077 L15.4285714,218 L8.57142857,218 L8.57142857,224.923077 L4,224.923077 L12,233 L20,224.923077 Z M4,236 L4,238 L20,238 L20,236 L4,236 Z" id="Shape" fill="#85878B" fill-rule="nonzero"></path>
        <path d="M19.6407061,300.98 C19.6818283,300.66 19.7126699,300.34 19.7126699,300 C19.7126699,299.66 19.6818283,299.34 19.6407061,299.02 L21.8098984,297.37 C22.0052286,297.22 22.0566312,296.95 21.9332648,296.73 L19.8771584,293.27 C19.753792,293.05 19.4762176,292.97 19.2500459,293.05 L16.6901934,294.05 C16.1556057,293.65 15.5798959,293.32 14.9527835,293.07 L14.5621232,290.42 C14.5312816,290.18 14.3153905,290 14.0583772,290 L9.94616426,290 C9.68915096,290 9.47325978,290.18 9.44241818,290.42 L9.05175796,293.07 C8.42464549,293.32 7.84893569,293.66 7.31434801,294.05 L4.75449549,293.05 C4.51804325,292.96 4.25074941,293.05 4.12738302,293.27 L2.07127658,296.73 C1.93762966,296.95 1.99931285,297.22 2.19464297,297.37 L4.36383526,299.02 C4.32271314,299.34 4.29187154,299.67 4.29187154,300 C4.29187154,300.33 4.32271314,300.66 4.36383526,300.98 L2.19464297,302.63 C1.99931285,302.78 1.94791019,303.05 2.07127658,303.27 L4.12738302,306.73 C4.25074941,306.95 4.52832378,307.03 4.75449549,306.95 L7.31434801,305.95 C7.84893569,306.35 8.42464549,306.68 9.05175796,306.93 L9.44241818,309.58 C9.47325978,309.82 9.68915096,310 9.94616426,310 L14.0583772,310 C14.3153905,310 14.5312816,309.82 14.5621232,309.58 L14.9527835,306.93 C15.5798959,306.68 16.1556057,306.34 16.6901934,305.95 L19.2500459,306.95 C19.4864982,307.04 19.753792,306.95 19.8771584,306.73 L21.9332648,303.27 C22.0566312,303.05 22.0052286,302.78 21.8098984,302.63 L19.6407061,300.98 L19.6407061,300.98 Z M12.0022707,303.5 C10.018128,303.5 8.40408443,301.93 8.40408443,300 C8.40408443,298.07 10.018128,296.5 12.0022707,296.5 C13.9864134,296.5 15.600457,298.07 15.600457,300 C15.600457,301.93 13.9864134,303.5 12.0022707,303.5 L12.0022707,303.5 Z" id="Mask-Copy" fill="#85878B"></path>
        <polygon id="Mask" fill="#00BC87" points="34 21 34 15 38 15 38 21 43 21 43 13 46 13 36 4 26 13 29 13 29 21"></polygon>
        <path d="M38,26 L30,26 C28.9,26 28.01,26.9 28.01,28 L28,44 C28,45.1 28.89,46 29.99,46 L42,46 C43.1,46 44,45.1 44,44 L44,32 L38,26 L38,26 Z M40,42 L32,42 L32,40 L40,40 L40,42 L40,42 Z M40,38 L32,38 L32,36 L40,36 L40,38 L40,38 Z M37,33 L37,27.5 L42.5,33 L37,33 L37,33 Z" id="Mask" fill="#00BC87"></path>
        <path d="M37,178.971069 C39.2,178.971069 41,177.177578 41,174.985534 C41,172.79349 39.2,171 37,171 C34.8,171 33,172.79349 33,174.985534 C33,177.177578 34.8,178.971069 37,178.971069 Z M31,181.960219 C28.8,181.960219 27,183.75371 27,185.945754 C27,188.137798 28.8,189.931288 31,189.931288 C33.2,189.931288 35,188.137798 35,185.945754 C35,183.75371 33.2,181.960219 31,181.960219 Z M37,180.067091 C36,180.067091 35.1,180.963836 35.1,181.960219 C35.1,182.956603 36,183.853348 37,183.853348 C38,183.853348 38.9,182.956603 38.9,181.960219 C38.9,180.963836 38,180.067091 37,180.067091 Z M43,181.960219 C40.8,181.960219 39,183.75371 39,185.945754 C39,188.137798 40.8,189.931288 43,189.931288 C45.2,189.931288 47,188.137798 47,185.945754 C47,183.75371 45.2,181.960219 43,181.960219 Z" id="Shape" fill="#00BC87" fill-rule="nonzero" transform="translate(37.000000, 180.465644) rotate(-270.000000) translate(-37.000000, -180.465644) "></path>
        <path d="M35,68 L39,68 L39,61 L35,61 L35,68 Z M27,68 L33,68 L33,52 L27,52 L27,68 Z M41,68 L45,68 L45,61 L41,61 L41,68 Z M35,52 L35,59 L45,59 L45,52 L35,52 Z" id="Shape" fill="#00BC87" fill-rule="nonzero"></path>
        <path d="M34.2,77 L28.8,77 C27.81,77 27,78.0440899 27,79.0065899 L27,90.25 C27,91.2125 27.81,92 28.8,92 L43.2,92 C44.19,92 45,91.2125 45,90.25 L45,80.7565899 C45,79.7940899 44.19,79.0065899 43.2,79.0065899 L36,79.0065899 L34.2,77 Z" id="Path" fill="#00BC87"></path>
        <path d="M44.6190476,130.52381 L43.1904762,130.52381 L43.1904762,126.714286 C43.1904762,125.666667 42.3333333,124.809524 41.2857143,124.809524 L37.4761905,124.809524 L37.4761905,123.380952 C37.4761905,122.047619 36.4285714,121 35.0952381,121 C33.7619048,121 32.7142857,122.047619 32.7142857,123.380952 L32.7142857,124.809524 L28.9047619,124.809524 C27.8571429,124.809524 27,125.666667 27,126.714286 L27,130.333333 L28.4285714,130.333333 C29.8571429,130.333333 31,131.47619 31,132.904762 C31,134.333333 29.8571429,135.47619 28.4285714,135.47619 L27,135.47619 L27,139.095238 C27,140.142857 27.8571429,141 28.9047619,141 L32.5238095,141 L32.5238095,139.571429 C32.5238095,138.142857 33.6666667,137 35.0952381,137 C36.5238095,137 37.6666667,138.142857 37.6666667,139.571429 L37.6666667,141 L41.2857143,141 C42.3333333,141 43.1904762,140.142857 43.1904762,139.095238 L43.1904762,135.285714 L44.6190476,135.285714 C45.952381,135.285714 47,134.238095 47,132.904762 C47,131.571429 45.952381,130.52381 44.6190476,130.52381 Z" id="Path" fill="#00BC87"></path>
        <path d="M45,163 L45,149 C45,147.9 44.1,147 43,147 L29,147 C27.9,147 27,147.9 27,149 L27,163 C27,164.1 27.9,165 29,165 L43,165 C44.1,165 45,164.1 45,163 Z M32.5,157.5 L35,160.5 L38.5,156 L43,162 L29,162 L32.5,157.5 Z" id="Shape" fill="#00BC87" fill-rule="nonzero"></path>
        <path d="M32,114 L37,114 L37,113 C37,112.447715 37.4477153,112 38,112 L44,112 C44.5522847,112 45,112.447715 45,113 L45,117 C45,117.552285 44.5522847,118 44,118 L38,118 C37.4477153,118 37,117.552285 37,117 L37,116 L32,116 L32,119 L30,119 L30,103 L28,103 C27.4477153,103 27,102.552285 27,102 L27,98 C27,97.4477153 27.4477153,97 28,97 L34,97 C34.5522847,97 35,97.4477153 35,98 L35,102 C35,102.552285 34.5522847,103 34,103 L32,103 L32,106 L37,106 L37,105 C37,104.447715 37.4477153,104 38,104 L44,104 C44.5522847,104 45,104.447715 45,105 L45,109 C45,109.552285 44.5522847,110 44,110 L38,110 C37.4477153,110 37,109.552285 37,109 L37,108 L32,108 L32,114 Z" id="Combined-Shape" fill="#00BC87" fill-rule="nonzero"></path>
        <path d="M36,242 C30.48,242 26,246.48 26,252 C26,257.52 30.48,262 36,262 C41.52,262 46,257.52 46,252 C46,246.48 41.52,242 36,242 L36,242 Z M36,245 C37.66,245 39,246.34 39,248 C39,249.66 37.66,251 36,251 C34.34,251 33,249.66 33,248 C33,246.34 34.34,245 36,245 L36,245 Z M36,259.2 C33.5,259.2 31.29,257.92 30,255.98 C30.03,253.99 34,252.9 36,252.9 C37.99,252.9 41.97,253.99 42,255.98 C40.71,257.92 38.5,259.2 36,259.2 L36,259.2 Z" id="Mask" fill="#00BC87"></path>
        <path d="M44,202.076923 L39.4285714,202.076923 L39.4285714,209 L32.5714286,209 L32.5714286,202.076923 L28,202.076923 L36,194 L44,202.076923 Z M28,212 L28,214 L44,214 L44,212 L28,212 Z" id="Mask" fill="#00BC87" fill-rule="nonzero"></path>
        <path d="M28.9780262,270.246154 C29.7472587,269.484023 30.5164911,268.721893 30.8461621,268.939645 C31.3956139,269.157396 30.8461621,270.028402 30.5164911,270.572781 C30.1868201,271.008284 27.329671,274.818934 27.329671,277.431952 C27.329671,278.847337 27.8791228,279.936094 28.7582455,280.698224 C29.6373683,281.351479 30.6263814,281.460354 31.6153946,281.242603 C32.8241884,280.915976 33.7033111,279.718342 35.0219953,278.194082 C36.3406795,276.560946 38.0989681,274.492307 39.5274564,274.492307 C41.2857451,274.492307 41.2857451,275.581065 41.5054827,276.45207 C37.3296495,277.105325 35.5714039,280.480515 35.5714039,282.33136 C35.5714039,284.182205 37.1098688,285.706508 39.087895,285.706508 C40.8461837,285.706508 43.8131799,284.291166 44.2527413,279.065088 L47,279.065088 L47,276.343195 L44.2527413,276.343195 C44.0329606,274.601183 43.0439906,271.770414 39.8571275,271.770414 C37.4395398,271.770414 35.2417329,273.839053 34.4725005,274.818934 C33.8131584,275.581065 32.1648032,277.540828 31.9450225,277.758622 C31.6153515,278.085206 31.1757901,278.629585 30.7362287,278.629585 C30.2966673,278.629585 29.9669963,277.758622 30.2966673,276.560946 C30.7362287,275.363313 31.8351322,273.40355 32.3845839,272.750296 C33.1538163,271.443787 33.7032681,270.572781 33.7032681,269.157396 C33.7032681,266.76213 31.9450225,266 30.9560094,266 C29.5274349,266 28.3186411,267.088757 27.98897,267.415385 C27.659299,267.742012 27.329671,268.068639 27,268.395266 L28.9780262,270.246154 Z M39.1978716,282.984615 C38.8682005,282.984615 38.428553,282.65803 38.428553,282.222484 C38.428553,281.56923 39.1978716,279.827176 41.6154161,279.173964 C41.1758116,282.113609 39.9670609,282.984615 39.1978716,282.984615 Z" id="Shape" fill="#00BC87" fill-rule="nonzero"></path>
        <path d="M44,224.923077 L39.4285714,224.923077 L39.4285714,218 L32.5714286,218 L32.5714286,224.923077 L28,224.923077 L36,233 L44,224.923077 Z M28,236 L28,238 L44,238 L44,236 L28,236 Z" id="Shape" fill="#00BC87" fill-rule="nonzero"></path>
        <path d="M43.6407061,300.98 C43.6818283,300.66 43.7126699,300.34 43.7126699,300 C43.7126699,299.66 43.6818283,299.34 43.6407061,299.02 L45.8098984,297.37 C46.0052286,297.22 46.0566312,296.95 45.9332648,296.73 L43.8771584,293.27 C43.753792,293.05 43.4762176,292.97 43.2500459,293.05 L40.6901934,294.05 C40.1556057,293.65 39.5798959,293.32 38.9527835,293.07 L38.5621232,290.42 C38.5312816,290.18 38.3153905,290 38.0583772,290 L33.9461643,290 C33.689151,290 33.4732598,290.18 33.4424182,290.42 L33.051758,293.07 C32.4246455,293.32 31.8489357,293.66 31.314348,294.05 L28.7544955,293.05 C28.5180432,292.96 28.2507494,293.05 28.127383,293.27 L26.0712766,296.73 C25.9376297,296.95 25.9993129,297.22 26.194643,297.37 L28.3638353,299.02 C28.3227131,299.34 28.2918715,299.67 28.2918715,300 C28.2918715,300.33 28.3227131,300.66 28.3638353,300.98 L26.194643,302.63 C25.9993129,302.78 25.9479102,303.05 26.0712766,303.27 L28.127383,306.73 C28.2507494,306.95 28.5283238,307.03 28.7544955,306.95 L31.314348,305.95 C31.8489357,306.35 32.4246455,306.68 33.051758,306.93 L33.4424182,309.58 C33.4732598,309.82 33.689151,310 33.9461643,310 L38.0583772,310 C38.3153905,310 38.5312816,309.82 38.5621232,309.58 L38.9527835,306.93 C39.5798959,306.68 40.1556057,306.34 40.6901934,305.95 L43.2500459,306.95 C43.4864982,307.04 43.753792,306.95 43.8771584,306.73 L45.9332648,303.27 C46.0566312,303.05 46.0052286,302.78 45.8098984,302.63 L43.6407061,300.98 L43.6407061,300.98 Z M36.0022707,303.5 C34.018128,303.5 32.4040844,301.93 32.4040844,300 C32.4040844,298.07 34.018128,296.5 36.0022707,296.5 C37.9864134,296.5 39.600457,298.07 39.600457,300 C39.600457,301.93 37.9864134,303.5 36.0022707,303.5 L36.0022707,303.5 Z" id="Mask-Copy" fill="#00BC87"></path>
        <polygon id="Mask" fill="#FFFFFF" points="58 21 58 15 62 15 62 21 67 21 67 13 70 13 60 4 50 13 53 13 53 21"></polygon>
        <path d="M62,26 L54,26 C52.9,26 52.01,26.9 52.01,28 L52,44 C52,45.1 52.89,46 53.99,46 L66,46 C67.1,46 68,45.1 68,44 L68,32 L62,26 L62,26 Z M64,42 L56,42 L56,40 L64,40 L64,42 L64,42 Z M64,38 L56,38 L56,36 L64,36 L64,38 L64,38 Z M61,33 L61,27.5 L66.5,33 L61,33 L61,33 Z" id="Mask" fill="#FFFFFF"></path>
        <path d="M61,178.971069 C63.2,178.971069 65,177.177578 65,174.985534 C65,172.79349 63.2,171 61,171 C58.8,171 57,172.79349 57,174.985534 C57,177.177578 58.8,178.971069 61,178.971069 Z M55,181.960219 C52.8,181.960219 51,183.75371 51,185.945754 C51,188.137798 52.8,189.931288 55,189.931288 C57.2,189.931288 59,188.137798 59,185.945754 C59,183.75371 57.2,181.960219 55,181.960219 Z M61,180.067091 C60,180.067091 59.1,180.963836 59.1,181.960219 C59.1,182.956603 60,183.853348 61,183.853348 C62,183.853348 62.9,182.956603 62.9,181.960219 C62.9,180.963836 62,180.067091 61,180.067091 Z M67,181.960219 C64.8,181.960219 63,183.75371 63,185.945754 C63,188.137798 64.8,189.931288 67,189.931288 C69.2,189.931288 71,188.137798 71,185.945754 C71,183.75371 69.2,181.960219 67,181.960219 Z" id="Shape" fill="#FFFFFF" fill-rule="nonzero" transform="translate(61.000000, 180.465644) rotate(-270.000000) translate(-61.000000, -180.465644) "></path>
        <path d="M59,68 L63,68 L63,61 L59,61 L59,68 Z M51,68 L57,68 L57,52 L51,52 L51,68 Z M65,68 L69,68 L69,61 L65,61 L65,68 Z M59,52 L59,59 L69,59 L69,52 L59,52 Z" id="Shape" fill="#FFFFFF" fill-rule="nonzero"></path>
        <path d="M58.2,77 L52.8,77 C51.81,77 51,78.0440899 51,79.0065899 L51,90.25 C51,91.2125 51.81,92 52.8,92 L67.2,92 C68.19,92 69,91.2125 69,90.25 L69,80.7565899 C69,79.7940899 68.19,79.0065899 67.2,79.0065899 L60,79.0065899 L58.2,77 Z" id="Path" fill="#FFFFFF"></path>
        <path d="M68.6190476,130.52381 L67.1904762,130.52381 L67.1904762,126.714286 C67.1904762,125.666667 66.3333333,124.809524 65.2857143,124.809524 L61.4761905,124.809524 L61.4761905,123.380952 C61.4761905,122.047619 60.4285714,121 59.0952381,121 C57.7619048,121 56.7142857,122.047619 56.7142857,123.380952 L56.7142857,124.809524 L52.9047619,124.809524 C51.8571429,124.809524 51,125.666667 51,126.714286 L51,130.333333 L52.4285714,130.333333 C53.8571429,130.333333 55,131.47619 55,132.904762 C55,134.333333 53.8571429,135.47619 52.4285714,135.47619 L51,135.47619 L51,139.095238 C51,140.142857 51.8571429,141 52.9047619,141 L56.5238095,141 L56.5238095,139.571429 C56.5238095,138.142857 57.6666667,137 59.0952381,137 C60.5238095,137 61.6666667,138.142857 61.6666667,139.571429 L61.6666667,141 L65.2857143,141 C66.3333333,141 67.1904762,140.142857 67.1904762,139.095238 L67.1904762,135.285714 L68.6190476,135.285714 C69.952381,135.285714 71,134.238095 71,132.904762 C71,131.571429 69.952381,130.52381 68.6190476,130.52381 Z" id="Path" fill="#FFFFFF"></path>
        <path d="M69,163 L69,149 C69,147.9 68.1,147 67,147 L53,147 C51.9,147 51,147.9 51,149 L51,163 C51,164.1 51.9,165 53,165 L67,165 C68.1,165 69,164.1 69,163 Z M56.5,157.5 L59,160.5 L62.5,156 L67,162 L53,162 L56.5,157.5 Z" id="Shape" fill="#FFFFFF" fill-rule="nonzero"></path>
        <path d="M56,114 L61,114 L61,113 C61,112.447715 61.4477153,112 62,112 L68,112 C68.5522847,112 69,112.447715 69,113 L69,117 C69,117.552285 68.5522847,118 68,118 L62,118 C61.4477153,118 61,117.552285 61,117 L61,116 L56,116 L56,119 L54,119 L54,103 L52,103 C51.4477153,103 51,102.552285 51,102 L51,98 C51,97.4477153 51.4477153,97 52,97 L58,97 C58.5522847,97 59,97.4477153 59,98 L59,102 C59,102.552285 58.5522847,103 58,103 L56,103 L56,106 L61,106 L61,105 C61,104.447715 61.4477153,104 62,104 L68,104 C68.5522847,104 69,104.447715 69,105 L69,109 C69,109.552285 68.5522847,110 68,110 L62,110 C61.4477153,110 61,109.552285 61,109 L61,108 L56,108 L56,114 Z" id="Combined-Shape" fill="#FFFFFF" fill-rule="nonzero"></path>
        <path d="M60,242 C54.48,242 50,246.48 50,252 C50,257.52 54.48,262 60,262 C65.52,262 70,257.52 70,252 C70,246.48 65.52,242 60,242 L60,242 Z M60,245 C61.66,245 63,246.34 63,248 C63,249.66 61.66,251 60,251 C58.34,251 57,249.66 57,248 C57,246.34 58.34,245 60,245 L60,245 Z M60,259.2 C57.5,259.2 55.29,257.92 54,255.98 C54.03,253.99 58,252.9 60,252.9 C61.99,252.9 65.97,253.99 66,255.98 C64.71,257.92 62.5,259.2 60,259.2 L60,259.2 Z" id="Mask" fill="#FFFFFF"></path>
        <path d="M68,202.076923 L63.4285714,202.076923 L63.4285714,209 L56.5714286,209 L56.5714286,202.076923 L52,202.076923 L60,194 L68,202.076923 Z M52,212 L52,214 L68,214 L68,212 L52,212 Z" id="Mask" fill="#FFFFFF" fill-rule="nonzero"></path>
        <path d="M52.9780262,270.246154 C53.7472587,269.484023 54.5164911,268.721893 54.8461621,268.939645 C55.3956139,269.157396 54.8461621,270.028402 54.5164911,270.572781 C54.1868201,271.008284 51.329671,274.818934 51.329671,277.431952 C51.329671,278.847337 51.8791228,279.936094 52.7582455,280.698224 C53.6373683,281.351479 54.6263814,281.460354 55.6153946,281.242603 C56.8241884,280.915976 57.7033111,279.718342 59.0219953,278.194082 C60.3406795,276.560946 62.0989681,274.492307 63.5274564,274.492307 C65.2857451,274.492307 65.2857451,275.581065 65.5054827,276.45207 C61.3296495,277.105325 59.5714039,280.480515 59.5714039,282.33136 C59.5714039,284.182205 61.1098688,285.706508 63.087895,285.706508 C64.8461837,285.706508 67.8131799,284.291166 68.2527413,279.065088 L71,279.065088 L71,276.343195 L68.2527413,276.343195 C68.0329606,274.601183 67.0439906,271.770414 63.8571275,271.770414 C61.4395398,271.770414 59.2417329,273.839053 58.4725005,274.818934 C57.8131584,275.581065 56.1648032,277.540828 55.9450225,277.758622 C55.6153515,278.085206 55.1757901,278.629585 54.7362287,278.629585 C54.2966673,278.629585 53.9669963,277.758622 54.2966673,276.560946 C54.7362287,275.363313 55.8351322,273.40355 56.3845839,272.750296 C57.1538163,271.443787 57.7032681,270.572781 57.7032681,269.157396 C57.7032681,266.76213 55.9450225,266 54.9560094,266 C53.5274349,266 52.3186411,267.088757 51.98897,267.415385 C51.659299,267.742012 51.329671,268.068639 51,268.395266 L52.9780262,270.246154 Z M63.1978716,282.984615 C62.8682005,282.984615 62.428553,282.65803 62.428553,282.222484 C62.428553,281.56923 63.1978716,279.827176 65.6154161,279.173964 C65.1758116,282.113609 63.9670609,282.984615 63.1978716,282.984615 Z" id="Shape" fill="#FFFFFF" fill-rule="nonzero"></path>
        <path d="M68,224.923077 L63.4285714,224.923077 L63.4285714,218 L56.5714286,218 L56.5714286,224.923077 L52,224.923077 L60,233 L68,224.923077 Z M52,236 L52,238 L68,238 L68,236 L52,236 Z" id="Shape" fill="#FFFFFF" fill-rule="nonzero"></path>
        <path d="M67.6407061,300.98 C67.6818283,300.66 67.7126699,300.34 67.7126699,300 C67.7126699,299.66 67.6818283,299.34 67.6407061,299.02 L69.8098984,297.37 C70.0052286,297.22 70.0566312,296.95 69.9332648,296.73 L67.8771584,293.27 C67.753792,293.05 67.4762176,292.97 67.2500459,293.05 L64.6901934,294.05 C64.1556057,293.65 63.5798959,293.32 62.9527835,293.07 L62.5621232,290.42 C62.5312816,290.18 62.3153905,290 62.0583772,290 L57.9461643,290 C57.689151,290 57.4732598,290.18 57.4424182,290.42 L57.051758,293.07 C56.4246455,293.32 55.8489357,293.66 55.314348,294.05 L52.7544955,293.05 C52.5180432,292.96 52.2507494,293.05 52.127383,293.27 L50.0712766,296.73 C49.9376297,296.95 49.9993129,297.22 50.194643,297.37 L52.3638353,299.02 C52.3227131,299.34 52.2918715,299.67 52.2918715,300 C52.2918715,300.33 52.3227131,300.66 52.3638353,300.98 L50.194643,302.63 C49.9993129,302.78 49.9479102,303.05 50.0712766,303.27 L52.127383,306.73 C52.2507494,306.95 52.5283238,307.03 52.7544955,306.95 L55.314348,305.95 C55.8489357,306.35 56.4246455,306.68 57.051758,306.93 L57.4424182,309.58 C57.4732598,309.82 57.689151,310 57.9461643,310 L62.0583772,310 C62.3153905,310 62.5312816,309.82 62.5621232,309.58 L62.9527835,306.93 C63.5798959,306.68 64.1556057,306.34 64.6901934,305.95 L67.2500459,306.95 C67.4864982,307.04 67.753792,306.95 67.8771584,306.73 L69.9332648,303.27 C70.0566312,303.05 70.0052286,302.78 69.8098984,302.63 L67.6407061,300.98 L67.6407061,300.98 Z M60.0022707,303.5 C58.018128,303.5 56.4040844,301.93 56.4040844,300 C56.4040844,298.07 58.018128,296.5 60.0022707,296.5 C61.9864134,296.5 63.600457,298.07 63.600457,300 C63.600457,301.93 61.9864134,303.5 60.0022707,303.5 L60.0022707,303.5 Z" id="Mask-Copy" fill="#FFFFFF"></path>
    </g>
</svg>