<?xml version="1.0" encoding="UTF-8"?>
<svg width="24px" height="168px" viewBox="0 0 24 168" version="1.1" xmlns="http://www.w3.org/2000/svg" xmlns:xlink="http://www.w3.org/1999/xlink">
    <!-- Generator: Sketch 53 (72520) - https://sketchapp.com -->
    <title>navbar</title>
    <desc>Created with Sketch.</desc>
    <g id="navbar" stroke="none" stroke-width="1" fill="none" fill-rule="evenodd">
        <path d="M18.2352941,82.5147059 L18.2352941,87.3771626 L20,89.1453287 L20,90.0294118 L5,90.0294118 L5,89.1453287 L6.76470588,87.3771626 L6.76470588,82.5147059 C6.76470588,79.7740484 8.61764706,77.5638408 11.1764706,76.9449827 L11.1764706,76.3261246 C11.1764706,75.6188581 11.7941176,75 12.5,75 C13.2058824,75 13.8235294,75.6188581 13.8235294,76.3261246 L13.8235294,76.9449827 C16.3823529,77.5638408 18.2352941,79.7740484 18.2352941,82.5147059 Z M12.4315068,93 C11.4434442,93 10.6350294,92.19 10.6350294,91.2 L14.2279843,91.2 C14.2279843,91.47 14.1381605,91.7399647 14.0483366,91.92 C13.8686888,92.46 13.4195695,92.91 12.7908023,93 C12.7009785,93 12.5213307,93 12.4315068,93 Z" id="Combined-Shape" fill="#FFFFFF" fill-rule="nonzero"></path>
        <polygon id="Path-Copy" fill="#FFFFFF" points="8 106 12 110 16 106"></polygon>
        <path d="M4,132 C4,134.2 4.9,136.2 6.4,137.6 L4,140 L10,140 L10,134 L7.8,136.2 C6.7,135.2 6,133.7 6,132 C6,129.4 7.7,127.2 10,126.3 L10,124.3 C6.6,125.2 4,128.3 4,132 Z M20,124 L14,124 L14,130 L16.2,127.8 C17.3,128.8 18,130.3 18,132 C18,134.6 16.3,136.8 14,137.7 L14,139.8 C17.4,138.9 20,135.8 20,132.099961 C20,129.899961 19.1,127.899961 17.6,126.499961 L20,124 Z" id="Shape" fill="#FFFFFF" fill-rule="nonzero" transform="translate(12.000000, 132.000000) rotate(-90.000000) translate(-12.000000, -132.000000) "></path>
        <g id="Group" transform="translate(0.000000, 144.000000)" fill-rule="nonzero">
            <path d="M12,0 C5.4,0 0,5.4 0,12 C0,18.6 5.4,24 12,24 C18.6,24 24,18.6 24,12 C24,5.4 18.6,0 12,0 Z" id="Path" fill="#FFFFFF"></path>
            <path d="M12,3.6 C14.04,3.6 15.6,5.16 15.6,7.2 C15.6,9.24 14.04,10.8 12,10.8 C9.96,10.8 8.4,9.24 8.4,7.2 C8.4,5.16 9.96,3.6 12,3.6 Z" id="Path" fill="#33373E"></path>
            <path d="M12,20.64 C9,20.64 6.36,19.0800471 4.8,16.8 C4.8,14.4 9.6,13.08 12,13.08 C14.4,13.08 19.2,14.4 19.2,16.8 C17.64,19.08 15,20.64 12,20.64 Z" id="Path" fill="#33373E"></path>
        </g>
        <path d="M3,18 L21,18 L21,16 L3,16 L3,18 Z M3,13 L21,13 L21,11 L3,11 L3,13 Z M3,6 L3,8 L21,8 L21,6 L3,6 Z" id="Mask" fill="#FFFFFF" fill-rule="nonzero"></path>
        <path d="M7,42 L7,40 L21,40 L21,42 L7,42 Z M7,37 L7,35 L21,35 L21,37 L7,37 Z M7,30 L21,30 L21,32 L7,32 L7,30 Z M3,42 L3,40 L5,40 L5,42 L3,42 Z M3,37 L3,35 L5,35 L5,37 L3,37 Z M3,30 L5,30 L5,32 L3,32 L3,30 Z" id="Combined-Shape" fill="#FFFFFF" fill-rule="nonzero"></path>
        <path d="M12.322267,55.0275 L7.37759763,60 L12.322267,64.9725 L10.7999998,66.5 L4.322267,60 L10.7999998,53.5 L12.322267,55.0275 Z M19.322267,55.0275 L14.3775976,60 L19.322267,64.9725 L17.7999998,66.5 L11.322267,60 L17.7999998,53.5 L19.322267,55.0275 Z" id="Combined-Shape-Copy" fill="#FFFFFF"></path>
    </g>
</svg>