<?xml version="1.0" encoding="UTF-8"?>
<svg width="320px" height="271px" viewBox="0 0 320 271" version="1.1" xmlns="http://www.w3.org/2000/svg" xmlns:xlink="http://www.w3.org/1999/xlink">
    <!-- Generator: Sketch 52.5 (67469) - http://www.bohemiancoding.com/sketch -->
    <title>sync_placeholder</title>
    <desc>Created with Sketch.</desc>
    <g id="✂️-Assets" stroke="none" stroke-width="1" fill="none" fill-rule="evenodd">
        <g id="sync_placeholder">
            <path d="M91.95,116.79 C94.97,116.08 99.13,113.84 102.56,112.92 C104.46,112.41 106.33,111.75 108.23,111.26 C109.82,110.85 111.86,110.41 113.5,110.49 C110.7,112.97 107.78,115.33 104.97,117.81 C103.53,119.08 101.81,120.14 100.65,121.6" id="Path" fill="#93817B"></path>
            <path d="M130.07,123.2 C129.91,123.34 129.73,123.46 129.58,123.61 C125.53,127.63 121.51,131.68 117.75,135.98 C117.08,136.75 116.4,137.51 115.87,138.39 C114.83,138.17 113.8,137.95 112.76,137.73 C112.39,137.65 112.02,137.54 111.64,137.49 C110.81,137.4 110.03,137.49 109.42,138.15 C109.22,138.36 108.95,138.52 108.7,138.67 C106.53,139.93 104.36,141.18 102.18,142.43 C101.89,142.6 101.56,142.69 101.25,142.82 C100.29,141.26 99.44,139.64 98.75,137.94 C98.61,137.6 98.38,137.26 98.55,136.86 C98.83,136.84 99.02,137.04 99.24,137.16 C100.03,137.59 100.87,137.91 101.78,137.93 C104.86,138.01 107.66,137.14 110.09,135.24 C111.03,134.51 111.87,133.66 112.75,132.86 C112.94,132.69 113.12,132.5 113.26,132.29 C113.87,131.32 114.46,130.32 114.84,129.23 C115.01,128.74 115,128.07 115.21,127.62 C115.44,127.14 115.87,126.95 116.32,126.65 C118.4,125.24 120.3,123.56 122.56,122.43 C124.18,121.62 126.08,120.56 127.83,120.11 C128.55,119.93 129.49,119.88 129.96,120.57 C130.4,121.22 130,122.43 130.07,123.2 Z" id="Path" fill="#00BC87"></path>
            <path d="M121.57,111.46 C121.45,111.5 121.35,111.54 121.26,111.58 C120.29,112 119.45,112.75 118.54,113.28 C117.17,114.08 115.79,114.87 114.43,115.68 C112.97,116.55 111.39,117.22 109.84,117.94 C108.75,118.45 107.64,118.9 106.52,119.37 C105.87,119.64 105.15,119.71 104.51,120.02 C104.31,120.12 102.74,121.07 102.79,121.12 C102.41,120.74 102.02,120.36 101.64,119.98 C103.62,117.75 105.83,115.75 108.09,113.8 C109.92,112.21 111.82,110.7 113.7,109.16 C113.8,109.08 113.92,109.03 114.03,108.97 C114.38,109.18 114.66,109.06 114.94,108.82 C115.43,108.41 115.93,108.02 116.45,107.66 C116.76,107.44 117.11,107.27 117.45,107.11 C118.15,106.78 118.84,106.8 119.53,107.16 C120.3,107.56 123.37,109.15 123.35,110.12 C123.34,110.8 122.24,111.2 121.57,111.46 Z" id="Path" fill="#0A966E"></path>
            <path d="M0,228.76 C1.24,228.68 2.47,228.8 3.7,228.87 C4.21,228.9 4.72,228.96 5.23,228.98 C8.89,229.14 12.55,229.3 16.22,229.46 C16.39,229.47 16.56,229.47 16.73,229.48 C20.09,229.6 23.46,229.7 26.82,229.85 C30.99,230.03 35.16,230.26 39.33,230.46 C39.97,230.49 40.61,230.49 41.25,230.48 C43.51,230.42 45.77,230.36 48.02,230.29 C50.7,230.2 53.39,230.09 56.07,229.99 C56.31,229.98 56.58,230.03 56.76,229.8 C56.59,229.46 56.26,229.45 56,229.35 C50.82,227.49 45.8,225.26 40.79,222.99 C36.38,220.99 32.34,218.38 28.52,215.42 C26.8,214.09 25.09,212.75 23.56,211.19 C23.38,211.01 23.18,210.85 22.96,210.72 C21.9,210.06 21.02,209.2 20.22,208.24 C19,206.76 17.83,205.24 16.88,203.56 C15.48,201.08 14.67,198.41 14.29,195.59 C13.69,191.11 14.29,186.76 15.48,182.45 C16.59,178.41 18.14,174.54 20.04,170.81 C20.23,170.43 20.42,170.05 20.61,169.66 C20.73,169.49 20.88,169.33 20.98,169.15 C21.47,168.3 21.91,167.43 22.43,166.6 C25.57,161.66 29.17,157.08 33.27,152.91 C36.14,149.99 39.2,147.3 42.35,144.7 C43.66,143.62 44.99,142.55 46.31,141.48 C46.63,141.27 46.95,141.07 47.26,140.85 C48.93,139.68 50.58,138.46 52.28,137.34 C57.71,133.75 63.37,130.51 69.03,127.31 C70.26,126.61 71.57,126.11 73.01,126.03 C73.22,126.02 73.43,125.96 73.63,125.91 C73.89,125.84 73.89,125.61 73.92,125.4 C74.82,125.47 74.93,125.57 74.95,126.3 C74.96,126.6 74.92,126.9 74.94,127.19 C75.02,128.49 75.6,129.45 76.81,129.99 C77.6,130.34 78.41,130.52 79.29,130.35 C79.75,130.26 80.21,130.23 80.68,130.18 C81.07,130.14 81.44,130.22 81.78,130.41 C82.53,130.82 83.23,131.29 83.73,132.01 C84.22,132.7 84.72,133.39 85.01,134.2 C83.78,135.12 82.57,136.05 81.33,136.95 C79.16,138.53 77,140.12 75.04,141.97 C73.96,143 72.88,144.02 71.81,145.06 C71.38,145.48 70.93,145.86 70.45,146.22 C69.88,146.66 69.23,147 68.77,147.58 C68.52,147.74 68.27,147.89 68.03,148.07 C65.11,150.29 62.32,152.66 59.53,155.02 C55.36,158.55 51.59,162.48 48.16,166.73 C47.15,167.99 46.11,169.23 45.23,170.59 C44.95,170.64 44.8,170.85 44.69,171.09 C44.31,171.9 43.77,172.62 43.31,173.38 C42.56,174.62 41.82,175.85 41.31,177.22 C41.22,177.46 41.1,177.68 40.97,177.9 C40.4,178.86 40.01,179.89 39.72,180.96 C39.38,182.23 39.11,183.52 38.8,184.8 C38.58,185.72 38.58,186.65 38.71,187.58 C38.65,188.72 38.94,189.8 39.46,190.77 C40.42,192.58 41.55,194.29 42.95,195.78 C44.14,197.05 45.56,198.09 47.04,199.03 C48.66,200.06 50.37,200.91 52.24,201.42 C52.89,201.6 53.52,201.87 54.17,202.08 C55.3,202.44 56.44,202.78 57.58,203.13 C57.82,203.31 58.07,203.47 58.29,203.67 C59.35,204.66 60.38,205.68 61.46,206.64 C63.82,208.74 66.32,210.64 69.1,212.18 C71.53,213.53 74.07,214.6 76.64,215.63 C80.35,217.1 84.23,217.84 88.17,218.3 C89.48,218.45 90.8,218.52 92.11,218.64 C94.45,218.86 96.79,218.86 99.13,218.71 C101.21,218.58 103.28,218.35 105.35,218.06 C108.98,217.55 112.58,216.98 116.14,216.06 C117.7,215.66 119.28,215.32 120.86,214.95 C121.24,215.01 121.61,215.11 121.99,215.13 C124.41,215.25 126.84,215.41 129.26,215.46 C131.81,215.51 134.37,215.47 136.92,215.42 C139.81,215.35 142.71,215.25 145.6,215.11 C147.6,215.02 149.59,214.84 151.52,214.21 C151.84,214.1 152.18,213.96 152.51,213.97 C153.37,214 154.08,213.66 154.75,213.17 C155.19,213.22 155.59,213.08 155.99,212.95 C157.16,212.57 158.34,212.21 159.52,211.84 C163.86,210.49 168.18,209.05 172.45,207.48 C172.61,207.42 172.78,207.36 172.9,207.25 C172.98,207.18 173.04,207.01 173.01,206.92 C172.92,206.68 172.79,206.46 172.66,206.24 C171.12,203.69 169.71,201.07 168.35,198.42 C168.14,198 167.92,197.59 167.53,197.3 C167.13,197.01 166.92,196.6 166.9,196.1 C167.41,195.42 168.07,195.02 168.94,194.94 C169.26,194.91 169.58,194.73 169.88,194.57 C172.71,193.09 175.54,191.61 178.36,190.1 C182.87,187.69 187.24,185.03 191.42,182.08 C198.24,177.26 205,172.37 211.45,167.06 C213.91,165.03 216.59,163.26 218.9,161.04 C219,160.94 219.21,160.96 219.37,160.92 C219.48,161.15 219.58,161.36 219.51,161.64 C218.65,164.78 218.32,168.12 217.56,171.31 C217.08,173.35 216.7,175.42 216.17,177.45 C215.82,178.76 215.37,180.1 214.88,181.37 C214.05,183.52 212.99,185.44 212.05,187.51 C211.98,187.67 211.93,187.83 212.07,187.98 C212.35,187.99 212.54,187.81 212.75,187.68 C214.12,186.81 215.48,185.93 216.85,185.06 C217.28,184.79 217.72,184.52 218.17,184.29 C220.34,183.2 222.52,182.11 224.69,181.03 C229.66,178.55 234.37,175.64 238.89,172.41 C242.93,169.52 246.64,166.27 249.8,162.42 C249.96,162.22 250.14,162.04 250.32,161.85 C252.17,159.9 253.91,157.85 255.66,155.81 C261.96,148.45 270.09,142.1 277.34,135.68 C277.43,135.6 277.53,138.23 277.51,138.45 C277.44,139.53 277.38,140.7 277.28,141.81 C277.09,144.05 276.72,146.26 276.14,148.43 C275.7,148.77 275.66,149.23 275.75,149.72 C275.69,149.97 275.64,150.22 275.56,150.46 C273.38,157.14 270,163.18 265.69,168.71 C261.09,174.62 255.78,179.86 250.08,184.71 C245.62,188.51 240.86,191.89 235.94,195.05 C235.51,195.33 235.1,195.63 234.68,195.92 C234.16,195.98 233.68,196.17 233.32,196.55 C232.81,197.09 232.17,197.41 231.56,197.79 C230.23,198.62 228.89,199.45 227.53,200.24 C223.01,202.86 218.59,205.65 213.8,207.76 C213.58,207.86 213.47,208.01 213.41,208.22 C213.29,208.26 213.16,208.29 213.05,208.34 C207.34,211.32 201.57,214.18 195.69,216.82 C195.47,216.92 195.2,216.97 195.06,217.22 C195.01,217.29 194.85,217.19 194.87,217.35 C194.93,217.3 194.99,217.25 195.05,217.2 C195.52,217.27 195.98,217.21 196.45,217.13 C198.34,216.83 200.22,216.49 202.11,216.22 C207.53,215.42 212.95,214.58 218.34,213.58 C219.97,213.28 221.61,213.03 223.2,212.56 C223.76,212.53 224.29,212.62 224.82,212.82 C228.76,214.34 232.83,215.44 236.85,216.7 C241.52,218.17 246.24,219.49 250.82,221.23 C254.09,222.48 257.32,223.77 260.4,225.43 C260.85,225.67 261.29,225.94 261.73,226.2 C261.91,226.31 261.87,226.49 261.85,226.66 C261.52,226.74 261.19,226.8 260.86,226.9 C253.27,229.16 245.6,231.11 237.87,232.84 C226.94,235.28 215.91,237.17 204.81,238.64 C200.84,239.16 196.86,239.56 192.89,240.02 C192.13,240.11 191.38,240.25 190.62,240.37 C190.4,240.22 190.25,239.88 189.88,240.14 C189.48,240.43 189.01,240.46 188.54,240.48 C188.16,240.5 187.77,240.51 187.39,240.54 C184.85,240.77 182.31,241.02 179.76,241.22 C177.21,241.42 174.66,241.58 172.11,241.71 C169.64,241.84 167.17,241.91 164.7,242.01 C163.82,242.05 162.94,241.96 162.05,242.02 C159.76,242.16 157.45,242.2 155.15,242.22 C152.89,242.24 150.64,242.22 148.38,242.13 C144.85,241.99 141.31,242.07 137.78,241.82 C135,241.62 132.3,241.53 129.53,241.28 C127.2,241.07 124.86,240.85 122.53,240.61 C122.01,240.56 121.53,240.56 121.02,240.69 C118.58,241.29 116.13,241.86 113.68,242.43 C108,243.76 102.29,244.99 96.57,246.1 C89.3,247.51 82.01,248.86 74.69,250.05 C69.98,250.81 65.25,251.44 60.51,251.96 C57,252.35 53.47,252.64 49.94,252.85 C48.24,252.95 46.53,253.02 44.83,253.12 C41.3,253.33 37.77,253.52 34.23,253.56 C29.24,253.62 24.26,253.72 19.28,254 C14.09,254.3 8.88,254.33 3.68,254.24 C2.45,254.22 1.23,254.12 2.62012634e-14,254.06 C0.02,245.66 0,237.21 0,228.76 Z" id="Path" fill="#BCB0AC"></path>
            <path d="M319.98,83.62 C319.29,83.4 318.61,83.18 317.92,82.98 C315.72,82.33 313.51,81.73 311.33,81.02 C308.9,80.24 306.43,79.63 303.98,78.95 C301.24,78.19 298.49,77.5 295.74,76.77 C295.21,76.63 294.82,76.83 294.53,77.25 C294.04,77.94 293.57,78.65 293.07,79.34 C291.63,81.33 290.19,83.33 288.72,85.31 C287.28,87.25 285.83,89.19 284.36,91.11 C283.62,92.09 282.83,93.04 282.07,94.01 C280.55,95.95 279.09,97.92 277.51,99.81 C276.2,101.37 275,103.02 273.64,104.54 C272.6,105.71 271.59,106.92 270.58,108.11 C269.69,109.15 268.73,110.1 267.82,111.11 C267.4,111.58 267.06,112.13 266.69,112.64 C266.11,112.07 265.52,111.52 264.97,110.93 C261.8,107.61 258.21,104.82 254.34,102.36 C253.52,101.84 252.69,101.32 251.86,100.8 C252.65,100.28 253.26,99.56 253.87,98.85 C254.5,98.11 255.09,97.33 255.71,96.58 C256.34,95.83 257,95.12 257.62,94.37 C258.73,93.03 259.82,91.68 260.92,90.34 C261.78,89.29 262.66,88.26 263.51,87.2 C264.7,85.71 265.85,84.19 267.04,82.7 C268.17,81.27 269.34,79.87 270.46,78.44 C271.79,76.74 273.08,75 274.39,73.28 C274.57,73.04 274.76,72.81 274.73,72.46 C274.46,72.36 274.2,72.22 273.91,72.17 C272.74,71.97 271.58,71.76 270.4,71.61 C269.1,71.44 267.82,71.16 266.51,71.02 C265.42,70.9 264.33,70.74 263.25,70.55 C262.41,70.4 261.55,70.43 260.74,70.22 C259.91,70.01 259.03,70.16 258.24,69.82 C257.08,69.94 255.98,69.44 254.82,69.54 C254.66,69.55 254.47,69.53 254.32,69.46 C253.87,69.27 253.4,69.3 252.94,69.29 C252.68,69.28 252.41,69.33 252.18,69.24 C251.52,68.99 250.84,69.05 250.16,69.03 C249.86,69.02 249.54,69.06 249.27,68.96 C248.69,68.74 248.1,68.79 247.5,68.78 C247.2,68.77 246.88,68.83 246.61,68.74 C245.78,68.46 244.93,68.55 244.08,68.53 C243.82,68.52 243.55,68.57 243.32,68.5 C242.45,68.2 241.55,68.3 240.66,68.28 C240.32,68.27 239.95,68.33 239.64,68.23 C238.89,67.97 238.13,68.04 237.36,68.03 C236.51,68.01 235.63,68.12 234.81,67.96 C234,67.8 233.21,67.78 232.4,67.77 C231.21,67.76 230.01,67.77 228.82,67.76 C228.52,67.76 228.2,67.81 227.93,67.72 C227.05,67.43 226.16,67.52 225.27,67.51 C225.31,67.44 225.33,67.35 225.39,67.29 C227.71,64.81 230.18,62.49 233.02,60.62 C234.43,59.69 235.88,58.81 237.52,58.33 C237.91,58.72 238.4,58.85 238.93,58.8 C240.51,58.66 242.06,59.02 243.63,59.12 C245.31,59.22 247.01,59.36 248.68,59.62 C249.64,59.77 250.61,59.8 251.57,60 C252.43,60.18 253.33,60.2 254.22,60.34 C255.31,60.51 256.39,60.7 257.49,60.8 C258.72,60.91 259.92,61.17 261.13,61.35 C263.39,61.7 265.64,62.08 267.88,62.56 C270.16,63.05 272.45,63.46 274.73,63.94 C276.31,64.27 277.88,64.63 279.43,65.07 C279.99,65.23 280.35,65.09 280.65,64.69 C281.2,63.98 281.73,63.27 282.23,62.53 C283.83,60.17 285.55,57.9 287.08,55.5 C287.71,54.5 288.47,53.57 289.12,52.58 C290.54,50.41 291.92,48.21 293.32,46.03 C294.17,44.71 295.03,43.39 295.87,42.06 C297.13,40.04 298.38,38.01 299.62,35.98 C300.51,34.53 301.37,33.07 302.24,31.6 C303.06,30.21 303.87,28.81 304.67,27.41 C305.65,25.72 306.63,24.02 307.59,22.32 C308.14,21.36 308.65,20.38 309.19,19.41 C314.39,10.42 319.98,0.01 319.98,0.01 C319.98,0.01 319.98,11.01 319.98,15.01 C319.98,22.35 319.98,29.69 319.98,37.03 C319.61,37.27 319.65,37.71 319.49,38.04 C318.36,40.38 317.07,42.63 315.77,44.87 C313.96,47.99 312.05,51.05 310.13,54.11 C308.49,56.74 306.81,59.34 305.08,61.92 C303.85,63.76 302.69,65.63 301.35,67.4 C300.66,68.31 300.07,69.3 299.44,70.26 C299.26,70.54 299.31,70.71 299.62,70.86 C299.77,70.93 299.93,71 300.09,71.06 C302.14,71.77 304.19,72.47 306.23,73.18 C306.75,73.36 307.28,73.52 307.8,73.71 C310.07,74.55 312.34,75.39 314.61,76.23 C316.4,76.9 318.19,77.57 319.98,78.24 C319.98,80.03 319.98,81.83 319.98,83.62 Z" id="Path" fill="#E4D1D3"></path>
            <path d="M136.91,258.72 C136.94,258.36 136.92,258.02 136.73,257.7 C136.81,257.51 136.77,257.34 136.66,257.19 C136.7,256.92 136.68,256.67 136.55,256.42 C136.63,256.14 136.55,255.89 136.41,255.65 C136.39,255.48 136.37,255.31 136.35,255.14 C136.25,254.47 136.19,253.79 136.06,253.13 C135.38,249.79 134.69,246.46 134,243.13 C133.9,242.63 133.73,242.14 133.86,241.62 C135.17,241.8 136.5,241.77 137.81,241.86 C141.34,242.11 144.88,242.03 148.41,242.17 C150.67,242.26 152.93,242.28 155.18,242.26 C157.48,242.24 159.78,242.21 162.08,242.06 C162.97,242 163.85,242.09 164.73,242.05 C167.2,241.95 169.67,241.88 172.14,241.75 C174.69,241.62 177.24,241.46 179.79,241.26 C182.34,241.06 184.88,240.81 187.42,240.58 C187.8,240.55 188.19,240.53 188.57,240.52 C189.04,240.5 189.52,240.47 189.91,240.18 C190.28,239.91 190.43,240.26 190.65,240.41 C191.1,240.97 191.43,241.61 191.77,242.24 C193.22,245.04 194.31,247.99 195.34,250.96 C197.08,255.94 198.44,261.03 199.68,266.16 C199.99,267.44 200.31,268.72 200.62,270 C200.7,270.33 200.83,270.65 200.71,271 C194.14,271 187.57,271 181,271 C180.41,270.21 179.66,269.57 178.96,268.9 C173.96,264.06 169.33,258.88 165.2,253.27 C165.07,253.1 164.95,252.92 164.81,252.77 C164.77,252.73 164.66,252.74 164.59,252.74 C164.56,252.74 164.5,252.79 164.5,252.82 C164.48,252.99 164.47,253.16 164.47,253.33 C164.4,257.6 164.14,261.85 163.59,266.08 C163.38,267.73 163.09,269.36 162.83,271 C154.81,271 146.79,271 138.77,271 C138.5,270.15 138.3,269.29 138.2,268.41 C138.16,267.99 138.07,267.58 138,267.16 C138.1,266.99 138.08,266.82 137.96,266.66 C138,265.96 137.92,265.27 137.74,264.6 C137.84,264.43 137.82,264.26 137.7,264.1 C137.74,263.57 137.67,263.05 137.49,262.55 C137.59,262.37 137.56,262.21 137.44,262.05 C137.48,261.61 137.42,261.18 137.24,260.77 C137.32,260.59 137.29,260.42 137.18,260.26 C137.21,259.9 137.18,259.55 137,259.23 C137.06,259.05 137.02,258.88 136.91,258.72 Z" id="Path" fill="#014955"></path>
            <path d="M319.98,205.98 C319.53,205.92 319.16,206.19 318.78,206.34 C307.73,210.69 296.59,214.77 285.41,218.75 C282,219.96 278.6,221.17 275.19,222.38 C274.92,222.2 274.84,221.91 274.73,221.63 C274.26,220.48 273.91,219.3 273.68,218.09 C273.55,217.43 273.19,216.93 272.63,216.56 C271.7,215.96 270.69,215.52 269.67,215.1 C269.2,214.9 268.71,214.72 268.2,214.7 C267.05,214.64 265.9,214.59 264.77,214.9 C264.24,215.05 263.69,215.16 263.16,215.3 C262.7,215.43 262.24,215.42 261.77,215.33 C261.02,215.18 260.28,214.99 259.56,214.71 C258.24,214.2 257.04,213.47 255.91,212.63 C253.44,210.8 251.07,208.86 248.7,206.91 C248.5,206.75 248.31,206.57 248.16,206.37 C248.1,206.29 248.16,206.13 248.16,206.01 C248.77,205.83 249.39,205.67 249.99,205.47 C262.01,201.52 273.89,197.19 285.57,192.31 C293.87,188.84 302,185.02 310.05,181.02 C311.65,180.22 313.28,179.47 314.87,178.67 C316.44,177.88 318.1,177.35 319.75,176.77 C319.82,176.74 319.92,176.78 320,176.78 C319.98,186.53 319.98,196.25 319.98,205.98 Z" id="Path" fill="#BCB0AC"></path>
            <path d="M237.55,58.31 C235.91,58.79 234.46,59.67 233.05,60.6 C230.21,62.48 227.74,64.8 225.42,67.27 C225.37,67.33 225.34,67.42 225.3,67.49 C224.24,68.42 223.37,69.53 222.44,70.57 C221.33,71.81 220.21,73.03 218.97,74.14 C217.5,75.46 215.87,76.53 214.05,77.3 C211.83,78.25 209.55,78.54 207.18,77.98 C205.18,77.51 203.24,76.91 201.46,75.84 C201.03,75.58 200.63,75.1 200.18,75.06 C199.65,75 199.26,75.59 198.81,75.9 C196.15,77.7 193.37,79.24 190.26,80.14 C187.71,80.87 185.15,80.98 182.57,80.31 C180.21,79.7 178.14,78.58 176.4,76.86 C175.55,76.02 174.73,75.16 173.89,74.31 C172.88,73.28 171.68,73.12 170.36,73.53 C169.2,73.89 168.21,74.55 167.33,75.37 C166.17,76.45 165.21,77.7 164.42,79.07 C164.25,79.36 164.08,79.66 163.92,79.96 C163.73,80.32 163.42,80.38 163.06,80.38 C162.83,80.18 162.61,79.96 162.68,79.62 C162.76,79.28 162.77,78.97 162.66,78.62 C162.39,77.72 162.35,76.78 162.35,75.84 C162.36,74.52 162.36,73.19 162.26,71.88 C162.11,69.76 161.32,67.91 159.64,66.53 C159.34,66.29 159.07,66.01 158.77,65.78 C158.27,65.4 158.14,64.94 158.28,64.33 C158.57,63.03 158.57,61.71 158.45,60.39 C158.28,58.37 157.13,57.14 155.26,56.51 C154.35,56.21 153.42,56.19 152.48,56.22 C150.4,56.3 148.99,57.63 147.52,58.84 C147.49,58.87 147.48,58.91 147.46,58.95 C146.8,60.38 145.95,61.72 145.66,63.31 C145.58,63.73 145.49,64.14 145.13,64.43 C145.11,61.29 145.74,58.25 146.54,55.23 C146.78,54.31 147.21,53.49 147.77,52.72 C150.42,49.02 154.07,47.22 158.57,47.07 C159.68,47.03 160.79,47.08 161.89,47.17 C163.3,47.28 164.71,47.24 166.1,47.02 C168.78,46.59 171.26,45.64 173.51,44.08 C175.09,42.99 176.7,41.94 178.3,40.88 C180.18,39.63 182.09,38.41 184.11,37.39 C186.4,36.23 188.78,35.32 191.34,34.91 C194.71,34.38 197.96,34.78 201.11,36.1 C204.61,37.58 207.44,39.92 209.82,42.84 C211.74,45.2 213.24,47.83 214.67,50.5 C214.83,50.8 214.99,51.1 215.16,51.4 C215.2,51.47 215.29,51.5 215.36,51.55 C215.6,51.55 215.72,51.36 215.88,51.23 C218.78,48.83 222.14,48.07 225.81,48.4 C228.64,48.65 231.33,49.42 233.93,50.57 C235.49,51.26 237.04,51.96 238.61,52.63 C239.71,53.1 240.82,53.54 241.94,53.95 C243.19,54.4 244.36,55 245.54,55.6 C245.88,55.77 246.18,56.01 246.48,56.25 C246.64,56.38 246.77,56.57 246.64,56.81 C246.54,56.99 246.36,57 246.2,56.98 C245.3,56.88 244.41,56.93 243.52,57 C241.64,57.14 239.8,57.46 238.02,58.08 C237.85,58.14 237.7,58.23 237.55,58.31 Z" id="Path" fill="#5C5F65"></path>
            <path d="M145.14,64.42 C145.5,64.13 145.6,63.73 145.67,63.3 C145.95,61.72 146.8,60.37 147.47,58.94 C147.49,58.9 147.5,58.85 147.53,58.83 C149.01,57.62 150.41,56.28 152.49,56.21 C153.43,56.18 154.37,56.19 155.27,56.5 C157.14,57.13 158.29,58.36 158.46,60.38 C158.57,61.7 158.58,63.02 158.29,64.32 C158.15,64.94 158.28,65.39 158.78,65.77 C159.08,66 159.36,66.27 159.65,66.52 C161.34,67.91 162.12,69.75 162.27,71.87 C162.37,73.19 162.36,74.51 162.36,75.83 C162.36,76.77 162.4,77.71 162.67,78.61 C162.77,78.96 162.76,79.27 162.69,79.61 C162.61,79.95 162.84,80.17 163.07,80.37 C163.05,81.04 163.11,81.72 162.85,82.38 C162.78,82.57 162.81,82.8 162.81,83.01 C162.81,84.96 162.82,86.91 162.83,88.86 C162.83,89.29 162.83,89.71 162.83,90.14 C162.82,91.64 163.6,92.62 164.92,93.21 C165.58,93.51 166.28,93.69 166.99,93.83 C167.82,94 168.65,94.18 169.49,94.36 C169.5,94.9 169.15,95.3 168.97,95.76 C168.43,97.14 167.55,98.27 166.65,99.41 C165.28,101.12 163.62,102.53 161.95,103.92 C160.56,105.08 158.97,105.9 157.26,106.48 C156.49,106.74 155.7,106.92 154.88,106.91 C152.01,106.89 149.85,105.53 148.11,103.37 C147.8,102.98 147.74,102.53 147.71,102.05 C147.63,100.75 147.9,99.51 148.2,98.26 C148.71,96.17 149.99,94.63 151.61,93.32 C151.91,93.08 152.21,92.84 152.25,92.41 C152.46,92.07 152.6,91.7 152.57,91.29 C152.86,90.71 152.97,90.08 153.06,89.46 C153.29,87.87 153.53,86.27 153.96,84.72 C154.17,83.97 154.01,83.19 154.29,82.46 C154.35,82.32 154.18,82.15 153.98,82.12 C153.81,82.1 153.62,82.05 153.47,82.11 C152.47,82.46 151.45,82.31 150.43,82.33 C149.54,82.35 148.77,82.08 148.15,81.39 C147.61,80.79 147.01,80.26 146.64,79.51 C146.26,78.72 145.92,78.64 145.08,78.9 C143.94,79.25 142.81,79.6 141.67,79.95 C139.16,80.73 136.64,81.51 134.13,82.3 C133.36,82.54 132.61,82.85 131.85,83.12 C129.84,83.82 127.82,84.49 125.83,85.22 C123.84,85.96 121.87,86.75 119.89,87.54 C118.43,88.12 116.97,88.71 115.52,89.33 C113.92,90.02 112.33,90.74 110.74,91.45 C109.34,92.07 107.92,92.65 106.55,93.32 C103.33,94.89 100.14,96.5 96.94,98.12 C95.73,98.73 94.52,99.37 93.34,100.05 C91.35,101.19 89.37,102.35 87.4,103.53 C86.2,104.25 85.04,105.04 83.85,105.79 C83.62,105.94 83.45,106.1 83.44,106.39 C82.67,106.18 81.9,105.92 81.11,105.76 C79.86,105.51 78.59,105.37 77.31,105.6 C76.54,105.74 75.84,106.02 75.28,106.59 C74.87,107.01 74.66,107.5 74.85,108.1 C74.95,108.42 75.04,108.75 75.11,109.08 C75.26,109.74 75.11,110.04 74.5,110.28 C74.06,110.44 73.61,110.56 73.16,110.69 C72.08,110.99 71.1,111.49 70.23,112.18 C69.22,112.97 68.56,113.97 68.3,115.24 C68.15,115.97 68.24,116.68 68.35,117.39 C68.09,117.41 67.88,117.53 67.66,117.68 C66.53,118.44 65.58,119.43 64.57,120.33 C63.21,121.55 61.78,122.69 60.53,124.03 C58.42,126.31 56.05,128.33 54.06,130.73 C53.08,131.9 52.07,133.04 51.1,134.22 C49.54,136.13 48.1,138.12 46.73,140.17 C46.47,140.57 46.26,140.98 46.3,141.48 C44.98,142.55 43.65,143.62 42.34,144.7 C39.18,147.29 36.12,149.99 33.26,152.91 C29.16,157.09 25.56,161.66 22.42,166.6 C21.17,168.56 19.94,170.34 19.1,172.54 C18.55,169.53 18.47,166.08 19.26,163.11 C19.77,161.18 20.24,159.24 20.93,157.36 C21.77,155.09 22.69,152.85 23.67,150.63 C24.27,149.27 24.89,147.91 25.58,146.59 C26.82,144.26 28.09,141.96 29.47,139.71 C30.56,137.93 31.7,136.19 32.91,134.49 C34.21,132.66 35.5,130.81 37,129.13 C37.62,128.44 38.16,127.67 38.74,126.94 C38.82,126.84 38.9,126.74 38.99,126.65 C40.48,125.19 41.73,123.5 43.27,122.09 C44.12,121.31 44.93,120.5 45.71,119.65 C47.1,118.14 48.7,116.87 50.2,115.48 C51.78,114.01 53.56,112.76 55.22,111.38 C56.4,110.41 57.6,109.47 58.82,108.55 C61.78,106.33 64.79,104.19 67.87,102.15 C71.02,100.06 74.23,98.05 77.51,96.17 C79.72,94.9 81.95,93.65 84.19,92.43 C88.3,90.17 92.54,88.16 96.73,86.08 C98.78,85.06 100.92,84.2 103.02,83.28 C104.97,82.43 106.91,81.57 108.88,80.76 C110.61,80.05 112.36,79.38 114.11,78.73 C118.14,77.23 122.22,75.9 126.31,74.58 C129.46,73.56 132.63,72.61 135.85,71.83 C138.53,71.18 141.19,70.47 143.86,69.78 C144.44,69.63 144.57,69.5 144.59,68.91 C144.62,67.59 145,66.3 144.86,64.98 C144.87,64.76 144.96,64.57 145.14,64.42 Z" id="Path" fill="#E4D1D3"></path>
            <path d="M68.8,147.57 C69.26,146.99 69.91,146.65 70.48,146.21 C70.96,145.85 71.41,145.47 71.84,145.05 C72.91,144.01 73.99,142.98 75.07,141.96 C77.02,140.11 79.18,138.52 81.36,136.94 C82.6,136.04 83.82,135.11 85.04,134.19 C85.38,134.36 85.46,134.84 85.88,134.92 C86.16,135.89 86.45,136.85 86.73,137.82 C87.05,138.95 87.36,140.09 87.67,141.22 C87.44,141.33 87.12,141.38 87.01,141.56 C86.44,142.45 85.59,143.13 85.16,144.13 C84.98,144.56 84.72,144.95 84.5,145.36 C84.4,145.44 84.28,145.5 84.2,145.59 C83.07,146.87 81.93,148.13 80.84,149.44 C78.95,151.69 77.16,154.02 75.65,156.55 C75.17,157.36 74.76,158.2 74.66,159.15 C74.54,159.27 74.4,159.38 74.32,159.52 C73.94,160.17 73.56,160.83 73.21,161.5 C72.82,162.25 72.45,163.01 72.08,163.77 C72.02,163.89 72,164.02 72.13,164.11 C72.19,164.15 72.3,164.18 72.36,164.15 C73.17,163.8 73.98,163.44 74.79,163.09 C75.08,162.96 75.29,162.78 75.3,162.44 C75.76,162.54 76.17,162.5 76.62,162.25 C77.59,161.73 78.61,161.3 79.62,160.87 C82.9,159.47 86.06,157.85 89.1,155.99 C89.85,156.03 90.52,155.72 91.18,155.44 C92.79,154.76 94.34,153.98 95.85,153.1 C101.58,149.77 107.27,146.35 112.79,142.68 C114.49,141.55 116.07,140.25 117.85,139.24 C118.08,139.11 118.23,138.9 118.31,138.65 C118.81,138.69 119.22,138.47 119.61,138.2 C121.21,137.09 122.86,136.05 124.35,134.78 C124.96,134.26 125.63,133.8 126.27,133.32 C126.95,132.81 127.64,132.33 128.31,131.81 C130.19,130.35 132.16,129.02 134.05,127.59 C135.91,126.19 137.46,124.18 139.82,123.56 C142.52,122.85 145.22,125.99 146.46,127.89 C149.13,131.95 149.72,136.14 146,139.49 C145.25,140.16 144.52,140.86 143.75,141.52 C142.66,142.45 141.46,143.23 140.35,144.13 C139.57,144.77 138.76,145.37 137.96,145.99 C137.69,146.2 137.47,146.46 137.47,146.83 C137.25,146.85 137.06,146.9 136.97,147.13 L137,147.1 C136.9,147.18 136.8,147.26 136.7,147.33 C136.44,147.69 136.04,147.86 135.69,148.1 C133.25,149.75 130.85,151.44 128.54,153.27 C126.84,154.62 125.11,155.93 123.28,157.1 C116.85,161.21 110.47,165.39 103.81,169.11 C100.02,171.23 96.19,173.3 92.24,175.1 C91.89,175.26 91.54,175.47 91.17,175.5 C90.38,175.55 89.84,175.97 89.34,176.52 C88.15,176.73 87.13,177.39 86.02,177.81 C83.67,178.69 81.36,179.66 79,180.52 C77.08,181.21 75.17,181.92 73.2,182.46 C72.46,182.66 71.75,182.95 71.02,183.17 C69.27,183.69 67.51,184.17 65.76,184.7 C64.72,185.01 64.55,185.29 64.5,186.33 C64.44,187.58 64.7,188.79 65.1,189.95 C65.5,191.12 65.94,192.27 66.44,193.39 C66.76,194.13 67.22,194.8 67.86,195.33 C70.04,197.13 72.61,198.17 75.26,198.97 C77.53,199.66 79.82,200.32 82.17,200.71 C83.42,200.92 84.65,201.24 85.92,201.39 C86.76,201.49 87.63,201.49 88.44,201.67 C89.33,201.86 90.21,201.85 91.1,201.87 C92.12,201.9 93.13,201.81 94.15,202.09 C94.62,202.22 95.16,202.17 95.67,202.03 C95.95,201.95 96.25,201.89 96.54,201.88 C98.32,201.81 100.11,201.98 101.89,201.64 C102.71,201.48 103.57,201.51 104.42,201.41 C105.77,201.25 107.11,201.1 108.44,200.84 C110.68,200.4 112.93,199.98 115.15,199.44 C117.33,198.91 119.48,198.24 121.65,197.62 C121.93,197.54 122.25,197.51 122.41,197.2 C123.19,197.22 123.9,196.93 124.62,196.7 C127.86,195.65 131.05,194.5 134.22,193.24 C141.77,190.23 149.07,186.67 156.28,182.93 C157.37,182.36 158.51,181.88 159.51,181.15 C160.55,180.76 161.51,180.23 162.45,179.64 C164.04,178.66 165.69,177.76 167.32,176.82 C172.5,173.85 177.51,170.6 182.33,167.09 C188.39,162.67 194.23,157.96 199.91,153.06 C200.81,152.28 201.77,151.55 202.6,150.7 C203.94,149.32 205.24,147.92 206.74,146.71 C207.04,146.46 207.14,146.18 207.1,145.81 C207.36,145.81 207.62,145.84 207.84,145.67 C208.37,145.25 208.95,144.86 209.41,144.37 C210.12,143.62 210.93,142.99 211.74,142.4 C213.19,141.35 214.46,140.09 215.83,138.96 C217.01,137.99 218.03,136.84 219.2,135.84 C220.65,134.6 221.86,133.08 223.4,131.93 C226.1,129.09 229.03,126.48 231.61,123.52 C233.17,121.72 234.91,120.09 236.54,118.34 C237.87,116.91 239.1,115.38 240.51,114.02 C240.98,113.57 241.45,113.02 241.41,112.26 C242.66,112.82 243.77,113.58 244.88,114.36 C246.72,115.65 248.49,117.04 250.22,118.49 C251.88,119.88 253.5,121.32 254.95,122.93 C255.57,123.62 256.26,124.26 256.72,125.08 C256.13,125.11 255.86,125.6 255.51,125.95 C252.67,128.78 249.86,131.64 246.99,134.44 C244.13,137.24 241.41,140.18 238.4,142.84 C235.91,145.04 233.77,147.61 231.22,149.75 C229.85,150.9 228.64,152.22 227.32,153.43 C225.64,154.99 223.93,156.53 222.28,158.13 C222.01,158.4 221.69,158.62 221.41,158.87 C220.75,159.46 220.09,160.06 219.44,160.67 C219.39,160.72 219.4,160.83 219.38,160.91 C219.22,160.95 219.01,160.93 218.91,161.03 C216.6,163.25 213.92,165.02 211.46,167.05 C205.01,172.36 198.25,177.25 191.43,182.07 C187.25,185.02 182.89,187.68 178.37,190.09 C175.55,191.59 172.72,193.07 169.89,194.56 C169.59,194.72 169.27,194.9 168.95,194.93 C168.08,195.01 167.42,195.41 166.91,196.09 C166.02,196.42 165.17,196.85 164.34,197.32 C164,197.3 163.64,197.24 163.39,197.55 C163.05,197.97 162.57,198.14 162.11,198.37 C154.47,202.21 146.63,205.62 138.68,208.79 C132.95,211.08 127.15,213.16 121.18,214.75 C121.06,214.78 120.96,214.87 120.85,214.93 C119.28,215.3 117.7,215.64 116.13,216.04 C112.58,216.95 108.97,217.53 105.34,218.04 C103.27,218.33 101.2,218.56 99.12,218.69 C96.78,218.84 94.44,218.84 92.1,218.62 C90.79,218.5 89.47,218.43 88.16,218.28 C84.22,217.82 80.34,217.08 76.63,215.61 C74.06,214.59 71.51,213.51 69.09,212.16 C66.32,210.62 63.81,208.73 61.45,206.62 C60.37,205.66 59.34,204.64 58.28,203.65 C58.06,203.45 57.81,203.29 57.57,203.11 C57.54,202.99 57.55,202.84 57.48,202.75 C57.13,202.27 56.77,201.8 56.4,201.34 C55.42,200.1 54.71,198.7 53.93,197.34 C53.57,196.72 53.36,196.02 53.04,195.37 C52.42,194.11 51.88,192.82 51.36,191.52 C50.98,190.58 50.56,189.66 50.31,188.66 C50.19,188.18 49.96,188.05 49.46,188.06 C49.21,188.06 48.94,188.07 48.71,188.16 C48.25,188.33 47.79,188.3 47.32,188.31 C46.64,188.32 45.96,188.32 45.28,188.31 C44.86,188.31 44.42,188.34 44.01,188.26 C42.94,188.04 41.84,187.91 40.82,187.47 C40.32,187.26 39.84,187.23 39.34,187.44 C39.15,187.52 38.93,187.52 38.72,187.55 C38.58,186.62 38.58,185.69 38.81,184.77 C39.12,183.49 39.39,182.2 39.73,180.93 C40.02,179.86 40.41,178.83 40.98,177.87 C41.11,177.65 41.24,177.43 41.32,177.19 C41.83,175.83 42.57,174.59 43.32,173.35 C43.78,172.59 44.32,171.88 44.7,171.06 C44.81,170.82 44.96,170.62 45.24,170.56 C45.54,170.97 45.97,171.14 46.46,171.14 C48.07,171.14 49.69,171.25 51.29,170.87 C52.28,170.63 53.26,170.38 54.26,170.16 C54.67,170.07 54.94,169.85 55.1,169.46 C55.38,168.8 55.65,168.12 55.98,167.48 C56.86,165.73 57.66,163.94 58.69,162.27 C59.49,160.97 60.22,159.62 61.04,158.33 C62.23,156.47 63.43,154.62 64.86,152.92 C66.11,151.42 67.26,149.84 68.63,148.44 C68.75,148.32 68.87,148.2 68.96,148.06 C69.13,147.86 69,147.7 68.8,147.57 Z" id="Path" fill="#E4D1D3"></path>
            <path d="M276.13,131.55 C276.25,131.54 276.36,131.54 276.48,131.54 C277.46,131.54 278.35,131.66 279.3,131.87 C280.34,132.09 281.54,132.38 282.36,133.07 C282.52,133.21 277.11,136.26 276.54,136.57 C274.22,137.84 272.44,139.85 270.62,141.72 C268.68,143.71 267.03,145.42 264.77,147.08 C261.19,149.72 258.5,152.51 255.66,155.83 C253.91,157.87 252.17,159.92 250.32,161.87 C250.14,162.06 249.97,162.24 249.8,162.44 C246.64,166.29 242.93,169.54 238.89,172.43 C234.37,175.66 229.66,178.57 224.69,181.05 C222.51,182.13 220.34,183.21 218.17,184.31 C217.71,184.54 217.28,184.81 216.85,185.08 C215.48,185.95 214.12,186.83 212.75,187.7 C212.54,187.83 212.35,188.02 212.07,188 C211.93,187.85 211.97,187.69 212.05,187.53 C212.52,186.49 213.01,185.45 213.46,184.4 C215.13,180.45 216,176.28 217.29,172.22 C218.11,169.62 218.97,166.84 220.84,164.77 C222.85,162.54 226.01,160.72 228.62,159.28 C231.45,157.71 234.45,156.52 237.51,155.45 C238.91,154.96 240.28,154.38 241.69,153.9 C243.18,153.39 244.6,152.7 246.03,152.06 C248.2,151.09 250.24,149.91 251.75,147.95 C252.56,146.89 253.26,145.81 253.73,144.56 C254.31,143.01 254.85,141.44 255.54,139.94 C256.22,138.48 257.07,137.09 258.53,136.22 C259.15,135.85 259.75,135.46 260.36,135.07 C260.57,135.06 260.79,135.09 260.99,135.05 C263.29,134.62 265.58,134.17 267.88,133.75 C270.67,133.25 273.28,131.67 276.13,131.55 Z" id="Path" fill="#E4D1D3"></path>
            <path d="M248.13,206.02 C248.13,206.14 248.07,206.31 248.13,206.38 C248.28,206.58 248.48,206.76 248.67,206.92 C251.04,208.87 253.42,210.81 255.88,212.64 C257.01,213.48 258.21,214.21 259.53,214.72 C260.25,215 260.99,215.18 261.74,215.34 C262.21,215.43 262.67,215.44 263.13,215.31 C263.66,215.16 264.21,215.06 264.74,214.91 C265.87,214.59 267.02,214.64 268.17,214.71 C268.69,214.74 269.17,214.92 269.64,215.11 C270.66,215.53 271.67,215.96 272.6,216.57 C273.16,216.94 273.53,217.44 273.65,218.1 C273.88,219.32 274.23,220.5 274.7,221.64 C274.81,221.91 274.89,222.21 275.16,222.39 C275.4,223.35 275.92,224.18 276.42,225.03 C278.08,227.86 280.21,230.01 280.85,233.31 C281.04,234.3 281.66,236.5 281.16,237.46 C280.52,238.69 279.2,237.11 278.66,236.54 C277.33,235.14 276.04,233.85 274.35,232.83 C272.94,231.98 271.34,231.67 269.8,231.08 C268.26,230.49 266.73,229.83 265.33,228.94 C265.12,228.81 261.89,226.23 261.83,226.72 C261.85,226.55 261.88,226.37 261.71,226.26 C261.27,226 260.83,225.74 260.38,225.49 C257.3,223.83 254.06,222.53 250.8,221.29 C246.22,219.54 241.5,218.23 236.83,216.76 C232.81,215.5 228.74,214.4 224.8,212.88 C224.27,212.67 223.74,212.59 223.18,212.62 C223.16,212.19 222.82,212.08 222.51,211.96 C219.76,210.89 217,209.85 214.37,208.51 C214.06,208.35 213.73,208.31 213.39,208.27 C213.45,208.05 213.56,207.9 213.78,207.81 C218.57,205.69 223,202.91 227.51,200.29 C228.87,199.5 230.2,198.67 231.54,197.84 C232.15,197.46 232.8,197.14 233.3,196.6 C233.66,196.22 234.14,196.03 234.66,195.97 C234.78,196.26 235,196.45 235.28,196.58 C237.14,197.46 238.71,198.76 240.32,200.01 C241.92,201.26 243.52,202.52 245.03,203.89 C245.59,204.4 246.21,204.85 246.75,205.39 C247.16,205.72 247.62,205.93 248.13,206.02 Z" id="Path" fill="#E4D1D3"></path>
            <path d="M120.85,214.93 C120.96,214.87 121.06,214.78 121.18,214.75 C127.15,213.16 132.95,211.08 138.68,208.79 C146.63,205.62 154.47,202.22 162.11,198.37 C162.56,198.14 163.05,197.97 163.39,197.55 C163.64,197.25 164,197.3 164.34,197.32 C164.66,197.6 164.74,197.94 164.64,198.35 C164.48,199.06 164.23,199.73 163.92,200.39 C162.66,203.15 161.06,205.69 159.1,208.01 C157.65,209.73 156.19,211.44 154.73,213.15 C154.06,213.63 153.35,213.97 152.49,213.95 C152.16,213.94 151.82,214.08 151.5,214.19 C149.58,214.82 147.58,215 145.58,215.09 C142.69,215.23 139.79,215.33 136.9,215.4 C134.35,215.46 131.79,215.49 129.24,215.44 C126.81,215.39 124.39,215.24 121.97,215.11 C121.6,215.1 121.22,215 120.85,214.93 Z" id="Path" fill="#0A966E"></path>
            <path d="M154.74,213.16 C156.2,211.45 157.66,209.74 159.11,208.02 C161.07,205.7 162.67,203.16 163.93,200.4 C164.23,199.74 164.48,199.07 164.65,198.36 C164.75,197.95 164.67,197.61 164.35,197.33 C165.18,196.86 166.02,196.43 166.92,196.1 C166.93,196.6 167.15,197 167.55,197.3 C167.94,197.59 168.16,198 168.37,198.42 C169.72,201.07 171.14,203.69 172.68,206.24 C172.81,206.46 172.94,206.68 173.03,206.92 C173.06,207.01 173,207.18 172.92,207.25 C172.8,207.36 172.63,207.42 172.47,207.48 C168.2,209.05 163.88,210.49 159.54,211.84 C158.36,212.21 157.19,212.57 156.01,212.95 C155.58,213.07 155.18,213.21 154.74,213.16 Z" id="Path" fill="#014955"></path>
            <path d="M244.87,114.38 C241.36,111.92 237.51,110.35 233.57,108.73 C231.89,108.04 230.23,107.28 228.5,106.72 C226.91,106.21 225.27,105.99 223.66,105.56 C221.37,104.94 219.06,104.39 216.73,103.94 C213.47,103.31 210.23,102.58 206.92,102.22 C206.73,102.2 206.5,102.08 206.38,102.34 C206.36,102.63 206.56,102.82 206.69,103.03 C207.23,103.9 207.78,104.76 208.33,105.62 C208.92,106.56 209.4,107.53 209.72,108.61 C210.56,111.49 211.01,115.43 209.88,118.28 C208.81,121 206.51,123.01 205.23,125.62 C205.73,124.61 203.38,122.1 202.73,121.53 C201.26,120.24 199.59,119.2 197.76,118.52 C196.01,117.87 194.22,117.3 192.46,116.69 C190.46,116 188.02,116.25 186.15,115.43 C187.01,113.22 188.26,111.73 186.54,109.52 C185.58,108.29 184.37,107.37 183.05,106.57 C182.91,106.49 182.73,106.49 182.56,106.45 C182.51,105.22 182.42,103.99 182.07,102.8 C181.54,100.98 180.73,99.34 179.1,98.2 C177.6,97.15 176.02,96.23 174.35,95.48 C173.11,94.92 171.8,94.55 170.47,94.26 C170.11,94.18 169.8,94.22 169.5,94.39 C168.67,94.21 167.84,94.03 167,93.86 C166.29,93.72 165.59,93.53 164.93,93.24 C163.61,92.65 162.83,91.68 162.84,90.17 C162.84,89.74 162.84,89.32 162.84,88.89 C165.27,88.46 167.67,87.83 170.17,87.89 C170.38,87.9 170.59,87.82 170.8,87.79 C174.25,87.26 177.71,86.76 181.18,86.38 C184.53,86.01 187.89,85.85 191.26,85.75 C195.18,85.63 199.1,85.8 203.01,86.14 C206.33,86.43 209.61,86.9 212.87,87.57 C219.17,88.88 225.42,90.37 231.63,92.07 C236.67,93.44 241.49,95.35 246.08,97.84 C247.99,98.87 249.94,99.82 251.87,100.81 C252.7,101.33 253.53,101.85 254.35,102.37 C258.21,104.83 261.81,107.62 264.98,110.94 C265.54,111.53 266.13,112.08 266.7,112.65 C267.73,114 268.81,115.31 269.78,116.69 C272.72,120.9 274.89,125.47 276.11,130.47 C275.98,130.71 275.73,130.8 275.5,130.91 C274.69,131.3 273.86,131.63 273.08,132.07 C271.45,132.97 269.7,133.43 267.89,133.76 C265.59,134.17 263.3,134.63 261,135.06 C260.79,135.1 260.58,135.08 260.37,135.08 C259.97,131.46 258.75,128.14 256.73,125.11 C256.27,124.29 255.58,123.65 254.96,122.96 C253.51,121.35 251.89,119.91 250.23,118.52 C248.48,117.06 246.71,115.67 244.87,114.38 Z" id="Path" fill="#BCB0AC"></path>
            <path d="M136.4,255.65 C136.54,255.89 136.62,256.14 136.54,256.42 C136.11,256.15 136.1,256.08 136.4,255.65 Z" id="Path" fill="#E4D1D3"></path>
            <path d="M136.66,257.19 C136.78,257.35 136.82,257.52 136.73,257.7 C136.45,257.57 136.36,257.4 136.66,257.19 Z" id="Path" fill="#E4D1D3"></path>
            <path d="M136.91,258.72 C137.02,258.88 137.06,259.05 136.98,259.23 C136.71,259.1 136.61,258.94 136.91,258.72 Z" id="Path" fill="#E4D1D3"></path>
            <path d="M137.16,260.26 C137.27,260.42 137.29,260.59 137.22,260.77 C136.96,260.63 136.87,260.47 137.16,260.26 Z" id="Path" fill="#E4D1D3"></path>
            <path d="M137.41,262.05 C137.53,262.21 137.56,262.37 137.46,262.55 C137.22,262.41 137.17,262.24 137.41,262.05 Z" id="Path" fill="#E4D1D3"></path>
            <path d="M137.67,264.1 C137.79,264.26 137.81,264.42 137.71,264.6 C137.47,264.45 137.43,264.29 137.67,264.1 Z" id="Path" fill="#E4D1D3"></path>
            <path d="M137.94,266.66 C138.05,266.82 138.08,266.98 137.98,267.16 C137.73,267.01 137.69,266.84 137.94,266.66 Z" id="Path" fill="#E4D1D3"></path>
            <path d="M187.54,114.86 C189.43,114.88 191.38,115.19 193.17,115.54 C196.75,116.25 199.89,117.97 202.63,120.34 C204.31,121.8 205.68,123.63 206.68,125.61 C207.13,126.52 207.62,127.44 207.87,128.43 C208.13,129.49 207.83,130.32 207.81,131.37 C207.81,131.48 207.74,131.62 207.66,131.7 C207.06,132.3 206.69,133.1 205.96,133.6 C203.88,135.02 201.76,136.37 199.46,137.4 C198.21,137.96 196.93,138.13 195.6,137.75 C195.5,137.56 195.45,137.34 195.3,137.2 C194.11,136.04 193.04,134.77 192.05,133.43 C191.14,132.19 190.17,131.01 189.13,129.88 C187.71,128.34 186.18,126.92 184.51,125.67 C183.38,124.82 182.16,124.14 180.8,123.71 C179.5,123.29 178.3,123.69 177.08,124.06 C176.52,124.63 175.58,124.58 175.1,125.32 C174.94,125.56 174.57,125.61 174.27,125.5 C173.9,125.36 173.61,125.49 173.31,125.66 C172.42,126.16 171.51,126.63 170.62,127.14 C165.93,129.83 161.24,132.52 156.54,135.21 C156.25,135.37 156,135.64 155.62,135.58 C155.47,135.25 155.7,135.02 155.85,134.77 C156.21,134.19 156.56,133.61 156.93,133.03 C157.17,132.65 157.23,132.27 157.1,131.82 C156.67,130.3 156.24,128.79 155.63,127.34 C154.55,124.77 153.03,122.46 151.41,120.22 C150.51,118.97 149.42,117.9 148.32,116.82 C147.87,116.37 147.4,116.25 146.82,116.5 C146.15,116.78 145.48,117.05 144.81,117.33 C142.85,118.15 140.89,119.02 138.78,119.37 C138.08,119.49 137.64,119.86 137.21,120.35 C136.79,120.82 136.65,121.37 136.66,122 C136.69,123.4 136.67,124.81 136.68,126.21 C136.39,126.7 135.77,126.59 135.4,126.92 C134.88,127.37 134.29,127.43 133.65,127.37 C132.33,126.79 131.41,125.79 130.72,124.56 C130.48,124.13 130.29,123.66 130.08,123.21 C130.04,122.83 130.03,122.45 129.97,122.08 C129.9,121.68 130.01,121.24 129.76,120.76 C128.96,121.32 128.21,121.84 127.47,122.37 C127.41,122.26 127.33,122.15 127.31,122.03 C126.95,120.23 126.31,118.53 125.57,116.86 C125.09,115.77 124.49,114.75 123.79,113.78 C123.14,112.87 122.29,112.17 121.53,111.38 C122.07,111.04 122.61,110.71 123.14,110.35 C123.42,110.16 123.43,109.96 123.17,109.73 C122.04,108.77 120.87,107.85 119.54,107.17 C117.67,106.21 115.27,108.1 113.86,109.13 C114.76,106.55 115.95,101.75 118.93,100.77 C120.79,100.16 122.73,100.82 124.55,101.14 C126.63,101.51 128.06,102.64 129.78,103.94 C130.02,104.12 130.26,104.29 130.5,104.47 C130.85,104.74 131.2,104.75 131.54,104.47 C131.71,104.34 131.87,104.2 132.03,104.06 C133.2,103.07 134.35,102.07 135.53,101.1 C136.25,100.51 137.03,100 137.72,99.36 C138.5,98.64 139.3,97.94 140.12,97.26 C142,95.71 144.02,94.42 146.34,93.6 C148.63,92.79 149.55,92.54 152.27,92.43 C152.23,92.86 151.94,93.1 151.63,93.34 C150.01,94.65 148.73,96.19 148.22,98.28 C147.92,99.53 147.64,100.77 147.73,102.07 C147.76,102.55 147.82,103.01 148.13,103.39 C149.87,105.55 152.04,106.92 154.9,106.93 C155.72,106.93 156.51,106.76 157.28,106.5 C158.99,105.93 160.57,105.11 161.97,103.94 C163.64,102.55 165.3,101.14 166.67,99.43 C167.57,98.3 168.46,97.16 168.99,95.78 C169.17,95.32 169.52,94.92 169.51,94.38 C169.82,94.2 170.12,94.17 170.48,94.25 C171.81,94.55 173.12,94.91 174.36,95.47 C176.03,96.22 177.6,97.14 179.11,98.19 C180.74,99.33 181.55,100.97 182.08,102.79 C182.43,103.98 182.52,105.21 182.57,106.44 C182.29,108.26 181.83,110.02 180.98,111.66 C180.86,111.88 180.79,112.13 180.71,112.37 C180.08,114.36 179.36,116.32 178.56,118.24 C177.89,119.84 176.75,121.35 176.27,123.01 C177.65,122.27 178.41,120.75 179.29,119.55 C180.12,118.41 181.23,117.36 182.41,116.6 C183.37,115.97 184.46,115.07 185.65,114.95 C186.26,114.87 186.89,114.85 187.54,114.86 Z" id="Path" fill="#014955"></path>
            <path d="M126.35,101.5 C126.67,101.08 127.16,100.88 127.6,100.62 C130.59,98.87 133.75,97.47 136.98,96.25 C141.89,94.4 146.87,92.76 151.94,91.41 C152.14,91.36 152.36,91.33 152.57,91.29 C152.6,91.7 152.47,92.07 152.25,92.41 C149.53,92.52 148.61,92.77 146.32,93.58 C144,94.4 141.98,95.69 140.1,97.24 C139.28,97.92 138.48,98.62 137.7,99.34 C137.01,99.98 136.23,100.49 135.51,101.08 C134.33,102.05 133.18,103.05 132.01,104.04 C131.85,104.18 131.68,104.31 131.52,104.45 C131.17,104.73 130.83,104.72 130.48,104.45 C130.24,104.27 130,104.1 129.76,103.92 C128.81,103.2 127.87,102.47 126.82,101.9 C126.64,101.81 126.51,101.63 126.35,101.5 Z" id="Path" fill="#BCB0AC"></path>
            <path d="M155.62,135.58 C156,135.64 156.26,135.37 156.54,135.21 C161.23,132.52 165.92,129.83 170.62,127.14 C172.79,125.9 174.86,124.24 177.29,123.44 C180.36,122.43 182.15,123.9 184.5,125.67 C186.17,126.93 187.7,128.34 189.12,129.88 C190.16,131.01 191.13,132.19 192.04,133.43 C193.02,134.77 194.1,136.04 195.29,137.2 C195.43,137.34 195.49,137.57 195.59,137.75 C193.92,139.12 192.24,140.48 190.57,141.85 C189.26,142.92 187.96,144.01 186.66,145.09 C186.24,145.38 185.81,145.66 185.41,145.98 C182.77,148.07 180.13,150.15 177.49,152.25 C170.79,157.59 164.02,162.83 156.97,167.7 C155.74,168.55 154.52,169.41 153.29,170.25 C152.21,170.99 152.28,170.92 152.99,171.85 C154.08,173.27 155.15,174.7 156.24,176.13 C157.19,177.38 158.15,178.64 159.11,179.89 C159.39,180.25 159.56,180.59 159.2,181.01 C159.14,181.07 159.37,181.15 159.49,181.17 C158.49,181.9 157.35,182.38 156.26,182.95 C149.05,186.7 141.75,190.26 134.2,193.26 C131.04,194.52 127.84,195.67 124.6,196.72 C123.88,196.95 123.17,197.24 122.39,197.22 C121.67,195.99 120.53,195.27 119.3,194.65 C118.43,194.21 117.55,193.77 116.7,193.29 C114.62,192.13 112.57,190.92 110.47,189.79 C105.94,187.35 101.47,184.79 97.09,182.1 C94.59,180.56 92.14,178.94 89.99,176.92 C89.81,176.75 89.55,176.67 89.33,176.54 C89.82,175.99 90.36,175.57 91.16,175.52 C91.52,175.5 91.88,175.28 92.23,175.12 C96.19,173.32 100.01,171.25 103.8,169.13 C110.46,165.41 116.84,161.23 123.27,157.12 C125.11,155.95 126.83,154.64 128.53,153.29 C130.84,151.47 133.24,149.77 135.68,148.12 C136.03,147.88 136.43,147.71 136.69,147.35 C136.84,147.34 136.95,147.27 136.99,147.12 L136.96,147.15 C137.18,147.13 137.35,147.04 137.46,146.85 C137.65,146.76 137.85,146.69 138.02,146.57 C141.95,143.99 145.96,141.54 149.99,139.11 C150.2,138.98 150.39,138.8 150.58,138.65 C152.24,138.49 153.5,137.59 154.6,136.42 C154.72,136.3 154.84,136.18 154.96,136.06 C155.08,136.05 155.17,136 155.16,135.86 L155.13,135.9 C155.36,135.9 155.57,135.85 155.62,135.58 Z" id="Path" fill="#00BC87"></path>
            <path d="M186.66,145.09 C187.8,144.96 188.94,144.83 190.08,144.71 C190.67,144.65 191.26,144.57 191.86,144.55 C196.07,144.41 200.28,144.58 204.46,145.08 C205.18,145.16 205.89,145.3 206.59,145.46 C206.77,145.5 206.92,145.7 207.09,145.83 C207.12,146.19 207.03,146.48 206.73,146.73 C205.24,147.94 203.93,149.34 202.59,150.72 C201.76,151.57 200.81,152.31 199.9,153.08 C194.22,157.98 188.38,162.69 182.32,167.11 C177.5,170.62 172.49,173.87 167.31,176.84 C165.68,177.77 164.04,178.67 162.44,179.66 C161.49,180.24 160.54,180.78 159.5,181.17 C159.38,181.15 159.15,181.07 159.21,181.01 C159.58,180.59 159.4,180.25 159.12,179.89 C158.16,178.64 157.2,177.39 156.25,176.13 C155.17,174.71 154.1,173.27 153,171.85 C152.28,170.92 152.22,170.99 153.3,170.25 C154.53,169.41 155.75,168.55 156.98,167.7 C164.04,162.84 170.8,157.59 177.5,152.25 C180.13,150.15 182.77,148.06 185.42,145.98 C185.82,145.66 186.25,145.38 186.66,145.09 Z" id="Path" fill="#BCB0AC"></path>
            <path d="M154.97,136.06 C154.85,136.18 154.72,136.29 154.61,136.42 C153.7,137.38 152.51,138.36 151.16,138.57 C149.81,138.78 148.66,138.02 147.4,138.09 C147.63,137.71 147.89,137.33 148.07,136.9 C148.46,135.98 148.3,134.55 148.23,133.58 C148.13,132.32 147.32,130.98 146.76,129.88 C145.91,128.24 144.83,126.56 143.36,125.42 C141.59,124.04 140.29,124.26 138.31,124.96 C137.72,125.17 137.04,125.64 136.6,126.08 C136.5,124 135.74,121.08 137.8,119.79 C139.94,118.45 142.51,118.3 144.81,117.34 C145.48,117.06 146.15,116.79 146.82,116.51 C147.4,116.26 147.86,116.38 148.32,116.83 C149.41,117.91 150.51,118.98 151.41,120.23 C153.03,122.48 154.55,124.79 155.63,127.35 C156.24,128.8 156.68,130.32 157.1,131.83 C157.23,132.28 157.17,132.66 156.93,133.04 C156.57,133.62 156.21,134.2 155.85,134.78 C155.7,135.03 155.48,135.26 155.62,135.59 L155.64,135.58 C155.33,135.46 155.23,135.67 155.14,135.9 L155.17,135.86 C155.06,135.88 154.98,135.93 154.97,136.06 Z" id="Path" fill="#00BC87"></path>
            <path d="M84.49,145.38 C84.36,145.87 84.22,146.35 84.09,146.84 C83.81,147.9 83.88,148.92 84.42,149.91 C84.77,150.54 85.15,151.15 85.61,151.7 C86.64,152.93 87.66,154.18 88.9,155.2 C89.2,155.45 89.1,155.71 89.08,155.99 C88.99,157.71 85.49,158.84 84.24,159.35 C81.79,160.36 79.33,161.26 76.87,162.22 C76.76,161.41 76.22,160.59 75.99,159.76 C74.91,155.76 78.76,151.63 81.17,148.87 C81.94,148 84.18,146.49 84.49,145.38 Z" id="Path" fill="#00BC87"></path>
            <path d="M88.53,110.77 C88.69,110.75 88.84,110.76 88.86,110.97 C88.69,111.01 88.59,110.92 88.53,110.77 Z" id="Path" fill="#BCB0AC"></path>
            <path d="M155.14,135.89 C155.23,135.66 155.34,135.46 155.64,135.57 C155.58,135.84 155.37,135.89 155.14,135.89 Z" id="Path" fill="#014955"></path>
            <path d="M154.97,136.06 C154.98,135.94 155.06,135.89 155.17,135.86 C155.18,136 155.1,136.05 154.97,136.06 Z" id="Path" fill="#014955"></path>
            <path d="M98.35,136.65 C98.42,136.73 98.49,136.8 98.55,136.88 C98.35,136.93 98.38,136.77 98.35,136.65 Z" id="Path" fill="#DD0A35"></path>
            <path d="M115.23,127.38 C115.18,126.36 115.18,125.35 114.91,124.34 C114.11,121.42 112,119.76 108.96,119.69 C107.74,119.66 106.61,119.9 105.52,120.49 C104.93,120.81 104.27,121.01 103.63,121.24 C103.35,121.34 103.04,121.36 102.8,121.11 C103.33,120.6 103.99,120.31 104.64,120 C106.89,118.92 109.14,117.84 111.39,116.77 C111.81,116.57 112.25,116.41 112.59,116.08 C113.45,115.72 114.33,115.39 115.18,114.99 C115.61,114.79 115.91,114.89 116.2,115.21 C116.92,115.99 117.59,116.86 118.06,117.8 C118.54,118.76 119.35,119.48 119.94,120.38 C120.65,121.47 121.42,122.57 122.11,123.65 C120.98,124.4 119.8,125.07 118.58,125.66 C118.17,125.84 115.22,127.18 115.23,127.38 Z" id="Path" fill="#E4D1D3"></path>
            <path d="M85.95,134.74 C86.54,138.12 87.86,141.58 88.73,144.94 C88.89,145.54 89,147.19 89.51,147.53 C89.96,147.83 91.51,147.45 91.8,147.04 C92.08,146.64 91.88,146.24 91.81,145.75 C91.56,144.03 91.14,142.52 90.48,140.92 C90.16,140.14 89.9,139.32 89.5,138.59 C89.31,138.24 88.98,138.02 88.85,137.55" id="Path" fill="#BCB0AC"></path>
            <path d="M128.71,122.63 C128.62,123.05 128.4,123.48 128.48,123.88 C128.62,124.63 128.17,124.97 127.59,125.31 C126.61,125.89 125.62,126.46 124.66,127.07 C123.91,127.55 123.18,127.53 122.43,127.12 C121.81,126.78 121.31,126.3 120.73,125.9 C120.34,125.64 119.93,125.51 119.7,125.06 C119.56,124.79 122.22,124.09 121.81,123.14 C121.59,122.64 121,122.13 120.69,121.67 C120.32,121.13 119.97,120.57 119.64,120 C119.29,119.39 118.91,118.8 118.51,118.22 C117.83,117.24 117.09,116.29 116.22,115.44 C115.9,115.12 115.57,115.02 115.09,115.22 C114.15,115.62 113.18,115.95 112.22,116.31 C111.8,115.68 111.63,114.97 111.49,114.26 C111.4,113.83 111.55,113.56 111.93,113.28 C113.07,112.46 114.44,112.17 115.77,111.75 C116.72,111.45 117.84,111.56 118.58,110.76 C118.67,110.66 118.93,110.66 119.12,110.65 C119.69,110.61 120.25,110.67 120.76,110.92 C121.22,111.14 121.67,111.36 122.13,111.58 C122.98,112.38 123.92,113.09 124.64,114 C125.41,114.98 126.08,116 126.61,117.1 C127.42,118.78 128.14,120.49 128.54,122.3 C128.56,122.41 128.65,122.52 128.71,122.63 Z" id="Path" fill="#00BC87"></path>
            <path d="M256.52,125.11 C256.49,124.52 255.54,123.61 255.07,123.09 C253.82,121.71 252.44,120.47 251.12,119.19 C250.19,118.29 249.28,117.37 248.22,116.64 C247.48,116.13 246.76,115.61 246.03,115.08 C244.8,114.2 243.28,112.74 241.83,112.36 L239.98,114.64 C243.32,113.17 247,116.62 248.88,119.01 C250.47,121.04 251.89,123.65 252.51,126.14 C252.72,126.98 252.96,128.03 252.57,128.82 C252.47,128.85 252.39,128.82 252.29,128.84" id="Path" fill="#BAABAD"></path>
            <path d="M302.38,78.63 C302.06,78.15 301.06,77.54 300.53,76.92 C299.21,75.39 298.32,72.73 299.78,71.02 L299.28,70.92 C298.64,71.38 298.13,72.36 297.68,73.04 C296.82,74.34 295.95,75.68 294.88,76.82" id="Path" fill="#BAABAD"></path>
            <path d="M84.5,145.34 C84.61,144.63 85.31,143.7 85.78,143.09 C86.32,142.39 86.82,141.62 87.6,141.18 C87.38,140.03 87.03,138.91 86.66,137.77 C86.43,137.07 86.19,136.35 86.02,135.63 C85.94,135.31 85.96,135.01 85.8,134.75 C85.66,134.51 85.14,134.14 85.06,134.04 L80.36,137.44 C80.97,137.08 81.66,137.5 82.16,137.92 C83.47,139.05 83.58,140.71 83.54,142.33 C83.5,144.21 82.75,145.83 81.83,147.42 C81.34,148.27 80.89,149.11 80.36,149.94" id="Path" fill="#BAABAD"></path>
            <path d="M49.86,188 C50.96,188.06 52.24,187.58 53.35,187.45 C54.53,187.31 55.71,187.03 56.86,186.77 C57.89,186.53 58.96,186.36 60.01,186.25 C60.94,186.15 61.83,185.81 62.76,185.65 C63.31,185.56 63.97,185.25 64.51,185.25 L64.51,185.27 C64.15,187.61 64.87,190.01 65.91,192.34 C65.32,191.06 64.1,189.64 63.04,188.77 C60.98,187.05 58.07,186.93 55.56,187.45 C53.88,187.8 51.33,188.42 51.01,190.46 C51,190.55 51.05,190.4 51.09,190.37" id="Path" fill="#BAABAD"></path>
            <path d="M148.66,81.73 C153.02,83.39 156.7,79.8 159.92,77.44 C158.94,79.86 157.48,82.1 155.96,84.21 C155.26,85.19 154.08,86.32 153.56,87.15 C153.77,86.1 154.66,83.5 153.96,82.53" id="Path" fill="#BAABAD"></path>
            <path d="M152.46,91.93 C152.31,93.72 151.64,95.7 149.36,95.63 C149.75,95.04 150.15,94.38 150.7,93.87 C151.03,93.57 151.45,93.35 151.76,93.04 C152.07,92.75 152.39,92.35 152.46,91.93 Z" id="Path" fill="#BAABAD"></path>
            <path d="M262.76,214.91 C264.74,215.39 265.35,214.23 267.01,213.79 C269.2,213.2 269.93,213.39 272.17,214.08 C274.9,214.93 278.51,216.31 281.24,217.13 C282.11,217.39 282.65,217.45 282.72,218.4 C280.66,218.09 272.28,215.39 274.19,220.23" id="Path" fill="#014955"></path>
            <path d="M274.07,219.24 C273.86,221.92 276.19,224.28 277.95,225.96 C279.46,227.41 280.37,229.24 280.83,231.28 C280.95,231.8 282.19,238.31 281.08,238.24 L281.28,238.34 C279.37,238.11 277.35,235.02 276.17,233.74 C276.69,232.63 277.57,231.72 277.67,230.4 C277.88,227.79 275.87,225.43 274.35,223.53 C272.54,221.27 270.19,220.19 267.62,218.86 C265.8,217.92 264.84,216.67 263.49,215.26" id="Path" fill="#014955"></path>
            <path d="M254.92,142.02 C256.06,140.33 255.19,139.35 255.35,137.65 C255.56,135.39 255.99,134.77 257.42,132.91 C259.16,130.64 261.72,127.74 263.43,125.47 C263.97,124.75 264.22,124.26 265.13,124.52 C264.12,126.34 258.67,133.26 263.88,133.16" id="Path" fill="#014955"></path>
            <path d="M262.91,132.92 C265.35,134.05 268.37,132.69 270.56,131.63 C272.45,130.72 274.48,130.5 276.55,130.78 C277.08,130.85 283.61,131.95 283.16,132.97 L283.32,132.82 C282.44,134.53 278.84,135.35 277.23,136.01 C276.37,135.14 275.82,134 274.62,133.44 C272.25,132.33 269.33,133.4 267.02,134.16 C264.27,135.07 262.44,136.9 260.3,138.85 C258.78,140.23 257.28,140.69 255.49,141.48" id="Path" fill="#014955"></path>
            <path d="M277.27,136.24 C277.32,136.21 277.39,136 277.37,136.13 C277.4,137.19 277.63,138.11 277.57,139.29 C277.48,141.09 277.35,142.93 276.99,144.66 C276.66,146.25 276.51,148.87 275.59,150.23 C275.18,148.93 274.5,147.94 273.39,147.04 C269.58,143.95 265.08,147.3 261.77,149.64 C262.82,148.44 265.14,146.72 266.28,145.78 C267.92,144.42 269.3,142.82 270.84,141.35 C271.97,140.26 273.03,139.1 274.27,138.15 C275.13,137.48 276.35,136.82 277.27,136.24 Z" id="Path" fill="#93817B"></path>
            <path d="M187.77,114.84 C187.78,111.01 189.85,107.24 192.98,105.02 C195.5,103.24 198.19,102.89 201.16,103.04 C203.53,103.15 206.89,103.77 208.33,105.75 C207.76,104.82 206.9,102.72 206.17,102.24 C203.91,101.86 201.56,101.47 199.23,101.22 C195.41,100.81 191.53,100.74 187.69,100.83 C185.6,100.88 183.61,101.44 181.58,101.74 C181.81,102.18 182.48,106.86 182.4,106.82 C185.03,107.78 187.97,109.88 187.26,113.12 C187.1,113.85 186.54,114.42 186.29,115.03 C186.78,114.92 187.32,114.72 187.77,114.84 Z" id="Path" fill="#93817B"></path>
            <path d="M176.27,170.94 C176.4,171.13 176.7,170.86 176.55,171.22 C175.25,169.72 175.41,167.2 175.53,165.23 C175.79,160.91 176.71,156.77 179.14,153.09 C180.73,150.68 182.66,148.71 184.85,146.85 C185.59,146.22 186.34,145.3 187.37,145.28 C185.04,144.7 183.23,147.35 181.51,148.73 C177.2,152.19 173.19,156.16 168.77,159.41 C166.37,161.17 164.08,163 161.64,164.71 C160.24,165.69 158.87,166.68 157.46,167.64 C155.83,168.74 153.65,169.33 152.26,170.64 C152.03,170.86 152.33,171.01 152.13,171.2 C154.07,172.42 155.56,175.6 157.07,177.4 C158.11,178.63 159.16,179.67 159.89,181.1 C159.85,180.97 159.81,180.83 159.76,180.7 C160.48,179.74 163.09,178.95 164.41,178.26 C166.06,177.4 167.75,176.6 169.29,175.6 C171.66,174.05 174.44,173.03 176.27,170.94 Z" id="Path" fill="#93817B"></path>
            <path d="M172.97,207.39 C175.81,205.7 179.68,204.55 182.88,203.27 C185.54,202.2 188.32,201.35 191.01,200.34 C194.01,199.22 197.47,197.92 199.98,196.14 L198.78,195.99 C198.07,195.84 196.62,195.35 195.77,194.85 C193.6,193.54 191.06,191.96 189.17,190.28 C188.4,189.6 185.47,186.36 185.43,186.24 L185.28,186.09 C185.42,186.09 185.55,186.09 185.69,186.08 C183.72,187.59 181.16,188.57 178.98,189.76 C177.5,190.57 176.05,191.39 174.6,192.24 C172.04,193.74 168.92,194.51 166.53,196.14 C166.55,196.16 165.98,195.73 166.21,195.86 C169.01,198.08 171.74,204.65 172.97,207.39 Z" id="Path" fill="#93817B"></path>
            <path d="M78.86,122.44 C79.45,123.09 80.68,124.07 81.44,124.92 C83.59,127.34 84.46,130.82 85.43,133.85 C82.9,136.1 79.89,138.06 77.24,140.26 C75.4,141.79 73.51,143.28 71.63,144.79 C70.75,145.5 69.9,146.24 69.01,146.95 C68.42,147.42 67.26,148.14 66.97,148.64 L66.67,148.84 C67.31,148.39 67.64,147.57 68.05,146.91 C68.71,145.85 69.49,144.81 70.17,143.74 C72.11,140.7 73.76,136.93 74.32,133.37 C74.58,131.7 74.58,126.06 71.67,126.44" id="Path" fill="#93817B"></path>
            <path d="M45.26,171.04 C43.86,171.52 42.58,174.74 41.96,175.95 C41.35,177.14 40.72,178.39 40.23,179.63 C39.6,181.22 38.14,184.54 38.76,186.14 L38.66,186.14 C38.56,181.04 42.73,175.79 46.68,172.92 C47.78,172.12 49.41,171.08 50.76,170.84" id="Path" fill="#BAABAD"></path>
            <path d="M58.81,229.14 C58.81,229.14 107.72,239.64 121.07,240.69 C118.53,241.18 115.88,241.5 113.4,242.26 C109.74,243.39 106.07,244.16 102.32,244.89 C99.78,245.39 97.23,245.98 94.68,246.5 C93.48,246.74 92.31,247.05 91.11,247.22 C90.06,247.37 88.99,247.33 87.95,247.55 C86.98,247.76 86.07,248.19 85.09,248.43 C86.72,248.04 87.88,245.93 88.16,244.41 C88.53,242.41 87.6,240.86 86.22,239.46 C82.92,236.1 77.51,234.32 73.1,232.98 C65.17,230.57 57.3,230.48 49.08,230.51" id="Path" fill="#93817B"></path>
            <path d="M164.27,217.74 C164.27,217.74 191.57,221.79 241.23,191.79 C241.23,191.79 209.43,211.29 195.02,217.29 C195.02,217.29 172.67,219.84 164.27,217.74 Z" id="Path" fill="#93817B"></path>
            <path d="M213.47,207.84 C215.95,209.43 218.79,210.27 221.57,211.32 C223.24,211.95 224.73,212.92 226.37,213.6 C228.93,214.66 233.09,214.77 235.08,216.69 L235.38,216.54 C232.44,214.85 228.96,213.61 227.6,210.09 C226.45,207.12 228.53,204.09 230.09,201.72 C231.07,200.24 233.05,196.54 234.62,195.99" id="Path" fill="#BAABAD"></path>
            <path d="M211.77,188.15 C211.8,187.82 212.07,187.22 212.26,186.79 C212.64,185.9 213.12,185.04 213.47,184.13 C213.72,183.48 213.84,182.44 214.27,181.95 L213.97,182.35 C214.86,181.95 216.25,182.42 217.24,182.3 C218.62,182.13 220,181.91 221.35,181.66 C222.42,181.46 223.56,181.24 224.57,181 C224.2,181.25 223.72,181.72 223.38,181.76" id="Path" fill="#BAABAD"></path>
            <path d="M111.98,116.26 C111.69,114.72 110.96,113.15 113.14,113.03 C116.09,112.87 118.14,115.56 119.63,117.76 C120.94,119.69 122.4,121.95 123.08,124.21 C123.32,125 124.16,127.4 122.93,127.29 C122.24,127.23 121.32,126.41 120.75,126 C120.31,125.68 119.82,125.4 119.43,125.02 C120.29,124.84 121.55,123.87 121.27,122.91 C120.95,121.84 119.95,120.59 119.35,119.62 C118.56,118.35 117.06,115.42 115.43,115.13 C114.61,114.99 112.89,116.4 111.98,116.26 Z" id="Path" fill="#0A966E"></path>
            <path d="M136.74,125.86 C137.01,125.59 136.82,123.84 136.91,123.33 C137.01,122.72 137.12,121.58 137.59,121.12 C138.84,119.88 141.07,121.56 141.99,122.41 C143.92,124.19 145.36,126.31 146.87,128.43 C148.08,130.12 149.27,131.99 150.17,133.87 C150.55,134.66 151.7,137.16 151.05,138 C150.5,138.71 148.07,138.26 147.41,137.88 C149.29,135.28 147.43,131.69 146.23,129.2 C145.14,126.95 142.75,123.74 139.89,124.46 C139.25,124.62 138.69,125.04 138.11,125.33 C137.57,125.6 136.89,125.66 136.74,125.86 Z" id="Path" fill="#0A966E"></path>
            <path d="M148.19,116.77 C148.01,116.77 147.85,116.75 147.7,116.7 L147.83,116.27 C149.43,116.75 153.31,113.79 154.77,112.67 L155,112.49 C157.21,110.81 159.27,108.89 161.27,107.03 C163.87,104.61 166.55,102.11 169.59,100.12 C172.61,98.13 175.29,97.36 179.12,97.36 L179.12,97.81 C175.38,97.81 172.78,98.56 169.84,100.5 C166.83,102.48 164.16,104.96 161.58,107.37 C159.58,109.24 157.5,111.17 155.27,112.86 L155.04,113.04 C153.52,114.19 150.14,116.77 148.19,116.77 Z" id="Path" fill="#00BC87"></path>
            <path d="M156.38,131.69 L155.94,131.6 C156.31,129.88 158.74,128.61 160.7,127.59 C161.31,127.27 161.89,126.97 162.29,126.71 C163.92,125.64 165.46,124.34 166.95,123.08 C167.82,122.34 168.72,121.58 169.62,120.88 C170.06,120.54 170.5,120.2 170.95,119.86 C172.53,118.66 174.16,117.42 175.57,115.99 C179.55,111.98 180.66,109.19 181.15,107.43 L181.58,107.55 C180.53,111.31 177.82,114.35 175.88,116.3 C174.45,117.75 172.8,119 171.21,120.21 C170.77,120.55 170.32,120.88 169.89,121.23 C168.99,121.93 168.1,122.69 167.23,123.42 C165.73,124.69 164.18,126 162.53,127.08 C162.11,127.35 161.55,127.64 160.91,127.98 C159.14,128.9 156.71,130.17 156.38,131.69 Z" id="Path" fill="#00BC87"></path>
            <path d="M130.3,120.76 C129.71,119.16 130.57,117.53 131.43,116.14 C131.81,115.52 132.2,114.9 132.58,114.31 C134.32,111.56 135.97,108.96 136.94,105.73 C137.08,105.26 137.22,104.77 137.35,104.31 C137.89,102.4 138.41,100.59 139.36,98.83 C139.61,98.37 139.94,97.94 140.26,97.52 C140.63,97.04 141.02,96.54 141.26,95.99 L141.67,96.17 C141.41,96.76 141,97.28 140.62,97.79 C140.3,98.21 139.99,98.6 139.76,99.04 C138.83,100.76 138.33,102.54 137.79,104.43 C137.66,104.9 137.52,105.38 137.38,105.86 C136.39,109.16 134.73,111.78 132.97,114.56 C132.59,115.15 132.21,115.77 131.82,116.39 C131.02,117.69 130.2,119.2 130.73,120.62 L130.3,120.76 Z" id="Path" fill="#00BC87"></path>
            <path d="M215.58,51.62 C213.21,52.03 210.75,56.05 209.54,57.8 C207.44,60.84 205.61,64.08 204.09,67.44 C203.27,69.25 202.53,71.16 201.45,72.81 C199.29,76.14 194.57,79.3 190.66,80.19 C186.82,81.07 181.98,81.48 178.71,78.89 C176.09,76.82 172.99,71.63 169.43,73.65 C168.11,74.4 162.6,80 163.14,80.63 C163.25,77.55 162.85,74.49 162.41,71.4 C162,68.51 158.96,67.11 158.41,64.42 L159.09,64.42 C161.41,61.72 168.2,65.05 170.57,66.42 C176.31,69.75 181.51,72.07 188.05,68.64 C195.79,64.58 200.05,55.96 207.99,52.07 C209.43,51.36 211.11,50.79 212.67,50.4 C213.32,50.24 214.12,49.89 213.78,50.24" id="Path" fill="#32363D"></path>
            <path d="M246.97,56.73 C246.18,56.14 243.17,56.92 242.09,57.11 C233.82,58.54 228.96,64.86 223.58,70.73 C220.4,74.2 216.36,77.94 211.47,78.44 C210.31,78.56 209.05,78.64 207.88,78.43 C206.54,78.19 205.45,77.4 204.07,77.34 L203.66,77.28 C208.89,78.3 212.56,78.71 216.27,73.81 C220.26,68.53 222.43,62.29 226.58,57.06 C228.28,54.92 231.5,50.55 234.49,50.5" id="Path" fill="#32363D"></path>
            <path d="M130.96,151.59 C125.41,156.69 125.48,160.12 125.27,162.86 C124.94,167.2 126.83,171.93 128.85,175.72 C130.54,178.88 133.07,182.07 135.61,184.6 C137.56,186.54 140.38,188.26 142.51,189.25 L121.66,197.5 C121.8,196.3 119.72,194.96 118.81,194.39 C115.16,192.08 111.39,190.14 107.58,187.98 C105.13,186.59 102.8,185.07 100.25,183.85 C96.92,182.26 91.07,179.05 89.41,176.05 C89.4,176.05 127.96,155.04 130.96,151.59 Z" id="Path" fill="#0A966E"></path>
            <path d="M121.66,197.49 C121.66,197.49 138.91,192.39 142.51,189.24" id="Path" fill="#0A966E"></path>
            <path d="M77.16,162.24 C74.49,158.58 77.67,154.2 80.64,152.05 C81.33,151.55 82.81,150.3 83.72,150.25 C84.38,150.22 84.53,150.75 85.03,151.38 C86.05,152.64 87.03,153.93 88.26,154.98 C88.63,155.29 89.5,155.75 89.36,156.05" id="Path" fill="#0A966E"></path>
            <path d="M98.76,139.14 C99.18,138.26 103.43,137.33 104.57,137.02 C108.13,136.05 111.73,135.03 115.4,134.5 C116.71,134.31 118.12,134.2 119.36,133.86 C118.43,135.67 116.77,137.68 115.47,139.28 C114.53,140.44 113.45,141.53 112.32,142.5 C110.53,144.03 108.53,145.31 106.36,146.25 C104.31,147.13 102.24,148.25 99.96,147.76" id="Path" fill="#0A966E"></path>
            <path d="M88.85,110.95 C89.21,110.82 89.52,110.99 89.83,111.11 C91.6,111.76 93.23,112.67 94.66,113.9 C96.48,115.46 98,117.29 99.25,119.33 C99.31,119.44 99.34,119.57 99.38,119.69 C99.01,119.93 98.73,120.21 98.81,120.72 C98.88,121.18 98.89,121.65 98.93,122.12 C99.02,123.09 99.05,124.07 98.98,125.05 C98.95,125.48 98.67,125.64 98.27,125.49 C97.87,125.34 97.48,125.18 97.09,125.01 C96.56,124.78 96.01,124.78 95.46,124.84 C94.83,124.91 94.35,125.22 94.05,125.8 C93.81,126.26 93.67,126.74 93.66,127.26 C93.58,129.29 94.2,131.11 95.29,132.79 C95.57,133.22 95.89,133.62 96.13,134.07 C96.68,135.1 97.41,135.97 98.34,136.67 C98.37,136.78 98.33,136.95 98.54,136.9 L98.52,136.88 C98.35,137.28 98.58,137.62 98.72,137.96 C99.41,139.66 100.25,141.28 101.22,142.84 C100.98,143.01 100.75,143.2 100.49,143.34 C97.87,144.84 95.11,146.04 92.34,147.23 C91.91,147.41 91.46,147.54 91.01,147.65 C90.4,147.79 90.24,147.67 90.16,147.07 C89.99,145.72 89.67,144.4 89.3,143.1 C88.93,141.79 88.91,141.8 87.64,141.26 C87.33,140.13 87.02,138.99 86.7,137.86 C86.43,136.89 86.14,135.92 85.85,134.96 C86.33,134.84 86.11,134.14 86.63,134.02 C87,133.93 87.35,133.76 87.72,133.64 C88.34,133.44 88.9,133.12 89.4,132.74 C90.37,132 90.81,131.03 90.49,129.82 C90.2,128.71 89.87,127.6 89.53,126.51 C89.19,125.4 89.03,124.26 88.9,123.12 C88.81,122.3 88.97,121.5 89.25,120.74 C89.51,120.02 89.96,119.84 90.67,120.1 C91.23,120.31 91.77,120.57 92.32,120.79 C92.72,120.95 93.13,121.07 93.57,120.99 C94.02,120.91 94.24,120.67 94.25,120.22 C94.27,119.22 94.04,118.28 93.7,117.35 C93.33,116.35 92.84,115.4 92.28,114.49 C91.62,113.42 90.72,112.58 89.7,111.87 C89.37,111.59 88.94,111.44 88.85,110.95 Z" id="Path" fill="#BCB0AC"></path>
            <path d="M87.66,141.23 C88.92,141.77 88.94,141.76 89.32,143.07 C89.69,144.37 90.01,145.69 90.18,147.04 C90.26,147.64 90.42,147.76 91.03,147.62 C91.48,147.52 91.94,147.38 92.36,147.2 C95.13,146.01 97.89,144.81 100.51,143.31 C100.77,143.16 101,142.98 101.24,142.81 C101.55,142.68 101.88,142.59 102.17,142.42 C104.35,141.18 106.52,139.92 108.69,138.66 C108.95,138.51 109.21,138.36 109.41,138.14 C110.03,137.47 110.81,137.38 111.63,137.48 C112.01,137.52 112.38,137.64 112.75,137.72 C113.79,137.94 114.82,138.16 115.86,138.38 C116.28,138.53 116.7,138.41 117.12,138.36 C117.54,138.3 117.98,138.24 118.29,138.65 C118.2,138.9 118.06,139.11 117.83,139.24 C116.05,140.25 114.47,141.55 112.77,142.68 C107.24,146.35 101.56,149.77 95.83,153.1 C94.32,153.98 92.77,154.76 91.16,155.44 C90.5,155.72 89.83,156.03 89.08,155.99 C89.1,155.71 89.2,155.45 88.9,155.2 C87.66,154.17 86.64,152.93 85.61,151.7 C85.15,151.15 84.76,150.55 84.42,149.91 C83.88,148.93 83.82,147.9 84.09,146.84 C84.22,146.35 84.36,145.87 84.49,145.38 C84.71,144.97 84.97,144.57 85.15,144.15 C85.58,143.16 86.43,142.47 87,141.58 C87.11,141.39 87.43,141.34 87.66,141.23 Z" id="Path" fill="#014955"></path>
            <path d="M101.65,119.97 C102.03,120.35 102.42,120.73 102.8,121.11 C103.05,121.36 103.35,121.34 103.63,121.24 C104.27,121.01 104.93,120.81 105.52,120.49 C106.6,119.91 107.74,119.67 108.96,119.69 C111.99,119.76 114.11,121.42 114.91,124.34 C115.19,125.34 115.18,126.36 115.23,127.38 C115.08,129.22 114.19,130.77 113.24,132.29 C113.11,132.5 112.92,132.69 112.73,132.86 C111.85,133.66 111.01,134.51 110.07,135.24 C107.63,137.14 104.84,138.01 101.76,137.93 C100.85,137.91 100.02,137.59 99.22,137.16 C99,137.04 98.81,136.85 98.53,136.86 L98.55,136.88 C98.48,136.8 98.41,136.73 98.35,136.65 C97.41,135.95 96.69,135.09 96.14,134.05 C95.9,133.6 95.58,133.2 95.3,132.77 C94.2,131.09 93.59,129.27 93.67,127.24 C93.69,126.72 93.83,126.24 94.06,125.78 C94.36,125.2 94.84,124.89 95.47,124.82 C96.02,124.76 96.57,124.76 97.1,124.99 C97.49,125.16 97.88,125.32 98.28,125.47 C98.67,125.62 98.96,125.46 98.99,125.03 C99.06,124.05 99.03,123.08 98.94,122.1 C98.9,121.63 98.89,121.17 98.82,120.7 C98.74,120.19 99.02,119.92 99.39,119.67 C100.14,119.75 100.93,119.59 101.65,119.97 Z" id="Path" fill="#014955"></path>
            <path d="M85.87,134.93 C85.45,134.85 85.37,134.37 85.03,134.2 C84.73,133.39 84.23,132.71 83.75,132.01 C83.25,131.3 82.55,130.82 81.8,130.41 C81.45,130.22 81.09,130.14 80.7,130.18 C80.24,130.23 79.77,130.26 79.31,130.35 C78.44,130.52 77.62,130.34 76.83,129.99 C75.62,129.45 75.04,128.48 74.96,127.19 C74.94,126.89 74.98,126.6 74.97,126.3 C74.96,125.57 74.84,125.47 73.94,125.4 C73.6,125.37 73.26,125.35 72.93,125.31 C72.51,125.26 72.09,125.22 71.68,125.12 C70.35,124.79 69.87,124.01 70.15,122.67 C70.22,122.34 70.32,122.01 70.46,121.7 C70.95,120.58 70.72,119.64 69.79,118.86 C69.28,118.42 68.77,117.97 68.39,117.4 C68.28,116.69 68.19,115.98 68.34,115.25 C68.6,113.99 69.26,112.98 70.27,112.19 C71.15,111.5 72.13,111 73.2,110.7 C73.65,110.57 74.1,110.45 74.54,110.29 C75.15,110.06 75.3,109.76 75.15,109.09 C75.08,108.76 74.99,108.43 74.89,108.11 C74.7,107.51 74.91,107.02 75.32,106.6 C75.87,106.03 76.57,105.75 77.35,105.61 C78.63,105.38 79.89,105.51 81.15,105.77 C81.94,105.93 82.7,106.18 83.48,106.4 C84.99,107.16 86.27,108.18 87.27,109.56 C87.62,110.04 88.07,110.44 88.57,110.78 C88.63,110.93 88.72,111.02 88.9,110.98 L88.88,110.96 C88.97,111.44 89.4,111.6 89.74,111.84 C90.77,112.56 91.67,113.39 92.32,114.46 C92.88,115.37 93.36,116.32 93.74,117.32 C94.08,118.25 94.31,119.19 94.29,120.19 C94.28,120.64 94.06,120.88 93.61,120.96 C93.17,121.04 92.76,120.92 92.36,120.76 C91.81,120.54 91.27,120.27 90.71,120.07 C90,119.81 89.55,119.99 89.29,120.71 C89.01,121.47 88.85,122.27 88.94,123.09 C89.07,124.23 89.22,125.37 89.57,126.48 C89.91,127.58 90.24,128.68 90.53,129.79 C90.85,131 90.41,131.97 89.44,132.71 C88.93,133.1 88.37,133.41 87.76,133.61 C87.4,133.73 87.05,133.9 86.67,133.99 C86.13,134.11 86.36,134.8 85.87,134.93 Z" id="Path" fill="#014955"></path>
            <path d="M96.56,145.24 C96.59,145.16 96.81,145.25 96.67,145.13 C95.8,145.25 95.01,145.21 94.14,145.06 C92.64,144.8 91.11,144.36 90.02,143.2 C88.48,141.56 87.96,139.4 86.85,137.53 C87.77,140.63 88.09,143.58 89.15,146.63 C89.49,147.6 90.08,147.79 91.23,147.51 C91.97,147.33 92.85,146.86 93.55,146.53 C94.45,146.12 95.65,145.59 96.56,145.24 Z" id="Path" fill="#93817B"></path>
            <path d="M152.71,170.49 C151.25,170.85 149.98,171.99 148.52,172.33 C149.99,172.73 152,173.18 153.61,173.49" id="Path" fill="#0A966E"></path>
            <path d="M185.57,126.24 C187.08,127.04 189.12,129.6 189.83,131.1 C190.94,133.45 190.97,136.86 190.53,139.39 C190.3,140.71 189.73,141.9 189.23,143.04 C190.81,140.81 193.48,139.11 195.47,137.65" id="Path" fill="#0A966E"></path>
        </g>
    </g>
</svg>