<?xml version="1.0" encoding="UTF-8"?>
<svg width="24px" height="48px" viewBox="0 0 24 48" version="1.1" xmlns="http://www.w3.org/2000/svg" xmlns:xlink="http://www.w3.org/1999/xlink">
    <!-- Generator: Sketch 52.5 (67469) - http://www.bohemiancoding.com/sketch -->
    <title>radio</title>
    <desc>Created with Sketch.</desc>
    <g id="radio" stroke="none" stroke-width="1" fill="none" fill-rule="evenodd">
        <g id="on" transform="translate(3.000000, 3.000000)" fill-rule="nonzero">
            <path d="M9,18 C4.02943725,18 0,13.9705627 0,9 C0,4.02943725 4.02943725,0 9,0 C13.9705627,0 18,4.02943725 18,9 C18,13.9705627 13.9705627,18 9,18 Z" id="Path" fill="#00BC87"></path>
            <path d="M9,16.2 C12.9764502,16.2 16.2,12.9764502 16.2,9 C16.2,5.0235498 12.9764502,1.8 9,1.8 C5.0235498,1.8 1.8,5.0235498 1.8,9 C1.8,12.9764502 5.0235498,16.2 9,16.2 Z" id="Path" fill="#FFFFFF"></path>
            <circle id="Oval" fill="#00BC87" cx="9" cy="9" r="4.5"></circle>
        </g>
        <g id="off" transform="translate(3.000000, 27.000000)" fill-rule="nonzero">
            <path d="M9,18 C4.02943725,18 0,13.9705627 0,9 C0,4.02943725 4.02943725,0 9,0 C13.9705627,0 18,4.02943725 18,9 C18,13.9705627 13.9705627,18 9,18 Z" id="Path" fill="#D6D7D8"></path>
            <path d="M9,17 C13.418278,17 17,13.418278 17,9 C17,4.581722 13.418278,1 9,1 C4.581722,1 1,4.581722 1,9 C1,13.418278 4.581722,17 9,17 Z" id="Path" fill="#FFFFFF"></path>
        </g>
    </g>
</svg>