<?xml version="1.0" encoding="UTF-8"?>
<svg width="48px" height="144px" viewBox="0 0 48 144" version="1.1" xmlns="http://www.w3.org/2000/svg" xmlns:xlink="http://www.w3.org/1999/xlink">
    <!-- Generator: Sketch 52.5 (67469) - http://www.bohemiancoding.com/sketch -->
    <title>sidebar</title>
    <desc>Created with Sketch.</desc>
    <g id="sidebar" stroke="none" stroke-width="1" fill="none" fill-rule="evenodd">
        <path d="M12.6327273,14.5054545 L10.7854545,12.68 L10.8072727,12.6581818 C12.0727273,11.2472727 12.9745455,9.62545455 13.5054545,7.90909091 L15.6363636,7.90909091 L15.6363636,6.45454545 L10.5454545,6.45454545 L10.5454545,5 L9.09090909,5 L9.09090909,6.45454545 L4,6.45454545 L4,7.90181818 L12.1236364,7.90181818 C11.6363636,9.30545455 10.8654545,10.6363636 9.81818182,11.8 C9.14181818,11.0509091 8.58181818,10.2290909 8.13818182,9.36363636 L6.68363636,9.36363636 C7.21454545,10.5490909 7.94181818,11.6690909 8.85090909,12.68 L5.14909091,16.3309091 L6.18181818,17.3636364 L9.81818182,13.7272727 L12.08,15.9890909 L12.6327273,14.5054545 L12.6327273,14.5054545 Z M16.7272727,10.8181818 L15.2727273,10.8181818 L12,19.5454545 L13.4545455,19.5454545 L14.2690909,17.3636364 L17.7236364,17.3636364 L18.5454545,19.5454545 L20,19.5454545 L16.7272727,10.8181818 L16.7272727,10.8181818 Z M14.8218182,15.9090909 L16,12.76 L17.1781818,15.9090909 L14.8218182,15.9090909 L14.8218182,15.9090909 Z" id="Mask" fill="#85878B"></path>
        <path d="M36.6327273,14.5054545 L34.7854545,12.68 L34.8072727,12.6581818 C36.0727273,11.2472727 36.9745455,9.62545455 37.5054545,7.90909091 L39.6363636,7.90909091 L39.6363636,6.45454545 L34.5454545,6.45454545 L34.5454545,5 L33.0909091,5 L33.0909091,6.45454545 L28,6.45454545 L28,7.90181818 L36.1236364,7.90181818 C35.6363636,9.30545455 34.8654545,10.6363636 33.8181818,11.8 C33.1418182,11.0509091 32.5818182,10.2290909 32.1381818,9.36363636 L30.6836364,9.36363636 C31.2145455,10.5490909 31.9418182,11.6690909 32.8509091,12.68 L29.1490909,16.3309091 L30.1818182,17.3636364 L33.8181818,13.7272727 L36.08,15.9890909 L36.6327273,14.5054545 L36.6327273,14.5054545 Z M40.7272727,10.8181818 L39.2727273,10.8181818 L36,19.5454545 L37.4545455,19.5454545 L38.2690909,17.3636364 L41.7236364,17.3636364 L42.5454545,19.5454545 L44,19.5454545 L40.7272727,10.8181818 L40.7272727,10.8181818 Z M38.8218182,15.9090909 L40,12.76 L41.1781818,15.9090909 L38.8218182,15.9090909 L38.8218182,15.9090909 Z" id="Mask" fill="#00BC87"></path>
        <path d="M14,36 L14,42 L10,46 L10,36 L3,27 L21,27 L14,36 Z" id="Combined-Shape" fill="#85878B" fill-rule="nonzero"></path>
        <path d="M38,36 L38,42 L34,46 L34,36 L27,27 L45,27 L38,36 Z" id="Combined-Shape" fill="#00BC87" fill-rule="nonzero"></path>
        <path d="M10.2,53 L4.8,53 C3.81,53 3,54.0440899 3,55.0065899 L3,66.25 C3,67.2125 3.81,68 4.8,68 L19.2,68 C20.19,68 21,67.2125 21,66.25 L21,56.7565899 C21,55.7940899 20.19,55.0065899 19.2,55.0065899 L12,55.0065899 L10.2,53 Z" id="Path" fill="#85878B"></path>
        <path d="M34.2,53 L28.8,53 C27.81,53 27,54.0440899 27,55.0065899 L27,66.25 C27,67.2125 27.81,68 28.8,68 L43.2,68 C44.19,68 45,67.2125 45,66.25 L45,56.7565899 C45,55.7940899 44.19,55.0065899 43.2,55.0065899 L36,55.0065899 L34.2,53 Z" id="Path" fill="#00BC87"></path>
        <path d="M13,93 L13,87 L21,87 L21,93 L13,93 Z M3,93 L3,91 L11,91 L11,93 L3,93 Z M3,85 L3,79 L21,79 L21,85 L3,85 Z M3,89 L3,87 L11,87 L11,89 L3,89 Z M3,75 L11,75 L11,77 L3,77 L3,75 Z M13,75 L21,75 L21,77 L13,77 L13,75 Z" id="Combined-Shape" fill="#85878B"></path>
        <path d="M37,93 L37,87 L45,87 L45,93 L37,93 Z M27,93 L27,91 L35,91 L35,93 L27,93 Z M27,85 L27,79 L45,79 L45,85 L27,85 Z M27,89 L27,87 L35,87 L35,89 L27,89 Z M27,75 L35,75 L35,77 L27,77 L27,75 Z M37,75 L45,75 L45,77 L37,77 L37,75 Z" id="Combined-Shape" fill="#00BC87"></path>
        <path d="M9.49998535,102.999971 C8.11875758,102.999971 6.9999707,101.881242 6.9999707,100.500015 C6.9999707,99.1187283 8.11875758,98 9.49998535,98 C10.8812131,98 12,99.1187283 12,100.499956 C12,101.881242 10.8812131,102.999971 9.49998535,102.999971 Z M14.4999561,108 C13.1187283,108 12,106.881213 11.9999414,105.499985 C11.9999414,104.118699 13.1187283,102.999971 14.4999561,102.999971 C15.8812424,102.999971 16.9999707,104.118758 16.9999707,105.499985 C16.9999707,106.881213 15.8812424,108 14.4999561,108 Z M4.50001465,108 C3.11872828,108 2,106.881213 2,105.499985 C2,104.118758 3.11872828,102.999971 4.50001465,102.999971 C5.88130101,102.999971 7.0000293,104.118758 7.0000293,105.499985 C7.0000293,106.881272 5.88124242,108 4.50001465,108 Z M19.4999854,102.999971 C18.118699,102.999971 16.9999707,101.881242 16.9999707,100.500015 C16.9999707,99.1187283 18.118699,98 19.4999854,98 C20.8812131,98 21.9999414,99.1187283 22,100.499956 C22,101.881242 20.8812131,102.999971 19.4999854,102.999971 Z M14.4999561,112.999971 C15.8812424,112.999971 16.9999707,114.118699 16.9999707,115.499985 C16.9999707,116.881272 15.8811838,118 14.4999561,118 C13.1186697,118 11.9999414,116.881213 11.9999414,115.499985 C11.9999414,114.118699 13.1187283,112.999971 14.4999561,112.999971 Z M19.4999854,108 C20.8812131,108 21.9999414,109.118728 22,110.499956 C22,111.881242 20.8812131,112.999971 19.4999854,112.999971 C18.118699,112.999971 16.9999707,111.881242 16.9999707,110.500015 C16.9999707,109.118728 18.1187576,108 19.4999854,108 Z M9.49998535,108 C10.8812131,108 12,109.118728 12,110.499956 C12,111.881242 10.8812131,112.999971 9.49998535,112.999971 C8.11875758,112.999971 6.9999707,111.881242 6.9999707,110.500015 C6.9999707,109.118728 8.11875758,108 9.49998535,108 Z M4.50001465,112.999971 C5.88124242,112.999971 6.9999707,114.118699 7.0000293,115.499985 C7.0000293,116.881272 5.88124242,118 4.50001465,118 C3.11872828,118 2,116.881213 2,115.499985 C2,114.118699 3.11872828,112.999971 4.50001465,112.999971 Z" id="Combined-Shape" fill="#85878B"></path>
        <path d="M33.4999854,102.999971 C32.1187576,102.999971 30.9999707,101.881242 30.9999707,100.500015 C30.9999707,99.1187283 32.1187576,98 33.4999854,98 C34.8812131,98 36,99.1187283 36,100.499956 C36,101.881242 34.8812131,102.999971 33.4999854,102.999971 Z M38.4999561,108 C37.1187283,108 36,106.881213 35.9999414,105.499985 C35.9999414,104.118699 37.1187283,102.999971 38.4999561,102.999971 C39.8812424,102.999971 40.9999707,104.118758 40.9999707,105.499985 C40.9999707,106.881213 39.8812424,108 38.4999561,108 Z M28.5000146,108 C27.1187283,108 26,106.881213 26,105.499985 C26,104.118758 27.1187283,102.999971 28.5000146,102.999971 C29.881301,102.999971 31.0000293,104.118758 31.0000293,105.499985 C31.0000293,106.881272 29.8812424,108 28.5000146,108 Z M43.4999854,102.999971 C42.118699,102.999971 40.9999707,101.881242 40.9999707,100.500015 C40.9999707,99.1187283 42.118699,98 43.4999854,98 C44.8812131,98 45.9999414,99.1187283 46,100.499956 C46,101.881242 44.8812131,102.999971 43.4999854,102.999971 Z M38.4999561,112.999971 C39.8812424,112.999971 40.9999707,114.118699 40.9999707,115.499985 C40.9999707,116.881272 39.8811838,118 38.4999561,118 C37.1186697,118 35.9999414,116.881213 35.9999414,115.499985 C35.9999414,114.118699 37.1187283,112.999971 38.4999561,112.999971 Z M43.4999854,108 C44.8812131,108 45.9999414,109.118728 46,110.499956 C46,111.881242 44.8812131,112.999971 43.4999854,112.999971 C42.118699,112.999971 40.9999707,111.881242 40.9999707,110.500015 C40.9999707,109.118728 42.1187576,108 43.4999854,108 Z M33.4999854,108 C34.8812131,108 36,109.118728 36,110.499956 C36,111.881242 34.8812131,112.999971 33.4999854,112.999971 C32.1187576,112.999971 30.9999707,111.881242 30.9999707,110.500015 C30.9999707,109.118728 32.1187576,108 33.4999854,108 Z M28.5000146,112.999971 C29.8812424,112.999971 30.9999707,114.118699 31.0000293,115.499985 C31.0000293,116.881272 29.8812424,118 28.5000146,118 C27.1187283,118 26,116.881213 26,115.499985 C26,114.118699 27.1187283,112.999971 28.5000146,112.999971 Z" id="Combined-Shape" fill="#00BC87"></path>
        <path d="M20.6190476,130.52381 L19.1904762,130.52381 L19.1904762,126.714286 C19.1904762,125.666667 18.3333333,124.809524 17.2857143,124.809524 L13.4761905,124.809524 L13.4761905,123.380952 C13.4761905,122.047619 12.4285714,121 11.0952381,121 C9.76190476,121 8.71428571,122.047619 8.71428571,123.380952 L8.71428571,124.809524 L4.9047619,124.809524 C3.85714286,124.809524 3,125.666667 3,126.714286 L3,130.333333 L4.42857143,130.333333 C5.85714286,130.333333 7,131.47619 7,132.904762 C7,134.333333 5.85714286,135.47619 4.42857143,135.47619 L3,135.47619 L3,139.095238 C3,140.142857 3.85714286,141 4.9047619,141 L8.52380952,141 L8.52380952,139.571429 C8.52380952,138.142857 9.66666667,137 11.0952381,137 C12.5238095,137 13.6666667,138.142857 13.6666667,139.571429 L13.6666667,141 L17.2857143,141 C18.3333333,141 19.1904762,140.142857 19.1904762,139.095238 L19.1904762,135.285714 L20.6190476,135.285714 C21.952381,135.285714 23,134.238095 23,132.904762 C23,131.571429 21.952381,130.52381 20.6190476,130.52381 Z" id="Path" fill="#85878B"></path>
        <path d="M44.6190476,130.52381 L43.1904762,130.52381 L43.1904762,126.714286 C43.1904762,125.666667 42.3333333,124.809524 41.2857143,124.809524 L37.4761905,124.809524 L37.4761905,123.380952 C37.4761905,122.047619 36.4285714,121 35.0952381,121 C33.7619048,121 32.7142857,122.047619 32.7142857,123.380952 L32.7142857,124.809524 L28.9047619,124.809524 C27.8571429,124.809524 27,125.666667 27,126.714286 L27,130.333333 L28.4285714,130.333333 C29.8571429,130.333333 31,131.47619 31,132.904762 C31,134.333333 29.8571429,135.47619 28.4285714,135.47619 L27,135.47619 L27,139.095238 C27,140.142857 27.8571429,141 28.9047619,141 L32.5238095,141 L32.5238095,139.571429 C32.5238095,138.142857 33.6666667,137 35.0952381,137 C36.5238095,137 37.6666667,138.142857 37.6666667,139.571429 L37.6666667,141 L41.2857143,141 C42.3333333,141 43.1904762,140.142857 43.1904762,139.095238 L43.1904762,135.285714 L44.6190476,135.285714 C45.952381,135.285714 47,134.238095 47,132.904762 C47,131.571429 45.952381,130.52381 44.6190476,130.52381 Z" id="Path" fill="#00BC87"></path>
    </g>
</svg>