<?xml version="1.0" encoding="UTF-8"?>
<svg width="72px" height="120px" viewBox="0 0 72 120" version="1.1" xmlns="http://www.w3.org/2000/svg" xmlns:xlink="http://www.w3.org/1999/xlink">
    <!-- Generator: Sketch 52.6 (67491) - http://www.bohemiancoding.com/sketch -->
    <title>system</title>
    <desc>Created with Sketch.</desc>
    <g id="system" stroke="none" stroke-width="1" fill="none" fill-rule="evenodd">
        <path d="M30,14 C28.8954305,14 28,13.1045695 28,12 C28,10.8954305 28.8954305,10 30,10 C31.1045695,10 32,10.8954305 32,12 C32,13.1045695 31.1045695,14 30,14 Z M36,14 C34.8954305,14 34,13.1045695 34,12 C34,10.8954305 34.8954305,10 36,10 C37.1045695,10 38,10.8954305 38,12 C38,13.1045695 37.1045695,14 36,14 Z M42,14 C40.8954305,14 40,13.1045695 40,12 C40,10.8954305 40.8954305,10 42,10 C43.1045695,10 44,10.8954305 44,12 C44,13.1045695 43.1045695,14 42,14 Z" id="Combined-Shape" fill="#00BC87" fill-rule="nonzero" transform="translate(36.000000, 12.000000) rotate(-270.000000) translate(-36.000000, -12.000000) "></path>
        <path d="M6,14 C4.8954305,14 4,13.1045695 4,12 C4,10.8954305 4.8954305,10 6,10 C7.1045695,10 8,10.8954305 8,12 C8,13.1045695 7.1045695,14 6,14 Z M12,14 C10.8954305,14 10,13.1045695 10,12 C10,10.8954305 10.8954305,10 12,10 C13.1045695,10 14,10.8954305 14,12 C14,13.1045695 13.1045695,14 12,14 Z M18,14 C16.8954305,14 16,13.1045695 16,12 C16,10.8954305 16.8954305,10 18,10 C19.1045695,10 20,10.8954305 20,12 C20,13.1045695 19.1045695,14 18,14 Z" id="Combined-Shape" fill="#85878B" fill-rule="nonzero" transform="translate(12.000000, 12.000000) rotate(-270.000000) translate(-12.000000, -12.000000) "></path>
        <path d="M13.7781746,29.7781746 L9.77817459,29.7781746 L9.77817459,27.7781746 C9.77817459,27.2258898 10.2258898,26.7781746 10.7781746,26.7781746 L12.7781746,26.7781746 C13.3304593,26.7781746 13.7781746,27.2258898 13.7781746,27.7781746 L13.7781746,29.7781746 Z M13.7781746,31.7781746 L13.7781746,42.2781746 L11.7781746,44.7781746 L9.77817459,42.2781746 L9.77817459,31.7781746 L13.7781746,31.7781746 Z" id="Combined-Shape" fill="#85878B" fill-rule="nonzero" transform="translate(11.778175, 35.778175) rotate(-315.000000) translate(-11.778175, -35.778175) "></path>
        <path d="M38,30 L34,30 L34,28 C34,27.4477153 34.4477153,27 35,27 L37,27 C37.5522847,27 38,27.4477153 38,28 L38,30 Z M38,32 L38,42.5 L36,45 L34,42.5 L34,32 L38,32 Z" id="Combined-Shape" fill="#00BC87" fill-rule="nonzero" transform="translate(36.000000, 36.000000) rotate(-315.000000) translate(-36.000000, -36.000000) "></path>
        <path d="M15.0057176,61.8050314 L14.3733562,61.8050314 L14.1492281,61.5889079 C14.9336764,60.6763865 15.4059463,59.4917095 15.4059463,58.2029731 C15.4059463,55.329331 13.0766152,53 10.2029731,53 C7.32933105,53 5,55.329331 5,58.2029731 C5,61.0766152 7.32933105,63.4059463 10.2029731,63.4059463 C11.4917095,63.4059463 12.6763865,62.9336764 13.5889079,62.1492281 L13.8050314,62.3733562 L13.8050314,63.0057176 L17.8073185,67 L19,65.8073185 L15.0057176,61.8050314 L15.0057176,61.8050314 Z M10.2029731,61.8050314 C8.20983419,61.8050314 6.60091481,60.1961121 6.60091481,58.2029731 C6.60091481,56.2098342 8.20983419,54.6009148 10.2029731,54.6009148 C12.1961121,54.6009148 13.8050314,56.2098342 13.8050314,58.2029731 C13.8050314,60.1961121 12.1961121,61.8050314 10.2029731,61.8050314 L10.2029731,61.8050314 Z" id="Mask" fill="#85878B" transform="translate(12.000000, 60.000000) scale(-1, 1) rotate(-270.000000) translate(-12.000000, -60.000000) "></path>
        <path d="M39.0057176,61.8050314 L38.3733562,61.8050314 L38.1492281,61.5889079 C38.9336764,60.6763865 39.4059463,59.4917095 39.4059463,58.2029731 C39.4059463,55.329331 37.0766152,53 34.2029731,53 C31.329331,53 29,55.329331 29,58.2029731 C29,61.0766152 31.329331,63.4059463 34.2029731,63.4059463 C35.4917095,63.4059463 36.6763865,62.9336764 37.5889079,62.1492281 L37.8050314,62.3733562 L37.8050314,63.0057176 L41.8073185,67 L43,65.8073185 L39.0057176,61.8050314 L39.0057176,61.8050314 Z M34.2029731,61.8050314 C32.2098342,61.8050314 30.6009148,60.1961121 30.6009148,58.2029731 C30.6009148,56.2098342 32.2098342,54.6009148 34.2029731,54.6009148 C36.1961121,54.6009148 37.8050314,56.2098342 37.8050314,58.2029731 C37.8050314,60.1961121 36.1961121,61.8050314 34.2029731,61.8050314 L34.2029731,61.8050314 Z" id="Mask" fill="#00BC87" transform="translate(36.000000, 60.000000) scale(-1, 1) rotate(-270.000000) translate(-36.000000, -60.000000) "></path>
        <path d="M63.0057176,61.8050314 L62.3733562,61.8050314 L62.1492281,61.5889079 C62.9336764,60.6763865 63.4059463,59.4917095 63.4059463,58.2029731 C63.4059463,55.329331 61.0766152,53 58.2029731,53 C55.329331,53 53,55.329331 53,58.2029731 C53,61.0766152 55.329331,63.4059463 58.2029731,63.4059463 C59.4917095,63.4059463 60.6763865,62.9336764 61.5889079,62.1492281 L61.8050314,62.3733562 L61.8050314,63.0057176 L65.8073185,67 L67,65.8073185 L63.0057176,61.8050314 L63.0057176,61.8050314 Z M58.2029731,61.8050314 C56.2098342,61.8050314 54.6009148,60.1961121 54.6009148,58.2029731 C54.6009148,56.2098342 56.2098342,54.6009148 58.2029731,54.6009148 C60.1961121,54.6009148 61.8050314,56.2098342 61.8050314,58.2029731 C61.8050314,60.1961121 60.1961121,61.8050314 58.2029731,61.8050314 L58.2029731,61.8050314 Z" id="Mask-Copy-2" fill="#FFFFFF" transform="translate(60.000000, 60.000000) scale(-1, 1) rotate(-270.000000) translate(-60.000000, -60.000000) "></path>
        <path d="M54,14 C52.8954305,14 52,13.1045695 52,12 C52,10.8954305 52.8954305,10 54,10 C55.1045695,10 56,10.8954305 56,12 C56,13.1045695 55.1045695,14 54,14 Z M60,14 C58.8954305,14 58,13.1045695 58,12 C58,10.8954305 58.8954305,10 60,10 C61.1045695,10 62,10.8954305 62,12 C62,13.1045695 61.1045695,14 60,14 Z M66,14 C64.8954305,14 64,13.1045695 64,12 C64,10.8954305 64.8954305,10 66,10 C67.1045695,10 68,10.8954305 68,12 C68,13.1045695 67.1045695,14 66,14 Z" id="Combined-Shape-Copy" fill="#FFFFFF" fill-rule="nonzero" transform="translate(60.000000, 12.000000) rotate(-270.000000) translate(-60.000000, -12.000000) "></path>
        <path d="M61.7781746,29.7781746 L57.7781746,29.7781746 L57.7781746,27.7781746 C57.7781746,27.2258898 58.2258898,26.7781746 58.7781746,26.7781746 L60.7781746,26.7781746 C61.3304593,26.7781746 61.7781746,27.2258898 61.7781746,27.7781746 L61.7781746,29.7781746 Z M61.7781746,31.7781746 L61.7781746,42.2781746 L59.7781746,44.7781746 L57.7781746,42.2781746 L57.7781746,31.7781746 L61.7781746,31.7781746 Z" id="Combined-Shape-Copy-2" fill="#FFFFFF" fill-rule="nonzero" transform="translate(59.778175, 35.778175) rotate(-315.000000) translate(-59.778175, -35.778175) "></path>
        <polygon id="Shape" fill="#85878B" points="18 79.2085714 16.7914286 78 12 82.7914286 7.20857143 78 6 79.2085714 10.7914286 84 6 88.7914286 7.20857143 90 12 85.2085714 16.7914286 90 18 88.7914286 13.2085714 84"></polygon>
        <polygon id="Shape" fill="#00BC87" points="42 79.2085714 40.7914286 78 36 82.7914286 31.2085714 78 30 79.2085714 34.7914286 84 30 88.7914286 31.2085714 90 36 85.2085714 40.7914286 90 42 88.7914286 37.2085714 84"></polygon>
        <polygon id="Shape" fill="#FFFFFF" points="66 79.2085714 64.7914286 78 60 82.7914286 55.2085714 78 54 79.2085714 58.7914286 84 54 88.7914286 55.2085714 90 60 85.2085714 64.7914286 90 66 88.7914286 61.2085714 84"></polygon>
        <path d="M56.25,114.5 L63.75,114.5 C64.4625,114.5 65.25,113.747857 65.25,112.875 L65.25,104.75 L54.75,104.75 L54.75,112.875 C54.75,113.747857 55.5375,114.5 56.25,114.5 Z M63.75,101.75 L62.25,101 L57.75,101 L56.25,101.75 L54,101.75 L54,103.25 L66,103.25 L66,101.75 L63.75,101.75 Z" id="Mask" fill="#FFFFFF"></path>
        <path d="M32.25,114.5 L39.75,114.5 C40.4625,114.5 41.25,113.747857 41.25,112.875 L41.25,104.75 L30.75,104.75 L30.75,112.875 C30.75,113.747857 31.5375,114.5 32.25,114.5 Z M39.75,101.75 L38.25,101 L33.75,101 L32.25,101.75 L30,101.75 L30,103.25 L42,103.25 L42,101.75 L39.75,101.75 Z" id="Mask" fill="#00BC87"></path>
        <path d="M8.25,114.5 L15.75,114.5 C16.4625,114.5 17.25,113.747857 17.25,112.875 L17.25,104.75 L6.75,104.75 L6.75,112.875 C6.75,113.747857 7.5375,114.5 8.25,114.5 Z M15.75,101.75 L14.25,101 L9.75,101 L8.25,101.75 L6,101.75 L6,103.25 L18,103.25 L18,101.75 L15.75,101.75 Z" id="Mask" fill="#85878B"></path>
    </g>
</svg>