<?xml version="1.0" encoding="UTF-8"?>
<svg width="48px" height="120px" viewBox="0 0 48 120" version="1.1" xmlns="http://www.w3.org/2000/svg" xmlns:xlink="http://www.w3.org/1999/xlink">
    <!-- Generator: Sketch 53 (72520) - https://sketchapp.com -->
    <title>view</title>
    <desc>Created with Sketch.</desc>
    <defs>
        <path d="M0,0 L16,0 L16,3 L0,3 L0,0 Z M0,4 L16,4 L16,7 L0,7 L0,4 Z M0,8 L16,8 L16,11 L0,11 L0,8 Z" id="path-1"></path>
    </defs>
    <g id="view" stroke="none" stroke-width="1" fill="none" fill-rule="evenodd">
        <g id="icon-/-other-/-mark-as-read-copy-3" transform="translate(4.000000, 55.000000)">
            <mask id="mask-2" fill="white">
                <use xlink:href="#path-1"></use>
            </mask>
            <use id="Combined-Shape" fill="#85878B" fill-rule="nonzero" xlink:href="#path-1"></use>
        </g>
        <path d="M28,55 L44,55 L44,58 L28,58 L28,55 Z M28,59 L44,59 L44,62 L28,62 L28,59 Z M28,63 L44,63 L44,66 L28,66 L28,63 Z" id="Combined-Shape" fill="#00BC87" fill-rule="nonzero"></path>
        <path d="M4,7 L20,7 L20,8 L4,8 L4,7 Z M4,9 L20,9 L20,10 L4,10 L4,9 Z M4,11 L20,11 L20,12 L4,12 L4,11 Z M4,13 L20,13 L20,14 L4,14 L4,13 Z M4,15 L20,15 L20,16 L4,16 L4,15 Z M4,17 L20,17 L20,18 L4,18 L4,17 Z" id="Shape" fill="#85878B" fill-rule="nonzero"></path>
        <path d="M28,7 L44,7 L44,8 L28,8 L28,7 Z M28,9 L44,9 L44,10 L28,10 L28,9 Z M28,11 L44,11 L44,12 L28,12 L28,11 Z M28,13 L44,13 L44,14 L28,14 L28,13 Z M28,15 L44,15 L44,16 L28,16 L28,15 Z M28,17 L44,17 L44,18 L28,18 L28,17 Z" id="Shape" fill="#00BC87" fill-rule="nonzero"></path>
        <path d="M4,31 L20,31 L20,33 L4,33 L4,31 Z M4,34 L20,34 L20,36 L4,36 L4,34 Z M4,37 L20,37 L20,39 L4,39 L4,37 Z M4,40 L20,40 L20,42 L4,42 L4,40 Z" id="Combined-Shape" fill="#85878B" fill-rule="nonzero"></path>
        <path d="M28,31 L44,31 L44,33 L28,33 L28,31 Z M28,34 L44,34 L44,36 L28,36 L28,34 Z M28,37 L44,37 L44,39 L28,39 L28,37 Z M28,40 L44,40 L44,42 L28,42 L28,40 Z" id="Combined-Shape" fill="#00BC87" fill-rule="nonzero"></path>
        <g id="Group" transform="translate(5.000000, 103.000000)" fill="#85878B" fill-rule="nonzero">
            <path d="M0,0 L3,0 L3,2 L0,2 L0,0 Z M0,3 L3,3 L3,5 L0,5 L0,3 Z M0,6 L3,6 L3,8 L0,8 L0,6 Z M0,9 L3,9 L3,11 L0,11 L0,9 Z M4,0 L7,0 L7,2 L4,2 L4,0 Z M4,3 L7,3 L7,5 L4,5 L4,3 Z M4,6 L7,6 L7,8 L4,8 L4,6 Z M4,9 L7,9 L7,11 L4,11 L4,9 Z M8,0 L11,0 L11,2 L8,2 L8,0 Z M12,0 L15,0 L15,2 L12,2 L12,0 Z M8,3 L11,3 L11,5 L8,5 L8,3 Z M12,3 L15,3 L15,5 L12,5 L12,3 Z M8,6 L11,6 L11,8 L8,8 L8,6 Z M12,6 L15,6 L15,8 L12,8 L12,6 Z M8,9 L11,9 L11,11 L8,11 L8,9 Z M12,9 L15,9 L15,11 L12,11 L12,9 Z" id="Combined-Shape"></path>
        </g>
        <path d="M29,103 L32,103 L32,105 L29,105 L29,103 Z M29,106 L32,106 L32,108 L29,108 L29,106 Z M29,109 L32,109 L32,111 L29,111 L29,109 Z M29,112 L32,112 L32,114 L29,114 L29,112 Z M33,103 L36,103 L36,105 L33,105 L33,103 Z M33,106 L36,106 L36,108 L33,108 L33,106 Z M33,109 L36,109 L36,111 L33,111 L33,109 Z M33,112 L36,112 L36,114 L33,114 L33,112 Z M37,103 L40,103 L40,105 L37,105 L37,103 Z M41,103 L44,103 L44,105 L41,105 L41,103 Z M37,106 L40,106 L40,108 L37,108 L37,106 Z M41,106 L44,106 L44,108 L41,108 L41,106 Z M37,109 L40,109 L40,111 L37,111 L37,109 Z M41,109 L44,109 L44,111 L41,111 L41,109 Z M37,112 L40,112 L40,114 L37,114 L37,112 Z M41,112 L44,112 L44,114 L41,114 L41,112 Z" id="Combined-Shape" fill="#00BC87" fill-rule="nonzero"></path>
        <g id="Group-3" transform="translate(5.000000, 79.000000)" fill="#85878B" fill-rule="nonzero">
            <path d="M0,0 L4,0 L4,3 L0,3 L0,0 Z M0,4 L4,4 L4,7 L0,7 L0,4 Z M0,8 L4,8 L4,11 L0,11 L0,8 Z M5,0 L9,0 L9,3 L5,3 L5,0 Z M5,4 L9,4 L9,7 L5,7 L5,4 Z M5,8 L9,8 L9,11 L5,11 L5,8 Z M10,0 L14,0 L14,3 L10,3 L10,0 Z M10,4 L14,4 L14,7 L10,7 L10,4 Z M10,8 L14,8 L14,11 L10,11 L10,8 Z" id="Combined-Shape"></path>
        </g>
        <path d="M29,79 L33,79 L33,82 L29,82 L29,79 Z M29,83 L33,83 L33,86 L29,86 L29,83 Z M29,87 L33,87 L33,90 L29,90 L29,87 Z M34,79 L38,79 L38,82 L34,82 L34,79 Z M34,83 L38,83 L38,86 L34,86 L34,83 Z M34,87 L38,87 L38,90 L34,90 L34,87 Z M39,79 L43,79 L43,82 L39,82 L39,79 Z M39,83 L43,83 L43,86 L39,86 L39,83 Z M39,87 L43,87 L43,90 L39,90 L39,87 Z" id="Combined-Shape" fill="#00BC87" fill-rule="nonzero"></path>
    </g>
</svg>