<svg id="Warstwa_1" data-name="Warstwa 1" xmlns="http://www.w3.org/2000/svg" viewBox="0 0 1001 358.69"><defs><style>.cls-1{fill:#33373e;}.cls-2{fill:#00d66c;}</style></defs><title>logo</title><path class="cls-1" d="M367.25,184.43H317.12c2.45,9.44,8.95,14.22,19.49,14.22a41.51,41.51,0,0,0,21.57-6.74L365,204a48.34,48.34,0,0,1-29.17,9.19c-11.76,0-20.71-3.43-27-10.17s-9.32-15.07-9.32-24.76c0-10.17,3.19-18.5,9.69-25.12s14.83-9.93,25.12-9.93c9.68,0,17.77,3.06,24,9.07s9.44,14.1,9.44,24.51A58.83,58.83,0,0,1,367.25,184.43Zm-50.13-12.87h33.95c-1.6-8.7-7.85-14-16.67-14S319.2,162.86,317.12,171.56Z"/><path class="cls-1" d="M379.74,211.76V145h16.54v8.94c4.05-7.23,10.17-10.78,18.39-10.78a23.49,23.49,0,0,1,8.08,1.47l-1.46,16.55a27.79,27.79,0,0,0-8-1.35c-9.81,0-16.3,6.37-16.3,20.22v31.74Z"/><path class="cls-1" d="M482.44,145h15.93v60.17c0,10.67-3.43,19.24-10.3,25.5s-15.81,9.43-26.72,9.43a51,51,0,0,1-30.63-9.68l6.74-13c7.72,5.27,15.56,7.84,23.41,7.84,13.23,0,20.83-7.72,20.83-18.5v-3.43c-5.15,5.75-12,8.57-20.59,8.57-9.8,0-17.77-3.18-24-9.68s-9.32-14.58-9.32-24.51,3.31-18.14,9.81-24.63,14.58-9.81,24.27-9.81a26.86,26.86,0,0,1,20.59,9.07Zm-32,46.45a18.94,18.94,0,0,0,26.47,0,18.81,18.81,0,0,0,5.27-13.61,18.51,18.51,0,1,0-37,0C445.18,183.33,446.89,187.86,450.45,191.42Z"/><path class="cls-1" d="M520.54,153.42q10.11-10.29,25.74-10.29T572,153.42c6.75,6.74,10,15.08,10,24.88s-3.3,18.26-10,25-15.31,10.17-25.73,10.17-19-3.43-25.74-10.17-10-15.08-10-25S513.8,160.16,520.54,153.42Zm25.74,44a17.4,17.4,0,0,0,13.11-5.51,19.27,19.27,0,0,0,5.39-13.61,18.76,18.76,0,0,0-5.39-13.48,17.4,17.4,0,0,0-13.11-5.51A17.69,17.69,0,0,0,533,164.82a18.7,18.7,0,0,0-5.27,13.48A19.2,19.2,0,0,0,533,191.91,17.69,17.69,0,0,0,546.28,197.42Z"/><path class="cls-1" d="M594.19,211.76V145H611.1v9.31c3.56-6.49,11.52-11.15,21-11.15a26,26,0,0,1,18.5,7.23c5,4.78,7.6,11.64,7.6,20.59v40.81H640.88V175.61c0-10.67-5.63-16.55-14.09-16.55-9.19,0-15.32,7-15.32,16.92v35.78Z"/><path class="cls-1" d="M679.48,153.42q10.11-10.29,25.74-10.29T731,153.42A33.85,33.85,0,0,1,741,178.3c0,9.93-3.32,18.26-10.06,25s-15.32,10.17-25.73,10.17-19-3.43-25.74-10.17-10.05-15.08-10.05-25S672.74,160.16,679.48,153.42Zm25.74,44a17.4,17.4,0,0,0,13.11-5.51,19.27,19.27,0,0,0,5.39-13.61,18.76,18.76,0,0,0-5.39-13.48,17.4,17.4,0,0,0-13.11-5.51A17.7,17.7,0,0,0,692,164.82a18.7,18.7,0,0,0-5.27,13.48A19.2,19.2,0,0,0,692,191.91,17.7,17.7,0,0,0,705.22,197.42Z"/><path class="cls-1" d="M803,118.62h17.28v93.14H803.38v-8.21a25.7,25.7,0,0,1-20.71,9.8c-9.44,0-17.41-3.3-23.66-9.92s-9.43-15.08-9.43-25.13,3.18-18.26,9.43-25a31.14,31.14,0,0,1,23.66-10.05c8.08,0,14.83,3.19,20.34,9.44Zm-4.29,46.08c-3.43-3.8-7.84-5.64-13.36-5.64a17.49,17.49,0,0,0-13.48,5.64,19.18,19.18,0,0,0-5.15,13.6,19.79,19.79,0,0,0,5.15,13.85,17.82,17.82,0,0,0,13.48,5.52,17.36,17.36,0,0,0,13.36-5.52,19.79,19.79,0,0,0,5.15-13.85A19.18,19.18,0,0,0,798.72,164.7Z"/><path class="cls-1" d="M900.19,184.43H850.06c2.45,9.44,9,14.22,19.49,14.22a41.51,41.51,0,0,0,21.57-6.74L898,204a48.31,48.31,0,0,1-29.17,9.19c-11.76,0-20.71-3.43-27-10.17s-9.31-15.07-9.31-24.76c0-10.17,3.18-18.5,9.68-25.12s14.83-9.93,25.12-9.93c9.69,0,17.77,3.06,24,9.07s9.43,14.1,9.43,24.51A57.1,57.1,0,0,1,900.19,184.43Zm-50.13-12.87h34c-1.59-8.7-7.84-14-16.67-14S852.15,162.86,850.06,171.56Z"/><path class="cls-2" d="M224.84,210.51l0,19.19L175,258.49,125.12,229.7V210.53l41.54,24V200a29.14,29.14,0,0,0,16.62,0V234.5Z"/><path class="cls-2" d="M125.12,133.76,155,151a28.94,28.94,0,0,0-8.33,14.4l-29.87-17.26v48l-4.15-2.39-12.46-7.19V129l49.85-28.77,16.61,9.59Z"/><path class="cls-2" d="M249.75,129v57.57l-16.62,9.6v-48l-29.87,17.26a28.94,28.94,0,0,0-8.33-14.4l29.89-17.26-41.54-24,16.62-9.59Z"/><path class="cls-2" d="M187.43,172.15a12.67,12.67,0,0,1-.25,2.55h0a12.46,12.46,0,0,1-24.38,0h0a12.67,12.67,0,0,1-.25-2.55,12.46,12.46,0,0,1,8.58-11.84,12.48,12.48,0,0,1,7.77,0A12.44,12.44,0,0,1,187.43,172.15Z"/></svg>