<?xml version="1.0" encoding="UTF-8"?>
<svg width="315px" height="93px" viewBox="0 0 315 93" version="1.1" xmlns="http://www.w3.org/2000/svg" xmlns:xlink="http://www.w3.org/1999/xlink">
    <!-- Generator: Sketch 52.6 (67491) - http://www.bohemiancoding.com/sketch -->
    <title>Group 9</title>
    <desc>Created with Sketch.</desc>
    <g id="ðŸ -Dashboard" stroke="none" stroke-width="1" fill="none" fill-rule="evenodd">
        <g id="future-feature" transform="translate(-700.000000, -162.000000)" fill="#ADAFB2" fill-rule="nonzero">
            <g id="Group-9" transform="translate(700.000000, 162.000000)">
                <g id="Group-5">
                    <path d="M180.738745,7 L164.261255,7 C162.461042,7 161,5.432 161,3.5 C161,1.568 162.461042,0 164.261255,0 L180.738745,0 C182.538958,0 184,1.568 184,3.5 C184,5.432 182.540588,7 180.738745,7 Z" id="Path-Copy"></path>
                    <path d="M311.674177,7 L287.325823,7 C285.489969,7 284,5.432 284,3.5 C284,1.568 285.489969,0 287.325823,0 L311.674177,0 C313.510031,0 315,1.568 315,3.5 C315,5.432 313.511694,7 311.674177,7 Z" id="Path-Copy-2"></path>
                    <path d="M87.688561,93 L3.31143902,93 C1.48352468,93 0,91.432 0,89.5 C0,87.568 1.48352468,86 3.31143902,86 L87.688561,86 C89.5164753,86 91,87.568 91,89.5 C91,91.432 89.5164753,93 87.688561,93 Z" id="Path-Copy-3"></path>
                    <path d="M279.712753,62 L235.287247,62 C233.472687,62 232,60.432 232,58.5 C232,56.568 233.472687,55 235.287247,55 L279.712753,55 C281.527313,55 283,56.568 283,58.5 C283,60.432 281.527313,62 279.712753,62 Z" id="Path-Copy-4"></path>
                    <path d="M43.7389763,56 L27.2610237,56 C25.4609386,56 24,54.432 24,52.5 C24,50.568 25.4609386,49 27.2610237,49 L43.7389763,49 C45.5390614,49 47,50.568 47,52.5 C47,54.432 45.5406919,56 43.7389763,56 Z" id="Path-Copy-5"></path>
                </g>
            </g>
        </g>
    </g>
</svg>