<svg xmlns="http://www.w3.org/2000/svg" fill="none" viewBox="0 0 280 280">
  <defs/>
  <path fill="#F5F5F5" d="M230.756 251.871c-33.954 34.022-224.89817 5.209-190.6665-71.437C74.3212 103.789 74.2968 69 122.375 69c48.079 0 86.299 33.149 108.381 57.945 22.082 24.795 33.954 90.903 0 124.926z"/>
  <mask id="a" width="264" height="256" x="8" y="24" maskUnits="userSpaceOnUse">
    <path fill="url(#paint0_linear)" d="M246.035 261.639c-41.499 44.212-274.8754 6.769-233.0367-92.831C54.837 69.2084 54.8071 24 113.57 24c58.762 0 105.475 43.0773 132.465 75.2985 26.989 32.2215 41.499 118.1285 0 162.3405z"/>
  </mask>
  <g mask="url(#a)">
    <path fill="#E2E2E2" d="M108.258 171.596s-27.333 94.44-39.0826 208.286l-8.5427 5.683 37.2902 17.78L145.574 272.5l7.693-105.669"/>
    <path fill="#EDEEEF" d="M119.523 170.479l53.254-3.648 9.684 3.943 4.551 232.571h-49.464l5.23-9.373-23.255-223.493zM130.731 58.6336v8.4059c0 6.4998 4.437 12.1598 10.749 13.7112l13.376 3.2877V51.173l-11.122-2.7338c-3.132-.7698-6.444-.0571-8.983 1.9329-2.538 1.9899-4.02 5.0362-4.02 8.2615z"/>
    <path stroke="#33373E" stroke-linecap="round" stroke-linejoin="round" stroke-width="1.5" d="M130.731 67.0393c0 6.4998 4.437 12.1598 10.749 13.7112l13.376 3.2877"/>
    <path fill="#33373E" d="M144.36 65.371c.356 0 .645-.2889.645-.6451 0-.3563-.289-.6451-.645-.6451-.357 0-.646.2888-.646.6451 0 .3562.289.6451.646.6451zM134.452 65.371c.356 0 .645-.2889.645-.6451 0-.3563-.289-.6451-.645-.6451-.357 0-.645.2888-.645.6451 0 .3562.288.6451.645.6451z"/>
    <path stroke="#33373E" stroke-linecap="round" stroke-linejoin="round" stroke-width="1.5" d="M137.359 68.5742v-9.9409h-3.813M145.574 58.6332h-4.98"/>
    <path fill="#EDEEEF" d="M153.267 63.7273v3.4522c1.862 0 3.372-1.5096 3.372-3.3718 0-.1034-.005-.2057-.014-.3069-.189-2.0938-3.358-1.8758-3.358.2265z"/>
    <path stroke="#33373E" stroke-linecap="round" stroke-linejoin="round" stroke-width="1.5" d="M153.267 67.1787c1.862 0 3.372-1.5096 3.372-3.3718"/>
    <path stroke="#00BC87" stroke-linecap="round" stroke-linejoin="round" stroke-width="1.5" d="M140.08 69.7361c.419.4187.987.6539 1.579.6539s1.16-.2352 1.579-.6539"/>
    <path stroke="#33373E" stroke-linecap="round" stroke-linejoin="round" stroke-width="1.5" d="M137.359 68.5823l2.178.5353"/>
    <path fill="#00BC87" d="M108.258 118.913v52.683l74.632 18.343v-58.674c0-20.805-14.203-38.922-34.407-43.8877-9.689-2.3814-19.935-.1767-27.787 5.9791s-12.438 15.5796-12.438 25.5566z"/>
    <path stroke="#33373E" stroke-linecap="round" stroke-linejoin="round" stroke-width="1.5" d="M142.778 393.973l-23.255-223.494M130.22 64.7262l-7.391-4.0524s10.802-30.9275 32.974-17.283c22.172 13.6445-.947 29.222-.947 29.222"/>
    <path stroke="#33373E" stroke-linecap="round" stroke-linejoin="round" stroke-width="1.5" d="M129.689 59.3857s14.67-2.3649 19.779-9.5368c0 0-2.078 10.3844 4.08 12.9169M165.418 95.5676s25.293 17.7864 36.209 42.6134c0 0-3.866-45.6698 1.591-53.1743 2.882-3.9616 6.14 1.4163 6.14 1.4163s14.327-5.9645 14.782-3.6904c.455 2.2741-7.959 10.9156-7.959 10.9156s12.28 56.5328 2.729 72.6788c-9.552 16.146-57.99-16.054-57.99-16.054"/>
    <path fill="#33373E" d="M166.138 153.556s.101 22.172 16.752 31.604v-22.421l-16.752-9.183z"/>
    <path stroke="#33373E" stroke-linecap="round" stroke-linejoin="round" stroke-width="1.5" d="M121.004 93.1221S98.5344 109.774 94.2894 126.537c0 0-6.9738-45.3691-10.9156-44.3214-3.9417 1.0476-4.8513 4.2074-4.8513 4.2074s-12.4317-6.5036-14.251-4.2253c-1.8193 2.2783 10.9156 14.71 10.9156 14.71S67.4832 151.125 76.4 158.46c18.7991 15.463 31.859-6.671 31.859-6.671"/>
  </g>
  <path fill="#F5F5F5" d="M75.5769 16.9908C87.9388 16.9689 97.978 26.9208 98 39.219l-44.7667.0793C53.2113 27 63.2149 17.0126 75.5769 16.9908zM28.7388 26.8992c7.0479-.0125 12.7715 5.6614 12.784 12.673l-25.5227.0451c-.0126-7.0115 5.6907-12.7056 12.7387-12.7181z"/>
  <path fill="#F5F5F5" d="M52.7536 16c12.9271-.0228 23.4252 10.3841 23.4482 23.2445l-46.8133.0828C29.3656 26.4669 39.8264 16.0229 52.7536 16zM263.701 16C272.703 16 280 23.3062 280 32.3188h-32.598c0-9.0126 7.297-16.3188 16.299-16.3188zM207.219 19c7.3 0 13.219 5.9254 13.219 13.2348H194C194 24.9254 199.918 19 207.219 19z"/>
  <path fill="#F5F5F5" d="M237.49 0c17.995.00003408 32.583 14.6055 32.583 32.6222h-65.166C204.907 14.6054 219.495-.00000705 237.49 0z"/>
  <defs>
    <linearGradient id="paint0_linear" x1="272" x2="272" y1="280" y2="24" gradientUnits="userSpaceOnUse">
      <stop stop-color="#fff"/>
      <stop offset="1" stop-color="#F5F5F5"/>
    </linearGradient>
  </defs>
</svg>
