<svg width="516" height="562" fill="none" xmlns="http://www.w3.org/2000/svg"><path d="M156.372 187.623a17.5 17.5 0 011.03-10.802c4.227-9.924 15.789-34.502 26.912-35.272 13.948-.966 9.548 11.318 4.598 14.251a8.17 8.17 0 01-8.983-.183s-13.36 16.232-11.917 21.267c0 0 7.7 0 5.133 7.333-2.246 6.417-13.896 15.781-16.773 3.406z" fill="#00BC87"/><path d="M182.767 292.04s-35.901 123.889 12.768 165.137c48.669 41.248 100.642 60.223 100.642 60.223l4.95 18.974 24.749-60.223-69.297-79.197-29.695-121.27" fill="#E2E2E2"/><path d="M231.222 357.356c6.205 0 12.136 2.794 17.589 7.877l7.768 31.722 16.822 19.225c3.994 16.85 6.277 36.326 6.277 57.079a267.19 267.19 0 01-2.39 36.019c-19.493-9.17-51.27-26.266-81.753-52.101a56.406 56.406 0 01-11.221-13.078c5.406-49.896 24.358-86.743 46.908-86.743z" fill="#33373E"/><path d="M197.443 273.465S186.34 454.684 217.7 540.485l-6.551 9.624h55.776s6.093-230.5 6.093-280.251l-75.575 3.607zM210.403 133.254v23.551l29.175 7.17v-39.743l-29.175-7.171v16.193z" fill="#EDEEEF"/><path d="M226.884 141.401a.78.78 0 110-1.56.78.78 0 010 1.56zM214.902 141.401a.78.78 0 110-1.56.78.78 0 010 1.56z" fill="#33373E"/><path d="M218.417 145.275v-12.021h-6.022M228.354 133.254h-6.023" stroke="#33373E" stroke-width="1.5" stroke-linecap="round" stroke-linejoin="round"/><path d="M237.657 139.413v4.175a4.077 4.077 0 004.06-4.449c-.228-2.532-4.06-2.268-4.06.274z" fill="#EDEEEF"/><path d="M237.657 143.588a4.077 4.077 0 004.077-4.078" stroke="#33373E" stroke-width="1.5" stroke-linecap="round" stroke-linejoin="round"/><path d="M221.052 148.239a4.127 4.127 0 004.126-4.127" stroke="#00BC87" stroke-width="1.5" stroke-linecap="round" stroke-linejoin="round"/><path d="M210.403 156.805l29.175 7.17M218.417 145.285l2.634.647" stroke="#33373E" stroke-width="1.5" stroke-linecap="round" stroke-linejoin="round"/><path d="M273.019 206.149v63.709l-90.252 22.182v-70.954c0-25.159 17.176-47.068 41.608-53.073a39.27 39.27 0 0148.644 38.136z" fill="#00BC87"/><path d="M197.443 273.465S186.34 454.685 217.7 540.486M235.947 136.229s-4.947-.275-17.53-9.488v3.576s-7.22-2.063-9.283-5.638" stroke="#33373E" stroke-width="1.5" stroke-linecap="round" stroke-linejoin="round"/><path d="M208.476 123.279s-15.567-20.6 27.471-6.218l-4.675-5.101s22.963 7.434 9.488 25.408M210.831 138.658s-5.696-7.65-3.409-17.013M264.555 181.784s56.175 45.333 47.375 103.084c-8.8 57.751-66.932 61.601-66.932 61.601l-9.051-15.95 37.071-60.661-35.361-36.14M244.999 346.469l-18.571-32.726M199.442 181.784s-18.78 19.667-27.947 41.667" stroke="#33373E" stroke-width="1.5" stroke-linecap="round" stroke-linejoin="round"/><path d="M184.314 268.552s-6.952 14.666-26.019 19.433c-18.934 4.734-38.953-79.842 3.496-134.161a6.82 6.82 0 013.624-2.433c2.62-.679 5.995.284 4.599 10.826 0 0 5.881-2.082 2.948 4.642-2.934 6.725-8.383 32.811 1.858 49.468" stroke="#33373E" stroke-width="1.5" stroke-linecap="round" stroke-linejoin="round"/><path d="M333.89 437.682s77.111 22.657 110.1-10.707c32.989-33.364 3.722-135.548-32.938-128.641-36.659 6.907-57.318 105.946-57.318 105.946s-81.904 10.253-19.844 33.402z" fill="#33373E"/><path d="M434.076 420.198c-25.343 25.63-86.987 15.882-114.203 9.985a13.195 13.195 0 01-7.281-4.281c-8.99-10.553 15.45-17.011 30.435-19.875l1.061-.2h.002l.168-.031a14.814 14.814 0 0011.691-10.969l.077-.304.077-.307.099-.392.074-.293.128-.505.05-.195.179-.695.073-.283.119-.458.08-.308.12-.463.085-.322.132-.503.073-.275.203-.763.078-.292.141-.523.088-.327.139-.513.094-.347.151-.552.079-.288.232-.84.074-.266.169-.608.099-.352.157-.559.098-.347.172-.606.089-.312.258-.9.059-.206.212-.731.097-.333.184-.627.104-.357.185-.626.105-.352.285-.955.016-.054.277-.918.109-.36.193-.633.123-.399.199-.647.11-.356.261-.839.056-.18.317-1.007.106-.334.222-.698.127-.395.216-.671.124-.383.26-.8.08-.246.343-1.041.104-.312.251-.755.131-.389.235-.697.134-.395.26-.763.108-.315.366-1.062.096-.273.285-.817.133-.376.26-.734.136-.384.277-.771.12-.334.393-1.084.071-.191c.111-.303.222-.607.335-.911l.135-.365.278-.746.149-.396c.094-.251.189-.503.285-.754l.137-.362c.137-.359.274-.718.413-1.077l.031-.081c.133-.346.268-.692.403-1.038l.138-.353.3-.761.159-.4.293-.734.155-.386a141.413 141.413 0 01.448-1.103c.148-.363.297-.725.447-1.087l.141-.339.319-.764.17-.405.304-.717.17-.397c.121-.282.242-.565.364-.846l.105-.244a208.283 208.283 0 01.608-1.383l.351-.792.174-.385c.107-.24.216-.479.324-.718l.176-.387c.12-.263.241-.525.362-.786l.136-.296.497-1.064.117-.245.391-.821c.059-.125.119-.25.18-.374l.339-.702.188-.385.365-.74.158-.318c.172-.346.346-.692.52-1.036l.095-.186a137.835 137.835 0 01.617-1.2c.12-.233.242-.466.363-.698l.196-.371c.124-.235.249-.469.374-.702l.173-.324c.182-.338.365-.675.548-1.01l.009-.016c.181-.33.363-.657.545-.984l.177-.315.388-.685.202-.354.384-.663.191-.328a112.53 112.53 0 011.147-1.919l.178-.29a105.573 105.573 0 011.016-1.623 89.303 89.303 0 01.667-1.033l.136-.208c.198-.301.397-.601.597-.898l.162-.239.447-.655.215-.309c.136-.197.273-.392.411-.587l.217-.306c.151-.212.303-.423.455-.632l.167-.231c.206-.282.413-.561.62-.838l.143-.188c.162-.215.325-.429.488-.641l.22-.283c.142-.182.283-.363.426-.542l.229-.289a50.126 50.126 0 01.647-.797c.213-.259.427-.515.643-.769l.104-.122c.182-.214.365-.426.549-.635.073-.085.147-.167.221-.251.148-.167.296-.333.445-.498l.238-.263.458-.495.214-.228c.22-.233.441-.463.662-.69l.021-.021c.219-.224.438-.444.658-.661l.218-.212a39.742 39.742 0 01.715-.685c.155-.145.31-.289.466-.431l.231-.21c.196-.177.392-.351.59-.523l.103-.091c.231-.2.462-.396.695-.588.069-.058.139-.113.208-.17a46.296 46.296 0 01.752-.602 40.031 40.031 0 011.438-1.072c.238-.168.477-.332.716-.493l.195-.128c.177-.117.355-.233.533-.347a35.986 35.986 0 01.747-.459l.258-.153c.181-.106.362-.209.543-.31l.198-.111c.245-.134.492-.265.739-.392l.164-.081c.194-.098.389-.194.585-.287.085-.041.171-.08.257-.12.169-.078.338-.154.507-.228l.27-.117c.179-.076.358-.149.538-.22.075-.03.151-.062.226-.091.253-.098.506-.192.761-.281.038-.014.077-.026.115-.039.218-.075.436-.147.654-.216.086-.027.173-.052.259-.078a19.667 19.667 0 01.804-.228c.179-.047.359-.091.539-.134l.25-.059c.258-.058.518-.113.778-.162l.006-.002.007-.001c.264-.049.526-.092.789-.13.09-.014.18-.024.27-.036.174-.023.348-.044.522-.062a18.443 18.443 0 01.788-.065c.117-.007.233-.014.349-.019.145-.006.29-.01.435-.013l.364-.006c.137 0 .273.004.409.007.523.01 1.045.04 1.565.096l.274.028c.173.021.346.044.518.069l.223.034c.181.028.362.059.542.092l.172.033c.197.038.394.078.59.122l.043.011c1.166.267 2.308.63 3.415 1.085 24.87 24.167 37.958 94.112 11.749 120.619z" fill="#EDEEEF"/><path d="M480 550H96M333.89 437.682s77.111 22.657 110.1-10.707M388.94 445.186v104.563" stroke="#33373E" stroke-width="1.5" stroke-linecap="round" stroke-linejoin="round"/><path d="M372.17 167.964c5.55 0 10.05-4.522 10.05-10.1 0-5.578-4.5-10.1-10.05-10.1-5.551 0-10.05 4.522-10.05 10.1 0 5.578 4.499 10.1 10.05 10.1z" fill="#00BC87"/><path d="M436.973 155.289c-35.961-35.552-93.645-35.552-129.606 0h129.606z" fill="#EDEEEF"/><path d="M372.17 1.368v127.625M307.367 155.289h129.606c-17.267-17.114-40.552-26.695-64.803-26.664" stroke="#33373E" stroke-width="1.5" stroke-linecap="round" stroke-linejoin="round"/></svg>