<svg width="828" height="574" fill="none" xmlns="http://www.w3.org/2000/svg"><path d="M293.95 163.131l-21.001-4.053 66.681-32.108-28.148 50.681-6.559-7.126-4.883 8.642-3.089-10.936" fill="#00BC87"/><path d="M209.001 561.369l-3.244-312.242-43.064 55.788s-9.851 163.095 0 245.192l-11.628 11.262h57.936z" fill="#E2E2E2"/><path d="M177.279 286.457s-11.034 180.085 20.129 265.35l-6.509 9.563h55.427s6.055-229.059 6.055-278.498l-75.102 3.585zM219.39 147.122v23.404l-28.992 7.126v-39.496l28.992-7.125v16.091z" fill="#EDEEEF"/><path d="M203.012 155.219a.775.775 0 10.001-1.55.775.775 0 00-.001 1.55zM214.919 155.219a.775.775 0 100-1.55.775.775 0 000 1.55z" fill="#33373E"/><path d="M211.426 159.068v-11.946h5.985M201.552 147.121h5.985" stroke="#33373E" stroke-width="1.5" stroke-linecap="round" stroke-linejoin="round"/><path d="M192.307 153.243v4.148a4.052 4.052 0 01-4.035-4.421c.227-2.516 4.035-2.254 4.035.273z" fill="#EDEEEF"/><path d="M192.307 157.391a4.052 4.052 0 01-4.052-4.052" stroke="#33373E" stroke-width="1.5" stroke-linecap="round" stroke-linejoin="round"/><path d="M208.808 162.013a4.1 4.1 0 01-4.101-4.101" stroke="#00BC87" stroke-width="1.5" stroke-linecap="round" stroke-linejoin="round"/><path d="M219.391 170.525l-28.993 7.126M211.426 159.078l-2.617.643" stroke="#33373E" stroke-width="1.5" stroke-linecap="round" stroke-linejoin="round"/><path d="M252.381 219.561v63.31l-89.687 22.044v-70.51c0-25.002 17.068-46.774 41.347-52.741a39.026 39.026 0 0148.34 37.897z" fill="#00BC87"/><path d="M177.279 286.456s-11.034 180.086 20.129 265.35l-6.509 9.564M219.39 144.005s10.381-4.008 4.004-21.316c-3.984-10.814-9.484-5.91-13.05-.708a14.64 14.64 0 01-10.332 6.196c-6.384.773-14.448 4.746-10.505 20.747" stroke="#33373E" stroke-width="1.5" stroke-linecap="round" stroke-linejoin="round"/><path d="M192.307 153.243s4.943-3.727 2.893-11.105c0 0 23.785-1.358 24.19-9.561M225.465 182.446s26.916 8.2 44.131 52.549c0 0 15.281-63.577 18.93-67.305 5.648-5.769 13.573-9.838 11.023-4.008-2.551 5.83-5.102 6.844-5.102 6.844s6.923 5.694 2.187 9.992" stroke="#33373E" stroke-width="1.5" stroke-linecap="round" stroke-linejoin="round"/><path d="M303.95 159.068c.7-.67 10.356 20.828-1.851 33.034 0 0 21.863 169.436-84.688 67.41M175.382 201.577s-9.924 6.558-21.22 51.741l-5.466-47.369s5.466-4.737 5.466-11.66c0 0 8.381-4.737 5.83-6.559s-13.482 1.822-18.219 6.559c-4.737 4.737-14.939 56.478-10.931 83.078 4.008 26.599 20.342 36.513 31.851 27.548" stroke="#33373E" stroke-width="1.5" stroke-linecap="round" stroke-linejoin="round"/><path d="M222.2 263.995s8.038 52.353 29.53 67.934v-45.473s-27.621-20.7-29.53-22.461z" fill="#33373E"/><path d="M341.5 125.5c50.114-35.814 106.506-68.252 165.507-86.608 37.158-11.56 74.801-9.412 111.856 3.343 8.505 2.927 21.173 9.158 27.555 16.233 11.94 13.236 13.661 33.962 14.536 50.635 2.692 51.362-20.298 97.545-67.707 121.097-19.714 9.793-55.886 19.002-76.53 5.042-11.003-7.441-8.104-22.61-2.779-32.43 13.712-25.286 44.022-41.057 68.26-54.069C640.32 117.542 762.5 63.5 826.5 44.5" stroke="url(#paint0_linear)" stroke-linecap="round" stroke-linejoin="round" stroke-dasharray="2 4"/><path d="M302.527 331.387a53.755 53.755 0 00-33.1-22.928l-.814-.184s4.887 34.311 40.609 38.715l1.271 92.867v-81.832a48.507 48.507 0 00-7.966-26.638z" fill="#EDEEEF"/><path d="M352.373 319.287l-.814.183a53.755 53.755 0 00-33.1 22.928v.001a48.503 48.503 0 00-7.966 26.637v81.832l2.032-95.727c35.722-4.405 39.848-35.854 39.848-35.854z" fill="#EDEEEF"/><path fill="#33373E" d="M283.01 428.888h54.966v132.886H283.01z"/><path d="M310.493 439.857v-81.832a48.507 48.507 0 00-7.966-26.638v0a53.755 53.755 0 00-33.1-22.928l-.814-.184s-2.198 33.033 33.525 37.438" stroke="#33373E" stroke-width="1.5" stroke-linecap="round" stroke-linejoin="round"/><path d="M310.493 450.868v-81.832a48.503 48.503 0 017.966-26.637v0a53.753 53.753 0 0133.1-22.929l.814-.183s2.198 33.033-33.524 37.437" stroke="#33373E" stroke-width="1.5" stroke-linecap="round" stroke-linejoin="round"/><path d="M310.493 434.162v-47.531a28.181 28.181 0 00-4.627-15.472v0a31.223 31.223 0 00-19.226-13.318l-.472-.106s-1.277 19.187 19.472 21.745M104 562h264" stroke="#33373E" stroke-width="1.5" stroke-linecap="round" stroke-linejoin="round"/><defs><linearGradient id="paint0_linear" x1="666" y1="108.5" x2="827.5" y2="45" gradientUnits="userSpaceOnUse"><stop stop-color="#ADAFB2"/><stop offset=".979" stop-color="#ADAFB2" stop-opacity="0"/></linearGradient></defs></svg>