<svg width="379" height="480" fill="none" xmlns="http://www.w3.org/2000/svg"><path d="M57.997 429.331c19.156 0 34.686-15.52 34.686-34.665 0-19.146-15.53-34.666-34.686-34.666s-34.686 15.52-34.686 34.666c0 19.145 15.53 34.665 34.686 34.665z" fill="#00BC87"/><path d="M92.683 394.666c0 19.145-15.53 34.665-34.686 34.665M57.997 408.765v70.113M70.257 396.512l-12.26 12.253-12.26-12.253" stroke="#33373E" stroke-width="1.5" stroke-linecap="round" stroke-linejoin="round"/><path d="M366.035 114.234c-26.56 0-49.29-11.357-58.636-27.444-9.345 16.087-32.075 27.444-58.635 27.444a90.95 90.95 0 01-11.439-.717v87.82a58.15 58.15 0 0029.075 50.36l40.999 23.671 41-23.671a58.15 58.15 0 0029.075-50.36v-87.82a90.95 90.95 0 01-11.439.717z" fill="#EDEEEF"/><path d="M348.399 251.697a58.15 58.15 0 0029.075-50.36v-87.82a90.95 90.95 0 01-11.439.717c-26.56 0-49.29-11.357-58.636-27.444v188.578l41-23.671z" fill="#D6D6D6"/><path d="M278.608 184.997l4.196-4.196 21.409 21.409-4.196 4.197-21.409-21.41z" fill="#33373E"/><path d="M342.28 155.751l4.197 4.196-46.46 46.459-4.196-4.196 46.459-46.459z" fill="#33373E"/><path d="M307.399 275.368l41-23.671a58.15 58.15 0 0029.075-50.36v-87.82a90.95 90.95 0 01-11.439.717c-26.56 0-49.29-11.357-58.636-27.444M7 478.756h256" stroke="#33373E" stroke-width="1.5"/><path d="M140.239 205.729l-43.586-6.775S64.536 352.185 81.773 466.5l-5.085 11.276h57.748l16.397-174.368-10.594-97.679z" fill="#E2E2E2"/><path d="M111.255 202.543s-11.047 180.295 20.153 265.658l-6.517 9.575h55.491s6.062-229.325 6.062-278.822l-75.189 3.589z" fill="#EDEEEF"/><path d="M111.255 202.543s-11.047 180.295 20.153 265.658l-6.517 9.575" stroke="#33373E" stroke-width="1.5"/><path d="M150.833 63.047v23.431l-29.027 7.134V54.071l29.027-7.134v16.11z" fill="#EDEEEF"/><path d="M134.436 71.154a.776.776 0 100-1.553.776.776 0 000 1.553zM146.356 71.154a.776.776 0 100-1.552.776.776 0 000 1.552z" fill="#33373E"/><path d="M142.859 75.007v-11.96h5.992M132.974 63.047h5.992" stroke="#33373E" stroke-width="1.5"/><path d="M123.718 69.175v4.154a4.057 4.057 0 01-4.04-4.426c.227-2.52 4.04-2.257 4.04.272z" fill="#EDEEEF"/><path d="M123.718 73.328a4.057 4.057 0 01-4.057-4.056" stroke="#33373E" stroke-width="1.5"/><path d="M140.238 77.956a4.105 4.105 0 01-4.105-4.106" stroke="#00BC87" stroke-width="1.5" stroke-linecap="round" stroke-linejoin="round"/><path d="M150.833 86.478l-29.027 7.134" stroke="#33373E" stroke-width="1.5"/><path d="M142.859 75.017l-2.621.644" stroke="#33373E" stroke-width="1.5" stroke-linecap="round"/><path d="M96.653 135.571v63.383l89.791 22.07v-70.593c0-25.03-17.088-46.827-41.395-52.802a39.07 39.07 0 00-48.396 37.942z" fill="#00BC87"/><path d="M150.833 61.089c0-.988 10.715-18.498-15.621-18.863-26.336-.365-13.522 24.915-13.522 24.915" stroke="#33373E" stroke-width="1.5"/><path d="M123.718 64.16s3.854-5.746 4.127-8.072c0 0 18.842.274 21.938-4.104" stroke="#33373E" stroke-width="1.5"/><path d="M119.93 115.425l-12.878 67.067 4.742 12.403 11.924-10.214-.797-68.766 4.195-6.019h-10.032l2.846 5.529z" fill="#33373E"/><path d="M168.311 109.896s106.184 103.239-8.181 168.356L147.9 259.1l24.816-64.205-23.865-33.197M160.13 278.251l-23.761-37.209M103.617 113.283s-52.113 80.816-16.496 142.136" stroke="#33373E" stroke-width="1.5"/><path d="M217.165 29.49c-14.464-.026-26.209 11.678-26.235 26.141l52.376.093c.026-14.463-11.678-26.208-26.141-26.234zM271.72 40.845c-8.246-.015-14.943 6.658-14.957 14.904l29.861.053a14.932 14.932 0 00-14.904-14.957z" fill="#EDEEEF"/><path d="M243.355 28.34c-15.125-.027-27.407 12.211-27.434 27.336l54.77.097c.027-15.124-12.212-27.407-27.336-27.434zM88.331.927c11.645-.021 21.102 9.402 21.123 21.047l-42.17.075C67.261 10.404 76.685.947 88.33.927zM44.406 10.069c6.64-.012 12.03 5.36 12.043 12l-24.043.042a12.021 12.021 0 0112-12.042z" fill="#EDEEEF"/><path d="M67.244 0C79.42-.022 89.31 9.833 89.332 22.01l-44.098.078C45.212 9.912 55.066.023 67.244 0z" fill="#EDEEEF"/><path d="M239.967 358.344a32.456 32.456 0 01-8.607-12.989 30.702 30.702 0 00-57.737 0 32.458 32.458 0 01-8.608 12.989 30.7 30.7 0 00-6.836 36.287 30.7 30.7 0 0032.979 16.61 63.752 63.752 0 0122.667 0 30.694 30.694 0 0026.142-52.897z" fill="#00BC87"/><path d="M191.158 411.241a63.752 63.752 0 0122.667 0 30.717 30.717 0 0036.174-30.202M202.491 389.943v89.201M215.512 376.923l-13.02 13.021-13.021-13.021" stroke="#33373E" stroke-width="1.5"/></svg>