<svg width="574" height="542" fill="none" xmlns="http://www.w3.org/2000/svg"><path d="M84.388 38.668c-21.022-.038-38.094 16.922-38.132 37.88l76.129.135c.037-20.958-16.974-37.978-37.997-38.015zM163.682 55.12c-11.985-.02-21.718 9.649-21.74 21.598l43.403.077c.022-11.95-9.677-21.653-21.663-21.674z" fill="#EDEEEF"/><path d="M122.456 37c-21.984-.039-39.836 17.696-39.875 39.612l79.608.142c.039-21.917-17.75-39.715-39.733-39.754zM364.821 2.376c29.725-.053 53.866 24.115 53.919 53.98l-107.647.193c-.053-29.866 24.002-54.12 53.728-54.173zM252.697 25.822c16.948-.03 30.711 13.749 30.741 30.776l-61.372.11c-.031-17.028 13.684-30.855 30.631-30.886z" fill="#EDEEEF"/><path d="M310.993 0c31.085-.055 56.328 25.217 56.384 56.448l-112.568.2C254.754 25.419 279.908.057 310.993 0zM513.356 129.301H329.659V481.42h183.697z" fill="#EDEEEF"/><path d="M572.699 481.42H270.316" stroke="#33373E" stroke-width="1.5" stroke-linecap="round" stroke-linejoin="round"/><path d="M397.973 491.943l115.383-10.523V129.301l-115.383 10.523v352.119z" fill="#33373E"/><path d="M434.734 316.934a5.785 5.785 0 01-5.782-5.787 5.785 5.785 0 015.782-5.787 5.785 5.785 0 015.783 5.787 5.785 5.785 0 01-5.783 5.787z" fill="#EDEEEF"/><path d="M206.644 259.242s93.089 41.62 146.596 120.683h16.771l-32.744 37.535-103.819-69.48s-63.89-9.629-83.056-23.958c-19.167-14.329 11.371-68.265 11.371-68.265" fill="#E2E2E2"/><path d="M193.551 257.934l-62.343-4.271-11.336 4.617-5.327 272.26h57.905l-6.123-10.971 27.224-261.635zM146.564 127.001v9.84a16.529 16.529 0 0012.584 16.051l15.659 3.849v-38.474l-13.02-3.2a12.293 12.293 0 00-10.516 2.262 12.292 12.292 0 00-4.707 9.672z" fill="#EDEEEF"/><path d="M146.564 136.842a16.529 16.529 0 0012.584 16.051l15.659 3.849" stroke="#33373E" stroke-width="1.5" stroke-linecap="round" stroke-linejoin="round"/><path d="M162.519 134.889a.755.755 0 100-1.51.755.755 0 000 1.51zM150.92 134.889a.755.755 0 100-1.51.755.755 0 000 1.51z" fill="#33373E"/><path d="M154.323 138.639v-11.638" stroke="#33373E" stroke-width="1.5" stroke-linecap="round" stroke-linejoin="round"/><path d="M172.947 132.964v4.041a3.947 3.947 0 003.931-4.306c-.221-2.452-3.931-2.196-3.931.265z" fill="#EDEEEF"/><path d="M172.947 137.005a3.947 3.947 0 003.947-3.947" stroke="#33373E" stroke-width="1.5" stroke-linecap="round" stroke-linejoin="round"/><path d="M157.51 139.998a2.615 2.615 0 003.697 0" stroke="#00BC87" stroke-width="1.5" stroke-linecap="round" stroke-linejoin="round"/><path d="M154.322 138.648l2.55.627" stroke="#33373E" stroke-width="1.5" stroke-linecap="round" stroke-linejoin="round"/><path d="M206.644 197.568v61.674l-87.369 21.473v-68.687c0-24.356 16.628-45.564 40.279-51.378a38.02 38.02 0 0147.09 36.918z" fill="#00BC87"/><path d="M157.51 152.396s2.772 11.961-5.224 16.793a4.38 4.38 0 00-2.072 3.708c-.075 6.054-1.385 20.047-12.001 18.155-8.674-1.546-6.196-16.36-3.319-26.745a62.24 62.24 0 002.181-19.958c-.761-14.155 1.697-38.373 27.991-35.609 3.902.36 7.664 1.63 10.986 3.708 6.801 4.378 14.396 14.12-1.245 33.169" stroke="#33373E" stroke-width="1.5" stroke-linecap="round" stroke-linejoin="round"/><path d="M146.564 130.532s17.827 3.46 20.578-7.455c0 0 1.376 7.732 5.879 9.324M166.327 519.569l27.224-261.635M132.216 177.364s-68.939 65.585-55.628 103.351c13.311 37.766 89.246-17.607 86.686-34.113l-2.588-8.017s10.19-14.345 5.641-11.683c-4.549 2.662-45.191 19.168-45.191 19.168l14.02-17.57" stroke="#33373E" stroke-width="1.5" stroke-linecap="round" stroke-linejoin="round"/><path d="M118.771 287.596v26.977c17.158-11.009 35.277-51.756 35.277-51.756-8.564 8.914-21.932 18.679-35.277 24.779z" fill="#33373E"/><path d="M172.604 160.88s36.561-2.129 58.213 8.519l-12.778-38.415s-12.069-8.794-3.55-10.214c0 0-3.549-9.584-1.065-9.229 2.485.355 48.275 29.262 51.824 65.823 3.55 36.561-58.604 35.695-58.604 35.695" stroke="#33373E" stroke-width="1.5" stroke-linecap="round" stroke-linejoin="round"/></svg>