<?xml version="1.0" encoding="UTF-8"?>
<svg width="360px" height="131px" viewBox="0 0 360 131" version="1.1" xmlns="http://www.w3.org/2000/svg" xmlns:xlink="http://www.w3.org/1999/xlink">
    <!-- Generator: Sketch 52.6 (67491) - http://www.bohemiancoding.com/sketch -->
    <title>Group 3</title>
    <desc>Created with Sketch.</desc>
    <g id="ðŸ -Dashboard" stroke="none" stroke-width="1" fill="none" fill-rule="evenodd">
        <g id="future-feature" transform="translate(-339.000000, -329.000000)" fill-rule="nonzero">
            <g id="Group-8" transform="translate(339.000000, 310.000000)">
                <g id="Group-3" transform="translate(0.000000, 19.000000)">
                    <path d="M339.475583,130.488372 L3.31734557,130.488372 C1.48617082,130.488372 8.52651283e-14,129.002909 8.52651283e-14,127.172607 C8.52651283e-14,125.342305 1.48617082,123.856842 3.31734557,123.856842 L58.5362213,123.856842 C55.0861819,120.995337 52.3145396,117.347995 50.4933169,113.191683 L23.9711391,113.191683 C23.936307,113.191683 23.8981575,113.191683 23.860008,113.191683 L15.8950613,113.191683 C14.0638865,113.191683 12.5777157,111.706221 12.5777157,109.875918 C12.5777157,108.045616 14.0638865,106.560153 15.8950613,106.560153 L18.0364079,106.560153 L12.7452417,97.7932701 L1.90581503,92.6936233 C0.741426735,92.1465221 8.52651283e-14,90.9793727 8.52651283e-14,89.6945137 L8.52651283e-14,81.9571758 C8.52651283e-14,80.783395 0.620343622,79.6974819 1.63047535,79.1023021 L9.13431103,74.6757556 L12.8513967,66.129371 C13.2494782,65.2142198 14.0390065,64.5261986 15.0010367,64.2576216 L39.7434586,57.3492249 C39.9474754,57.2928569 40.1564681,57.2547256 40.3671196,57.2381468 L125.022461,50.3711972 L180.99935,28.3329643 C181.390797,28.1688339 181.803807,28.0859398 182.215158,28.0776504 L230.830857,26.4413203 L230.830857,19.0969006 L223.504499,19.0969006 C221.673324,19.0969006 220.187154,17.6114378 220.187154,15.7811354 C220.187154,13.9508331 221.673324,12.4653703 223.504499,12.4653703 L251.006953,12.4653703 C252.838127,12.4653703 254.324298,13.9508331 254.324298,15.7811354 C254.324298,17.6114378 252.838127,19.0969006 251.006953,19.0969006 L249.630254,19.0969006 L249.630254,26.1528488 L251.652176,26.600477 C251.701937,26.6104243 251.750038,26.6203716 251.79814,26.6336347 L262.547998,29.0093804 C262.606051,29.0209856 262.664105,29.0342486 262.7205,29.0475117 L272.845038,31.2856532 L283.769057,23.4737105 L283.769057,4.03669536 C283.769057,2.20639301 285.255228,0.720930233 287.086403,0.720930233 L299.388779,0.720930233 C301.219954,0.720930233 302.706125,2.20639301 302.706125,4.03669536 L302.706125,24.4037826 L307.068434,29.7222699 L329.501983,16.5752612 C330.341272,16.0828701 331.351404,15.9833971 332.270308,16.3050263 C333.187554,16.6249977 333.920688,17.3312556 334.272326,18.2364595 L336.654181,24.3656513 L352.320345,15.2622182 C353.23925,14.7267221 354.357195,14.6686962 355.327519,15.0947721 C356.297842,15.5241636 357.006096,16.3912362 357.230016,17.4290707 L359.92536,29.9179001 C359.97512,30.1483457 360,30.3821072 360,30.6175265 L360,47.763348 C360,48.1977132 359.915408,48.6271048 359.74954,49.0283124 L354.327339,62.1554265 L355.37562,69.3091898 L358.328058,70.9952563 C359.631775,71.7396456 360.272022,73.2682133 359.890528,74.7188606 L356.365848,88.0863677 C356.208274,88.6848633 355.884833,89.2269909 355.435332,89.6514088 L349.837312,94.9367384 C349.507236,95.2484203 349.114131,95.4904712 348.686193,95.6446543 L337.838473,99.5572571 C337.797006,99.5738359 337.753881,99.5887569 337.709096,99.6036778 L318.591234,106.502127 C317.075207,113.470208 313.165715,119.557952 307.771711,123.855184 L339.472266,123.855184 C341.30344,123.855184 342.789611,125.340647 342.789611,127.170949 C342.789611,129.001251 341.306758,130.488372 339.475583,130.488372 Z M288.809764,123.856842 C301.956405,123.856842 312.653185,113.165157 312.653185,100.02478 C312.653185,86.8844028 301.956405,76.1927182 288.809764,76.1927182 C275.663124,76.1927182 264.966343,86.8844028 264.966343,100.02478 C264.966343,103.043784 265.530292,105.933473 266.560327,108.594375 C266.58189,108.644111 266.600135,108.695506 266.62004,108.7469 C270.108228,117.585072 278.739962,123.856842 288.809764,123.856842 Z M95.2890928,123.856842 L269.844499,123.856842 C266.261766,121.001968 263.334209,117.357942 261.327215,113.191683 L134.272879,113.191683 C134.233071,113.193341 134.191604,113.193341 134.148479,113.191683 L103.330339,113.191683 C101.510774,117.347995 98.7374736,120.995337 95.2890928,123.856842 Z M76.9126571,123.856842 C86.6241862,123.856842 94.8976461,117.588388 97.8965265,108.886162 C97.9131132,108.83311 97.9313586,108.781716 97.949604,108.730321 C98.6943481,106.51539 99.0974056,104.146276 99.0974056,101.68432 C99.0974056,89.4574365 89.1453688,79.5101412 76.9126571,79.5101412 C64.6799453,79.5101412 54.7279086,89.4574365 54.7279086,101.68432 C54.7279086,104.126381 55.1243313,106.477259 55.8574647,108.675611 C55.8922968,108.763479 55.922153,108.851347 55.9486917,108.94253 C58.9625002,117.614914 67.221032,123.856842 76.9126571,123.856842 Z M205.214314,106.560153 L259.038246,106.560153 C258.575477,104.454642 258.331652,102.267895 258.331652,100.02478 C258.331652,91.8862345 261.541183,84.4837888 266.761027,79.0144343 L231.827719,79.7770603 L205.214314,106.560153 Z M136.956612,106.560153 L195.862717,106.560153 L222.268788,79.9859535 L132.242664,81.9522022 L136.956612,106.560153 Z M105.319087,106.560153 L130.202496,106.560153 L125.516746,82.0980958 L98.5599956,82.6866442 C103.023484,87.7614227 105.732097,94.4111896 105.732097,101.682663 C105.732097,103.343861 105.589451,104.975217 105.319087,106.560153 Z M25.7840684,106.560153 L48.5045683,106.560153 C48.2325459,104.975217 48.0915587,103.345519 48.0915587,101.682663 C48.0915587,85.7984897 61.0192544,72.876953 76.9109984,72.876953 C81.7808617,72.876953 86.372068,74.0905231 90.3993255,76.2308495 L124.659212,75.4831444 L122.808133,57.2033313 L41.2213361,63.8232563 L18.3067715,70.2210252 L14.7887266,78.3065184 C14.5100695,78.948119 14.0356891,79.483615 13.4335909,79.8400598 L6.63303247,83.8521356 L6.63303247,87.5906608 L16.4772554,92.2211268 C17.0694016,92.499651 17.5670035,92.9472793 17.9053727,93.5076436 L25.7840684,106.560153 Z M288.809764,69.5611879 C305.341756,69.5611879 318.841694,82.7861171 319.277924,99.2074439 L333.061495,94.2337962 L331.605181,81.234339 C330.513774,71.4859896 322.35808,64.2161745 312.576886,64.2161745 C312.482342,64.2161745 312.391115,64.2161745 312.296571,64.2178324 L259.461208,64.9688532 C254.506752,64.9904057 250.268843,61.2120913 249.86081,56.2566803 L247.906893,32.5622227 L247.668044,32.5091705 L247.34792,32.5191178 C246.850319,32.6832482 246.279735,32.7263531 245.752277,32.6351696 L245.752277,53.0868089 C245.758912,53.3918593 245.722421,53.7002254 245.641146,54.0036179 C245.574799,54.2539582 245.478596,54.4943512 245.357513,54.7181653 L235.919665,73.0526886 L276.477532,72.1673793 C280.246036,70.4929179 284.420916,69.5611879 288.809764,69.5611879 Z M312.578545,57.5829864 C325.748407,57.5829864 336.728821,67.371125 338.198405,80.4949234 L339.477242,91.9177343 L345.785174,89.6414615 L350.192268,85.4801763 L352.82624,75.4897759 L350.683235,74.2662586 C349.797504,73.7606044 349.195405,72.876953 349.046125,71.8689604 L347.636253,62.2515837 C347.631277,62.2250576 347.62796,62.1985314 347.624642,62.1720053 L346.476841,54.341826 L332.023166,51.1470863 C330.886975,53.3338334 328.996088,54.9966896 326.413535,54.9966896 C323.738096,54.9966896 264.83199,54.6170345 262.325736,54.6004557 C260.531052,54.5888505 259.07142,53.1531242 259.029953,51.3592952 L258.660069,34.9379685 L254.68423,34.0592907 L256.470621,55.7095791 C256.595021,57.2033313 257.842343,58.3970067 259.365005,58.3340072 L312.200368,57.5829864 C312.326427,57.5846443 312.452486,57.5829864 312.578545,57.5829864 Z M129.336669,55.8007626 L131.315466,75.3389086 L228.371045,73.2201347 L236.840228,56.7673082 L143.926355,61.6447987 C142.456771,61.7094561 141.096659,60.8125416 140.615644,59.4132887 C140.13297,58.0140358 140.637207,56.4655735 141.851355,55.6167377 L157.373215,44.7625805 L129.336669,55.8007626 Z M183.376228,34.6727072 L155.143959,54.4147728 L239.114269,50.0048052 L239.114269,32.7976421 L183.376228,34.6727072 Z M330.624905,44.0480331 L350.142508,48.3618436 C351.029898,48.5574737 351.774642,49.1012592 352.237411,49.8390169 L353.365309,47.1084843 L353.365309,30.9739712 L351.706636,23.2913434 L336.687354,32.0184373 C336.652522,32.0383318 336.619348,32.0582264 336.584516,32.078121 L320.014375,41.707103 L330.502163,44.0248228 C330.545289,44.0297964 330.585097,44.0380858 330.624905,44.0480331 Z M265.590004,47.9921358 C275.452472,48.0551353 305.360001,48.2474497 319.25802,48.3286859 L310.317774,46.3541478 C310.294553,46.3491741 310.271331,46.3442005 310.24811,46.3392268 L265.327933,36.4151418 L265.590004,47.9921358 Z M281.558047,33.2071391 L310.452127,39.5916448 L330.847167,27.7411002 L329.498666,24.2678363 L307.979045,36.8776911 C306.569174,37.7033166 304.771172,37.3800295 303.734502,36.1183808 L296.822812,27.6913638 C296.336821,27.0978418 296.071434,26.3551104 296.071434,25.5891687 L296.071434,7.35246048 L290.403749,7.35246048 L290.403749,25.174698 C290.403749,26.2456902 289.886243,27.2487091 289.017098,27.8704151 L281.558047,33.2071391 Z M237.467207,19.0952427 L237.467207,26.2158483 L242.270723,26.0550337 C242.302238,26.0533758 242.332094,26.0533758 242.36195,26.0517179 L242.995563,26.0301654 L242.995563,19.0935848 L237.467207,19.0935848 L237.467207,19.0952427 Z" id="Combined-Shape" fill="#5C5F65"></path>
                    <path d="M118.738745,33 L102.261255,33 C100.461042,33 99,31.432 99,29.5 C99,27.568 100.461042,26 102.261255,26 L118.738745,26 C120.538958,26 122,27.568 122,29.5 C122,31.432 120.540588,33 118.738745,33 Z" id="Path" fill="#ADAFB2"></path>
                    <g id="Group-2" transform="translate(1.674419, 77.744186)">
                        <path d="M26.3205627,15.0697674 L3.81706369,15.0697674 C1.71004453,15.0697674 0,13.7699492 0,12.1683875 L0,2.90137995 C0,1.29981822 1.71004453,0 3.81706369,0 L26.3224712,0 C28.4294904,0 30.1395349,1.29981822 30.1395349,2.90137995 L30.1395349,12.1683875 C30.1376264,13.7713999 28.4294904,15.0697674 26.3205627,15.0697674 Z" id="Combined-Shape" fill="#5C5F65"></path>
                        <rect id="Rectangle" fill="#FFFFFF" x="5.02325581" y="5.02325581" width="20.0930233" height="5.02325581" rx="1"></rect>
                    </g>
                    <path d="M288.837209,119.604651 C278.220949,119.604651 269.581395,110.966762 269.581395,100.348837 C269.581395,89.730912 278.219284,81.0930233 288.837209,81.0930233 C299.455135,81.0930233 308.093023,89.730912 308.093023,100.348837 C308.093023,110.966762 299.453469,119.604651 288.837209,119.604651 Z M288.837209,87.7558713 C281.892926,87.7558713 276.242578,93.4062195 276.242578,100.350503 C276.242578,107.294785 281.892926,112.945134 288.837209,112.945134 C295.781492,112.945134 301.431841,107.294785 301.431841,100.350503 C301.431841,93.4062195 295.781492,87.7558713 288.837209,87.7558713 Z" id="Combined-Shape" fill="#ADAFB2"></path>
                    <path d="M77.0232558,118.767442 C67.7916016,118.767442 60.2790698,111.256185 60.2790698,102.022434 C60.2790698,92.7886831 67.7899581,85.2790698 77.0232558,85.2790698 C86.2565535,85.2790698 93.7674419,92.7903267 93.7674419,102.024078 C93.7674419,111.257829 86.25491,118.767442 77.0232558,118.767442 Z M77.0232558,91.8534741 C71.4155641,91.8534741 66.8531515,96.4161107 66.8531515,102.024078 C66.8531515,107.632045 71.4155641,112.194681 77.0232558,112.194681 C82.6309475,112.194681 87.1933602,107.632045 87.1933602,102.024078 C87.1933602,96.4161107 82.629304,91.8534741 77.0232558,91.8534741 Z" id="Combined-Shape" fill="#ADAFB2"></path>
                </g>
            </g>
        </g>
    </g>
</svg>