<svg width="24" height="24" viewBox="0 0 24 24" fill="none" xmlns="http://www.w3.org/2000/svg">
<path fill-rule="evenodd" clip-rule="evenodd" d="M18 12C18 15.3137 15.3137 18 12 18C10.7206 18 9.53481 17.5996 8.56099 16.9173L16.9173 8.56099C17.5996 9.53481 18 10.7206 18 12ZM7.13601 15.5138L15.5138 7.13601C14.5262 6.42129 13.3123 6 12 6C8.68629 6 6 8.68629 6 12C6 13.3123 6.42129 14.5262 7.13601 15.5138ZM20 12C20 16.4183 16.4183 20 12 20C7.58172 20 4 16.4183 4 12C4 7.58172 7.58172 4 12 4C16.4183 4 20 7.58172 20 12Z" fill="#5C5F65"/>
</svg>
