<svg width="24" height="16" viewBox="0 0 24 16" fill="none" xmlns="http://www.w3.org/2000/svg">
<path fill-rule="evenodd" clip-rule="evenodd" d="M19 3.50003H15.5L14.7764 2.05275C14.6069 1.714 14.2607 1.50003 13.8818 1.50003H10.1182C9.73925 1.50003 9.39306 1.71403 9.22363 2.05278L8.885 2.73003L6.74316 0.331064C6.3745 -0.0793426 5.74169 -0.112811 5.33103 0.256595C4.92037 0.62622 4.88719 1.25856 5.25681 1.66897L17.7566 15.669C17.9538 15.8885 18.2263 16 18.5002 16C18.7385 16 18.9778 15.9153 19.1687 15.7434C19.5793 15.3738 19.6125 14.7413 19.2429 14.3309L18.5012 13.5H19C19.5522 13.5 20 13.0525 20 12.5002V4.50006C20 3.94781 19.5522 3.50003 19 3.50003ZM11.4123 5.56063C11.6025 5.52253 11.7986 5.50006 12 5.50006C13.6567 5.50006 15 6.84322 15 8.50013C15 8.81959 14.9451 9.125 14.8523 9.41347L11.4123 5.56063ZM4.49169 3.64338L9.00731 8.64285C9.07519 10.0832 10.156 11.2548 11.5549 11.4635L13.3945 13.5H5C4.44775 13.5 4 13.0525 4 12.5002V4.50006C4 4.13435 4.19847 3.81769 4.49169 3.64338Z" fill="#85878B"/>
</svg>
