<?xml version="1.0" encoding="UTF-8"?>
<svg width="80px" height="80px" viewBox="0 0 80 80" version="1.1" xmlns="http://www.w3.org/2000/svg" xmlns:xlink="http://www.w3.org/1999/xlink">
    <!-- Generator: Sketch 51.1 (57501) - http://www.bohemiancoding.com/sketch -->
    <title>image_placeholder</title>
    <desc>Created with Sketch.</desc>
    <defs></defs>
    <g id="image_placeholder" stroke="none" stroke-width="1" fill="none" fill-rule="evenodd">
        <circle id="Oval-2" fill="#B3F3D3" fill-rule="nonzero" cx="40" cy="40" r="40"></circle>
        <rect id="Rectangle-9-Copy" fill="#66E6A7" fill-rule="nonzero" x="21" y="18" width="40" height="48" rx="1"></rect>
        <rect id="Rectangle-9-Copy" fill="#FFFFFF" fill-rule="nonzero" x="19" y="16" width="40" height="48" rx="1"></rect>
        <path d="M20,16 L58,16 C58.5522847,16 59,16.4477153 59,17 L59,63 C59,63.5522847 58.5522847,64 58,64 L20,64 C19.4477153,64 19,63.5522847 19,63 L19,17 C19,16.4477153 19.4477153,16 20,16 Z M21,18 L21,62 L57,62 L57,18 L21,18 Z" id="Combined-Shape" fill="#00D66C" fill-rule="nonzero"></path>
        <polygon id="Combined-Shape" fill="#00D66C" fill-rule="nonzero" points="37.7142857 48.765 43.9642857 42 52 51 27 51 33.25 44.25"></polygon>
        <circle id="Oval" fill-opacity="0.523324275" fill="#00D66C" fill-rule="nonzero" cx="34.5" cy="33.5" r="3.5"></circle>
    </g>
</svg>