<?xml version="1.0" encoding="UTF-8"?>
<svg width="80px" height="90px" viewBox="0 0 80 90" version="1.1" xmlns="http://www.w3.org/2000/svg" xmlns:xlink="http://www.w3.org/1999/xlink">
    <!-- Generator: Sketch 51.1 (57501) - http://www.bohemiancoding.com/sketch -->
    <title>image_placeholder copy</title>
    <desc>Created with Sketch.</desc>
    <defs></defs>
    <g id="image_placeholder-copy" stroke="none" stroke-width="1" fill="none" fill-rule="evenodd">
        <circle id="Oval-2" fill="#EBEBEC" fill-rule="nonzero" cx="40" cy="40" r="40"></circle>
        <path d="M20,16 L49,16 L58.7071068,25.7071068 C58.8946432,25.8946432 59,26.1489971 59,26.4142136 L59,63 C59,63.5522847 58.5522847,64 58,64 L20,64 C19.4477153,64 19,63.5522847 19,63 L19,17 C19,16.4477153 19.4477153,16 20,16 Z" id="Rectangle-9-Copy" fill="#FFFFFF" fill-rule="nonzero"></path>
        <path d="M20,16 L49,16 L58.7071068,25.7071068 C58.8946432,25.8946432 59,26.1489971 59,26.4142136 L59,63 C59,63.5522847 58.5522847,64 58,64 L20,64 C19.4477153,64 19,63.5522847 19,63 L19,17 C19,16.4477153 19.4477153,16 20,16 Z M21,18 L21,62 L57,62 L57,27 L48,27 L48,18 L21,18 Z" id="Combined-Shape" fill="#00D66C" fill-rule="nonzero"></path>
        <polygon id="Combined-Shape" fill="#00D66C" fill-rule="nonzero" points="37.7142857 48.765 43.9642857 42 52 51 27 51 33.25 44.25"></polygon>
        <circle id="Oval" fill-opacity="0.523324275" fill="#00D66C" fill-rule="nonzero" cx="34.5" cy="33.5" r="3.5"></circle>
        <polygon id="Mask" fill="#00D66C" fill-rule="nonzero" points="36.9 86 42.75 86 42.75 80 46.65 80 39.825 73 33 80 36.9 80"></polygon>
        <polygon id="Mask" fill="#00D66C" fill-rule="nonzero" points="33 88 46.65 88 46.65 90 33 90"></polygon>
    </g>
</svg>