<svg width="24" height="24" viewBox="0 0 24 24" fill="none" xmlns="http://www.w3.org/2000/svg">
<g clip-path="url(#clip0)">
<path d="M2362 -426H2262V-326H2362V-426Z" fill="#5C5F65"/>
<path d="M6 6H4V22H20V20H6V6Z" fill="#5C5F65"/>
<path d="M-2324.5 433V444.5C-2324.5 446.71 -2326.29 448.5 -2328.5 448.5C-2330.71 448.5 -2332.5 446.71 -2332.5 444.5V432C-2332.5 430.62 -2331.38 429.5 -2330 429.5C-2328.62 429.5 -2327.5 430.62 -2327.5 432V442.5C-2327.5 443.05 -2327.95 443.5 -2328.5 443.5C-2329.05 443.5 -2329.5 443.05 -2329.5 442.5V433H-2331V442.5C-2331 443.88 -2329.88 445 -2328.5 445C-2327.12 445 -2326 443.88 -2326 442.5V432C-2326 429.79 -2327.79 428 -2330 428C-2332.21 428 -2334 429.79 -2334 432V444.5C-2334 447.54 -2331.54 450 -2328.5 450C-2325.46 450 -2323 447.54 -2323 444.5V433H-2324.5Z" fill="#5C5F65"/>
<path fill-rule="evenodd" clip-rule="evenodd" d="M21 7L16 2H8V18H21V7ZM20 9H14V3L20 9Z" fill="#5C5F65"/>
</g>
<defs>
<clipPath id="clip0">
<path d="M0 0H24V24H0V0Z" fill="white"/>
</clipPath>
</defs>
</svg>
