<svg width="24" height="24" viewBox="0 0 24 24" fill="none" xmlns="http://www.w3.org/2000/svg">
<path d="M14.39 11L16 12.61V11H14.39ZM17 6.99999H13V8.89999H17C18.71 8.89999 20.1 10.29 20.1 12C20.1 13.27 19.33 14.37 18.23 14.84L19.63 16.24C21.05 15.36 22 13.79 22 12C22 9.23999 19.76 6.99999 17 6.99999ZM2 4.26999L5.11 7.37999C3.29 8.11999 2 9.90999 2 12C2 14.76 4.24 17 7 17H11V15.1H7C5.29 15.1 3.9 13.71 3.9 12C3.9 10.41 5.11 9.09999 6.66 8.92999L8.73 11H8V13H10.73L13 15.27V17H14.73L18.74 21.01L20.15 19.6L3.41 2.85999L2 4.26999Z" fill="#5C5F65"/>
</svg>
