<?xml version="1.0" encoding="UTF-8"?>
<svg width="168px" height="168px" viewBox="0 0 168 168" version="1.1" xmlns="http://www.w3.org/2000/svg" xmlns:xlink="http://www.w3.org/1999/xlink">
    <!-- Generator: Sketch 52.6 (67491) - http://www.bohemiancoding.com/sketch -->
    <title>Group</title>
    <desc>Created with Sketch.</desc>
    <g id="ðŸ -Dashboard" stroke="none" stroke-width="1" fill="none" fill-rule="evenodd">
        <g id="500-internal-server-error" transform="translate(-425.000000, -212.000000)" fill-rule="nonzero">
            <g id="Group-5" transform="translate(425.000000, 212.000000)">
                <g id="Group-3">
                    <g id="Group">
                        <path d="M84,159.903614 C125.920409,159.903614 159.903614,125.920409 159.903614,84 C159.903614,42.0795913 125.920409,8.09638554 84,8.09638554 C42.0795913,8.09638554 8.09638554,42.0795913 8.09638554,84 C8.09638554,125.920409 42.0795913,159.903614 84,159.903614 Z M84,168 C37.608081,168 0,130.391919 0,84 C0,37.608081 37.608081,0 84,0 C130.391919,0 168,37.608081 168,84 C168,130.391919 130.391919,168 84,168 Z" id="Oval" fill="#ADAFB2"></path>
                        <g id="Group-2" transform="translate(51.000000, 48.000000)" fill="#5C5F65">
                            <rect id="Rectangle-Copy-2" x="0" y="0" width="16" height="36"></rect>
                            <rect id="Rectangle-Copy-4" x="51" y="0" width="16" height="36"></rect>
                            <path d="M33,54 L33,54 C41.2842712,54 48,60.7157288 48,69 L48,78 L18,78 L18,69 C18,60.7157288 24.7157288,54 33,54 Z" id="Rectangle-Copy-3"></path>
                        </g>
                    </g>
                </g>
            </g>
        </g>
    </g>
</svg>