<svg width="551" height="347" viewBox="0 0 551 347" fill="none" xmlns="http://www.w3.org/2000/svg">
    <path d="M142.811 139.777C142.811 139.777 182.562 252.8 184.986 325.496L193.725 331.156L161.066 345.575L120.385 253.008L114.5 179.1L116.508 130.03" fill="#E2E2E2"/>
    <path d="M132.036 142.427C132.036 142.427 140.19 275.502 117.162 338.509L121.972 345.576H81.0137C81.0137 345.576 76.5391 176.312 76.5391 139.778L132.036 142.427Z" fill="#EDEEEF"/>
    <path d="M120.385 39.4651V56.7591L98.9609 62.025V32.8397L120.385 27.5742V39.4651Z" fill="#EDEEEF"/>
    <path d="M108.28 45.4484C108.596 45.4484 108.853 45.1919 108.853 44.8756C108.853 44.5592 108.596 44.3027 108.28 44.3027C107.963 44.3027 107.707 44.5592 107.707 44.8756C107.707 45.1919 107.963 45.4484 108.28 45.4484Z" fill="#33393F"/>
    <path d="M117.081 45.4484C117.397 45.4484 117.653 45.1919 117.653 44.8756C117.653 44.5592 117.397 44.3027 117.081 44.3027C116.764 44.3027 116.508 44.5592 116.508 44.8756C116.508 45.1919 116.764 45.4484 117.081 45.4484Z" fill="#33393F"/>
    <path d="M114.5 48.2926V39.4648H118.923" stroke="#33393F" stroke-width="1.5" stroke-linecap="round" stroke-linejoin="round"/>
    <path d="M107.203 39.4646H111.626" stroke="#33393F" stroke-width="1.5" stroke-linecap="round" stroke-linejoin="round"/>
    <path d="M100.373 43.9872V47.0528C98.7195 47.0528 97.3789 45.7122 97.3789 44.0586C97.3789 43.9667 97.383 43.8758 97.3911 43.786C97.5589 41.9267 100.373 42.1203 100.373 43.9872Z" fill="#EDEEEF"/>
    <path d="M100.373 47.0538C98.7195 47.0538 97.3789 45.7132 97.3789 44.0596" stroke="#33393F" stroke-width="1.5" stroke-linecap="round" stroke-linejoin="round"/>
    <path d="M112.566 50.469C110.892 50.469 109.535 49.1122 109.535 47.4385" stroke="#00BC87" stroke-width="1.5" stroke-linecap="round" stroke-linejoin="round"/>
    <path d="M120.385 56.7588L98.9609 62.0245" stroke="#33393F" stroke-width="1.5" stroke-linecap="round" stroke-linejoin="round"/>
    <path d="M114.501 48.2988L112.566 48.7742" stroke="#33393F" stroke-width="1.5" stroke-linecap="round" stroke-linejoin="round"/>
    <path d="M142.814 92.9943V139.778L76.5391 156.067V103.963C76.5391 85.4878 89.1519 69.3996 107.093 64.99H107.093C115.697 62.8753 124.796 64.833 131.768 70.2995C138.741 75.7659 142.814 84.1342 142.814 92.9943V92.9943Z" fill="#00BC87"/>
    <path d="M132.031 142.428C132.031 142.428 140.184 275.503 117.156 338.509" stroke="#33393F" stroke-width="1.5" stroke-linecap="round" stroke-linejoin="round"/>
    <path d="M120.385 33.7039L123.033 26.333C123.033 26.333 100.92 23.4048 95.2656 34.9156L98.3246 42.5671" stroke="#33393F" stroke-width="1.5" stroke-linecap="round" stroke-linejoin="round"/>
    <path d="M100.316 43.5574C100.316 43.5574 103.715 40.3349 104.321 36.1614L117.656 34.5459" stroke="#33393F" stroke-width="1.5" stroke-linecap="round" stroke-linejoin="round"/>
    <path d="M98.8746 67.9887C98.8746 67.9887 81.0145 76.6981 61.725 99.0333C61.725 99.0333 61.0363 59.4523 56.9974 54.6056C52.9586 49.759 52.1508 54.6056 52.1508 54.6056C52.1508 54.6056 38.8821 46.2255 37.8669 52.4516C36.8517 58.6776 43.4507 65.5304 43.4507 65.5304C43.4507 65.5304 29.7456 115.057 42.2884 130.031C54.8313 145.006 100.315 120.099 100.315 120.099" stroke="#33393F" stroke-width="1.5" stroke-linecap="round" stroke-linejoin="round"/>
    <path d="M125.297 66.4629C126.685 67.1047 143.026 75.0687 152.181 90.6857" stroke="#33393F" stroke-width="1.5" stroke-linecap="round" stroke-linejoin="round"/>
    <path d="M142.809 118.958C142.809 118.958 158.641 126.497 166.718 120.304C174.796 114.111 168.872 60.5288 168.872 60.5288C168.872 60.5288 179.912 51.0799 177.489 50.1499C175.065 49.22 163.487 50.4689 163.487 50.4689C163.487 50.4689 160.256 44.9864 158.102 50.4689C155.948 55.9515 146.252 79.6872 146.927 83.3017" stroke="#33393F" stroke-width="1.5" stroke-linecap="round" stroke-linejoin="round"/>
    <path d="M93.0525 123.737C93.0525 123.737 92.1347 139.018 76.6523 153.423V130.46C76.6523 130.46 91.2216 124.613 93.0525 123.737Z" fill="#33393F"/>
    <path d="M86.384 300.9C84.6219 295.966 79.4598 302.483 79.4598 302.483C79.4598 302.483 85.6792 289.27 79.4598 286.275C76.3919 284.797 74.7774 286.535 73.9285 288.676C77.1107 269.465 77.7974 232.411 64.9531 231.121C50.923 229.711 55.7235 265.306 55.7235 265.306C55.7235 265.306 51.8469 255.085 46.9132 259.667C41.9796 264.248 51.4944 294.204 51.4944 294.204C50.4372 291.032 44.7984 288.565 42.6839 294.204C40.5694 299.843 48.6751 311.825 48.6751 311.825L76.5163 316.406C76.5163 316.406 88.1461 305.834 86.384 300.9Z" fill="#33393F"/>
    <path d="M84.3109 346.011H44.4447L35.6289 310.387H93.1266L84.3109 346.011Z" fill="#00BC87"/>
    <path d="M0 346.011H132.944" stroke="#33393F" stroke-width="1.5"/>
    <path d="M35.6289 310.386H93.1266" stroke="#33393F" stroke-width="1.5"/>
    <rect x="215" width="113.869" height="133.918" fill="#33393F"/>
    <rect x="226.746" y="13.8164" width="90.3731" height="106.285" fill="#EDEEEF"/>
    <path d="M257.609 44.5312V67.7663L286.354 74.8408V35.6302L257.609 28.5557V44.5312Z" fill="#EDEEEF"/>
    <path d="M273.847 52.5705C274.271 52.5705 274.615 52.2259 274.615 51.8009C274.615 51.3758 274.271 51.0312 273.847 51.0312C273.422 51.0312 273.078 51.3758 273.078 51.8009C273.078 52.2259 273.422 52.5705 273.847 52.5705Z" fill="#33393F"/>
    <path d="M262.042 52.5705C262.466 52.5705 262.811 52.2259 262.811 51.8009C262.811 51.3758 262.466 51.0312 262.042 51.0312C261.618 51.0312 261.273 51.3758 261.273 51.8009C261.273 52.2259 261.618 52.5705 262.042 52.5705Z" fill="#33393F"/>
    <path d="M284.461 50.6085V54.7272C286.68 54.7272 288.478 52.9262 288.478 50.7045C288.478 50.581 288.473 50.459 288.462 50.3383C288.237 47.8403 284.461 48.1003 284.461 50.6085Z" fill="#EDEEEF"/>
    <path d="M284.461 54.7269C286.68 54.7269 288.478 52.9258 288.478 50.7041" stroke="#33393F" stroke-width="1.5" stroke-linecap="round" stroke-linejoin="round"/>
    <path d="M265.508 56.3905V44.5303H259.574" stroke="#33393F" stroke-width="1.5" stroke-linecap="round" stroke-linejoin="round"/>
    <path d="M275.297 44.5305H269.363" stroke="#33393F" stroke-width="1.5" stroke-linecap="round" stroke-linejoin="round"/>
    <path d="M258.65 42.5881H258.65" stroke="#33393F" stroke-width="1.5" stroke-linecap="round" stroke-linejoin="round"/>
    <path d="M280.988 73.5195L286.355 74.8404" stroke="#33393F" stroke-width="1.5" stroke-linecap="round" stroke-linejoin="round"/>
    <path d="M265.508 56.4004L268.103 57.0391" stroke="#33393F" stroke-width="1.5" stroke-linecap="round" stroke-linejoin="round"/>
    <path d="M267.633 59.6195C268.613 60.0708 269.731 60.1139 270.743 59.7393C271.754 59.3647 272.575 58.6031 273.026 57.6221" stroke="#00BC87" stroke-width="1.5" stroke-linecap="round" stroke-linejoin="round"/>
    <path d="M236.527 116.448V123.389L325.448 127.534V131.185C325.448 106.363 308.525 84.7483 284.454 78.8239L284.453 78.8239C260.071 72.823 236.527 91.3058 236.527 116.448V116.448Z" fill="#33393F"/>
    <path d="M257.612 51.0312C257.612 51.0312 251.842 67.9731 259.574 73.5204C267.307 79.0677 290.299 75.8358 284.062 53.0989" stroke="#33393F" stroke-width="1.5" stroke-linecap="round" stroke-linejoin="round"/>
    <path d="M261.027 56.7031C261.027 56.7031 260.271 58.1069 261.933 58.4785C263.595 58.8501 266.108 55.5739 268.282 57.3575C268.282 57.3575 268.769 54.8402 274.183 56.3459C279.597 57.8516 277.738 54.2725 277.738 54.2725" stroke="#33393F" stroke-width="1.5" stroke-linecap="round" stroke-linejoin="round"/>
    <path d="M255.543 36.3438C255.543 36.3438 257.492 44.7377 275.297 39.7507C275.297 39.7507 276.374 44.3223 279.439 44.53C282.503 44.7377 282.376 47.8065 282.376 47.8065" stroke="#33393F" stroke-width="1.5" stroke-linecap="round" stroke-linejoin="round"/>
    <path d="M257.611 44.5303C257.611 44.5303 239.026 28.476 260.855 27.662C282.685 26.8481 294.503 33.6262 286.471 48.596" stroke="#33393F" stroke-width="1.5" stroke-linecap="round" stroke-linejoin="round"/>
    <path d="M246.353 90.6465L220.844 108.32" stroke="#33393F" stroke-width="1.5" stroke-linecap="round" stroke-linejoin="round"/>
    <path d="M297.073 117.091L296.904 113.944C296.896 113.851 296.968 113.765 297.12 113.686C297.273 113.606 297.428 113.56 297.586 113.546C297.753 113.531 297.84 113.56 297.847 113.635C297.863 113.811 297.885 114.33 297.915 115.189C297.954 116.048 297.995 116.714 298.037 117.188C298.079 117.653 298.138 118.05 298.214 118.381C298.223 118.38 298.306 118.368 298.464 118.345C298.62 118.312 298.759 118.29 298.879 118.279C299 118.259 299.134 118.247 299.284 118.243C299.592 118.235 299.754 118.309 299.768 118.467C299.788 118.69 299.674 118.832 299.426 118.891C299.188 118.959 298.958 119.003 298.735 119.023C298.511 119.034 298.371 119.042 298.315 119.047C298.507 120.454 298.61 121.246 298.626 121.422C298.641 121.599 298.655 121.748 298.666 121.869C298.685 121.979 298.691 122.054 298.685 122.092C298.689 122.129 298.681 122.195 298.661 122.291C298.65 122.376 298.623 122.439 298.58 122.481C298.448 122.586 298.281 122.648 298.076 122.666C297.881 122.684 297.78 122.655 297.773 122.581C297.683 121.567 297.543 120.423 297.354 119.146C297.306 119.132 297.143 119.137 296.864 119.162L294.734 119.394C293.581 119.497 292.994 119.428 292.973 119.186C292.971 119.167 292.974 119.144 292.98 119.115C293.309 117.755 293.517 116.673 293.604 115.869C293.7 115.054 293.829 114.499 293.99 114.204C294.153 113.927 294.35 113.773 294.581 113.743C294.758 113.728 294.882 113.749 294.953 113.809C295.024 113.868 295.044 113.941 295.014 114.028C294.773 114.677 294.557 115.573 294.369 116.714C294.18 117.855 294.062 118.531 294.015 118.741L297.267 118.48C297.169 117.907 297.104 117.445 297.073 117.091ZM301.628 113.804C301.858 113.446 302.178 113.145 302.588 112.903C303.006 112.65 303.493 112.499 304.051 112.449C305.148 112.351 306.121 112.752 306.969 113.65C307.826 114.539 308.313 115.639 308.43 116.95C308.507 117.805 308.394 118.64 308.091 119.454C307.798 120.258 307.32 120.942 306.658 121.507C305.996 122.072 305.205 122.396 304.285 122.478C303.374 122.559 302.617 122.214 302.014 121.443C301.42 120.663 301.048 119.44 300.9 117.776C300.752 116.112 300.994 114.788 301.628 113.804ZM304.305 121.759C304.993 121.698 305.591 121.415 306.099 120.91C306.615 120.396 306.983 119.787 307.201 119.083C307.428 118.37 307.512 117.687 307.454 117.037C307.395 116.377 307.185 115.754 306.824 115.167C306.471 114.571 306.01 114.087 305.443 113.716C304.876 113.345 304.304 113.185 303.728 113.237C303.319 113.273 302.969 113.445 302.678 113.752C302.396 114.058 302.195 114.437 302.076 114.888C301.835 115.762 301.756 116.655 301.837 117.566C301.883 118.086 301.973 118.622 302.107 119.172C302.239 119.713 302.387 120.159 302.549 120.51C302.711 120.852 302.944 121.154 303.249 121.418C303.563 121.68 303.915 121.794 304.305 121.759ZM313.632 115.614L313.464 112.467C313.455 112.374 313.527 112.288 313.68 112.209C313.832 112.129 313.987 112.083 314.145 112.069C314.312 112.054 314.399 112.083 314.406 112.158C314.422 112.334 314.445 112.852 314.474 113.712C314.513 114.57 314.554 115.237 314.596 115.711C314.638 116.176 314.697 116.573 314.773 116.904C314.782 116.903 314.866 116.891 315.023 116.868C315.179 116.835 315.318 116.813 315.439 116.802C315.559 116.782 315.694 116.77 315.843 116.766C316.152 116.758 316.313 116.832 316.327 116.99C316.347 117.213 316.233 117.355 315.985 117.414C315.748 117.482 315.517 117.526 315.294 117.546C315.07 117.557 314.93 117.565 314.875 117.57C315.066 118.977 315.169 119.769 315.185 119.945C315.201 120.122 315.214 120.271 315.225 120.392C315.244 120.502 315.251 120.577 315.245 120.615C315.248 120.652 315.24 120.718 315.22 120.814C315.209 120.899 315.182 120.962 315.139 121.004C315.008 121.109 314.84 121.171 314.635 121.189C314.44 121.207 314.339 121.178 314.333 121.104C314.242 120.09 314.103 118.946 313.914 117.669C313.866 117.655 313.702 117.66 313.423 117.685L311.293 117.917C310.141 118.02 309.553 117.951 309.532 117.709C309.53 117.69 309.533 117.667 309.54 117.638C309.868 116.278 310.076 115.196 310.164 114.392C310.26 113.577 310.388 113.022 310.549 112.727C310.712 112.45 310.909 112.296 311.141 112.266C311.317 112.251 311.441 112.272 311.512 112.332C311.583 112.391 311.603 112.464 311.574 112.551C311.332 113.2 311.117 114.096 310.928 115.237C310.739 116.378 310.621 117.054 310.575 117.264L313.826 117.003C313.728 116.43 313.664 115.968 313.632 115.614Z" fill="#EDEEEF"/>
    <path d="M400.916 152.021C400.916 152.021 378.007 230.927 368.16 326.046L361 330.794L392.254 345.649L432.191 236.327L438.639 148.04" fill="#E2E2E2"/>
    <path d="M520.827 343.739C520.827 343.739 525.04 336.279 514.345 334.658C503.651 333.036 495.549 336.928 495.549 336.928C495.549 336.928 503.002 327.847 491.336 323.955C479.669 320.063 467.678 329.144 467.678 329.144C467.678 329.144 479.345 307.414 470.271 305.793C461.197 304.171 456.336 313.576 456.336 313.576C456.336 313.576 457.308 286.658 438.512 286.009C419.715 285.36 421.66 320.387 421.66 320.387C421.66 320.387 413.558 304.82 399.947 304.171C386.336 303.522 393.141 330.248 393.141 330.248C393.141 330.248 390.549 323.955 381.475 323.306C372.401 322.658 373.049 330.269 373.049 330.269C373.049 330.269 361.382 313.901 348.419 314.874C335.456 315.847 340.965 332.063 340.965 332.063C327.678 331.09 324.762 345.664 324.762 345.664H530.225L520.827 343.739Z" fill="#33393F"/>
    <path d="M410.355 151.087L454.989 148.039L463.105 151.334L466.919 345.649H425.462L429.846 337.818L410.355 151.087Z" fill="#EDEEEF"/>
    <path d="M419.75 57.6402V64.6634C419.75 70.0941 423.469 74.8231 428.759 76.1192L439.97 78.8662V51.4068L430.648 49.1227C428.023 48.4795 425.247 49.075 423.12 50.7376C420.993 52.4002 419.75 54.9454 419.75 57.6402V57.6402Z" fill="#EDEEEF"/>
    <path d="M419.75 64.6631C419.75 70.0937 423.469 74.8227 428.759 76.1189L439.97 78.8658" stroke="#33393F" stroke-width="1.5" stroke-linecap="round" stroke-linejoin="round"/>
    <path d="M431.173 63.2693C431.472 63.2693 431.714 63.028 431.714 62.7304C431.714 62.4327 431.472 62.1914 431.173 62.1914C430.875 62.1914 430.633 62.4327 430.633 62.7304C430.633 63.028 430.875 63.2693 431.173 63.2693Z" fill="#33393F"/>
    <path d="M422.869 63.2693C423.167 63.2693 423.409 63.028 423.409 62.7304C423.409 62.4327 423.167 62.1914 422.869 62.1914C422.57 62.1914 422.328 62.4327 422.328 62.7304C422.328 63.028 422.57 63.2693 422.869 63.2693Z" fill="#33393F"/>
    <path d="M425.305 65.9454V57.6396H422.109" stroke="#33393F" stroke-width="1.5" stroke-linecap="round" stroke-linejoin="round"/>
    <path d="M432.19 57.6392H428.016" stroke="#33393F" stroke-width="1.5" stroke-linecap="round" stroke-linejoin="round"/>
    <path d="M438.637 61.8954V64.7798C440.197 64.7798 441.463 63.5185 441.463 61.9626C441.463 61.8762 441.459 61.7907 441.451 61.7062C441.293 59.9568 438.637 60.1389 438.637 61.8954Z" fill="#EDEEEF"/>
    <path d="M438.637 64.7791C440.197 64.7791 441.463 63.5178 441.463 61.9619" stroke="#33393F" stroke-width="1.5" stroke-linecap="round" stroke-linejoin="round"/>
    <path d="M427.586 66.916C427.937 67.2659 428.413 67.4624 428.909 67.4624C429.405 67.4624 429.881 67.2659 430.232 66.916" stroke="#00BC87" stroke-width="1.5" stroke-linecap="round" stroke-linejoin="round"/>
    <path d="M425.305 65.9521L427.13 66.3995" stroke="#33393F" stroke-width="1.5" stroke-linecap="round" stroke-linejoin="round"/>
    <path d="M400.914 108.004V152.021L463.465 167.347V118.324C463.465 100.941 451.561 85.8044 434.628 81.6555H434.628C426.507 79.6658 417.92 81.5079 411.339 86.6511C404.758 91.7943 400.914 99.6677 400.914 108.004V108.004Z" fill="#00BC87"/>
    <path d="M429.846 337.819L410.355 151.088" stroke="#33393F" stroke-width="1.5" stroke-linecap="round" stroke-linejoin="round"/>
    <path d="M419.323 62.7301L413.129 59.3444C413.129 59.3444 422.182 33.5041 440.765 44.9042C459.348 56.3043 439.972 69.3195 439.972 69.3195" stroke="#33393F" stroke-width="1.5" stroke-linecap="round" stroke-linejoin="round"/>
    <path d="M418.879 58.2679C418.879 58.2679 431.175 56.292 435.457 50.2998C435.457 50.2998 433.715 58.9761 438.876 61.092" stroke="#33393F" stroke-width="1.5" stroke-linecap="round" stroke-linejoin="round"/>
    <path d="M448.825 88.4985C448.825 88.4985 470.023 103.359 479.171 124.102C479.171 124.102 475.931 85.9448 480.505 79.6748C482.92 76.3648 485.652 80.8581 485.652 80.8581C485.652 80.8581 497.659 75.8747 498.04 77.7747C498.421 79.6748 491.369 86.8948 491.369 86.8948C491.369 86.8948 501.662 134.129 493.657 147.619C485.652 161.109 445.055 134.205 445.055 134.205" stroke="#33393F" stroke-width="1.5" stroke-linecap="round" stroke-linejoin="round"/>
    <path d="M449.426 136.948C449.426 136.948 449.511 155.473 463.466 163.353V144.62L449.426 136.948Z" fill="#33393F"/>
    <path d="M411.6 86.4557C411.6 86.4557 392.768 100.369 389.21 114.374C389.21 114.374 383.365 76.4679 380.061 77.3432C376.758 78.2185 375.995 80.8586 375.995 80.8586C375.995 80.8586 365.576 75.4247 364.051 77.3283C362.527 79.2319 373.2 89.6186 373.2 89.6186C373.2 89.6186 366.743 134.918 374.217 141.046C389.972 153.966 400.918 135.472 400.918 135.472" stroke="#33393F" stroke-width="1.5" stroke-linecap="round" stroke-linejoin="round"/>
    <path d="M305.242 345.663H549.744" stroke="#33393F" stroke-width="1.5" stroke-linecap="round" stroke-linejoin="round"/>
</svg>
